<svg width="24" height="24" viewBox="0 0 24 24" fill="none" xmlns="http://www.w3.org/2000/svg">
<g clip-path="url(#clip0_548_25492)">
<path d="M13.816 11.9999L23.6217 2.1942C23.8488 1.95047 23.9725 1.6281 23.9666 1.29502C23.9607 0.961928 23.8258 0.644125 23.5902 0.40856C23.3547 0.172994 23.0369 0.0380597 22.7038 0.0321827C22.3707 0.0263058 22.0483 0.149946 21.8046 0.377054L11.9989 10.1828L2.19315 0.377054C1.94943 0.149946 1.62706 0.0263058 1.29397 0.0321827C0.960885 0.0380597 0.643082 0.172994 0.407517 0.40856C0.171952 0.644125 0.037017 0.961928 0.0311401 1.29502C0.0252631 1.6281 0.148903 1.95047 0.376011 2.1942L10.1817 11.9999L0.376011 21.8056C0.135239 22.0467 0 22.3735 0 22.7142C0 23.0549 0.135239 23.3817 0.376011 23.6228C0.617084 23.8635 0.943868 23.9988 1.28458 23.9988C1.6253 23.9988 1.95208 23.8635 2.19315 23.6228L11.9989 13.8171L21.8046 23.6228C22.0457 23.8635 22.3724 23.9988 22.7132 23.9988C23.0539 23.9988 23.3807 23.8635 23.6217 23.6228C23.8625 23.3817 23.9977 23.0549 23.9977 22.7142C23.9977 22.3735 23.8625 22.0467 23.6217 21.8056L13.816 11.9999Z" fill="white"/>
</g>
<defs>
<clipPath id="clip0_548_25492">
<rect width="24" height="24" fill="white"/>
</clipPath>
</defs>
</svg>
