<svg width="32" height="32" viewBox="0 0 32 32" fill="none" xmlns="http://www.w3.org/2000/svg">
<path d="M22.7997 2.66602H17.1997C13.0889 2.66602 11.161 4.1248 10.7593 7.65137C10.6753 8.38914 11.2863 8.99935 12.0289 8.99935H14.7997C20.3997 8.99935 22.9997 11.5993 22.9997 17.1993V19.9701C22.9997 20.7127 23.6099 21.3237 24.3477 21.2397C27.8742 20.838 29.333 18.9101 29.333 14.7993V9.19935C29.333 4.53268 27.4664 2.66602 22.7997 2.66602Z" fill="#32012F"/>
<path d="M14.7974 10.666H9.1974C4.53073 10.666 2.66406 12.5327 2.66406 17.1993V22.7993C2.66406 27.466 4.53073 29.3327 9.1974 29.3327H14.7974C19.4641 29.3327 21.3307 27.466 21.3307 22.7993V17.1993C21.3307 12.5327 19.4641 10.666 14.7974 10.666ZM16.3841 18.1993L11.4374 23.146C11.2507 23.3327 11.0107 23.426 10.7574 23.426C10.5041 23.426 10.2641 23.3327 10.0774 23.146L7.5974 20.666C7.22406 20.2927 7.22406 19.6927 7.5974 19.3193C7.97073 18.946 8.57073 18.946 8.94406 19.3193L10.7441 21.1193L15.0241 16.8393C15.3974 16.466 15.9974 16.466 16.3707 16.8393C16.7441 17.2127 16.7574 17.826 16.3841 18.1993Z" fill="#32012F"/>
</svg>
