<svg width="33" height="33" viewBox="0 0 33 33" fill="none" xmlns="http://www.w3.org/2000/svg">
<path d="M21.8307 17.6544V23.2544C21.8307 27.9211 19.9641 29.7878 15.2974 29.7878H9.6974C5.03073 29.7878 3.16406 27.9211 3.16406 23.2544V17.6544C3.16406 12.9878 5.03073 11.1211 9.6974 11.1211H15.2974C19.9641 11.1211 21.8307 12.9878 21.8307 17.6544Z" fill="#32012F"/>
<path d="M23.2997 3.12109H17.6997C13.5889 3.12109 11.661 4.57988 11.2593 8.10644C11.1753 8.84422 11.7863 9.45443 12.5289 9.45443H15.2997C20.8997 9.45443 23.4997 12.0544 23.4997 17.6544V20.4252C23.4997 21.1678 24.1099 21.7788 24.8477 21.6948C28.3742 21.2931 29.833 19.3652 29.833 15.2544V9.65443C29.833 4.98776 27.9664 3.12109 23.2997 3.12109Z" fill="#32012F"/>
</svg>
