<svg width="25" height="25" viewBox="0 0 25 25" fill="none" xmlns="http://www.w3.org/2000/svg">
<path d="M20.8447 10.69H17.9547C15.5847 10.69 13.6547 8.76 13.6547 6.39V3.5C13.6547 2.95 13.2047 2.5 12.6547 2.5H8.41473C5.33473 2.5 2.84473 4.5 2.84473 8.07V16.93C2.84473 20.5 5.33473 22.5 8.41473 22.5H16.2747C19.3547 22.5 21.8447 20.5 21.8447 16.93V11.69C21.8447 11.14 21.3947 10.69 20.8447 10.69ZM12.6247 16.28L10.6247 18.28C10.5547 18.35 10.4647 18.41 10.3747 18.44C10.2847 18.48 10.1947 18.5 10.0947 18.5C9.99473 18.5 9.90473 18.48 9.81473 18.44C9.73473 18.41 9.65473 18.35 9.59473 18.29C9.58473 18.28 9.57473 18.28 9.57473 18.27L7.57473 16.27C7.28473 15.98 7.28473 15.5 7.57473 15.21C7.86473 14.92 8.34473 14.92 8.63473 15.21L9.34473 15.94V11.75C9.34473 11.34 9.68473 11 10.0947 11C10.5047 11 10.8447 11.34 10.8447 11.75V15.94L11.5647 15.22C11.8547 14.93 12.3347 14.93 12.6247 15.22C12.9147 15.51 12.9147 15.99 12.6247 16.28Z" fill="#F97300"/>
<path d="M17.7744 9.31048C18.7244 9.32048 20.0444 9.32048 21.1744 9.32048C21.7444 9.32048 22.0444 8.65048 21.6444 8.25048C20.2044 6.80048 17.6244 4.19048 16.1444 2.71048C15.7344 2.30048 15.0244 2.58048 15.0244 3.15048V6.64048C15.0244 8.10048 16.2644 9.31048 17.7744 9.31048Z" fill="#F97300"/>
</svg>
