<svg width="24" height="24" viewBox="0 0 24 24" fill="none" xmlns="http://www.w3.org/2000/svg">
<path d="M12 18.75C11.59 18.75 11.25 18.41 11.25 18V17C11.25 16.59 11.59 16.25 12 16.25C12.41 16.25 12.75 16.59 12.75 17V18C12.75 18.41 12.41 18.75 12 18.75Z" fill="#413C34"/>
<path d="M12 22.75C11.59 22.75 11.25 22.41 11.25 22V21C11.25 20.59 11.59 20.25 12 20.25C12.41 20.25 12.75 20.59 12.75 21V22C12.75 22.41 12.41 22.75 12 22.75Z" fill="#413C34"/>
<path d="M2.0001 22.75C1.9401 22.75 1.8801 22.74 1.8201 22.73C1.4201 22.63 1.1701 22.22 1.2701 21.82L2.2701 17.82C2.3701 17.42 2.7701 17.17 3.1801 17.27C3.5801 17.37 3.8301 17.78 3.7301 18.18L2.7301 22.18C2.6401 22.52 2.3401 22.75 2.0001 22.75Z" fill="#413C34"/>
<path d="M21.7526 22.5026C21.4126 22.5026 21.1126 22.2726 21.0226 21.9326L20.0226 17.9326C19.9226 17.5326 20.1626 17.1226 20.5726 17.0226C20.9726 16.9226 21.3826 17.1626 21.4826 17.5726L22.4826 21.5726C22.5826 21.9726 22.3426 22.3826 21.9326 22.4826C21.8726 22.4926 21.8126 22.5026 21.7526 22.5026Z" fill="#413C34"/>
<path d="M19.1402 5.3C19.1402 5.6 18.8902 5.84 18.6002 5.84H5.53023C5.23023 5.84 4.99023 5.59 4.99023 5.3C4.99023 5 5.24023 4.76 5.53023 4.76H6.27023L6.55023 3.45C6.81023 2.17 7.35023 1 9.51023 1H14.6002C16.7602 1 17.3102 2.17 17.5702 3.44L17.8502 4.75H18.5902C18.8902 4.75 19.1402 5 19.1402 5.3Z" fill="#413C34"/>
<path d="M19.4501 9.39999C19.3401 8.19999 19.0201 6.92999 16.6901 6.92999H7.43014C5.10014 6.92999 4.79014 8.20999 4.67014 9.39999L4.26014 13.82C4.21014 14.37 4.39014 14.92 4.77014 15.34C5.16014 15.76 5.70014 16 6.28014 16H7.64014C8.82014 16 9.04014 15.33 9.19014 14.88L9.34014 14.44C9.51014 13.94 9.55014 13.82 10.2001 13.82H13.9201C14.5701 13.82 14.5901 13.89 14.7801 14.44L14.9301 14.88C15.0701 15.33 15.3001 16 16.4701 16H17.8301C18.4001 16 18.9501 15.76 19.3401 15.34C19.7201 14.93 19.9001 14.37 19.8501 13.82L19.4501 9.39999ZM9.88014 10.92H7.71014C7.41014 10.92 7.17014 10.67 7.17014 10.38C7.17014 10.09 7.42014 9.83999 7.71014 9.83999H9.89014C10.1901 9.83999 10.4301 10.09 10.4301 10.38C10.4301 10.67 10.1801 10.92 9.88014 10.92ZM16.4101 10.92H14.2301C13.9301 10.92 13.6901 10.67 13.6901 10.38C13.6901 10.09 13.9401 9.83999 14.2301 9.83999H16.4101C16.7101 9.83999 16.9501 10.09 16.9501 10.38C16.9501 10.67 16.7101 10.92 16.4101 10.92Z" fill="#413C34"/>
</svg>
