<svg width="25" height="24" viewBox="0 0 25 24" fill="none" xmlns="http://www.w3.org/2000/svg">
<g id="fi-rr-arrow-small-right">
<path id="Vector" d="M18.0469 12.0006C18.042 11.4744 17.83 10.9715 17.4569 10.6006L13.1669 6.30056C12.9795 6.11431 12.7261 6.00977 12.4619 6.00977C12.1977 6.00977 11.9442 6.11431 11.7569 6.30056C11.6631 6.39352 11.5888 6.50412 11.538 6.62598C11.4872 6.74784 11.4611 6.87855 11.4611 7.01056C11.4611 7.14257 11.4872 7.27327 11.538 7.39513C11.5888 7.51699 11.6631 7.62759 11.7569 7.72056L15.0469 11.0006H5.04688C4.78166 11.0006 4.5273 11.1059 4.33977 11.2934C4.15223 11.481 4.04688 11.7353 4.04688 12.0006C4.04688 12.2658 4.15223 12.5201 4.33977 12.7077C4.5273 12.8952 4.78166 13.0006 5.04688 13.0006H15.0469L11.7569 16.2905C11.5686 16.4775 11.4623 16.7316 11.4613 16.997C11.4604 17.2624 11.5649 17.5172 11.7519 17.7055C11.9389 17.8938 12.193 18.0002 12.4583 18.0011C12.7237 18.002 12.9786 17.8975 13.1669 17.7105L17.4569 13.4105C17.8325 13.0372 18.0446 12.5301 18.0469 12.0006Z" fill="white"/>
</g>
</svg>
