<svg width="84" height="37" viewBox="0 0 84 37" fill="none" xmlns="http://www.w3.org/2000/svg">
<rect width="84" height="37" rx="4" fill="white"/>
<g clip-path="url(#clip0_312_12362)">
<mask id="mask0_312_12362" style="mask-type:luminance" maskUnits="userSpaceOnUse" x="4" y="8" width="71" height="22">
<path d="M4.0166 8H74.9837V30H4.0166V8Z" fill="white"/>
</mask>
<g mask="url(#mask0_312_12362)">
<mask id="mask1_312_12362" style="mask-type:luminance" maskUnits="userSpaceOnUse" x="4" y="8" width="71" height="22">
<path d="M4.0166 8H74.9837V30H4.0166V8Z" fill="white"/>
</mask>
<g mask="url(#mask1_312_12362)">
<path d="M33.0198 8.00002L29.4641 29.954H35.1501L38.7136 8.00002H33.0198ZM50.1941 16.9397C48.1723 15.9728 46.987 15.3129 46.987 14.3153C46.987 13.3178 48.0173 12.489 50.2639 12.489C51.7187 12.4487 53.1649 12.7237 54.5013 13.2948L55.0203 13.525L55.795 8.92085C54.1613 8.30884 52.4288 7.9968 50.6822 8.00002C45.0736 8.00002 41.1073 10.9236 41.0841 15.0673C41.0376 18.1368 43.9116 19.8173 46.0729 20.8302C48.2342 21.8431 49.0244 22.5797 49.0244 23.4775C49.0244 24.9048 47.2427 25.5571 45.6004 25.5571C43.756 25.6061 41.9264 25.2194 40.2629 24.429L39.4883 24.0914L38.7136 28.8643C40.746 29.6238 42.9014 30.0087 45.0736 30C51.0463 30 54.9351 27.1455 54.9816 22.7332C54.9816 20.316 53.4865 18.459 50.2019 16.9397M70.3897 8.06909H65.9896C64.6339 8.06909 63.6036 8.45276 63.0149 9.834L54.5555 29.954H60.5669L62.2092 25.5954H68.8558L69.708 29.9693H74.9834L70.3897 8.06909ZM63.8282 21.1985C63.9444 21.1985 66.1522 14.0928 66.1522 14.0928L67.8875 21.1985H63.8282ZM24.7076 8.00002L19.13 22.9174L18.5181 19.9707C17.4878 16.579 14.2574 12.8957 10.6475 11.0694L15.7525 29.9386H21.7794L30.7268 8.00002H24.7076Z" fill="#2494B8"/>
<path d="M16.6436 10.8315C16.447 10.0109 15.972 9.28208 15.298 8.76671C14.624 8.25134 13.7919 7.98069 12.9407 7.99999H4.10956L4.0166 8.41436C10.9034 10.0949 16.6901 15.2745 18.5648 20.1395L16.6436 10.8315Z" fill="#EAC264"/>
</g>
</g>
</g>
<defs>
<clipPath id="clip0_312_12362">
<rect width="71" height="22" fill="white" transform="translate(4 8)"/>
</clipPath>
</defs>
</svg>
