<svg width="84" height="37" viewBox="0 0 84 37" fill="none" xmlns="http://www.w3.org/2000/svg">
<rect width="84" height="37" rx="4" fill="white"/>
<g clip-path="url(#clip0_312_12313)">
<mask id="mask0_312_12313" style="mask-type:luminance" maskUnits="userSpaceOnUse" x="11" y="8" width="61" height="22">
<path d="M11.0137 8H71.9855V30H11.0137V8Z" fill="white"/>
</mask>
<g mask="url(#mask0_312_12313)">
<mask id="mask1_312_12313" style="mask-type:luminance" maskUnits="userSpaceOnUse" x="11" y="8" width="61" height="22">
<path d="M11.0137 8H71.9855V30H11.0137V8Z" fill="white"/>
</mask>
<g mask="url(#mask1_312_12313)">
<path d="M35.6899 8H32.5628L27.2496 22.7515C27.1168 23.1161 26.9453 23.4651 26.7383 23.7924H28.8947C29.1798 23.7719 29.4556 23.6806 29.6973 23.5264C29.9391 23.3722 30.1394 23.1601 30.2804 22.9088L30.399 22.6617L31.6958 19.0524C33.3334 14.5745 35.5195 8.49421 35.6899 8Z" fill="#939598"/>
<path d="M68.851 15.8998L67.5542 19.5091C67.4353 19.8173 67.2335 20.0857 66.9716 20.2842C66.7097 20.4827 66.3982 20.6032 66.0721 20.6323H63.8786C64.1063 20.2782 64.2928 19.8988 64.4344 19.5016L65.7386 15.8998H62.6041L61.3073 19.5016C61.1895 19.8112 60.9882 20.0812 60.7262 20.2811C60.4643 20.4809 60.1521 20.6026 59.8252 20.6323H57.6318C57.8529 20.2783 58.0367 19.9018 58.1801 19.5091L59.4844 15.8998H56.3498L55.053 19.5091C54.9348 19.8177 54.7333 20.0867 54.4712 20.2853C54.2092 20.4838 53.8973 20.6041 53.5709 20.6323H43.5522C43.7753 20.2861 43.9616 19.9172 44.108 19.5315L44.4341 18.603C45.2862 16.2368 44.0784 14.3198 41.7367 14.3198H38.1798L37.046 17.4723H40.6029C40.7423 17.4515 40.8846 17.4712 41.0132 17.5292C41.1418 17.5872 41.2514 17.681 41.3292 17.7996C41.4069 17.9183 41.4496 18.0568 41.4523 18.1991C41.4549 18.3414 41.4173 18.4815 41.344 18.603L40.9957 19.5315C40.8779 19.8385 40.6759 20.1052 40.4134 20.3001C40.1509 20.4951 39.8387 20.6104 39.5136 20.6323H34.3264L33.1852 23.7923H64.9235C66.1828 23.7047 67.3916 23.2579 68.4095 22.5037C69.4274 21.7495 70.2126 20.7188 70.6739 19.5315L71.9855 15.8998H68.851ZM19.2761 23.7923H11.0137L12.1474 20.6323H20.4099C20.7433 20.6096 21.0636 20.4922 21.3337 20.2934C21.6038 20.0947 21.8128 19.8227 21.9364 19.5091L22.2551 18.603C22.3284 18.4815 22.366 18.3414 22.3634 18.1991C22.3607 18.0568 22.318 17.9183 22.2403 17.7996C22.1625 17.681 22.0529 17.5872 21.9243 17.5292C21.7957 17.4712 21.6534 17.4515 21.514 17.4723H16.4158L17.5495 14.3198H22.6775C25.0191 14.3198 26.227 16.2368 25.3822 18.603L25.0932 19.5091C24.6258 20.7014 23.8346 21.7361 22.8107 22.4939C21.7868 23.2517 20.5718 23.7018 19.3058 23.7923" fill="#EE7623"/>
<path d="M33.1777 27.3939H32.7923L32.6515 27.7908H33.0369L33.1777 27.3939ZM33.9854 28.5621C33.9409 28.7179 33.8405 28.8515 33.7038 28.9365C33.5798 28.9894 33.4454 29.0125 33.3111 29.0039H32.3477C32.1923 29.0201 32.0365 28.9774 31.9105 28.8841C31.8068 28.7942 31.7994 28.6295 31.9105 28.3973L32.1328 27.7908H31.7401L31.5252 28.3973C31.2806 29.0713 31.5252 29.4082 32.2662 29.4082H33.5482C33.7156 29.4056 33.8778 29.3489 34.0111 29.2465C34.1444 29.1442 34.2419 29.0014 34.2892 28.8391L34.6671 27.7908H34.2818L33.9854 28.5621ZM33.852 27.3939H33.4667L33.3259 27.7908H33.7038L33.852 27.3939ZM36.4827 28.622C36.5281 28.4907 36.6044 28.3725 36.705 28.2775C36.751 28.2288 36.8062 28.1899 36.8672 28.1629C36.9283 28.1359 36.994 28.1214 37.0607 28.1203C37.2484 28.1203 37.3373 28.2101 37.3274 28.3898L37.7276 28.2326C37.7259 28.1663 37.7107 28.101 37.6828 28.0409C37.6548 27.9809 37.6149 27.9273 37.5654 27.8837C37.516 27.8401 37.4581 27.8073 37.3954 27.7874C37.3328 27.7676 37.2667 27.7611 37.2015 27.7683C36.9544 27.7723 36.7162 27.8622 36.5271 28.0229C36.3259 28.1793 36.172 28.3894 36.0825 28.6295C36.037 28.7486 36.0192 28.8767 36.0306 29.0039H35.3859C35.2905 29.0149 35.1942 28.9938 35.1118 28.944C35.0525 28.8841 35.0599 28.7717 35.1118 28.5995L35.6527 27.1019H35.26L34.6671 28.7418C34.637 28.8154 34.6214 28.8943 34.6214 28.9739C34.6214 29.0536 34.637 29.1325 34.6671 29.206C34.7026 29.2717 34.7572 29.3248 34.8234 29.3583C34.8896 29.3917 34.9644 29.4039 35.0377 29.3932H37.32L37.4682 28.9889H36.4753C36.4493 28.9286 36.436 28.8636 36.436 28.7979C36.436 28.7322 36.4493 28.6673 36.4753 28.607M41.8625 27.0645H41.4846L41.3364 27.4613H41.7217L41.8625 27.0645ZM41.3957 27.7534C41.1528 27.7657 40.9189 27.8506 40.7237 27.9972C40.5285 28.1438 40.3807 28.3456 40.299 28.577C40.2506 28.7137 40.2329 28.8595 40.2471 29.0039H39.3208L39.469 28.592C39.6394 28.1203 39.469 27.7908 39.0244 27.7908C38.7881 27.7987 38.5596 27.8778 38.3681 28.0179C38.1767 28.158 38.031 28.3527 37.9499 28.577C37.7795 29.0488 37.9944 29.4082 38.4242 29.4082H38.7947C38.745 29.4938 38.6733 29.564 38.5871 29.6115C38.501 29.659 38.4036 29.6819 38.3056 29.6778L38.1944 29.9923C38.3967 30.0056 38.5982 29.957 38.7727 29.8528C38.9472 29.7486 39.0866 29.5937 39.1726 29.4082H40.8251C41.0656 29.3975 41.2974 29.3139 41.4904 29.1684C41.6833 29.0228 41.8285 28.822 41.907 28.592C42.0774 28.1203 41.907 27.7534 41.4253 27.7534M38.9206 29.0039H38.5724C38.3649 29.0039 38.2685 28.8017 38.3575 28.5546C38.395 28.4423 38.4654 28.3442 38.5594 28.2733C38.6533 28.2024 38.7664 28.1621 38.8836 28.1577C39.0911 28.1577 39.1578 28.3075 39.0985 28.5171L38.9206 29.0039ZM40.9659 29.0413C40.7288 29.0413 40.6472 28.8316 40.7362 28.577C40.771 28.4551 40.8411 28.3464 40.9375 28.265C41.0339 28.1836 41.1522 28.1332 41.2771 28.1203C41.5142 28.1203 41.6032 28.315 41.5068 28.592C41.4717 28.7131 41.4013 28.8207 41.3048 28.9008C41.2083 28.9809 41.0902 29.0299 40.9659 29.0413ZM48.6504 28.6295C48.6211 28.7188 48.5813 28.8043 48.5318 28.8841C48.494 28.9247 48.4479 28.9564 48.3967 28.9771C48.3455 28.9978 48.2904 29.007 48.2354 29.0039H47.3239C47.4333 28.8881 47.5123 28.7465 47.5536 28.592L48.0872 27.0944H47.7018L47.1609 28.592C47.13 28.6896 47.0824 28.7808 47.0201 28.8616C46.9853 28.9024 46.942 28.935 46.8933 28.957C46.8447 28.979 46.7918 28.9899 46.7385 28.9889H46.1383V28.8841C46.1812 28.7915 46.2035 28.6905 46.2035 28.5883C46.2035 28.486 46.1812 28.3851 46.1383 28.2925C46.0906 28.2088 46.0193 28.1413 45.9335 28.0986C45.8478 28.0559 45.7514 28.04 45.6566 28.0529C45.4172 28.0533 45.1849 28.1351 44.9971 28.285C44.8 28.4327 44.6505 28.6359 44.5673 28.8691C44.5505 28.9075 44.5381 28.9477 44.5302 28.9889H43.767C43.9819 28.3749 43.8855 27.993 43.4706 27.8357C43.4092 27.8088 43.3443 27.7911 43.2779 27.7833H42.9148L42.7814 28.1502C42.8972 28.1382 43.0139 28.1382 43.1297 28.1502C43.4557 28.2251 43.5373 28.4947 43.3668 28.9664H42.0922L41.944 29.3708H44.5895C44.6252 29.4771 44.6947 29.5686 44.7872 29.6309C44.8797 29.6932 44.9899 29.7228 45.1008 29.7152C45.3773 29.711 45.642 29.6013 45.8419 29.4082H48.1613C48.3498 29.409 48.5332 29.3461 48.6823 29.2294C48.8314 29.1127 48.9375 28.949 48.9838 28.7642L49.584 27.1094H49.1839L48.6504 28.6295ZM45.5825 29.2135C45.495 29.2991 45.3782 29.3474 45.2564 29.3483C45.0119 29.3483 44.9304 29.1387 45.0267 28.8766C45.0711 28.7592 45.1422 28.654 45.2342 28.5696C45.3228 28.4801 45.4424 28.4291 45.5677 28.4273C45.6183 28.4201 45.6698 28.4302 45.7141 28.456C45.7584 28.4818 45.7929 28.5217 45.8122 28.5696C45.8484 28.6738 45.8484 28.7873 45.8122 28.8915C45.7719 29.0153 45.7004 29.1263 45.6047 29.2135M51.4663 27.8507C51.4037 27.8274 51.3393 27.8098 51.2736 27.7983H50.9105L50.7771 28.1652C50.8904 28.1528 51.0047 28.1528 51.118 28.1652C51.4514 28.2401 51.533 28.5097 51.3625 28.9814H50.0879L49.9397 29.3858H51.6145L51.7553 28.9814C51.9776 28.3674 51.8812 27.9855 51.4663 27.8282M51.9776 29.4082H52.3629L53.2003 27.1094H52.8075L51.9776 29.4082ZM57.6983 28.607C57.602 28.8691 57.4612 29.0039 57.2537 29.0039H56.8758C56.9888 28.8809 57.0702 28.7317 57.1129 28.5696L57.3945 27.8208H56.9943L56.6979 28.637C56.6016 28.899 56.4608 29.0338 56.2607 29.0338H55.8902C55.9885 28.9125 56.0615 28.7724 56.1051 28.622L56.3867 27.8732H55.9939L55.7124 28.6669C55.6086 28.944 55.4604 29.0862 55.2603 29.0862H54.5193C54.7416 28.4722 54.6453 28.0903 54.2303 27.9331C54.1678 27.9097 54.1033 27.8922 54.0376 27.8807H53.6745L53.5411 28.2476C53.6544 28.2351 53.7687 28.2351 53.882 28.2476C54.2155 28.3225 54.297 28.592 54.1266 29.0638H52.8446L52.6964 29.4681H57.1425C57.3716 29.4424 57.5878 29.3481 57.7634 29.1974C57.939 29.0466 58.066 28.8462 58.1281 28.622L58.4097 27.8732H57.9947L57.6983 28.607ZM61.2997 27.7908H60.3067C60.0465 27.8142 59.7994 27.917 59.5983 28.0855C59.3972 28.254 59.2514 28.4802 59.1804 28.7343L58.7209 29.9998H59.1137L59.5435 28.8167C59.6843 28.4273 59.9362 28.1952 60.203 28.1952H60.492C60.3816 28.3169 60.296 28.4594 60.24 28.6145C60.077 29.0787 60.24 29.4457 60.7365 29.4457C60.9774 29.4324 61.2089 29.347 61.4016 29.2003C61.5942 29.0536 61.7394 28.8523 61.8184 28.622C61.9889 28.1577 61.8184 27.7908 61.3368 27.7908M60.8773 29.0787C60.6402 29.0787 60.5513 28.8691 60.6476 28.607C60.6828 28.4859 60.7532 28.3783 60.8496 28.2982C60.9461 28.2181 61.0642 28.1691 61.1886 28.1577C61.4331 28.1577 61.5146 28.3599 61.4183 28.622C61.3817 28.743 61.3111 28.8506 61.215 28.9317C61.119 29.0128 61.0016 29.0639 60.8773 29.0787ZM65.8348 27.0719H65.4495L65.3087 27.4688H65.694L65.8348 27.0719ZM67.9097 27.0719H67.5318L67.3835 27.4688H67.7689L67.9097 27.0719Z" fill="#939598"/>
<path d="M67.2648 27.791L66.961 28.6296C66.9317 28.719 66.8919 28.8045 66.8424 28.8842C66.8047 28.9248 66.7586 28.9566 66.7074 28.9773C66.6562 28.998 66.6011 29.0071 66.546 29.004H65.9162C66.1978 28.1953 66.0421 27.7835 65.4419 27.7835C64.9631 27.8303 64.5165 28.048 64.1822 28.3975L64.7009 27.117H64.3155L63.6264 29.004H62.8261C62.7282 29.0162 62.6292 28.9951 62.5445 28.9441C62.4852 28.8842 62.4926 28.7719 62.5445 28.5997L63.0854 27.1021H62.6927L62.1443 28.7569C62.1142 28.8305 62.0986 28.9094 62.0986 28.989C62.0986 29.0687 62.1142 29.1476 62.1443 29.2212C62.1798 29.2868 62.2344 29.34 62.3006 29.3734C62.3668 29.4069 62.4416 29.4191 62.5148 29.4084H66.546C66.7282 29.4011 66.9031 29.3344 67.0447 29.2183C67.1863 29.1023 67.2869 28.943 67.3315 28.7644L67.6798 27.791H67.2648ZM65.5086 29.004H63.9376C64.255 28.5497 64.737 28.2403 65.2789 28.1429C65.6198 28.1429 65.7161 28.4349 65.5531 28.8917L65.5086 29.0115" fill="#939598"/>
</g>
</g>
</g>
<defs>
<clipPath id="clip0_312_12313">
<rect width="61" height="22" fill="white" transform="translate(11 8)"/>
</clipPath>
</defs>
</svg>
