<svg width="97" height="76" viewBox="0 0 97 76" fill="none" xmlns="http://www.w3.org/2000/svg">
<path d="M0 12C0 5.37258 5.37258 0 12 0H85C91.6274 0 97 5.37258 97 12V64C97 70.6274 91.6274 76 85 76H12C5.37258 76 0 70.6274 0 64V12Z" fill="white"/>
<path d="M43.5801 28.9388C41.9579 26.7466 40.0266 25.5168 38.038 24.5285C37.7158 24.3684 37.3917 24.2145 37.0667 24.0635C38.0086 24.4334 38.9188 24.8562 40.3737 25.6845C41.9696 26.593 43.4038 28.531 44.3101 29.8709C44.4226 30.0373 44.5367 30.2036 44.6515 30.3694C44.2985 29.9123 43.9444 29.431 43.5801 28.9388Z" fill="#43565C"/>
<path fill-rule="evenodd" clip-rule="evenodd" d="M27.5014 32.4875C27.5703 33.0669 27.6545 33.6443 27.7538 34.2191C31.7204 47.46 36.3352 48.4432 47.6772 48.9443C56.4876 49.3333 61.531 47.1509 64.5012 44.4181C67.474 41.683 68.3875 38.3816 68.908 36.4907C69.282 35.1317 69.5296 33.8197 69.6384 32.4879L75.9541 32.4875C75.6977 36.7642 74.3508 40.9037 71.5042 44.5675C67.9845 48.8945 62.4814 50.8846 57.7195 51.7894C52.955 52.6947 48.9115 52.5182 48.291 52.4985C47.6715 52.4789 45.4059 52.5109 42.6146 52.2695C39.8225 52.0278 36.496 51.5123 33.7609 50.3933C32.5559 49.9004 31.5147 49.3943 30.5986 48.8623C28.1215 47.3728 25.831 45.2063 24.711 43.6159C23.3051 41.6194 21.6175 38.1222 21.1348 32.4881L27.5014 32.4875ZM48.1446 32.4875C48.3377 32.7545 48.489 32.9103 48.5711 32.9314C48.6198 32.9225 48.6762 32.8828 48.7595 32.7829C48.8242 32.7052 48.8947 32.6043 48.9695 32.4879L54.4847 32.4875C53.5324 33.1995 52.7079 34.014 51.9321 34.9891C50.6642 36.5827 49.939 38.1501 49.7072 38.9137C49.4659 39.7086 49.0071 40.3785 48.9357 40.4779C48.851 40.596 48.4624 40.6965 48.3322 40.4705C48.1983 40.351 48.0618 40.1049 47.9369 39.7826C47.7738 39.3622 47.5702 38.7041 47.1591 37.8767C46.7502 37.0536 46.1343 36.0603 45.1447 34.9642C44.2904 34.0179 43.4017 33.1883 42.4939 32.4879L48.1446 32.4875Z" fill="#657681"/>
<path fill-rule="evenodd" clip-rule="evenodd" d="M21.1348 32.4875C21.0478 31.4727 21 30.388 21 29.2302V29.1941L21.0002 29.159L21.0003 29.1238L21.0005 29.0888C21.0435 23.7461 23.5013 18.9016 25.2923 16.8168C25.5385 16.5302 26.442 15.4957 27.2223 14.7624C29.4653 12.655 35.5312 8.65787 49.0502 9.02346C56.739 9.04118 61.4218 10.0498 64.5901 11.4217C66.1749 12.108 67.3783 12.8843 68.3882 13.6702C69.3938 14.4532 70.2069 15.2459 71.0147 15.9693L71.0364 15.9887L71.0455 16.0162C71.0506 16.0318 74.8728 20.6214 75.7394 27.1174C75.9791 28.9149 76.0604 30.7127 75.9542 32.4869L69.6385 32.4874C69.7496 31.1279 69.716 29.7478 69.5245 28.2764C69.3899 27.5103 69.2491 26.8976 69.1474 26.4946C69.1696 26.4795 69.0112 26.6165 69.0112 26.6165C69.0112 26.6165 67.89 27.3098 62.4591 28.9431C58.848 30.0292 56.4064 31.0501 54.4848 32.4872L48.9696 32.4873C48.985 32.4637 49.0006 32.439 49.0163 32.4138C49.2021 32.1159 49.4008 31.752 49.5842 31.4537C49.9896 30.795 51.2206 29.0447 52.9706 27.4075C54.679 25.8092 58.7793 23.9265 61.8091 22.8033C62.3171 22.6152 62.8206 22.4156 63.3193 22.2044C64.566 21.6306 65.8002 20.9026 66.9068 20.1742C66.8342 19.892 66.7522 19.7108 66.7081 19.6193C66.7081 19.6193 66.655 19.4816 66.5313 19.2497C66.4054 19.0133 66.2057 18.6769 65.9107 18.2765C65.3203 17.4749 64.3463 16.4144 62.8148 15.3857C62.1031 14.8953 61.0726 14.3515 59.7232 13.7547C57.0364 12.6536 53.372 11.8382 48.4104 11.8382C40.7245 11.8382 36.2294 13.7729 33.6586 15.6962C32.3727 16.6581 31.5659 17.6188 31.0813 18.3371C30.8396 18.6952 30.6776 18.9937 30.5761 19.2027C30.4769 19.4071 30.3289 19.7007 30.3289 19.7007C30.1826 20.109 30.3486 20.2831 30.6471 20.4769C31.2509 20.8686 32.1559 21.4072 32.322 21.5057C33.0558 21.8692 34.0667 22.324 35.3594 22.8033C38.3891 23.9266 42.4895 25.8092 44.1979 27.4075C45.9499 29.0466 47.0962 30.8299 47.4995 31.4853C47.6824 31.7824 47.8981 32.1387 48.1022 32.4284C48.1166 32.4488 48.1308 32.4687 48.1447 32.4879L42.494 32.4874C41.2928 31.5608 40.0582 30.8599 38.8258 30.4141C36.6432 29.6243 34.4062 29.1344 33.4239 28.8348C32.9558 28.6919 32.3922 28.5128 31.9298 28.3643C31.6792 28.2837 31.4286 28.2025 31.1783 28.1209L31.0612 28.0805C29.9996 27.711 28.9116 27.2445 27.8859 26.6518C27.8459 26.6286 27.8208 26.6234 27.8073 26.623C27.7968 26.6222 27.7864 26.6252 27.7778 26.6312C27.7666 26.6385 27.7534 26.6512 27.737 26.6728C27.7183 26.6973 27.7019 26.7238 27.6856 26.7482C27.6264 26.8368 27.3943 28.7257 27.355 30.9582C27.3597 30.9582 27.39 31.5516 27.5014 32.4877L21.1349 32.4874" fill="#657681"/>
<path d="M27.5896 34.0083C31.5908 47.5519 36.2454 48.5616 47.6889 49.067C65.3505 49.8471 67.9883 40.3187 69.0299 36.5334C70.1795 32.3555 69.536 26.8923 69.536 26.8923L71.3297 32.9983L67.7882 44.4757L62.8207 48.1488L57.5314 49.7554L49.0685 50.7194L38.2601 49.7554L32.1429 46.6796L29.0611 42.2723L27.8654 38.0944C27.8654 38.0944 27.3593 35.1104 27.5896 34.0083Z" fill="#CCCCCC"/>
<path d="M69.2159 25.4669C69.2159 25.4669 71.1488 33.456 68.0643 39.8392C64.9798 46.2226 62.0453 50.1219 48.3353 50.1682C34.6253 50.2143 31.7778 44.5186 29.6598 40.573C27.5417 36.6273 27.2696 30.9778 27.2696 30.9778L27.0203 37.6141L30.9447 44.9806L34.2143 47.9671L38.8559 49.9833L51.2754 50.7632L56.7501 49.9833L62.5896 48.5159L68.157 43.8774L70.3621 35.9342L70.1361 27.1245C69.7935 25.7719 69.4867 25.2193 69.2159 25.4669Z" fill="#666666"/>
<path d="M24.8393 21.2825L26.1116 22.1149C26.1116 22.1149 25.9123 31.3574 25.8725 31.5139C25.8327 31.6703 25.8725 36.668 25.8725 36.668L27.5007 43.0101L26.7862 43.6066L23.3306 34.4861L23.6891 26.9537L24.4036 22.2342L24.8393 21.2825Z" fill="#808080"/>
<path d="M69.5916 25.7109C69.5916 25.7109 71.5538 33.9104 68.5857 40.2468C65.6177 46.5834 63.4785 49.7818 48.9658 50.3518C37.194 50.6464 34.1337 47.5873 31.958 45.3611C30.2369 43.6002 29.0396 40.654 29.0396 40.654C29.0396 40.654 23.7269 30.8418 24.2898 33.9371C25.0277 37.9928 26.2053 43.8044 30.7814 47.4522C33.5843 49.6866 39.2376 51.0638 39.2376 51.0638L48.092 51.7632L56.0145 51.2943L68.5456 46.4719L73.9044 34.7784C73.6548 29.3436 73.1299 24.8475 72.3298 21.2908L70.582 22.7968L69.5916 25.7109Z" fill="url(#paint0_linear_401_12010)"/>
<path d="M25.368 17.7775C25.368 17.7775 25.137 20.2431 25.6894 21.6907C24.943 22.8839 23.96 26.458 23.8326 29.3292C23.7052 32.2006 24.2426 39.6934 27.9506 43.9701C27.3316 45.1393 26.9628 45.8593 26.9628 45.8593C26.9628 45.8593 21.126 41.9046 21.126 29.2444C21.126 23.1385 24.4214 17.6518 26.1691 16.2041C25.6352 16.9491 25.368 17.7775 25.368 17.7775Z" fill="url(#paint1_radial_401_12010)"/>
<path d="M21.5454 31.6753C21.5454 31.6753 21.7131 37.8097 24.0101 41.7012C26.3072 45.5926 28.3796 48.0813 33.819 50.3066C39.2585 52.5318 47.0735 52.3644 48.3113 52.4036C49.5489 52.4428 64.4443 53.1084 71.4354 44.5138C75.4408 39.3584 76.4824 33.2524 75.6477 27.1465C74.8132 21.0404 71.7099 17.4729 71.7099 17.4729C71.7099 17.4729 72.1415 18.5802 71.6314 21.6385C72.3877 22.9524 73.6146 27.3138 73.3793 30.8029C73.1438 34.2921 72.5023 39.0248 69.8444 42.7301C68.1359 45.112 66.7805 46.7782 63.0495 48.5229C59.3186 50.2674 53.6045 51.1397 48.4397 51.0614C43.2748 50.983 38.3062 50.5807 34.133 48.6795C29.9597 46.7782 27.741 43.8873 26.1503 41.5837C24.5595 39.2801 25.7864 40.448 23.8425 38.5361C21.8986 36.6241 21.5454 31.6753 21.5454 31.6753Z" fill="#121113"/>
<path d="M25.4893 16.7964C25.4893 16.7964 30.8782 8.65499 49.0641 9.14665C64.4272 9.18186 67.7341 13.1772 70.9583 16.0647C71.0281 16.2753 69.6811 17.3656 69.6811 17.3656L67.4697 18.1944L61.1356 13.2314L49.8836 10.783C49.8836 10.783 39.2946 12.0342 38.8546 11.9801C38.4146 11.926 31.4779 15.7941 31.4779 15.7941L30.1809 19.7636L26.0718 16.6664L25.4893 16.7963" fill="#C9CDD1"/>
<path d="M26.454 16.1782C26.454 16.1782 31.3859 8.81624 49.0481 9.29375C63.9689 9.32795 67.5932 13.5919 70.7248 16.3963C69.7258 17.2479 68.674 17.1288 68.674 17.1288L66.9239 18.081L60.7722 13.2609L49.8441 10.8831C49.8441 10.8831 39.5601 12.0983 39.1327 12.0458C38.7054 11.9932 31.9683 15.7499 31.9683 15.7499L28.394 17.967L26.2356 16.6689L26.454 16.1782Z" fill="#E6E6E6"/>
<path d="M26.4541 16.9962C26.4541 16.9962 32.4075 10.345 48.3011 10.345C64.195 10.345 70.0021 15.7156 70.6117 16.5268C69.9211 17.4131 68.6737 18.3592 68.6737 18.3592C64.602 15.8053 60.7785 13.7881 57.2038 12.3077L47.5913 10.8903C47.5913 10.8903 36.2308 13.5071 36.0123 13.5071C35.7939 13.5071 29.895 17.6505 29.895 17.6505C29.895 17.6505 29.4127 18.4605 28.9642 18.3602C27.7422 17.3721 26.4541 16.9962 26.4541 16.9962Z" fill="#808080"/>
<path d="M66.8181 19.5906C66.8181 19.5906 63.837 11.7434 48.427 11.7434C33.0171 11.7434 30.3498 19.5028 30.3498 19.5028L29.613 18.2144L32.2347 14.6341L39.18 11.4643L44.004 10.7281L48.6098 10.5007L54.5139 10.8212L59.1628 11.8098L65.5793 15.0501L69.0552 17.7994L69.3035 18.0776L66.8181 19.5906Z" fill="#2A2E33"/>
<path d="M66.3824 20.8062C66.3824 20.8062 64.895 21.7959 61.8637 22.9197C58.8326 24.0436 54.7523 25.92 53.062 27.5013C51.3203 29.1307 50.0953 30.873 49.694 31.5253C49.2927 32.1773 48.8185 33.1439 48.5665 33.0496C48.535 33.6075 48.4089 36.9392 48.4089 36.9392L48.598 37.065L50.1882 34.3224L55.463 28.5937L57.8641 26.0398L66.0441 22.1418L66.3824 20.8062Z" fill="#B3B3B3"/>
<path d="M61.5618 23.1194C60.5772 23.5503 55.9571 25.0037 53.6691 27.7935C52.8891 28.7445 51.5211 31.2493 51.1476 31.8552C50.774 32.4612 48.9662 36.3232 48.5259 36.8559C48.0856 37.3887 50.8741 34.6053 50.8741 34.6053C50.8741 34.6053 58.4387 27.8933 58.6056 27.7935C58.7724 27.6936 61.4607 25.2765 61.4607 25.2765C61.4607 25.2765 62.3346 22.7812 61.5619 23.1194" fill="#121113"/>
<path d="M71.2135 17.0928C71.2135 17.0928 67.251 20.5821 63.2151 22.3931C59.1792 24.2044 54.1452 25.9368 51.1314 32.5547C48.8398 36.5908 54.7098 28.9321 54.7098 28.9321L57.7985 26.7213L64.9629 23.5318L68.6252 21.188L71.2135 17.0928Z" fill="#333333"/>
<path d="M71.2801 17.0264C71.2801 17.0264 68.4606 19.86 64.4891 22.0937C63.175 22.8328 59.6806 24.3602 58.0718 25.2099C54.5275 27.0819 52.6951 30.3771 52.1214 31.0496C51.5477 31.7222 48.5925 37.0224 48.5925 37.0224L49.8666 36.7495L54.7764 30.2772L58.7723 27.8601L67.8848 25.0102L70.8733 22.5265C70.8733 22.5265 71.5974 22.893 71.8139 19.5102C71.9474 17.4259 71.2801 17.0264 71.2801 17.0264L71.2801 17.0264Z" fill="#E6E6E6"/>
<path d="M64.5772 28.145L58.542 30.0804L55.1557 31.4706L50.8682 34.6599C50.8682 34.6599 49.8577 36.4591 49.7758 36.8407C49.6939 37.2223 49.0659 39.2939 49.0659 39.2939L48.9839 39.9755L48.7654 40.2479L48.5742 39.0214L48.6821 37.3474L49.5191 35.8015L50.4859 34.142L52.2883 32.2066L54.7734 30.7346L58.9789 29.4262L62.4744 28.5266L64.5772 28.145Z" fill="#333333"/>
<path d="M68.963 26.5427C68.963 26.5427 67.853 27.2263 62.4444 28.853C57.0356 30.4797 54.2252 31.9667 51.8633 34.9354C50.5879 36.5386 49.8556 38.1182 49.6194 38.8962C49.3834 39.6741 48.9324 40.3327 48.8637 40.4286C48.7928 40.5273 48.4285 40.5695 48.4238 40.3573C48.4223 40.2843 48.7361 40.5555 48.8424 39.7753C48.839 38.8704 48.9221 37.2686 49.4542 36.3264C50.1863 35.0297 51.2964 33.4737 53.0914 32.4129C54.8865 31.352 57.201 30.4326 58.7125 29.8904C60.2242 29.3481 64.0031 28.3108 65.6328 27.7214C67.2625 27.132 69.3172 26.2361 69.3172 26.2361L68.963 26.5427Z" fill="#999999"/>
<path d="M48.727 37.2224C48.727 37.2224 48.8146 39.7081 48.727 39.9706C48.6394 40.2331 48.2038 39.8393 48.2038 39.8393L46.4341 35.7185L43.944 33.1455L40.1634 30.7882L38.5034 30.1348L35.8379 29.3062L34.7448 28.9781L34.5256 28.3464L40.0978 29.7L44.27 31.8793L46.4121 33.8864L48.0066 36.0658L48.727 37.2224Z" fill="#B3B3B3"/>
<path d="M30.8191 20.8062C30.8191 20.8062 32.3065 21.7959 35.3378 22.9197C38.369 24.0436 42.4493 25.92 44.1396 27.5013C45.8812 29.1307 47.0216 30.9044 47.4229 31.5566C47.8242 32.2088 48.383 33.1439 48.6351 33.0496C48.6665 33.6075 48.7926 36.9392 48.7926 36.9392L48.6036 37.065L47.0133 34.3224L41.7385 28.5937L39.3374 26.0398L31.1573 22.1418L30.8191 20.8062Z" fill="#CCCCCC"/>
<path d="M48.0612 36.1302L45.8992 33.4358L41.9729 30.0729L29.4988 25.2153L25.6966 21.7846C25.6966 21.7846 24.8082 18.876 25.3646 17.7961C25.3447 17.4572 25.978 15.6947 26.2141 16.2435C26.858 16.8972 27.6334 17.8679 30.277 19.5906C30.049 20.1261 30.2622 20.3604 30.6042 20.5824C31.2727 21.0162 32.3097 21.6295 32.3097 21.6295L34.5367 22.8553L38.8723 25.0369L41.1675 26.4812L43.4123 28.8411L45.0917 30.911L46.9079 33.2709L48.7675 36.9749L48.0612 36.1302Z" fill="#E6E6E6"/>
<path d="M29.8762 42.3019C28.914 41.6277 27.7055 41.0693 26.5266 40.3151C25.5787 39.7088 24.8326 37.1989 24.4617 35.1113C23.1405 27.676 25.7506 22.2102 25.7506 22.2102C25.7506 22.2102 25.7963 22.0816 25.7459 22.0357C25.5564 21.8626 25.6924 21.5512 25.9903 21.7487C29.3229 23.9591 30.177 23.9783 32.7875 25.1935C36.5258 26.9337 40.445 26.9175 44.6026 31.1C46.5816 33.0909 48.5484 37.0109 48.7765 36.962C48.7602 37.3525 48.701 39.1959 48.701 39.1959C48.701 39.1959 48.8065 37.4227 48.2402 36.5332C45.943 32.9259 42.5778 31.4252 42.5778 31.4252C42.5778 31.4252 39.6791 29.9188 35.1364 29.0465C33.178 28.6704 30.3886 27.9767 27.9573 26.5716C27.7561 26.4554 27.6814 26.5971 27.6113 26.702C27.479 26.9002 26.9552 31.8973 27.4983 35.1113C28.0024 38.0946 28.6935 39.7088 29.8762 42.3019Z" fill="#1A1A1A"/>
<path d="M26.241 16.2632C26.241 16.2632 27.7012 17.9895 30.1955 19.5992C29.1524 19.213 28.6855 19.1527 27.7429 18.4353C27.11 17.9535 26.241 16.2632 26.241 16.2632Z" fill="#3C444B"/>
<path d="M70.9233 16.1876C70.9233 16.1876 69.7646 17.4328 68.9883 18.0129C68.212 18.5929 66.9106 19.5434 66.9106 19.5434L69.2811 18.3738L70.9233 16.1875" fill="#121113"/>
<path d="M28.1338 17.8148C28.1338 17.8148 30.2235 14.9255 33.719 13.2326C37.2146 11.5398 39.5462 11.1778 41.7049 10.8606C43.778 10.5559 47.9789 10.4768 48.3092 10.4709H48.3298C48.6698 10.4765 53.1103 10.5557 55.1857 10.8606C57.3445 11.1778 59.694 11.4707 63.1896 13.1635C66.6852 14.8563 69.1469 17.8987 69.1469 17.8987C69.1469 17.8987 68.2699 18.1044 67.7345 18.5422C67.1991 18.9801 66.9979 18.7825 66.9979 18.7825C66.9979 18.7825 66.9501 17.5734 65.3234 15.8047C63.6964 14.036 61.182 12.9912 57.9282 11.8295C54.7828 10.7062 48.7292 10.6687 48.3298 10.6676H48.3092C47.9201 10.6688 42.1063 10.7067 38.9623 11.8295C35.7086 12.9912 33.8158 14.3256 32.1888 16.0944C30.562 17.863 30.2235 19.6559 30.2235 19.6559C30.2235 19.6559 29.6916 18.9801 29.1562 18.5421C28.6208 18.1044 28.1339 17.8147 28.1339 17.8147L28.1338 17.8148Z" fill="#1A1A1A"/>
<path fill-rule="evenodd" clip-rule="evenodd" d="M44.6454 30.3736C44.2935 29.8929 43.9404 29.4131 43.586 28.9343C41.9629 26.7409 40.0304 25.5106 38.0413 24.5218C37.7195 24.3625 37.3956 24.2075 37.0698 24.0566C38.0056 24.4401 38.9156 24.8628 40.3702 25.6909C41.9643 26.5984 43.3976 28.535 44.3041 29.8751C44.4169 30.0419 44.5307 30.208 44.6454 30.3736ZM25.7876 17.1313C26.0723 17.4458 28.3237 19.3421 32.0296 21.755C35.8161 24.2204 40.2218 24.7563 43.4103 29.0655C45.8937 32.4216 46.1486 32.0631 48.3856 36.2116C47.9701 35.028 47.5313 34.2037 46.9691 33.3247C46.4069 32.4457 45.389 31.0881 44.4852 29.7516C43.5812 28.4152 42.1224 26.4358 40.4781 25.4997C38.8338 24.5635 37.8803 24.1419 36.8055 23.713C35.7306 23.2843 33.9798 22.6054 32.2858 21.6407C30.5919 20.6758 27.6809 18.6892 25.7876 17.1313Z" fill="#3C444B"/>
<path d="M48.8801 37.0043C50.5551 33.3842 52.1717 31.3054 55.5289 28.8811C57.4718 27.4781 58.8737 27.2197 61.0908 26.3416C62.5593 25.7598 63.4417 25.5733 64.9049 24.9786C67.5791 23.8915 68.7705 23.3566 71.5214 21.6628C71.7126 22.3099 70.2901 24.8504 69.2743 26.3416C66.4161 27.5982 64.1153 28.2957 60.692 29.0955C58.6384 29.5753 57.1277 30.0709 55.041 30.9127C51.5454 32.3231 50.5338 34.0598 48.8801 37.0044V37.0043Z" fill="#1A1A1A"/>
<path d="M47.9462 36.8407C48.4886 37.9108 48.7382 38.8579 48.7382 39.8119C48.7382 40.766 48.3831 40.6024 48.0554 39.7575C47.7277 38.9124 47.2362 37.1134 45.2426 34.9053C43.2491 32.6973 41.0644 31.1163 38.8797 30.3258C36.695 29.5354 34.4556 29.0446 33.4725 28.7447C32.4894 28.445 31.085 27.9846 31.085 27.9846L33.5544 28.6086C33.5544 28.6086 39.1527 29.8625 42.3479 31.7433C45.543 33.6241 47.0888 35.1496 47.9462 36.8407Z" fill="#CCCCCC"/>
<path d="M25.3642 17.7819C25.2423 17.9298 22.1195 21.7793 21.126 29.2444C21.126 23.4658 24.0883 18.1078 25.8874 16.3228C25.6356 16.6978 25.3625 17.5354 25.3642 17.7819Z" fill="#C9CDD1"/>
<path d="M30.2115 19.6385C30.2115 19.6385 29.4222 18.6012 28.4345 17.828C27.4468 17.0549 26.6943 16.7395 26.6943 16.7395C26.6943 16.7395 27.2412 17.41 28.3537 18.2858C29.4664 19.1617 30.2115 19.6385 30.2115 19.6385Z" fill="#121113"/>
<path d="M26.6987 16.7467C26.6987 16.7467 27.3294 16.9402 28.251 17.6842C28.251 17.6842 30.2303 15.0038 33.1583 13.516C36.0864 12.0283 38.9791 11.1007 42.9497 10.7087C42.9497 10.7087 38.0504 10.8744 33.0739 13.4003C30.2525 14.8325 28.2287 17.4707 28.2287 17.4707C27.7355 17.1077 27.2255 16.8665 26.6987 16.7467Z" fill="#C9CDD1"/>
<path d="M71.5593 21.5293C71.5593 21.5293 72.0981 22.2308 72.7666 24.9261C73.2748 26.9748 73.3852 28.9879 73.3852 28.9879C73.3852 28.9879 72.9538 24.7987 71.5215 21.6662L71.5593 21.5293Z" fill="#E6E6E6"/>
<path d="M48.3311 10.3462C48.691 10.3373 53.126 10.4087 55.2073 10.7146C56.2912 10.8739 57.4228 11.0272 58.7224 11.353C60.0247 11.6795 61.4952 12.1789 63.254 13.0307C65.0195 13.8858 66.5209 15.0797 67.5793 16.0575C68.0228 16.4679 68.4484 16.8972 68.8547 17.3443C68.9897 17.4932 69.122 17.6445 69.2516 17.7982L69.1469 17.8984C69.1469 17.8984 66.6852 14.8562 63.1896 13.1634C59.694 11.4705 57.3446 11.1776 55.1857 10.8604C53.1103 10.5555 48.3311 10.3462 48.3311 10.3462Z" fill="#F2F2F2"/>
<path d="M35.4163 47.2251C42.3194 50.4983 56.179 50.304 62.1145 47.2251C55.8741 50.9803 42.2432 51.1747 35.4163 47.2251Z" fill="#E6E6E6"/>
<path d="M68.8739 39.8866H71.267C71.267 39.8866 68.6484 46.6945 61.3198 49.0637C58.253 50.0554 53.6594 50.1095 53.6594 50.1095C62.0404 49.6189 66.3501 46.9444 68.8739 39.8865V39.8866Z" fill="#CCCCCC"/>
<path d="M50.0046 34.7806C50.0046 34.7806 52.1954 30.1869 57.3866 27.5898C58.7536 26.9059 61.0419 26.3577 61.0419 26.3577L59.71 26.8573C58.2194 27.3924 57.0371 27.7917 55.5288 28.8808C52.9387 30.7512 51.3846 32.4162 50.0404 34.7417L50.0046 34.7806Z" fill="white"/>
<path d="M49.2327 36.8069C49.2327 36.8069 50.242 32.3319 57.4628 30.189C52.8599 31.926 50.8104 33.4435 49.2327 36.8068V36.8069Z" fill="#B3B3B3"/>
<path d="M48.4848 40.1112C48.4307 40.0242 48.3583 39.8852 48.2757 39.6723C48.1102 39.2453 47.9027 38.5777 47.4853 37.7376C47.0634 36.8884 46.4303 35.8686 45.4181 34.7473C44.5771 33.816 43.7008 32.9932 42.803 32.292C45.5905 34.0043 46.959 35.4159 47.7353 36.9471C48.2649 37.9917 48.5019 38.9025 48.5019 39.8119C48.5019 39.9386 48.4951 40.0373 48.4848 40.1112Z" fill="#E6E6E6"/>
<path d="M66.8262 19.6262L66.9937 20.1236C66.9937 20.1236 67.827 19.6647 69.3263 18.5113C70.8255 17.3578 71.2895 17.0147 71.2895 17.0147C71.2895 17.0147 71.7193 17.345 73.2356 19.8149C73.2356 19.8149 72.763 18.3611 71.0446 16.2087L69.3005 18.3569L66.8262 19.6262Z" fill="#ECECEC"/>
<path d="M43.2433 28.8443C40.8286 26.2511 39.1258 25.6626 36.0339 24.558C33.0647 23.4973 31.8407 21.8305 31.6084 21.4788C31.7485 21.5713 31.8889 21.6633 32.0296 21.7549C35.7504 24.1776 40.0691 24.737 43.2433 28.8443Z" fill="#666666"/>
<path d="M57.3046 64.9425H60.1053C60.1053 64.9425 61.3292 64.9342 61.3292 63.0157C61.3292 61.0597 60.1053 61.0568 60.1053 61.0568H57.3046V64.9425ZM39.8336 63.6347C39.5357 63.6347 39.2941 63.9101 39.2941 64.25C39.2941 64.5899 39.5357 64.8653 39.8337 64.8653L43.0995 64.8647V63.6352L39.8336 63.6347ZM66.4127 63.6347C66.1148 63.6347 65.8732 63.9102 65.8732 64.2501C65.8732 64.59 66.1148 64.8654 66.4127 64.8654L69.6786 64.8648V63.6352L66.4127 63.6348V63.6347ZM65.2723 62.0458H69.726C69.7268 61.6127 69.6967 60.9269 68.6794 60.9264C67.6286 60.9259 64.1112 60.9264 64.1112 60.9264V58.9734C64.1112 58.9734 67.5072 58.9744 69.6786 58.9738C71.0344 58.9735 72.1059 59.5253 72.1061 61.1422L72.1051 66.9949H65.2872L65.365 67C64.4621 67 63.703 66.2066 63.4899 65.1341C62.8828 66.9947 61.415 66.9939 60.2795 66.9911L54.791 66.9912V60.7078L47.068 66.9948H38.7082L38.7858 66.9999C38.036 66.9999 37.3851 66.4526 37.0642 65.6526L37.0629 66.9948H34.6774V61.8318C34.6774 61.8318 34.6719 61.1441 33.9379 61.1425H32.1744V66.9948H29.8146V61.1425H27.34V66.9948H24.8938L24.8977 58.9733L34.8552 58.9731C35.9542 58.9731 37.0667 59.6934 37.0667 61.1425L37.0658 63.3851C37.3872 62.5879 38.0361 62.0429 38.7844 62.0429L38.6932 62.0457H43.147C43.1475 61.6126 43.1176 60.9269 42.1002 60.9263C41.0495 60.9259 37.5322 60.9263 37.5322 60.9263V58.9734C37.5322 58.9734 40.9281 58.9744 43.0995 58.9738C44.4553 58.9735 45.5269 59.5253 45.527 61.1422L45.5262 65.1675L53.3248 58.9734H54.791L60.2984 58.9735C61.7476 58.9735 63.7716 58.9735 63.7716 62.9723L63.7708 63.1162C64.1195 62.468 64.7027 62.043 65.3635 62.043L65.2723 62.0458ZM46.3817 58.9734H51.9482L49.4833 61.1425H46.3801L46.3817 58.9734ZM54.068 66.9886H48.5015L50.9666 64.8195H54.0696L54.068 66.9886Z" fill="#0080C5"/>
<path d="M35.627 29.1414C35.627 29.1414 36.1258 29.2502 36.2854 29.2875C38.1121 29.7033 39.6144 30.2018 40.6925 30.613C41.6143 31.0299 42.648 31.5761 43.7702 32.2915C48.3739 35.2266 48.3991 37.6751 48.3991 37.6751C48.3991 37.6751 48.3337 35.9896 45.5243 33.6467C42.6932 31.2856 37.8818 29.7889 36.459 29.382C36.1982 29.3074 35.627 29.1414 35.627 29.1414Z" fill="#808080"/>
<defs>
<linearGradient id="paint0_linear_401_12010" x1="67.9725" y1="23.7061" x2="67.4838" y2="43.6498" gradientUnits="userSpaceOnUse">
<stop stop-color="#999999"/>
<stop offset="1" stop-color="#D7D7D7"/>
</linearGradient>
<radialGradient id="paint1_radial_401_12010" cx="0" cy="0" r="1" gradientUnits="userSpaceOnUse" gradientTransform="translate(23.0463 28.83) rotate(-36.7234) scale(12.3089 7.59734)">
<stop stop-color="white"/>
<stop offset="1" stop-color="#919191"/>
</radialGradient>
</defs>
</svg>
