<svg width="84" height="37" viewBox="0 0 84 37" fill="none" xmlns="http://www.w3.org/2000/svg">
<rect width="84" height="37" rx="4" fill="white"/>
<g clip-path="url(#clip0_312_12331)">
<mask id="mask0_312_12331" style="mask-type:luminance" maskUnits="userSpaceOnUse" x="23" y="8" width="37" height="22">
<path d="M23 8.00244H60V29.9972H23V8.00244Z" fill="white"/>
</mask>
<g mask="url(#mask0_312_12331)">
<mask id="mask1_312_12331" style="mask-type:luminance" maskUnits="userSpaceOnUse" x="23" y="8" width="37" height="22">
<path d="M23 8.00244H60V29.9972H23V8.00244Z" fill="white"/>
</mask>
<g mask="url(#mask1_312_12331)">
<path d="M33.9997 8.00244C32.1975 8.00895 30.4239 8.44775 28.8324 9.28091C27.2408 10.1141 25.8791 11.3165 24.8649 12.7844C23.8506 14.2523 23.2144 15.9414 23.0112 17.7058C22.808 19.4702 23.0439 21.2568 23.6985 22.9113C24.3531 24.5658 25.4067 26.0383 26.7683 27.2017C28.13 28.365 29.7586 29.1842 31.5135 29.5885C33.2685 29.9927 35.0969 29.9698 36.8409 29.5218C38.5848 29.0738 40.1918 28.2142 41.5231 27.0171C41.928 26.6599 42.305 26.2731 42.6507 25.8598H40.3778C40.0796 25.5013 39.805 25.1244 39.5556 24.7314H43.467C43.7038 24.3577 43.9195 23.9713 44.1131 23.5741H38.9096C38.7323 23.1975 38.5774 22.8111 38.4456 22.4168H44.577C44.9617 21.2983 45.16 20.1258 45.1643 18.9448C45.1609 18.1665 45.0743 17.3907 44.9059 16.6302H38.1226C38.2047 16.2391 38.3086 15.8527 38.4338 15.4729H44.5653C44.4297 15.0783 44.2708 14.6919 44.0896 14.3156H38.9096C39.0988 13.9184 39.3105 13.532 39.5438 13.1583H43.4553C43.1911 12.7559 42.9028 12.3695 42.5919 12.001H40.4131C40.7561 11.609 41.127 11.2416 41.5231 10.9015C39.4964 9.04732 36.8358 8.01239 34.0702 8.00244L33.9997 8.00244Z" fill="#901B24"/>
<path d="M59.9997 18.9392C60.0337 20.3931 59.7724 21.8391 59.2312 23.1921C58.6899 24.5452 57.8797 25.778 56.848 26.8181C55.8164 27.8582 54.5842 28.6847 53.2238 29.249C51.8633 29.8133 50.4022 30.1039 48.9261 30.1039C47.4501 30.1039 45.9889 29.8133 44.6285 29.249C43.2681 28.6847 42.0358 27.8582 41.0042 26.8181C39.9725 25.778 39.1623 24.5452 38.6211 23.1921C38.0799 21.8391 37.8186 20.3931 37.8525 18.9392C37.8186 17.4852 38.0799 16.0393 38.6211 14.6862C39.1623 13.3332 39.9725 12.1004 41.0042 11.0603C42.0358 10.0201 43.2681 9.19363 44.6285 8.62936C45.9889 8.06509 47.4501 7.77441 48.9261 7.77441C50.4022 7.77441 51.8633 8.06509 53.2238 8.62936C54.5842 9.19363 55.8164 10.0201 56.848 11.0603C57.8797 12.1004 58.6899 13.3332 59.2312 14.6862C59.7724 16.0393 60.0337 17.4852 59.9997 18.9392Z" fill="#F36F31"/>
<path d="M59.9998 19.0607C60.0337 20.5146 59.7724 21.9606 59.2312 23.3136C58.69 24.6667 57.8798 25.8995 56.8481 26.9396C55.8165 27.9798 54.5842 28.8062 53.2238 29.3705C51.8634 29.9348 50.4022 30.2255 48.9262 30.2255C47.4501 30.2255 45.989 29.9348 44.6285 29.3705C43.2681 28.8062 42.0359 27.9798 41.0043 26.9396C39.9726 25.8995 39.1624 24.6667 38.6211 23.3136C38.0799 21.9606 37.8186 20.5146 37.8526 19.0607C37.8182 17.6068 38.0791 16.1607 38.62 14.8076C39.1609 13.4544 39.9708 12.2214 41.0021 11.181C42.0335 10.1406 43.2655 9.31376 44.6258 8.74914C45.986 8.18451 47.4471 7.89345 48.9232 7.89307C50.3992 7.89268 51.8605 8.18297 53.221 8.74689C54.5816 9.31081 55.8141 10.137 56.846 11.1768C57.8779 12.2167 58.6885 13.4493 59.2301 14.8022C59.7717 16.1551 60.0333 17.601 59.9998 19.0549" fill="#F89832"/>
<path d="M34.0001 8.12402C32.1985 8.13157 30.4258 8.57107 28.8352 9.40458C27.2445 10.2381 25.8837 11.4406 24.8702 12.9081C23.8567 14.3757 23.221 16.0643 23.018 17.8281C22.8149 19.5919 23.0507 21.3779 23.7049 23.0318C24.3591 24.6857 25.4121 26.1579 26.7729 27.3212C28.1337 28.4846 29.7614 29.304 31.5156 29.7089C33.2697 30.1138 35.0975 30.0919 36.8411 29.6451C38.5847 29.1983 40.1917 28.3401 41.5234 27.1445C41.9282 26.7871 42.3052 26.4003 42.651 25.9872H40.3782C40.08 25.6307 39.8054 25.2557 39.556 24.8646H43.4674C43.703 24.4901 43.9186 24.1038 44.1134 23.7073H38.9099C38.7329 23.3306 38.578 22.9442 38.446 22.5499H44.5774C44.9627 21.4316 45.1611 20.259 45.1647 19.078C45.1605 18.2997 45.0739 17.524 44.9063 16.7634H38.1229C38.2056 16.3724 38.3095 15.9861 38.4342 15.6061H44.5656C44.4309 15.2112 44.272 14.8247 44.0899 14.4487H38.9099C39.0977 14.0508 39.3095 13.6644 39.5442 13.2914H43.4556C43.1929 12.8881 42.9045 12.5016 42.5923 12.1341H40.4134C40.7548 11.7389 41.1259 11.3694 41.5234 11.0289C39.4977 9.17258 36.837 8.13555 34.0706 8.12402H34.0001Z" fill="#CD2B32"/>
<path d="M38.0521 21.844L38.1989 20.8545C38.1225 20.8545 37.9992 20.8892 37.8994 20.8892C37.4882 20.8892 37.4413 20.6751 37.4706 20.5131L37.7995 18.4936H38.4221L38.5747 17.3999H37.9874L38.1049 16.7171H36.9303C36.9303 16.7171 36.2373 20.5478 36.2373 21.0107C36.2182 21.1393 36.2289 21.2704 36.2685 21.3943C36.3081 21.5182 36.3756 21.6317 36.466 21.7262C36.5563 21.8208 36.6672 21.8941 36.7903 21.9405C36.9134 21.987 37.0456 22.0054 37.177 21.9945C37.4765 21.9872 37.7734 21.9365 38.0579 21.844M38.4279 19.9576C38.4279 21.601 39.5262 21.9945 40.4659 21.9945C40.8899 22.0183 41.3143 21.9532 41.7109 21.8035L41.9165 20.6809C41.5195 20.8467 41.0961 20.9427 40.6655 20.9644C39.397 20.9644 39.6201 20.0328 39.6201 20.0328H42.0163C42.0889 19.691 42.1399 19.3451 42.169 18.997C42.1964 18.7695 42.1725 18.5389 42.0989 18.3215C42.0254 18.1042 41.9041 17.9055 41.7437 17.7397C41.5832 17.5739 41.3876 17.445 41.1708 17.3623C40.954 17.2795 40.7213 17.245 40.4894 17.261C39.3148 17.261 38.4279 18.5167 38.4279 19.946M40.4952 18.3026C41.1589 18.3026 41.0355 19.0375 41.0355 19.1012H39.7259C39.7259 19.0202 39.8492 18.3026 40.4952 18.3026ZM47.9598 21.844L48.1713 20.571C47.8667 20.7245 47.5364 20.8226 47.1963 20.8603C47.0284 20.8617 46.862 20.8276 46.7086 20.7603C46.5551 20.6929 46.4181 20.5939 46.3067 20.47C46.1954 20.346 46.1124 20.2 46.0632 20.0417C46.014 19.8835 45.9999 19.7166 46.0217 19.5525C46.0217 18.1753 46.7441 17.4231 47.5428 17.4231C47.9288 17.4332 48.3045 17.5473 48.6294 17.7529L48.8408 16.5204C48.4168 16.3558 47.9686 16.26 47.5135 16.2368C46.1568 16.2368 44.8295 17.3941 44.8295 19.593C44.8295 21.0397 45.546 22.0002 46.9497 22.0002C47.2984 21.9803 47.6445 21.928 47.9833 21.844M31.5682 17.29C31.081 17.2908 30.5977 17.3771 30.1411 17.5446L29.9708 18.5457C30.3843 18.4049 30.8195 18.3364 31.257 18.3431C31.6916 18.3431 32.0146 18.3894 32.0146 18.7424C32.0215 18.8425 32.0075 18.9429 31.9735 19.0375C31.9735 19.0375 31.6328 18.997 31.4684 18.997C30.4524 18.997 29.3776 19.4252 29.3776 20.733C29.3554 20.8917 29.3685 21.0533 29.416 21.2065C29.4635 21.3597 29.5442 21.501 29.6526 21.6204C29.761 21.7399 29.8944 21.8347 30.0437 21.8982C30.1929 21.9618 30.3544 21.9927 30.517 21.9887C30.7469 21.9957 30.9755 21.9509 31.1852 21.8577C31.3948 21.7644 31.5801 21.6251 31.7268 21.4505L31.6857 21.8961H32.7252L33.1892 18.6903C33.1892 17.3305 31.9852 17.29 31.5682 17.29ZM31.809 19.8997C31.809 20.0965 31.6857 21.0107 30.9751 21.0107C30.9148 21.0149 30.8544 21.0064 30.7977 20.9859C30.741 20.9655 30.6893 20.9334 30.6461 20.8919C30.6029 20.8504 30.569 20.8003 30.5467 20.745C30.5245 20.6897 30.5143 20.6304 30.517 20.571C30.517 20.2527 30.6873 19.8708 31.5565 19.8708C31.6399 19.8551 31.7256 19.8551 31.809 19.8708M34.2933 21.9655C34.5576 21.9655 36.0552 22.0292 36.0552 20.4842C36.0552 19.0375 34.6516 19.3268 34.6516 18.7482C34.6516 18.4589 34.8806 18.3663 35.2976 18.3663C35.4679 18.3663 36.1081 18.4184 36.1081 18.4184L36.2549 17.3941C35.8969 17.327 35.5328 17.296 35.1684 17.3015C34.2933 17.3015 33.4065 17.643 33.4065 18.8234C33.4065 20.1543 34.8806 20.0212 34.8806 20.5594C34.8806 20.9355 34.4695 20.9644 34.1524 20.9644C33.795 20.9544 33.441 20.894 33.1011 20.7851L32.9836 21.8209C33.4108 21.9513 33.8593 22.0004 34.3051 21.9655M57.7267 16.3641L57.4682 17.9265C57.3321 17.756 57.1605 17.6162 56.965 17.5164C56.7695 17.4166 56.5546 17.3591 56.3348 17.3478C55.2541 17.3478 54.3497 18.6325 54.3497 20.1138C54.3497 21.0628 54.8313 22.0002 55.8121 22.0002C56.0196 22.0007 56.2249 21.9575 56.4143 21.8737C56.6037 21.7899 56.7727 21.6674 56.9103 21.5142L56.8574 21.9308H58.0321L58.9306 16.3931L57.7267 16.3641ZM57.1746 19.4021C57.1746 20.0212 56.8692 20.8371 56.229 20.8371C55.8062 20.8371 55.6065 20.4899 55.6065 19.9344C55.6065 19.0317 56.0176 18.4357 56.5344 18.4357C56.9573 18.4357 57.1746 18.725 57.1746 19.4021ZM25.1843 21.9019L25.9067 17.724L26.0065 21.9019H26.8228L28.3381 17.724L27.6627 21.9019H28.8725L29.8005 16.3641H27.9328L26.7759 19.7608L26.7113 16.3641H24.9905L24.0508 21.9019H25.1843ZM43.3495 21.8903C43.696 19.9634 43.7548 18.4184 44.577 18.6845C44.6486 18.2153 44.7953 17.7602 45.0116 17.3363C44.9374 17.3283 44.8626 17.3283 44.7884 17.3363C44.2598 17.3363 43.8663 18.048 43.8663 18.048L43.9721 17.3941H42.8738L42.1397 21.8903H43.3495ZM50.679 17.29C50.1917 17.29 49.7083 17.3762 49.2519 17.5446L49.0816 18.5457C49.4951 18.4049 49.9303 18.3364 50.3678 18.3431C50.8024 18.3431 51.1254 18.3894 51.1254 18.7424C51.1323 18.8425 51.1183 18.9429 51.0843 19.0375C51.0843 19.0375 50.7378 18.997 50.6027 18.997C49.5808 18.997 48.5119 19.4252 48.5119 20.733C48.4897 20.8917 48.5028 21.0533 48.5503 21.2065C48.5978 21.3597 48.6785 21.501 48.7869 21.6204C48.8953 21.7399 49.0287 21.8347 49.1779 21.8982C49.3272 21.9618 49.4887 21.9927 49.6513 21.9887C49.8811 21.9949 50.1094 21.9497 50.3189 21.8565C50.5285 21.7633 50.7138 21.6245 50.8611 21.4505L50.82 21.8961H51.836L52.3 18.6903C52.3 17.3305 51.1254 17.29 50.679 17.29ZM50.9316 19.8997C50.9316 20.0965 50.8082 21.0107 50.0976 21.0107C50.0374 21.0149 49.9769 21.0064 49.9202 20.9859C49.8635 20.9655 49.8119 20.9334 49.7686 20.8919C49.7254 20.8504 49.6915 20.8003 49.6693 20.745C49.647 20.6897 49.6369 20.6304 49.6395 20.571C49.6395 20.2527 49.8157 19.8708 50.6732 19.8708C50.7585 19.8548 50.8462 19.8548 50.9316 19.8708M53.2455 21.8903C53.5921 19.9634 53.6567 18.4184 54.473 18.6845C54.5431 18.2142 54.6919 17.7586 54.9135 17.3363C54.8373 17.3286 54.7606 17.3286 54.6844 17.3363C54.1559 17.3363 53.7624 18.048 53.7624 18.048L53.8681 17.3941H52.7698L52.0357 21.8903H53.2455Z" fill="white"/>
</g>
</g>
</g>
<defs>
<clipPath id="clip0_312_12331">
<rect width="37" height="22" fill="white" transform="translate(23 8)"/>
</clipPath>
</defs>
</svg>
