<svg width="84" height="37" viewBox="0 0 84 37" fill="none" xmlns="http://www.w3.org/2000/svg">
<rect width="84" height="37" rx="4" fill="white"/>
<g clip-path="url(#clip0_312_12347)">
<mask id="mask0_312_12347" style="mask-type:luminance" maskUnits="userSpaceOnUse" x="6" y="8" width="67" height="22">
<path d="M6 8H73V30H6V8Z" fill="white"/>
</mask>
<g mask="url(#mask0_312_12347)">
<path d="M6 20.7041H34.3885V29.9999H6V20.7041Z" fill="#81BD41"/>
<path d="M6 8H34.3885V17.2958H6V8Z" fill="#16A0DB"/>
<mask id="mask1_312_12347" style="mask-type:luminance" maskUnits="userSpaceOnUse" x="6" y="8" width="67" height="22">
<path d="M6 8H73V30H6V8Z" fill="white"/>
</mask>
<g mask="url(#mask1_312_12347)">
<path d="M62.6979 28.1408H62.6193C62.3091 28.204 61.9922 28.23 61.6756 28.2183C60.8893 28.2183 60.1029 27.9084 60.1029 26.1268C60.1029 25.1972 60.2601 24.0352 61.6756 24.0352C61.9954 24.0488 62.3123 24.1009 62.6193 24.1901H62.6979V28.1408ZM62.9339 19.3873H62.6979V22.6408H62.462C62.0601 22.478 61.6362 22.3736 61.2038 22.331C58.4515 22.331 57.8223 24.4225 57.8223 26.2042C57.8223 28.5282 59.2378 29.8451 61.5184 29.8451C62.3689 29.8823 63.2197 29.7775 64.0348 29.5352C64.18 29.5163 64.3199 29.469 64.4463 29.3961C64.5727 29.3232 64.6831 29.2262 64.771 29.1108C64.8589 28.9954 64.9225 28.8638 64.9581 28.7239C64.9937 28.5839 65.0006 28.4384 64.9785 28.2958V19L63.0125 19.3873M70.8763 28.1408H70.7977L70.4045 28.2183C70.0716 28.3116 69.7282 28.3636 69.3822 28.3732C68.6745 28.3732 68.3599 28.0634 68.3599 27.5986C68.3599 27.2113 68.5172 26.5915 69.5395 26.5915H70.8763V28.1408ZM69.9327 22.2535C68.9926 22.2957 68.0646 22.4786 67.1803 22.7958L66.3939 22.9507L66.6299 24.5L67.3376 24.3451C68.1005 24.1028 68.8954 23.9723 69.6968 23.9577C70.0113 23.9577 70.955 23.9577 70.955 24.9648V25.4296H69.6181C67.259 25.4296 66.158 26.1268 66.158 27.7535C66.158 29.0704 67.1803 29.8451 68.8317 29.8451C69.4678 29.8388 70.101 29.7608 70.7191 29.6127H71.0336L72.9996 30V24.8099C72.9996 23.1831 71.9773 22.331 69.9327 22.331M54.5982 28.1408H54.4409L54.0477 28.2183C53.7146 28.3108 53.3713 28.3628 53.0254 28.3732C52.3963 28.3732 52.0031 28.0634 52.0031 27.5986C52.0031 27.2113 52.1604 26.5915 53.1827 26.5915H54.5195L54.5982 28.1408ZM53.5759 22.2535C52.6358 22.2957 51.7078 22.4786 50.8235 22.7958L50.0371 22.9507L50.3517 24.5L50.9808 24.2676C51.7434 24.0242 52.5384 23.8937 53.34 23.8803C53.5759 23.8803 54.5195 23.8803 54.5195 24.8873V25.3521H53.2613C50.9022 25.3521 49.8012 26.1268 49.8012 27.6761C49.8012 28.993 50.8235 29.8451 52.4749 29.8451C53.114 29.8135 53.7473 29.7095 54.3623 29.5352H54.6768L56.6428 29.9225V24.8099C56.6428 23.1831 55.6205 22.331 53.5759 22.331M45.712 22.331C44.9011 22.32 44.0971 22.4784 43.3529 22.7958H43.2742C42.658 22.4361 41.9436 22.2737 41.2296 22.331C40.406 22.3162 39.5847 22.4206 38.7918 22.6408C38.0054 22.8732 37.7695 23.2606 37.7695 23.8803V29.6901H40.05V24.2676H40.1287C40.4584 24.1607 40.8039 24.1084 41.151 24.1127C41.2855 24.0982 41.4216 24.115 41.5483 24.1617C41.675 24.2085 41.7888 24.2838 41.8806 24.3818C41.9724 24.4797 42.0396 24.5975 42.0768 24.7257C42.1139 24.8538 42.1201 24.9888 42.0946 25.1197V29.7676H44.2965V25.0423C44.3245 24.8885 44.3245 24.7312 44.2965 24.5775L44.1392 24.4225H44.2965C44.6365 24.2421 45.0121 24.1364 45.3975 24.1127C45.5379 24.0841 45.6833 24.0903 45.8206 24.1308C45.958 24.1713 46.083 24.2447 46.1843 24.3446C46.2857 24.4445 46.3603 24.5676 46.4014 24.7029C46.4425 24.8382 46.4488 24.9814 46.4198 25.1197V29.7676H48.6216V24.8873C48.6216 23.1831 47.678 22.331 45.712 22.331ZM69.3036 14.0423C68.8565 14.0555 68.4091 14.0296 67.9667 13.9648H67.8094V10.7113C67.8314 10.5831 67.8314 10.4521 67.8094 10.3239L67.7308 10.169H67.9667L68.124 10.0141C68.5083 9.91011 68.9051 9.85799 69.3036 9.85915C70.7191 9.85915 70.8763 11.0211 70.8763 11.9507C70.8763 13.7324 70.09 14.1197 69.3036 14.1197M69.3036 8C67.9667 8 66.6299 8.38732 66.158 9.00704C65.8745 9.38711 65.7353 9.85317 65.7648 10.3239V13.6549C65.7648 13.7879 65.7381 13.9195 65.6862 14.0423L65.6076 14.1972H61.5184V11.8732C61.5184 9.5493 59.9456 8.15493 57.901 8.15493H55.8564L55.6205 9.70423H57.6651C58.6874 9.70423 59.2378 10.6338 59.2378 12.0282V14.3521L59.1592 14.2746C59.0079 14.2211 58.8481 14.1949 58.6874 14.1972H55.1486L54.9127 15.7465H65.6862L66.8658 15.5915C67.6187 15.8719 68.4204 16.0035 69.2249 15.9789C71.5841 15.9789 72.9996 14.4296 72.9996 12.1056C72.9996 9.78169 71.5841 8 69.2249 8M50.2731 16.6761H50.4303C52.7895 16.6761 53.8118 15.9014 53.8118 14.0423C53.8247 13.6999 53.763 13.3588 53.631 13.0419C53.499 12.7249 53.2997 12.4394 53.0464 12.2047C52.7932 11.9699 52.4919 11.7912 52.1627 11.6805C51.8336 11.5699 51.4842 11.53 51.1381 11.5634H48.9362C48.8058 11.5741 48.6746 11.558 48.5509 11.5162C48.4272 11.4743 48.3136 11.4075 48.2175 11.3201C48.1214 11.2327 48.0447 11.1265 47.9925 11.0084C47.9402 10.8902 47.9134 10.7627 47.9139 10.6338C47.9139 10.169 48.0712 9.70423 49.1721 9.70423H53.8904L54.1263 8.15493H49.2508C46.8916 8.15493 45.7907 9.00704 45.7907 10.6338C45.7907 12.2606 46.813 12.9577 48.4644 12.9577H50.6662C50.8006 12.9675 50.9317 13.0034 51.052 13.0633C51.1723 13.1232 51.2793 13.2059 51.367 13.3067C51.4547 13.4075 51.5213 13.5243 51.563 13.6506C51.6047 13.7768 51.6206 13.9099 51.6099 14.0423C51.6099 14.3521 51.4526 15.0493 50.3517 15.0493H41.9374C40.8364 15.0493 40.05 14.507 40.05 13.1127V12.1056C40.05 10.7113 40.6792 9.78169 41.9374 9.78169H43.982C43.982 9.16197 44.1392 8.77465 44.2179 8.23239H41.3869C39.2637 8.23239 37.8482 9.62676 37.7695 12.1056V13.1127C37.7695 15.4366 39.3423 16.6761 41.3869 16.6761H50.2731Z" fill="#2B2829"/>
</g>
</g>
</g>
<defs>
<clipPath id="clip0_312_12347">
<rect width="67" height="22" fill="white" transform="translate(6 8)"/>
</clipPath>
</defs>
</svg>
