<svg width="84" height="37" viewBox="0 0 84 37" fill="none" xmlns="http://www.w3.org/2000/svg">
<rect width="84" height="37" rx="4" fill="white"/>
<g clip-path="url(#clip0_312_12296)">
<path d="M25.5042 10.8357C25.1986 11.2322 24.8083 11.5507 24.3638 11.7666C23.9193 11.9824 23.4324 12.0896 22.9411 12.08C22.9088 11.586 22.9728 11.0903 23.1294 10.6221C23.286 10.154 23.5321 9.72293 23.853 9.35437C24.4966 8.5807 25.4068 8.09506 26.3914 8C26.4677 9.02851 26.1491 10.0468 25.5042 10.8357ZM26.3832 12.2832C24.9702 12.1985 23.7626 13.1297 23.0972 13.1297C22.4318 13.1297 21.3885 12.3509 20.2713 12.3678C19.5464 12.3863 18.8385 12.598 18.2165 12.9822C17.5946 13.3664 17.0799 13.9101 16.7225 14.5602C15.1781 17.2605 16.3282 21.2643 17.7986 23.4567C18.5216 24.5487 19.3841 25.7422 20.526 25.6999C21.6678 25.6576 22.0293 24.9804 23.3272 24.9804C24.6252 24.9804 25.0113 25.6999 26.1531 25.6745C27.295 25.6491 28.0672 24.591 28.7901 23.499C29.2928 22.7272 29.6882 21.8867 29.9648 21.0019C29.2861 20.6963 28.7078 20.1948 28.2996 19.5579C27.8914 18.9211 27.6709 18.176 27.6647 17.4129C27.6749 16.7326 27.851 16.0659 28.1769 15.4742C28.5028 14.8825 28.9679 14.3848 29.5295 14.0269C29.1707 13.5037 28.6992 13.0732 28.1519 12.7691C27.6046 12.4651 26.9964 12.2959 26.3749 12.2747M34.5323 9.23586V25.5644H36.9967V19.9861H40.4059C41.1048 20.0245 41.8038 19.912 42.4581 19.6559C43.1124 19.3998 43.7076 19.0057 44.2056 18.499C44.7036 17.9922 45.0934 17.3839 45.3501 16.7129C45.6068 16.0419 45.7247 15.3232 45.6963 14.6025C45.7358 13.8868 45.6278 13.1705 45.3794 12.5008C45.131 11.8311 44.7478 11.2232 44.2551 10.7171C43.7623 10.211 43.1712 9.81804 42.5205 9.5642C41.8698 9.31036 41.1743 9.20135 40.4798 9.24432L34.5323 9.23586ZM36.9967 11.369H39.8227C41.9585 11.369 43.1743 12.5456 43.1743 14.6025C43.1743 16.6595 41.9667 17.8615 39.8227 17.8615H36.9967V11.369ZM50.1816 25.6914C50.9077 25.7038 51.624 25.5176 52.2575 25.1518C52.891 24.786 53.4191 24.2537 53.7879 23.6091H53.8372V25.5644H56.1127V17.4382C56.1127 15.085 54.2808 13.5698 51.4713 13.5698C48.859 13.5698 46.9285 15.1104 46.8546 17.2182H49.0726C49.1936 16.6927 49.4965 16.2308 49.9246 15.9191C50.3526 15.6074 50.8763 15.4673 51.3974 15.5252C52.9664 15.5591 53.7879 16.2786 53.7879 17.6075V18.5048L50.7155 18.6995C47.865 18.8773 46.3206 20.0793 46.3206 22.1701C46.3206 24.2609 47.8979 25.6914 50.1816 25.6914ZM50.847 23.753C49.5326 23.753 48.7029 23.1012 48.7029 22.1108C48.7029 21.1204 49.5244 20.4856 51.0359 20.4179L53.7879 20.2147V21.1374C53.7879 22.661 52.5064 23.753 50.847 23.753ZM59.1768 30.0085C61.5674 30.0085 62.701 29.0689 63.6868 26.2078L67.9996 13.7222H65.5351L62.6107 23.3636H62.5531L59.6615 13.7222H57.0738L61.2388 25.5729L61.017 26.2924C60.9419 26.7912 60.6871 27.2425 60.3034 27.5563C59.9197 27.8701 59.4353 28.0233 58.9468 27.9854C58.7061 27.9995 58.4647 27.9995 58.2239 27.9854V29.9492C58.5343 29.9916 58.8473 30.0114 59.1604 30.0085H59.1768Z" fill="#2B2829"/>
</g>
<defs>
<clipPath id="clip0_312_12296">
<rect width="52" height="22" fill="white" transform="translate(16 8)"/>
</clipPath>
</defs>
</svg>
