<svg width="20" height="20" viewBox="0 0 20 20" fill="none" xmlns="http://www.w3.org/2000/svg">
<g clip-path="url(#clip0_237_7780)">
<path fill-rule="evenodd" clip-rule="evenodd" d="M10.1004 12.8502C11.7296 12.8502 13.0504 11.5294 13.0504 9.9002C13.0504 8.27095 11.7296 6.9502 10.1004 6.9502C8.47115 6.9502 7.15039 8.27095 7.15039 9.9002C7.15039 11.5294 8.47115 12.8502 10.1004 12.8502ZM10.1004 11.8669C11.1865 11.8669 12.0671 10.9863 12.0671 9.9002C12.0671 8.81403 11.1865 7.93353 10.1004 7.93353C9.01423 7.93353 8.13372 8.81403 8.13372 9.9002C8.13372 10.9863 9.01423 11.8669 10.1004 11.8669Z" fill="white"/>
<path d="M13.0503 6.4585C12.7787 6.4585 12.5586 6.67863 12.5586 6.95016C12.5586 7.2217 12.7787 7.44183 13.0503 7.44183C13.3218 7.44183 13.5419 7.2217 13.5419 6.95016C13.5419 6.67863 13.3218 6.4585 13.0503 6.4585Z" fill="white"/>
<path fill-rule="evenodd" clip-rule="evenodd" d="M5.01294 6.10243C4.69141 6.73347 4.69141 7.55955 4.69141 9.2117V10.5884C4.69141 12.2405 4.69141 13.0666 5.01294 13.6976C5.29576 14.2527 5.74705 14.704 6.30214 14.9868C6.93318 15.3084 7.75925 15.3084 9.41141 15.3084H10.7881C12.4402 15.3084 13.2663 15.3084 13.8973 14.9868C14.4524 14.704 14.9037 14.2527 15.1865 13.6976C15.5081 13.0666 15.5081 12.2405 15.5081 10.5884V9.2117C15.5081 7.55955 15.5081 6.73347 15.1865 6.10243C14.9037 5.54735 14.4524 5.09606 13.8973 4.81323C13.2663 4.4917 12.4402 4.4917 10.7881 4.4917H9.41141C7.75925 4.4917 6.93318 4.4917 6.30214 4.81323C5.74705 5.09606 5.29576 5.54735 5.01294 6.10243ZM10.7881 5.47503H9.41141C8.5691 5.47503 7.99651 5.4758 7.55393 5.51196C7.12282 5.54718 6.90235 5.61102 6.74856 5.68938C6.37851 5.87794 6.07765 6.1788 5.88909 6.54885C5.81073 6.70265 5.74689 6.92311 5.71166 7.35422C5.67551 7.79681 5.67474 8.3694 5.67474 9.2117V10.5884C5.67474 11.4307 5.67551 12.0032 5.71166 12.4458C5.74689 12.877 5.81073 13.0974 5.88909 13.2512C6.07765 13.6213 6.37851 13.9221 6.74856 14.1107C6.90235 14.189 7.12282 14.2529 7.55393 14.2881C7.99651 14.3242 8.5691 14.325 9.41141 14.325H10.7881C11.6304 14.325 12.2029 14.3242 12.6455 14.2881C13.0767 14.2529 13.2971 14.189 13.4509 14.1107C13.821 13.9221 14.1218 13.6213 14.3104 13.2512C14.3887 13.0974 14.4526 12.877 14.4878 12.4458C14.524 12.0032 14.5247 11.4307 14.5247 10.5884V9.2117C14.5247 8.3694 14.524 7.79681 14.4878 7.35422C14.4526 6.92311 14.3887 6.70265 14.3104 6.54885C14.1218 6.1788 13.821 5.87794 13.4509 5.68938C13.2971 5.61102 13.0767 5.54718 12.6455 5.51196C12.2029 5.4758 11.6304 5.47503 10.7881 5.47503Z" fill="white"/>
</g>
<circle cx="10" cy="10" r="9.5" stroke="white"/>
<defs>
<clipPath id="clip0_237_7780">
<rect width="11.8" height="11.8" fill="white" transform="translate(4.2002 4)"/>
</clipPath>
</defs>
</svg>
