<svg width="21" height="20" viewBox="0 0 21 20" fill="none" xmlns="http://www.w3.org/2000/svg">
<path d="M10.3262 4.86416C10.7533 4.86416 12.2238 4.97761 12.9168 6.51408C13.145 7.02002 13.0865 7.93652 13.0396 8.67275C13.0323 8.78959 13.025 8.90283 13.0191 9.01096L13.0166 9.05745L13.048 9.09207C13.0607 9.10598 13.1793 9.22857 13.4431 9.23865L13.4474 9.23888L13.4518 9.23879C13.6262 9.23222 13.8227 9.17864 14.0361 9.0798C14.0675 9.06525 14.1093 9.05815 14.1536 9.05815C14.204 9.05815 14.2576 9.06753 14.3018 9.08593L14.3085 9.08856C14.4204 9.12733 14.4995 9.20043 14.5007 9.26658C14.5013 9.30398 14.4731 9.43869 14.0765 9.59363C14.0377 9.60876 13.9867 9.62486 13.9275 9.6433C13.6694 9.72435 13.2795 9.84665 13.1483 10.1525C13.0744 10.3247 13.0946 10.528 13.2084 10.7566C13.2552 10.8646 13.9919 12.5057 15.6496 12.7758C15.6493 12.7836 15.6473 12.7921 15.6428 12.8021C15.6147 12.8675 15.4361 13.0936 14.3248 13.2632C14.1509 13.2896 14.1083 13.4823 14.0589 13.7064C14.0411 13.7867 14.023 13.8676 13.998 13.9513C13.9904 13.9766 13.989 13.978 13.9616 13.978C13.9578 13.978 13.9534 13.978 13.9485 13.978C13.8993 13.978 13.8244 13.9679 13.7377 13.9511C13.5798 13.9206 13.3641 13.8833 13.0883 13.8833C12.9344 13.8833 12.7758 13.8966 12.6167 13.9228C12.2767 13.9788 12.0001 14.1722 11.7072 14.3769C11.3139 14.6518 10.9073 14.9362 10.287 14.9362C10.2599 14.9362 10.2335 14.9353 10.207 14.934L10.2 14.9337L10.193 14.9343C10.1778 14.9356 10.1625 14.9362 10.1468 14.9362C9.52658 14.9362 9.11986 14.6519 8.72669 14.3769C8.43373 14.1722 8.15703 13.9788 7.81701 13.9228C7.65806 13.8967 7.49936 13.8833 7.34552 13.8833C7.06979 13.8833 6.8538 13.9251 6.69621 13.9555C6.6095 13.9723 6.53443 13.9867 6.4853 13.9867C6.44506 13.9867 6.44429 13.9843 6.43578 13.9556C6.41085 13.8719 6.39262 13.789 6.37487 13.7089C6.32535 13.4845 6.28272 13.2907 6.10891 13.2643C4.99769 13.0946 4.81907 12.8681 4.79088 12.8028C4.78648 12.7926 4.7845 12.7838 4.78406 12.776C6.44175 12.5061 7.17831 10.865 7.22525 10.7566C7.3392 10.5282 7.35941 10.3249 7.28528 10.1525C7.15405 9.84682 6.76419 9.72435 6.50628 9.64344C6.44698 9.62489 6.39593 9.60876 6.35714 9.59363C6.02223 9.46277 5.91921 9.33094 5.93452 9.25106C5.95227 9.15894 6.11376 9.06528 6.25468 9.06528C6.28635 9.06528 6.31412 9.07033 6.33466 9.07983C6.56353 9.18591 6.77246 9.2397 6.95572 9.2397C7.2438 9.2397 7.37202 9.10714 7.38579 9.09201L7.41702 9.05748L7.41451 9.01123C7.40869 8.90315 7.40151 8.78994 7.39394 8.67334C7.34718 7.93693 7.28868 7.02105 7.51679 6.51507C8.20722 4.98424 9.67061 4.86623 10.1026 4.86623C10.1132 4.86623 10.301 4.86433 10.301 4.86433C10.3087 4.86427 10.3173 4.86416 10.3262 4.86416ZM10.3262 4.6001H10.3257C10.3159 4.6001 10.3066 4.6001 10.2978 4.60021C10.2276 4.60092 10.1122 4.60203 10.1019 4.60214C9.84879 4.60214 9.34244 4.63749 8.79854 4.87491C8.48756 5.01056 8.20784 5.19398 7.96718 5.42009C7.68025 5.6895 7.4465 6.02166 7.27255 6.4075C7.01779 6.97243 7.07827 7.92399 7.12684 8.68867L7.12702 8.68987C7.13222 8.77177 7.13768 8.85728 7.14268 8.94061C7.1053 8.95758 7.04471 8.97549 6.9554 8.97549C6.8117 8.97549 6.64082 8.93006 6.44763 8.84054C6.39079 8.81436 6.32591 8.80113 6.25433 8.80113C6.13931 8.80113 6.01807 8.83461 5.91289 8.89576C5.78057 8.9726 5.69507 9.0812 5.67184 9.2016C5.65654 9.28125 5.65728 9.43866 5.8341 9.5983C5.93136 9.68619 6.07423 9.76723 6.25864 9.83931C6.30703 9.85816 6.36447 9.87615 6.4253 9.89523C6.63639 9.96158 6.95587 10.0618 7.03918 10.2557C7.0814 10.3541 7.06323 10.4834 6.98533 10.6398C6.98329 10.6441 6.98125 10.6482 6.97939 10.6526C6.95992 10.6976 6.77828 11.1045 6.40571 11.5336C6.194 11.7776 5.96081 11.9815 5.713 12.1399C5.41053 12.3332 5.08325 12.4596 4.74033 12.5154C4.60567 12.5373 4.50951 12.6559 4.51701 12.7908C4.51932 12.8296 4.52853 12.8684 4.54452 12.9059C4.54464 12.9061 4.54478 12.9063 4.5449 12.9065C4.59935 13.0325 4.72559 13.1395 4.93083 13.2338C5.18163 13.349 5.55671 13.446 6.04557 13.5218C6.07027 13.5682 6.09591 13.685 6.11367 13.7649C6.13225 13.8499 6.15163 13.9372 6.17926 14.03C6.20907 14.1306 6.28638 14.2507 6.485 14.2507C6.56028 14.2507 6.64684 14.2339 6.74709 14.2147C6.89389 14.1862 7.09464 14.1474 7.3452 14.1474C7.48411 14.1474 7.62808 14.1595 7.77299 14.1833C8.05233 14.2293 8.29314 14.3975 8.57176 14.5923C8.97958 14.8774 9.4412 15.2001 10.1465 15.2001C10.1657 15.2001 10.185 15.1995 10.2041 15.1982C10.2274 15.1993 10.2563 15.2001 10.2868 15.2001C10.9923 15.2001 11.4538 14.8773 11.8612 14.5924L11.8618 14.5918C12.1405 14.3973 12.381 14.2293 12.6603 14.1833C12.8051 14.1595 12.9491 14.1474 13.088 14.1474C13.3274 14.1474 13.5169 14.1775 13.6862 14.2102C13.7966 14.2317 13.8824 14.242 13.9483 14.242L13.9547 14.2421H13.9614C14.1067 14.2421 14.2134 14.1633 14.2541 14.0253C14.2812 13.9345 14.3005 13.8492 14.3196 13.7628C14.3362 13.6878 14.3627 13.5678 14.3874 13.5208C14.8766 13.4448 15.2515 13.3481 15.5024 13.233C15.7071 13.139 15.8332 13.0322 15.888 12.9067C15.9044 12.8691 15.914 12.8302 15.9162 12.7905C15.9239 12.6559 15.8276 12.537 15.6928 12.5151C14.1688 12.2667 13.4822 10.7181 13.4539 10.6524C13.452 10.648 13.45 10.6437 13.4478 10.6396C13.3699 10.4831 13.3519 10.3539 13.3941 10.2554C13.4773 10.0617 13.7966 9.96144 14.0078 9.89512C14.069 9.87607 14.1266 9.85795 14.1746 9.8392C14.3826 9.75797 14.5312 9.66986 14.6292 9.56979C14.7464 9.4505 14.7692 9.3362 14.7677 9.26141C14.7642 9.08044 14.6243 8.91963 14.4018 8.84089C14.3266 8.81016 14.2409 8.79394 14.1536 8.79394C14.0942 8.79394 14.0062 8.80201 13.9229 8.84045C13.7447 8.92296 13.5849 8.96807 13.4478 8.9745C13.3749 8.97085 13.3238 8.95522 13.2907 8.94029C13.2948 8.8697 13.2994 8.79718 13.3042 8.72157L13.3062 8.6892C13.355 7.92402 13.4157 6.97173 13.1608 6.40639C12.9861 6.01918 12.7515 5.68617 12.4635 5.41618C12.2219 5.18992 11.9412 5.00653 11.6291 4.87097C11.086 4.6353 10.5796 4.6001 10.3262 4.6001Z" fill="white" stroke="white" stroke-width="0.5"/>
<circle cx="10.3164" cy="10" r="9.5" stroke="white"/>
</svg>
