<svg width="107" height="32" viewBox="0 0 107 32" fill="none" xmlns="http://www.w3.org/2000/svg">
<path d="M105.625 27.7856C105.625 28.1821 105.546 28.5747 105.395 28.941C105.243 29.3073 105.02 29.6401 104.739 29.9203C104.459 30.2006 104.126 30.4227 103.759 30.5742C103.393 30.7257 103 30.8034 102.603 30.803H3.72747C2.92608 30.8038 2.15716 30.4864 1.58983 29.9206C1.02249 29.3547 0.703193 28.5867 0.702148 27.7856V3.72254C0.703192 2.921 1.02237 2.15263 1.58959 1.58615C2.15681 1.01967 2.92571 0.70138 3.72747 0.701172H102.602C102.999 0.701172 103.392 0.779328 103.759 0.931175C104.125 1.08302 104.459 1.30559 104.739 1.58616C105.02 1.86673 105.242 2.19981 105.394 2.56637C105.546 2.93294 105.624 3.32581 105.624 3.72254L105.625 27.7856Z" fill="white"/>
<path d="M102.602 31.505H3.72669C2.73946 31.5047 1.79264 31.113 1.09398 30.4157C0.395314 29.7184 0.00187842 28.7725 0 27.7856L0 3.72333C0.00146045 2.73588 0.394637 1.78933 1.09328 1.09132C1.79192 0.393305 2.73897 0.000833446 3.72669 0L102.602 0C103.589 0.00124932 104.536 0.393854 105.235 1.09178C105.933 1.7897 106.326 2.73601 106.328 3.72333V27.7856C106.33 29.8371 104.655 31.505 102.602 31.505Z" fill="#A6A6A6"/>
<path d="M105.625 27.7856C105.625 28.1821 105.546 28.5747 105.395 28.941C105.243 29.3073 105.02 29.6401 104.739 29.9203C104.459 30.2006 104.126 30.4227 103.759 30.5742C103.393 30.7257 103 30.8034 102.603 30.803H3.72747C2.92608 30.8038 2.15716 30.4864 1.58983 29.9206C1.02249 29.3547 0.703193 28.5867 0.702148 27.7856V3.72254C0.703192 2.921 1.02237 2.15263 1.58959 1.58615C2.15681 1.01967 2.92571 0.70138 3.72747 0.701172H102.602C102.999 0.701172 103.392 0.779328 103.759 0.931175C104.125 1.08302 104.459 1.30559 104.739 1.58616C105.02 1.86673 105.242 2.19981 105.394 2.56637C105.546 2.93294 105.624 3.32581 105.624 3.72254L105.625 27.7856Z" fill="black"/>
<path d="M23.7428 15.5871C23.7199 13.0479 25.8224 11.8125 25.9186 11.755C24.7278 10.0194 22.8822 9.78226 22.2336 9.76335C20.6835 9.60027 19.1799 10.6906 18.3903 10.6906C17.5849 10.6906 16.369 9.77911 15.0584 9.8059C13.372 9.8319 11.7943 10.808 10.9291 12.3238C9.14335 15.4145 10.4752 19.9564 12.186 22.4547C13.0418 23.679 14.0419 25.0443 15.3508 24.9962C16.6314 24.9443 17.1097 24.1808 18.6551 24.1808C20.1863 24.1808 20.6355 24.9963 21.9704 24.9655C23.3448 24.9443 24.2101 23.7365 25.0359 22.5019C26.0249 21.1004 26.4221 19.7185 26.4379 19.6476C26.4064 19.6366 23.7695 18.6297 23.7428 15.5871ZM21.221 8.11992C21.9097 7.25881 22.381 6.08729 22.2502 4.89844C21.2533 4.94256 20.0066 5.5878 19.2887 6.43C18.6535 7.17215 18.0861 8.38857 18.2327 9.53252C19.3525 9.61603 20.5023 8.96763 21.221 8.11992Z" fill="white"/>
<path d="M102.602 0H49.6416L70.3854 31.505H102.602C103.59 31.5041 104.537 31.1119 105.235 30.4142C105.934 29.7165 106.327 28.7704 106.329 27.7832V3.72333C106.327 2.73595 105.934 1.78951 105.236 1.09155C104.537 0.393579 103.59 0.00104146 102.602 0Z" fill="url(#paint0_linear_237_7744)"/>
<path d="M42.2912 24.82H40.5016L39.5212 21.7403H36.1137L35.1799 24.82H33.4375L36.8143 14.3354H38.8995L42.2912 24.82ZM39.2257 20.4482L38.3392 17.7105C38.2454 17.4308 38.0689 16.7722 37.8104 15.7354H37.7789C37.6748 16.1813 37.5086 16.8399 37.2808 17.7105L36.4092 20.4482H39.2257ZM50.9582 20.9469C50.9582 22.2327 50.6091 23.249 49.9101 23.9951C49.2844 24.6592 48.5066 24.9909 47.579 24.9909C46.5774 24.9909 45.8572 24.634 45.4198 23.9187V27.8855H43.7397V19.7447C43.7397 18.9372 43.7184 18.1091 43.6774 17.2598H45.155L45.2488 18.4582H45.2803C45.8406 17.5553 46.6909 17.1039 47.832 17.1039C48.7241 17.1039 49.4688 17.456 50.0646 18.1611C50.6595 18.8678 50.9582 19.7959 50.9582 20.9469ZM49.2466 21.0084C49.2466 20.2725 49.0811 19.6659 48.7485 19.1877C48.3852 18.6906 47.8974 18.4416 47.2859 18.4416C46.8714 18.4416 46.4947 18.5803 46.1582 18.8536C45.8209 19.1294 45.6003 19.4894 45.497 19.9354C45.4509 20.1021 45.4247 20.2737 45.419 20.4467V21.708C45.419 22.2571 45.5876 22.7212 45.9249 23.1009C46.2622 23.4791 46.7004 23.6689 47.2394 23.6689C47.8722 23.6689 48.3647 23.4239 48.717 22.9378C49.07 22.4501 49.2466 21.8073 49.2466 21.0084ZM59.6559 20.9469C59.6559 22.2327 59.3068 23.249 58.6078 23.9951C57.9813 24.6592 57.2043 24.9909 56.276 24.9909C55.2743 24.9909 54.5541 24.634 54.1167 23.9187V27.8855H52.4366V19.7447C52.4366 18.9372 52.4153 18.1091 52.3743 17.2598H53.8519L53.9457 18.4582H53.9772C54.5367 17.5553 55.387 17.1039 56.5289 17.1039C57.4202 17.1039 58.1649 17.456 58.7622 18.1611C59.3564 18.8678 59.6559 19.7959 59.6559 20.9469ZM57.9435 21.0084C57.9435 20.2725 57.7772 19.6659 57.4446 19.1877C57.0813 18.6906 56.5951 18.4416 55.9836 18.4416C55.5691 18.4416 55.1924 18.5803 54.8543 18.8536C54.517 19.1294 54.2972 19.4894 54.1939 19.9354C54.1427 20.1433 54.1151 20.3127 54.1151 20.4467V21.708C54.1151 22.2571 54.2846 22.7212 54.6203 23.1009C54.9575 23.4783 55.3957 23.6689 55.9363 23.6689C56.5699 23.6689 57.0624 23.4239 57.4139 22.9378C57.7669 22.4501 57.9435 21.8073 57.9435 21.0084ZM69.3804 21.879C69.3804 22.7716 69.0684 23.4972 68.4482 24.0573C67.7657 24.6687 66.813 24.9752 65.5915 24.9752C64.463 24.9752 63.5583 24.7577 62.8759 24.322L63.2644 22.9221C64.0012 23.3585 64.8105 23.576 65.6916 23.576C66.3252 23.576 66.8177 23.4326 67.1692 23.1482C67.5214 22.863 67.6995 22.4817 67.6995 22.0058C67.6995 21.5796 67.5521 21.2227 67.2629 20.932C66.9721 20.642 66.4914 20.3718 65.8161 20.1236C63.9799 19.439 63.0611 18.4377 63.0611 17.1204C63.0611 16.2601 63.3857 15.5557 64.0335 15.005C64.6813 14.4551 65.5403 14.1802 66.6089 14.1802C67.5632 14.1802 68.3583 14.3464 68.9895 14.6781L68.5679 16.0474C67.9738 15.7259 67.3031 15.5652 66.5529 15.5652C65.9603 15.5652 65.4953 15.7109 65.1628 16.0009C64.883 16.2601 64.7412 16.576 64.7412 16.951C64.7412 17.3646 64.9027 17.7081 65.2243 17.9776C65.5032 18.2257 66.0123 18.496 66.7483 18.7859C67.6514 19.1499 68.315 19.5737 68.7397 20.0606C69.1676 20.5475 69.3804 21.1549 69.3804 21.879ZM74.9496 18.5204H73.0977V22.1909C73.0977 23.1245 73.4239 23.5901 74.078 23.5901C74.3782 23.5901 74.6273 23.5649 74.8243 23.5121L74.8708 24.7877C74.5398 24.9114 74.104 24.9736 73.5642 24.9736C72.9006 24.9736 72.3821 24.7711 72.0078 24.3662C71.635 23.9612 71.4475 23.2829 71.4475 22.328V18.5172H70.3442V17.2567H71.4475V15.8725L73.0977 15.3745V17.2567H74.9496V18.5204ZM83.2887 20.9777C83.2887 22.1397 82.9562 23.0938 82.2926 23.8399C81.5983 24.608 80.6747 24.9909 79.5234 24.9909C78.4123 24.9909 77.5289 24.623 76.87 23.8879C76.2112 23.1513 75.8818 22.2232 75.8818 21.1037C75.8818 19.9322 76.2223 18.9726 76.9008 18.2265C77.5809 17.4797 78.4966 17.1062 79.6479 17.1062C80.7575 17.1062 81.6488 17.4749 82.3233 18.2108C82.968 18.9246 83.2887 19.8463 83.2887 20.9777ZM81.5471 21.0163C81.5471 20.3238 81.3974 19.7297 81.0971 19.2326C80.7449 18.6323 80.2405 18.3321 79.5872 18.3321C78.9142 18.3321 78.3981 18.6323 78.0466 19.2326C77.7456 19.7297 77.5958 20.334 77.5958 21.0478C77.5958 21.7411 77.7456 22.3367 78.0466 22.8322C78.4099 23.4326 78.9166 23.7327 79.573 23.7327C80.2153 23.7327 80.7189 23.4263 81.083 22.8173C81.3919 22.3083 81.5471 21.7104 81.5471 21.0163ZM88.7523 18.737C88.5775 18.7055 88.4002 18.6899 88.2227 18.6906C87.6316 18.6906 87.1746 18.9127 86.8531 19.3602C86.5741 19.7541 86.4338 20.2521 86.4338 20.8532V24.82H84.7537V19.6407C84.7552 18.8471 84.7389 18.0535 84.7048 17.2606H86.1682L86.2297 18.7071H86.2762C86.4543 18.21 86.7333 17.809 87.1163 17.5088C87.4668 17.2465 87.8928 17.1045 88.3306 17.1039C88.4859 17.1039 88.6262 17.1149 88.7507 17.1346L88.7523 18.737ZM96.2663 20.6822C96.2706 20.9376 96.25 21.1927 96.2048 21.4441H91.1645C91.1834 22.1909 91.4277 22.7629 91.8958 23.1568C92.3205 23.5082 92.8698 23.6847 93.5444 23.6847C94.2907 23.6847 94.9715 23.5665 95.5839 23.3278L95.8471 24.493C95.1315 24.805 94.2867 24.9602 93.3119 24.9602C92.1393 24.9602 91.2188 24.6151 90.549 23.9266C89.8807 23.2372 89.5458 22.3107 89.5458 21.1502C89.5458 20.011 89.8571 19.0616 90.4804 18.3045C91.1329 17.4962 92.0148 17.092 93.1243 17.092C94.2142 17.092 95.0393 17.4962 95.5996 18.3045C96.0433 18.945 96.2663 19.7392 96.2663 20.6822ZM94.6642 20.2465C94.676 19.7478 94.5657 19.3185 94.3379 18.9553C94.0472 18.4873 93.5995 18.2541 92.9998 18.2541C92.4506 18.2541 92.003 18.4818 91.6625 18.9387C91.3828 19.3019 91.2165 19.7384 91.1653 20.245L94.6642 20.2465Z" fill="white"/>
<path d="M35.629 10.6286C35.1617 10.6286 34.7574 10.6058 34.4209 10.5672V5.49822C34.8915 5.42554 35.3671 5.38971 35.8433 5.39107C37.7701 5.39107 38.6575 6.33884 38.6575 7.8838C38.6575 9.6659 37.6093 10.6286 35.629 10.6286ZM35.9111 6.04104C35.651 6.04104 35.4296 6.0568 35.246 6.09461V9.94794C35.3453 9.9637 35.536 9.97079 35.8039 9.97079C37.0664 9.97079 37.7851 9.25228 37.7851 7.90665C37.7851 6.70677 37.1349 6.04104 35.9111 6.04104ZM41.4227 10.6672C40.3368 10.6672 39.6331 9.85655 39.6331 8.75594C39.6331 7.60884 40.3518 6.79106 41.4842 6.79106C42.5544 6.79106 43.2738 7.56315 43.2738 8.69528C43.2738 9.85655 42.5323 10.6672 41.4227 10.6672ZM41.4542 7.39455C40.8577 7.39455 40.4755 7.95234 40.4755 8.7323C40.4755 9.4973 40.8656 10.0551 41.4464 10.0551C42.0271 10.0551 42.4172 9.45869 42.4172 8.71655C42.4172 7.96022 42.035 7.39455 41.4542 7.39455ZM49.4663 6.86748L48.304 10.5829H47.5466L47.0651 8.96944C46.9454 8.57477 46.8457 8.1743 46.7665 7.76956H46.7507C46.69 8.17451 46.575 8.58025 46.4528 8.96944L45.9406 10.5829H45.1754L44.0816 6.86748H44.9303L45.3511 8.63382C45.4504 9.05453 45.534 9.4516 45.6033 9.82661H45.6191C45.6798 9.51384 45.7791 9.12307 45.9248 8.6417L46.4528 6.86827H47.1258L47.631 8.60389C47.7531 9.02459 47.8524 9.43742 47.9296 9.8274H47.9517C48.0053 9.4453 48.0896 9.03956 48.2039 8.60389L48.6554 6.86827L49.4663 6.86748ZM53.7454 10.5829H52.9196V8.44947C52.9196 7.79241 52.6674 7.46309 52.1701 7.46309C51.6807 7.46309 51.3443 7.8838 51.3443 8.37305V10.5829H50.5184V7.92949C50.5184 7.60096 50.5105 7.2488 50.4876 6.8667H51.2142L51.2528 7.44025H51.2757C51.4979 7.04317 51.9487 6.79106 52.4538 6.79106C53.234 6.79106 53.7462 7.38746 53.7462 8.35808L53.7454 10.5829ZM56.0229 10.5829H55.1962V5.1626H56.0229V10.5829ZM59.034 10.6672C57.9489 10.6672 57.2444 9.85655 57.2444 8.75594C57.2444 7.60884 57.9631 6.79106 59.0947 6.79106C60.1657 6.79106 60.8844 7.56315 60.8844 8.69528C60.8852 9.85655 60.1428 10.6672 59.034 10.6672ZM59.0648 7.39455C58.4682 7.39455 58.086 7.95234 58.086 8.7323C58.086 9.4973 58.4769 10.0551 59.0561 10.0551C59.6377 10.0551 60.027 9.45869 60.027 8.71655C60.0278 7.96022 59.6463 7.39455 59.0648 7.39455ZM64.1406 10.5829L64.0807 10.1551H64.0586C63.8065 10.4994 63.4384 10.6672 62.9719 10.6672C62.306 10.6672 61.8332 10.2008 61.8332 9.57372C61.8332 8.65667 62.6283 8.18239 64.0051 8.18239V8.11385C64.0051 7.6246 63.7458 7.37958 63.2335 7.37958C62.8671 7.37958 62.5456 7.47176 62.2627 7.65533L62.0948 7.1125C62.4384 6.89821 62.8671 6.79106 63.3707 6.79106C64.3416 6.79106 64.8317 7.30316 64.8317 8.32814V9.69662C64.8317 10.0716 64.8483 10.3623 64.8853 10.5837L64.1406 10.5829ZM64.0271 8.7323C63.1098 8.7323 62.6496 8.95448 62.6496 9.48154C62.6496 9.87152 62.8868 10.0622 63.2162 10.0622C63.6362 10.0622 64.0271 9.74153 64.0271 9.30585V8.7323ZM68.8421 10.5829L68.8035 9.98655H68.7806C68.5434 10.4372 68.1447 10.6672 67.5875 10.6672C66.6915 10.6672 66.028 9.8794 66.028 8.77091C66.028 7.60884 66.7159 6.79028 67.6553 6.79028C68.1526 6.79028 68.5048 6.95809 68.7034 7.29528H68.72V5.1626H69.5466V9.5816C69.5466 9.94085 69.5553 10.2773 69.5773 10.5829H68.8421ZM68.72 8.39668C68.72 7.87671 68.3756 7.43316 67.8499 7.43316C67.2376 7.43316 66.8633 7.97598 66.8633 8.74018C66.8633 9.48942 67.2518 10.0023 67.8334 10.0023C68.3527 10.0023 68.72 9.55087 68.72 9.01593V8.39668ZM74.7879 10.6672C73.7028 10.6672 72.9991 9.85655 72.9991 8.75594C72.9991 7.60884 73.7178 6.79106 74.8494 6.79106C75.9204 6.79106 76.6391 7.56315 76.6391 8.69528C76.6398 9.85655 75.8983 10.6672 74.7879 10.6672ZM74.8187 7.39455C74.2229 7.39455 73.8407 7.95234 73.8407 8.7323C73.8407 9.4973 74.2308 10.0551 74.8108 10.0551C75.3924 10.0551 75.7817 9.45869 75.7817 8.71655C75.7832 7.96022 75.401 7.39455 74.8187 7.39455ZM81.0805 10.5829H80.2538V8.44947C80.2538 7.79241 80.0017 7.46309 79.5044 7.46309C79.015 7.46309 78.6793 7.8838 78.6793 8.37305V10.5829H77.8527V7.92949C77.8527 7.60096 77.8448 7.2488 77.8219 6.8667H78.5485L78.5871 7.44025H78.61C78.8314 7.04317 79.283 6.79028 79.7873 6.79028C80.5675 6.79028 81.0805 7.38667 81.0805 8.35729V10.5829ZM86.637 7.48673H85.7284V9.29088C85.7284 9.75019 85.8876 9.97946 86.2091 9.97946C86.3549 9.97946 86.4771 9.9637 86.5756 9.94085L86.5984 10.568C86.4384 10.6294 86.2241 10.6602 85.9577 10.6602C85.3068 10.6602 84.9175 10.3009 84.9175 9.36021V7.48673H84.3753V6.86748H84.9175V6.18679L85.7284 5.94177V6.8667H86.637V7.48673ZM91.0091 10.5829H90.184V8.46523C90.184 7.80029 89.9327 7.46388 89.4346 7.46388C89.0067 7.46388 88.6079 7.75459 88.6079 8.34311V10.5829H87.7829V5.1626H88.6079V7.39455H88.6245C88.8846 6.9896 89.2612 6.79028 89.7419 6.79028C90.5284 6.79028 91.0091 7.40164 91.0091 8.37305V10.5829ZM95.4884 8.92375H93.01C93.0258 9.62729 93.4915 10.0244 94.181 10.0244C94.5475 10.0244 94.8848 9.96291 95.1826 9.84867L95.3111 10.4222C94.9596 10.5751 94.5459 10.6515 94.0644 10.6515C92.902 10.6515 92.2141 9.91722 92.2141 8.77879C92.2141 7.63957 92.9186 6.78319 93.9714 6.78319C94.921 6.78319 95.5168 7.48673 95.5168 8.54953C95.5221 8.67495 95.5126 8.80056 95.4884 8.92375ZM94.7311 8.33523C94.7311 7.76168 94.4419 7.35673 93.9139 7.35673C93.4395 7.35673 93.0644 7.76956 93.0108 8.33523H94.7311Z" fill="white"/>
<defs>
<linearGradient id="paint0_linear_237_7744" x1="77.9845" y1="31.5886" x2="77.9845" y2="-82.0335" gradientUnits="userSpaceOnUse">
<stop stop-color="#1A1A1A" stop-opacity="0.1"/>
<stop offset="0.123" stop-color="#212121" stop-opacity="0.151"/>
<stop offset="0.308" stop-color="#353535" stop-opacity="0.227"/>
<stop offset="0.532" stop-color="#575757" stop-opacity="0.318"/>
<stop offset="0.783" stop-color="#858585" stop-opacity="0.421"/>
<stop offset="1" stop-color="#B3B3B3" stop-opacity="0.51"/>
</linearGradient>
</defs>
</svg>
