<svg width="190" height="57" viewBox="0 0 190 57" fill="none" xmlns="http://www.w3.org/2000/svg">
<path d="M182.94 56.8792H7.07746C3.13814 56.8792 0.0429688 53.784 0.0429688 49.8447V7.63776C0.0429688 3.69845 3.13814 0.603271 7.07746 0.603271H182.94C186.879 0.603271 189.974 3.69845 189.974 7.63776V49.8447C189.974 53.784 186.879 56.8792 182.94 56.8792Z" fill="black"/>
<path d="M66.7304 14.9538C66.7304 16.0793 66.4491 17.0641 65.7456 17.7676C64.9015 18.6117 63.9167 19.0338 62.6504 19.0338C61.3842 19.0338 60.3994 18.6117 59.5553 17.7676C58.7111 16.9235 58.2891 15.9386 58.2891 14.6724C58.2891 13.4062 58.7111 12.4214 59.5553 11.5772C60.3994 10.7331 61.3842 10.311 62.6504 10.311C63.2132 10.311 63.776 10.4517 64.3387 10.7331C64.9015 11.0145 65.3235 11.2959 65.6049 11.7179L64.9015 12.4214C64.3387 11.7179 63.6353 11.4366 62.6504 11.4366C61.8063 11.4366 60.9622 11.7179 60.3994 12.4214C59.696 12.9841 59.4146 13.8283 59.4146 14.8131C59.4146 15.7979 59.696 16.6421 60.3994 17.2048C61.1029 17.7676 61.8063 18.1897 62.6504 18.1897C63.6353 18.1897 64.3387 17.9083 65.0422 17.2048C65.4642 16.7828 65.7456 16.22 65.7456 15.5166H62.6504V14.391H66.7304V14.9538ZM73.2022 11.4366H69.4036V14.1097H72.9208V15.0945H69.4036V17.7676H73.2022V18.8931H68.278V10.4517H73.2022V11.4366ZM77.8449 18.8931H76.7194V11.4366H74.3277V10.4517H80.2367V11.4366H77.8449V18.8931ZM84.3167 18.8931V10.4517H85.4422V18.8931H84.3167ZM90.2256 18.8931H89.1001V11.4366H86.7084V10.4517H92.4767V11.4366H90.0849V18.8931H90.2256ZM103.591 17.7676C102.747 18.6117 101.762 19.0338 100.496 19.0338C99.2298 19.0338 98.245 18.6117 97.4008 17.7676C96.5567 16.9235 96.1346 15.9386 96.1346 14.6724C96.1346 13.4062 96.5567 12.4214 97.4008 11.5772C98.245 10.7331 99.2298 10.311 100.496 10.311C101.762 10.311 102.747 10.7331 103.591 11.5772C104.435 12.4214 104.857 13.4062 104.857 14.6724C104.857 15.9386 104.435 16.9235 103.591 17.7676ZM98.245 17.0641C98.8077 17.6269 99.6519 18.049 100.496 18.049C101.34 18.049 102.184 17.7676 102.747 17.0641C103.31 16.5014 103.732 15.6572 103.732 14.6724C103.732 13.6876 103.45 12.8435 102.747 12.2807C102.184 11.7179 101.34 11.2959 100.496 11.2959C99.6519 11.2959 98.8077 11.5772 98.245 12.2807C97.6822 12.8435 97.2601 13.6876 97.2601 14.6724C97.2601 15.6572 97.5415 16.5014 98.245 17.0641ZM106.405 18.8931V10.4517H107.671L111.751 17.0641V10.4517H112.877V18.8931H111.751L107.39 11.9993V18.8931H106.405Z" fill="white" stroke="white" stroke-width="1.18519" stroke-miterlimit="10"/>
<path d="M95.8534 31.2736C92.4769 31.2736 89.8038 33.806 89.8038 37.3232C89.8038 40.6998 92.4769 43.3729 95.8534 43.3729C99.23 43.3729 101.903 40.8405 101.903 37.3232C101.903 33.6653 99.23 31.2736 95.8534 31.2736ZM95.8534 40.8405C94.0245 40.8405 92.4769 39.2929 92.4769 37.1825C92.4769 35.0722 94.0245 33.5246 95.8534 33.5246C97.6824 33.5246 99.23 34.9315 99.23 37.1825C99.23 39.2929 97.6824 40.8405 95.8534 40.8405ZM82.7693 31.2736C79.3927 31.2736 76.7196 33.806 76.7196 37.3232C76.7196 40.6998 79.3927 43.3729 82.7693 43.3729C86.1458 43.3729 88.8189 40.8405 88.8189 37.3232C88.8189 33.6653 86.1458 31.2736 82.7693 31.2736ZM82.7693 40.8405C80.9403 40.8405 79.3927 39.2929 79.3927 37.1825C79.3927 35.0722 80.9403 33.5246 82.7693 33.5246C84.5982 33.5246 86.1458 34.9315 86.1458 37.1825C86.1458 39.2929 84.5982 40.8405 82.7693 40.8405ZM67.1527 33.1025V35.6349H73.2024C73.0617 37.0418 72.4989 38.1674 71.7955 38.8708C70.9513 39.7149 69.5444 40.6998 67.1527 40.6998C63.3541 40.6998 60.5403 37.7453 60.5403 33.9467C60.5403 30.148 63.4948 27.1935 67.1527 27.1935C69.1224 27.1935 70.67 28.0377 71.7955 29.0225L73.6244 27.1935C72.0769 25.7866 70.1072 24.6611 67.2934 24.6611C62.2286 24.6611 57.8672 28.8818 57.8672 33.9467C57.8672 39.0115 62.2286 43.2322 67.2934 43.2322C70.1072 43.2322 72.0769 42.388 73.7651 40.5591C75.4534 38.8708 76.0162 36.4791 76.0162 34.6501C76.0162 34.0873 76.0162 33.5246 75.8755 33.1025H67.1527ZM131.026 35.0722C130.463 33.6653 129.056 31.2736 125.961 31.2736C122.866 31.2736 120.333 33.6653 120.333 37.3232C120.333 40.6998 122.866 43.3729 126.242 43.3729C128.916 43.3729 130.604 41.6846 131.167 40.6998L129.197 39.2929C128.493 40.2777 127.649 40.9811 126.242 40.9811C124.836 40.9811 123.991 40.4184 123.288 39.1522L131.307 35.7756L131.026 35.0722ZM122.866 37.0418C122.866 34.7908 124.695 33.5246 125.961 33.5246C126.946 33.5246 127.931 34.0873 128.212 34.7908L122.866 37.0418ZM116.253 42.8101H118.927V25.2239H116.253V42.8101ZM112.033 32.5398C111.329 31.8363 110.204 31.1329 108.797 31.1329C105.842 31.1329 103.029 33.806 103.029 37.1825C103.029 40.5591 105.702 43.0915 108.797 43.0915C110.204 43.0915 111.329 42.388 111.892 41.6846H112.033V42.5287C112.033 44.7798 110.767 46.046 108.797 46.046C107.249 46.046 106.124 44.9205 105.842 43.9356L103.591 44.9205C104.295 46.468 105.983 48.4377 108.938 48.4377C112.033 48.4377 114.565 46.6087 114.565 42.2474V31.5549H112.033V32.5398ZM108.938 40.8405C107.109 40.8405 105.561 39.2929 105.561 37.1825C105.561 35.0722 107.109 33.5246 108.938 33.5246C110.767 33.5246 112.173 35.0722 112.173 37.1825C112.173 39.2929 110.767 40.8405 108.938 40.8405ZM143.266 25.2239H136.935V42.8101H139.608V36.1977H143.266C146.22 36.1977 149.034 34.0873 149.034 30.7108C149.034 27.3342 146.22 25.2239 143.266 25.2239ZM143.407 33.6653H139.608V27.6156H143.407C145.376 27.6156 146.502 29.3039 146.502 30.5701C146.361 32.1177 145.236 33.6653 143.407 33.6653ZM159.586 31.1329C157.616 31.1329 155.647 31.977 154.943 33.806L157.335 34.7908C157.898 33.806 158.742 33.5246 159.727 33.5246C161.133 33.5246 162.4 34.3687 162.54 35.7756V35.9163C162.118 35.6349 160.993 35.2129 159.867 35.2129C157.335 35.2129 154.802 36.6198 154.802 39.1522C154.802 41.5439 156.913 43.0915 159.164 43.0915C160.993 43.0915 161.837 42.2474 162.54 41.4032H162.681V42.8101H165.213V36.057C164.932 32.9618 162.54 31.1329 159.586 31.1329ZM159.305 40.8405C158.46 40.8405 157.194 40.4184 157.194 39.2929C157.194 37.886 158.742 37.4639 160.008 37.4639C161.133 37.4639 161.696 37.7453 162.4 38.0267C162.118 39.7149 160.711 40.8405 159.305 40.8405ZM174.077 31.5549L171.122 39.1522H170.982L167.887 31.5549H165.073L169.716 42.2474L167.042 48.1563H169.716L176.891 31.5549H174.077ZM150.441 42.8101H153.114V25.2239H150.441V42.8101Z" fill="white"/>
<path d="M14.676 11.155C14.254 11.5771 14.1133 12.2805 14.1133 13.1247V44.2171C14.1133 45.0613 14.3947 45.7647 14.8167 46.1868L14.9574 46.3275L32.403 28.8819V28.6006L14.676 11.155Z" fill="url(#paint0_linear_548_25547)"/>
<path d="M38.03 34.7909L32.2617 29.0226V28.6006L38.03 22.8323L38.1707 22.973L45.0645 26.9123C47.0341 28.0378 47.0341 29.8668 45.0645 30.9923L38.03 34.7909Z" fill="url(#paint1_linear_548_25547)"/>
<path d="M38.171 34.6502L32.262 28.7412L14.6758 46.3274C15.3792 47.0309 16.3641 47.0309 17.6303 46.4681L38.171 34.6502Z" fill="url(#paint2_linear_548_25547)"/>
<path d="M38.171 22.8324L17.6303 11.1551C16.3641 10.4517 15.3792 10.5924 14.6758 11.2958L32.262 28.7413L38.171 22.8324Z" fill="url(#paint3_linear_548_25547)"/>
<path opacity="0.2" d="M38.0303 34.5095L17.6303 46.0461C16.5047 46.7495 15.5199 46.6088 14.8165 46.0461L14.6758 46.1868L14.8165 46.3275C15.5199 46.8902 16.5047 47.0309 17.6303 46.3275L38.0303 34.5095Z" fill="black"/>
<path opacity="0.12" d="M14.676 46.0461C14.254 45.624 14.1133 44.9205 14.1133 44.0764V44.2171C14.1133 45.0612 14.3947 45.7647 14.8167 46.1867V46.0461H14.676ZM45.065 30.5702L38.0305 34.5095L38.1712 34.6502L45.065 30.7109C46.0499 30.1481 46.4719 29.4447 46.4719 28.7412C46.4719 29.4447 45.9092 30.0074 45.065 30.5702Z" fill="black"/>
<path opacity="0.25" d="M17.6305 11.2957L45.065 26.9123C45.9092 27.4751 46.4719 28.0378 46.4719 28.7413C46.4719 28.0378 46.0499 27.3344 45.065 26.7716L17.6305 11.1551C15.6609 10.0295 14.1133 10.8737 14.1133 13.1247V13.2654C14.1133 11.1551 15.6609 10.1702 17.6305 11.2957Z" fill="white"/>
<defs>
<linearGradient id="paint0_linear_548_25547" x1="30.7147" y1="12.8574" x2="7.10271" y2="36.4679" gradientUnits="userSpaceOnUse">
<stop stop-color="#00A0FF"/>
<stop offset="0.007" stop-color="#00A1FF"/>
<stop offset="0.26" stop-color="#00BEFF"/>
<stop offset="0.512" stop-color="#00D2FF"/>
<stop offset="0.76" stop-color="#00DFFF"/>
<stop offset="1" stop-color="#00E3FF"/>
</linearGradient>
<linearGradient id="paint1_linear_548_25547" x1="47.6447" y1="28.7427" x2="13.602" y2="28.7427" gradientUnits="userSpaceOnUse">
<stop stop-color="#FFE000"/>
<stop offset="0.409" stop-color="#FFBD00"/>
<stop offset="0.775" stop-color="#FFA500"/>
<stop offset="1" stop-color="#FF9C00"/>
</linearGradient>
<linearGradient id="paint2_linear_548_25547" x1="34.9731" y1="31.9714" x2="2.95492" y2="63.9896" gradientUnits="userSpaceOnUse">
<stop stop-color="#FF3A44"/>
<stop offset="1" stop-color="#C31162"/>
</linearGradient>
<linearGradient id="paint3_linear_548_25547" x1="10.3102" y1="0.850991" x2="24.6085" y2="15.1493" gradientUnits="userSpaceOnUse">
<stop stop-color="#32A071"/>
<stop offset="0.069" stop-color="#2DA771"/>
<stop offset="0.476" stop-color="#15CF74"/>
<stop offset="0.801" stop-color="#06E775"/>
<stop offset="1" stop-color="#00F076"/>
</linearGradient>
</defs>
</svg>
