<svg width="21" height="20" viewBox="0 0 21 20" fill="none" xmlns="http://www.w3.org/2000/svg">
<mask id="path-1-inside-1_237_7763" fill="white">
<path fill-rule="evenodd" clip-rule="evenodd" d="M12.1529 7.73236C12.4915 7.97534 12.8661 8.17196 13.2669 8.31256C12.8661 8.1719 12.4915 7.97522 12.1529 7.73217V7.73236ZM14.729 7.12117V7.12109C14.9016 7.15865 15.0817 7.1787 15.2694 7.1787V9.03137C14.3087 9.03137 13.4182 8.72346 12.6928 8.20268V11.9707C12.6928 13.8535 11.1618 15.3832 9.28314 15.3832C8.3 15.3832 7.41195 14.9626 6.78906 14.2941C7.03006 14.4633 7.29435 14.6025 7.57592 14.7057C7.29455 14.6025 7.03044 14.4634 6.78959 14.2943C6.22174 13.6834 5.87402 12.8672 5.87402 11.9709C5.87402 10.1157 7.35995 8.60345 9.2011 8.56339V10.0124C9.20199 10.0127 9.20287 10.0129 9.20376 10.0132V8.5611C9.21752 8.5611 9.23065 8.56047 9.24378 8.55985L9.24379 8.55985C9.25693 8.55922 9.27006 8.55859 9.28382 8.55859C9.44141 8.55859 9.59399 8.57112 9.74411 8.59118V10.4839C9.599 10.4388 9.44392 10.4113 9.28382 10.4113C8.42577 10.4113 7.72784 11.1099 7.72784 11.9686C7.72784 12.3091 7.83791 12.6221 8.02302 12.8774C7.52771 12.6171 7.1875 12.0963 7.1875 11.4979C7.1875 11.0239 7.40017 10.5987 7.73504 10.3128C7.39864 10.5987 7.18484 11.0249 7.18484 11.5002C7.18484 12.0986 7.52505 12.6168 8.02036 12.8797C8.30554 13.2703 8.76333 13.5282 9.28367 13.5282C10.1217 13.5282 10.8071 12.8597 10.8371 12.0285L10.8396 4.6001H12.1955C12.304 5.17789 12.6035 5.68861 13.0268 6.06227C13.1208 6.14521 13.2208 6.22139 13.3263 6.29006C13.6864 6.70305 14.1739 7.00344 14.729 7.12117ZM13.0268 6.06227C13.1209 6.14521 13.221 6.22139 13.3264 6.29006C12.9312 5.83691 12.6936 5.24605 12.6936 4.6001H12.1982C12.3026 5.17789 12.6031 5.68861 13.0268 6.06227Z"/>
</mask>
<path fill-rule="evenodd" clip-rule="evenodd" d="M12.1529 7.73236C12.4915 7.97534 12.8661 8.17196 13.2669 8.31256C12.8661 8.1719 12.4915 7.97522 12.1529 7.73217V7.73236ZM14.729 7.12117V7.12109C14.9016 7.15865 15.0817 7.1787 15.2694 7.1787V9.03137C14.3087 9.03137 13.4182 8.72346 12.6928 8.20268V11.9707C12.6928 13.8535 11.1618 15.3832 9.28314 15.3832C8.3 15.3832 7.41195 14.9626 6.78906 14.2941C7.03006 14.4633 7.29435 14.6025 7.57592 14.7057C7.29455 14.6025 7.03044 14.4634 6.78959 14.2943C6.22174 13.6834 5.87402 12.8672 5.87402 11.9709C5.87402 10.1157 7.35995 8.60345 9.2011 8.56339V10.0124C9.20199 10.0127 9.20287 10.0129 9.20376 10.0132V8.5611C9.21752 8.5611 9.23065 8.56047 9.24378 8.55985L9.24379 8.55985C9.25693 8.55922 9.27006 8.55859 9.28382 8.55859C9.44141 8.55859 9.59399 8.57112 9.74411 8.59118V10.4839C9.599 10.4388 9.44392 10.4113 9.28382 10.4113C8.42577 10.4113 7.72784 11.1099 7.72784 11.9686C7.72784 12.3091 7.83791 12.6221 8.02302 12.8774C7.52771 12.6171 7.1875 12.0963 7.1875 11.4979C7.1875 11.0239 7.40017 10.5987 7.73504 10.3128C7.39864 10.5987 7.18484 11.0249 7.18484 11.5002C7.18484 12.0986 7.52505 12.6168 8.02036 12.8797C8.30554 13.2703 8.76333 13.5282 9.28367 13.5282C10.1217 13.5282 10.8071 12.8597 10.8371 12.0285L10.8396 4.6001H12.1955C12.304 5.17789 12.6035 5.68861 13.0268 6.06227C13.1208 6.14521 13.2208 6.22139 13.3263 6.29006C13.6864 6.70305 14.1739 7.00344 14.729 7.12117ZM13.0268 6.06227C13.1209 6.14521 13.221 6.22139 13.3264 6.29006C12.9312 5.83691 12.6936 5.24605 12.6936 4.6001H12.1982C12.3026 5.17789 12.6031 5.68861 13.0268 6.06227Z" fill="white"/>
<path d="M12.1529 7.73236H-21.1804V24.8401L-7.28105 34.8143L12.1529 7.73236ZM13.2669 8.31256L2.23303 39.7667L24.3047 -23.1402L13.2669 8.31256ZM12.1529 7.73217L31.5909 -19.3469L-21.1804 -57.2273L-21.1804 7.73217H12.1529ZM14.729 7.12117L7.8138 39.7293L48.0624 48.2648V7.12117H14.729ZM14.729 7.12109L21.8171 -25.4499L-18.6043 -34.2464V7.12109H14.729ZM15.2694 7.1787H48.6027V-26.1546H15.2694V7.1787ZM15.2694 9.03137V42.3647H48.6027V9.03137H15.2694ZM12.6928 8.20268L32.1316 -18.8757L-20.6406 -56.7596V8.20268H12.6928ZM6.78906 14.2941L25.9408 -12.9882L-17.5977 37.0184L6.78906 14.2941ZM7.57592 14.7057L-3.89589 46.0028L19.0529 -16.5895L7.57592 14.7057ZM6.78959 14.2943L-17.6247 36.989L-15.235 39.5599L-12.3622 41.5765L6.78959 14.2943ZM9.2011 8.56339H42.5344V-25.5031L8.476 -24.7621L9.2011 8.56339ZM9.2011 10.0124H-24.1322V34.7273L-0.483443 41.9079L9.2011 10.0124ZM9.20376 10.0132L-0.530316 41.8936L42.5371 55.0434V10.0132H9.20376ZM9.20376 8.5611V-24.7722H-24.1296V8.5611H9.20376ZM9.24378 8.55985L10.8327 41.8553L11.226 41.8365L11.6187 41.8085L9.24378 8.55985ZM9.24379 8.55985L7.65533 -24.7356L7.26183 -24.7168L6.86889 -24.6888L9.24379 8.55985ZM9.74411 8.59118H43.0774V-20.5859L14.1572 -24.4487L9.74411 8.59118ZM9.74411 10.4839L-0.143864 42.3169L43.0774 55.7423V10.4839H9.74411ZM8.02302 12.8774L-7.48679 42.3826L35.0108 -6.68703L8.02302 12.8774ZM7.73504 10.3128L29.3765 35.6655L-13.8499 -15.088L7.73504 10.3128ZM8.02036 12.8797L34.9414 -6.77656L30.4202 -12.9687L23.6479 -16.5633L8.02036 12.8797ZM10.8371 12.0285L44.1488 13.2298L44.1702 12.635L44.1704 12.0398L10.8371 12.0285ZM10.8396 4.6001V-28.7332H-22.4823L-22.4937 4.58873L10.8396 4.6001ZM12.1955 4.6001L44.9562 -1.55178L39.852 -28.7332H12.1955V4.6001ZM13.3263 6.29006L38.4503 -15.6164L35.4038 -19.1104L31.5195 -21.6405L13.3263 6.29006ZM13.3264 6.29006L-4.86682 34.2206L38.4464 -15.6211L13.3264 6.29006ZM12.6936 4.6001H46.0269V-28.7332H12.6936V4.6001ZM12.1982 4.6001V-28.7332H-27.6975L-20.604 10.5268L12.1982 4.6001ZM-7.28105 34.8143C-4.4049 36.8782 -1.20791 38.5597 2.23303 39.7667L24.3007 -23.1416C26.94 -22.2158 29.388 -20.9275 31.5869 -19.3496L-7.28105 34.8143ZM-7.28501 34.8113C-4.40895 36.8758 -1.21197 38.5578 2.22903 39.7653L24.3047 -23.1402C26.9441 -22.214 29.392 -20.9253 31.5909 -19.3469L-7.28501 34.8113ZM45.4863 7.73236V7.73217H-21.1804V7.73236H45.4863ZM48.0624 7.12117V7.12109H-18.6043V7.12117H48.0624ZM7.64091 39.6921C10.1319 40.2342 12.6881 40.512 15.2694 40.512V-26.1546C17.4754 -26.1546 19.6714 -25.9169 21.8171 -25.4499L7.64091 39.6921ZM-18.064 7.1787V9.03137H48.6027V7.1787H-18.064ZM15.2694 -24.302C21.5364 -24.302 27.4006 -22.272 32.1316 -18.8757L-6.74614 35.2811C-0.564208 39.7189 7.0811 42.3647 15.2694 42.3647V-24.302ZM-20.6406 8.20268V11.9707H46.0261V8.20268H-20.6406ZM-20.6406 11.9707C-20.6406 -4.54499 -7.25874 -17.9501 9.28314 -17.9501V48.7166C29.5823 48.7166 46.0261 32.2519 46.0261 11.9707H-20.6406ZM9.28314 -17.9501C18.005 -17.9501 25.8116 -14.187 31.1759 -8.43021L-17.5977 37.0184C-10.9877 44.1121 -1.40498 48.7166 9.28314 48.7166V-17.9501ZM-12.3627 41.5764C-9.78186 43.3881 -6.94059 44.8868 -3.89589 46.0028L19.0477 -16.5914C21.5293 -15.6818 23.842 -14.4615 25.9408 -12.9882L-12.3627 41.5764ZM-12.3622 41.5765C-9.78342 43.3868 -6.94411 44.8849 -3.90102 46.0009L19.0529 -16.5895C21.5332 -15.6799 23.8443 -14.4601 25.9414 -12.9879L-12.3622 41.5765ZM-27.4593 11.9709C-27.4593 21.6692 -23.6596 30.4969 -17.6247 36.989L31.2039 -8.40045C36.1031 -3.13008 39.2074 4.06517 39.2074 11.9709H-27.4593ZM8.476 -24.7621C-11.4929 -24.3276 -27.4593 -8.00614 -27.4593 11.9709H39.2074C39.2074 28.2375 26.2128 41.5345 9.9262 41.8888L8.476 -24.7621ZM42.5344 10.0124V8.56339H-24.1322V10.0124H42.5344ZM18.9378 -21.8672C18.9252 -21.871 18.9072 -21.8765 18.8856 -21.8831L-0.483443 41.9079C-0.503216 41.9019 -0.519436 41.8969 -0.530316 41.8936L18.9378 -21.8672ZM-24.1296 8.5611V10.0132H42.5371V8.5611H-24.1296ZM7.65483 -24.7356C7.61599 -24.7337 7.81348 -24.7436 8.04591 -24.7518C8.30518 -24.761 8.70882 -24.7722 9.20376 -24.7722V41.8944C9.71246 41.8944 10.1295 41.8829 10.4021 41.8732C10.5384 41.8684 10.6495 41.8636 10.7192 41.8605C10.7546 41.859 10.7835 41.8576 10.8018 41.8568C10.8111 41.8563 10.8188 41.856 10.8237 41.8557C10.8284 41.8555 10.8324 41.8553 10.8327 41.8553L7.65483 -24.7356ZM6.86889 -24.6888L6.86888 -24.6888L11.6187 41.8085H11.6187L6.86889 -24.6888ZM9.28382 -24.7747C8.77528 -24.7747 8.35832 -24.7632 8.0858 -24.7535C7.94953 -24.7487 7.83846 -24.744 7.76877 -24.7409C7.7334 -24.7393 7.70447 -24.7379 7.68623 -24.7371C7.67695 -24.7366 7.66928 -24.7363 7.6643 -24.736C7.65969 -24.7358 7.65562 -24.7356 7.65533 -24.7356L10.8323 41.8553C10.8712 41.8535 10.6737 41.8633 10.4413 41.8715C10.1821 41.8807 9.7786 41.8919 9.28382 41.8919V-24.7747ZM14.1572 -24.4487C12.8737 -24.6202 11.2161 -24.7747 9.28382 -24.7747V41.8919C7.66672 41.8919 6.31431 41.7624 5.33098 41.6311L14.1572 -24.4487ZM43.0774 10.4839V8.59118H-23.5892V10.4839H43.0774ZM9.28382 43.7447C5.63047 43.7447 2.44086 43.1198 -0.143864 42.3169L19.6321 -21.3491C16.7571 -22.2421 13.2574 -22.922 9.28382 -22.922V43.7447ZM41.0612 11.9686C41.0612 29.493 26.8616 43.7447 9.28382 43.7447V-22.922C-10.0101 -22.922 -25.6055 -7.27324 -25.6055 11.9686H41.0612ZM35.0108 -6.68703C38.7662 -1.50679 41.0612 4.97449 41.0612 11.9686H-25.6055C-25.6055 19.6438 -23.0904 26.7509 -18.9648 32.4419L35.0108 -6.68703ZM-26.1458 11.4979C-26.1458 25.0272 -18.4478 36.6208 -7.48679 42.3826L23.5328 -16.6278C33.5032 -11.3867 40.5208 -0.834525 40.5208 11.4979H-26.1458ZM-13.9064 -15.0399C-21.3234 -8.70865 -26.1458 0.834743 -26.1458 11.4979H40.5208C40.5208 21.213 36.1237 29.906 29.3765 35.6655L-13.9064 -15.0399ZM40.5182 11.5002C40.5182 21.2414 36.0978 29.954 29.32 35.7136L-13.8499 -15.088C-21.3005 -8.75663 -26.1485 0.808421 -26.1485 11.5002H40.5182ZM23.6479 -16.5633C33.4346 -11.3687 40.5182 -0.914233 40.5182 11.5002H-26.1485C-26.1485 25.1114 -18.3845 36.6024 -7.60716 42.3228L23.6479 -16.5633ZM9.28367 -19.8051C20.1252 -19.8051 29.3874 -14.3832 34.9414 -6.77656L-18.9006 32.536C-12.7763 40.9238 -2.59856 46.8615 9.28367 46.8615V-19.8051ZM-22.4746 10.8271C-21.8624 -6.14829 -7.9438 -19.8051 9.28367 -19.8051V46.8615C28.1872 46.8615 43.4766 31.8677 44.1488 13.2298L-22.4746 10.8271ZM-22.4937 4.58873L-22.4962 12.0171L44.1704 12.0398L44.173 4.61147L-22.4937 4.58873ZM12.1955 -28.7332H10.8396V37.9334H12.1955V-28.7332ZM35.0857 -18.9281C40.0905 -14.5103 43.6612 -8.44798 44.9562 -1.55178L-20.5653 10.752C-19.0533 18.8038 -14.8835 25.8876 -9.03205 31.0526L35.0857 -18.9281ZM31.5195 -21.6405C32.7794 -20.8199 33.9706 -19.9124 35.0857 -18.9281L-9.03202 31.0526C-7.72901 32.2028 -6.33771 33.2626 -4.86698 34.2206L31.5195 -21.6405ZM21.6442 -25.487C28.5223 -24.0283 34.3118 -20.3628 38.4503 -15.6164L-11.7978 28.1965C-6.93904 33.7689 -0.174476 38.0352 7.8138 39.7293L21.6442 -25.487ZM-9.01873 31.0644C-7.71773 32.2115 -6.33063 33.2671 -4.86682 34.2206L31.5197 -21.6405C32.7727 -20.8243 33.9595 -19.9211 35.0724 -18.9398L-9.01873 31.0644ZM38.4464 -15.6211C43.1596 -10.2176 46.0269 -3.09049 46.0269 4.6001H-20.6398C-20.6398 13.5826 -17.2973 21.8914 -11.7935 28.2012L38.4464 -15.6211ZM12.6936 -28.7332H12.1982V37.9334H12.6936V-28.7332ZM-20.604 10.5268C-19.1122 18.7831 -14.8488 25.9236 -9.01874 31.0643L35.0724 -18.9398C40.055 -14.5464 43.7175 -8.42733 45.0005 -1.3266L-20.604 10.5268Z" fill="white" mask="url(#path-1-inside-1_237_7763)"/>
<circle cx="10.4736" cy="10" r="9.5" stroke="white"/>
</svg>
