<svg width="107" height="32" viewBox="0 0 107 32" fill="none" xmlns="http://www.w3.org/2000/svg">
<path d="M103.063 31.4966H4.63629C2.43153 31.4966 0.699219 29.7642 0.699219 27.5595V3.93707C0.699219 1.73231 2.43153 0 4.63629 0H103.063C105.268 0 107 1.73231 107 3.93707V27.5595C107 29.7642 105.268 31.4966 103.063 31.4966Z" fill="black"/>
<path d="M103.063 0.629931C104.874 0.629931 106.37 2.12602 106.37 3.93707V27.5595C106.37 29.3705 104.874 30.8666 103.063 30.8666H4.63629C2.82524 30.8666 1.32915 29.3705 1.32915 27.5595V3.93707C1.32915 2.12602 2.82524 0.629931 4.63629 0.629931H103.063ZM103.063 0H4.63629C2.43153 0 0.699219 1.81105 0.699219 3.93707V27.5595C0.699219 29.7642 2.43153 31.4966 4.63629 31.4966H103.063C105.268 31.4966 107 29.7642 107 27.5595V3.93707C107 1.81105 105.268 0 103.063 0Z" fill="#A6A6A6"/>
<path d="M8.88918 5.90624C8.65296 6.14246 8.57422 6.53617 8.57422 7.00862V24.4105C8.57422 24.8829 8.7317 25.2766 8.96793 25.5128L9.04667 25.5916L18.8106 15.8277V15.6702L8.88918 5.90624Z" fill="url(#paint0_linear_237_7753)"/>
<path d="M21.9603 19.1348L18.7319 15.9064V15.6702L21.9603 12.4418L22.039 12.5205L25.8973 14.7253C26.9997 15.3552 26.9997 16.3789 25.8973 17.0088L21.9603 19.1348Z" fill="url(#paint1_linear_237_7753)"/>
<path d="M22.0393 19.0561L18.7321 15.749L8.88946 25.5917C9.28317 25.9854 9.83436 25.9854 10.543 25.6704L22.0393 19.0561Z" fill="url(#paint2_linear_237_7753)"/>
<path d="M22.0393 12.4418L10.543 5.9063C9.83436 5.5126 9.28317 5.59134 8.88946 5.98505L18.7321 15.749L22.0393 12.4418Z" fill="url(#paint3_linear_237_7753)"/>
<path opacity="0.2" d="M21.9597 18.9766L10.5422 25.4334C9.91231 25.8271 9.36112 25.7483 8.96741 25.4334L8.88867 25.5121L8.96741 25.5908C9.36112 25.9058 9.91231 25.9845 10.5422 25.5908L21.9597 18.9766Z" fill="black"/>
<path opacity="0.12" d="M8.88918 25.4337C8.65296 25.1975 8.57422 24.8038 8.57422 24.3313V24.4101C8.57422 24.8825 8.7317 25.2762 8.96793 25.5125V25.4337H8.88918ZM25.8973 16.7722L21.9603 18.9769L22.039 19.0557L25.8973 16.8509C26.4485 16.5359 26.6847 16.1422 26.6847 15.7485C26.6847 16.1422 26.3698 16.4572 25.8973 16.7722Z" fill="black"/>
<path opacity="0.25" d="M10.5428 5.98448L25.8973 14.7248C26.3698 15.0397 26.6847 15.3547 26.6847 15.7484C26.6847 15.3547 26.4485 14.961 25.8973 14.646L10.5428 5.90574C9.44037 5.27581 8.57422 5.74825 8.57422 7.00812V7.08686C8.57422 5.90574 9.44037 5.35455 10.5428 5.98448Z" fill="white"/>
<path d="M54.3219 17.1661C52.4321 17.1661 50.936 18.5835 50.936 20.552C50.936 22.4418 52.4321 23.9379 54.3219 23.9379C56.2117 23.9379 57.7078 22.5206 57.7078 20.552C57.7078 18.5047 56.2117 17.1661 54.3219 17.1661ZM54.3219 22.5206C53.2983 22.5206 52.4321 21.6544 52.4321 20.4733C52.4321 19.2922 53.2983 18.426 54.3219 18.426C55.3455 18.426 56.2117 19.2134 56.2117 20.4733C56.2117 21.6544 55.3455 22.5206 54.3219 22.5206ZM46.9989 17.1661C45.1091 17.1661 43.6131 18.5835 43.6131 20.552C43.6131 22.4418 45.1091 23.9379 46.9989 23.9379C48.8887 23.9379 50.3848 22.5206 50.3848 20.552C50.3848 18.5047 48.8887 17.1661 46.9989 17.1661ZM46.9989 22.5206C45.9753 22.5206 45.1091 21.6544 45.1091 20.4733C45.1091 19.2922 45.9753 18.426 46.9989 18.426C48.0226 18.426 48.8887 19.2134 48.8887 20.4733C48.8887 21.6544 48.0226 22.5206 46.9989 22.5206ZM38.2586 18.1898V19.6071H41.6445C41.5658 20.3945 41.2508 21.0245 40.8571 21.4182C40.3847 21.8906 39.5973 22.4418 38.2586 22.4418C36.1326 22.4418 34.5578 20.7882 34.5578 18.6622C34.5578 16.5362 36.2114 14.8826 38.2586 14.8826C39.361 14.8826 40.2272 15.3551 40.8571 15.9063L41.8807 14.8826C41.0146 14.0952 39.9122 13.4653 38.3374 13.4653C35.5027 13.4653 33.0617 15.8275 33.0617 18.6622C33.0617 21.4969 35.5027 23.8592 38.3374 23.8592C39.9122 23.8592 41.0146 23.3867 41.9595 22.3631C42.9044 21.4182 43.2194 20.0796 43.2194 19.0559C43.2194 18.741 43.2194 18.426 43.1406 18.1898H38.2586ZM74.0072 19.2922C73.6923 18.5047 72.9049 17.1661 71.1726 17.1661C69.4402 17.1661 68.0229 18.5047 68.0229 20.552C68.0229 22.4418 69.4402 23.9379 71.33 23.9379C72.8261 23.9379 73.771 22.993 74.086 22.4418L72.9836 21.6544C72.5899 22.2056 72.1174 22.5993 71.33 22.5993C70.5426 22.5993 70.0702 22.2843 69.6765 21.5757L74.1647 19.6859L74.0072 19.2922ZM69.4402 20.3945C69.4402 19.1347 70.4639 18.426 71.1726 18.426C71.7237 18.426 72.2749 18.741 72.4324 19.1347L69.4402 20.3945ZM65.7394 23.6229H67.2355V13.7803H65.7394V23.6229ZM63.3772 17.8748C62.9834 17.4811 62.3535 17.0874 61.5661 17.0874C59.9125 17.0874 58.3377 18.5835 58.3377 20.4733C58.3377 22.3631 59.8338 23.7804 61.5661 23.7804C62.3535 23.7804 62.9834 23.3867 63.2984 22.993H63.3772V23.4654C63.3772 24.7253 62.6685 25.434 61.5661 25.434C60.6999 25.434 60.07 24.8041 59.9125 24.2529L58.6527 24.8041C59.0464 25.6702 59.9913 26.7726 61.6448 26.7726C63.3772 26.7726 64.7945 25.749 64.7945 23.308V17.3236H63.3772V17.8748ZM61.6448 22.5206C60.6212 22.5206 59.7551 21.6544 59.7551 20.4733C59.7551 19.2922 60.6212 18.426 61.6448 18.426C62.6685 18.426 63.4559 19.2922 63.4559 20.4733C63.4559 21.6544 62.6685 22.5206 61.6448 22.5206ZM80.8577 13.7803H77.3144V23.6229H78.8105V19.9221H80.8577C82.5113 19.9221 84.0861 18.741 84.0861 16.8512C84.0861 14.9614 82.5113 13.7803 80.8577 13.7803ZM80.9365 18.5047H78.8105V15.1189H80.9365C82.0389 15.1189 82.6688 16.0638 82.6688 16.7724C82.5901 17.6386 81.9601 18.5047 80.9365 18.5047ZM89.9917 17.0874C88.8894 17.0874 87.787 17.5598 87.3933 18.5835L88.7319 19.1347C89.0469 18.5835 89.5193 18.426 90.0705 18.426C90.8579 18.426 91.5666 18.8984 91.6453 19.6859V19.7646C91.4091 19.6071 90.7792 19.3709 90.1492 19.3709C88.7319 19.3709 87.3145 20.1583 87.3145 21.5757C87.3145 22.9143 88.4957 23.7804 89.7555 23.7804C90.7792 23.7804 91.2516 23.308 91.6453 22.8355H91.7241V23.6229H93.1414V19.8433C92.9839 18.111 91.6453 17.0874 89.9917 17.0874ZM89.8343 22.5206C89.3618 22.5206 88.6531 22.2843 88.6531 21.6544C88.6531 20.867 89.5193 20.6308 90.228 20.6308C90.8579 20.6308 91.1729 20.7882 91.5666 20.9457C91.4091 21.8906 90.6217 22.5206 89.8343 22.5206ZM98.1021 17.3236L96.4485 21.5757H96.3698L94.6375 17.3236H93.0627L95.6611 23.308L94.165 26.6151H95.6611L99.6769 17.3236H98.1021ZM84.8736 23.6229H86.3696V13.7803H84.8736V23.6229Z" fill="white"/>
<path d="M37.0776 9.60689C36.6051 10.0793 36.054 10.3156 35.3453 10.3156C34.6366 10.3156 34.0854 10.0793 33.613 9.60689C33.1405 9.13445 32.9043 8.58326 32.9043 7.87458C32.9043 7.16591 33.1405 6.61472 33.613 6.14227C34.0854 5.66983 34.6366 5.4336 35.3453 5.4336C36.054 5.4336 36.6051 5.66983 37.0776 6.14227C37.55 6.61472 37.7863 7.16591 37.7863 7.87458C37.7863 8.58326 37.55 9.13445 37.0776 9.60689ZM34.0854 9.21319C34.4004 9.52815 34.8728 9.76438 35.3453 9.76438C35.8177 9.76438 36.2902 9.60689 36.6051 9.21319C36.9201 8.89822 37.1563 8.42577 37.1563 7.87458C37.1563 7.32339 36.9989 6.85095 36.6051 6.53598C36.2902 6.22102 35.8177 5.98479 35.3453 5.98479C34.8728 5.98479 34.4004 6.14227 34.0854 6.53598C33.7705 6.85095 33.5342 7.32339 33.5342 7.87458C33.5342 8.42577 33.6917 8.89822 34.0854 9.21319ZM38.6524 10.2368V5.51234H39.3611L41.6446 9.21319V5.51234H42.2745V10.2368H41.6446L39.2824 6.3785V10.2368H38.6524ZM44.9517 10.2368H44.3218V6.06353H42.9832V5.51234H46.2116V6.06353H44.873V10.2368H44.9517ZM47.0778 10.2368V5.51234H48.4951C49.2038 5.51234 49.8337 5.74857 50.2274 6.14227C50.6999 6.61472 50.8573 7.16591 50.8573 7.87458C50.8573 8.58326 50.6211 9.13445 50.2274 9.60689C49.755 10.0793 49.2038 10.2368 48.4951 10.2368H47.0778ZM47.6289 9.68564H48.4951C49.0463 9.68564 49.44 9.52815 49.755 9.21319C50.0699 8.89822 50.2274 8.42577 50.2274 7.87458C50.2274 7.32339 50.0699 6.85095 49.755 6.53598C49.44 6.22102 48.9676 6.06353 48.4951 6.06353H47.6289V9.68564ZM54.4795 6.06353H52.3534V7.55962H54.322V8.11081H52.3534V9.60689H54.4795V10.2368H51.7235V5.51234H54.4795V6.06353ZM58.9677 5.51234L57.2354 7.55962L59.1252 10.2368H58.4165L56.8417 8.03207L56.133 8.89822V10.2368H55.5031V5.51234H56.133V7.95333L58.1803 5.51234H58.9677ZM61.2512 10.2368V5.51234H61.8811V7.55962H64.2434V5.51234H64.8733V10.2368H64.2434V8.11081H61.8811V10.2368H61.2512ZM68.7316 6.06353H66.6056V7.55962H68.5742V8.11081H66.6056V9.60689H68.7316V10.2368H65.9757V5.51234H68.7316V6.06353ZM71.2514 10.2368H70.6214V6.06353H69.2828V5.51234H72.5112V6.06353H71.1726V10.2368H71.2514ZM78.7318 9.60689C78.2593 10.0793 77.7082 10.3156 76.9995 10.3156C76.2908 10.3156 75.7396 10.0793 75.2672 9.60689C74.7947 9.13445 74.5585 8.58326 74.5585 7.87458C74.5585 7.16591 74.7947 6.61472 75.2672 6.14227C75.7396 5.66983 76.2908 5.4336 76.9995 5.4336C77.7082 5.4336 78.2593 5.66983 78.7318 6.14227C79.2042 6.61472 79.4405 7.16591 79.4405 7.87458C79.4405 8.58326 79.2042 9.13445 78.7318 9.60689ZM75.7396 9.21319C76.0546 9.52815 76.527 9.76438 76.9995 9.76438C77.4719 9.76438 77.9444 9.60689 78.2593 9.21319C78.5743 8.89822 78.8105 8.42577 78.8105 7.87458C78.8105 7.32339 78.6531 6.85095 78.2593 6.53598C77.9444 6.22102 77.4719 5.98479 76.9995 5.98479C76.527 5.98479 76.0546 6.14227 75.7396 6.53598C75.4247 6.85095 75.1884 7.32339 75.1884 7.87458C75.1884 8.42577 75.3459 8.89822 75.7396 9.21319ZM80.8578 10.2368H80.2279V5.51234H81.8027C82.1964 5.51234 82.5114 5.66983 82.8264 5.90605C83.1413 6.14227 83.2988 6.53598 83.2988 6.92969C83.2988 7.32339 83.1413 7.63836 82.8264 7.95333C82.5114 8.18955 82.1964 8.34703 81.8027 8.34703H80.7791V10.2368H80.8578ZM80.8578 7.7171H81.8815C82.1177 7.7171 82.3539 7.63836 82.5114 7.48088C82.6689 7.32339 82.7476 7.08717 82.7476 6.92969C82.7476 6.7722 82.6689 6.53598 82.5114 6.3785C82.3539 6.22102 82.1177 6.14227 81.8815 6.14227H80.8578V7.7171Z" fill="white"/>
<path fill-rule="evenodd" clip-rule="evenodd" d="M35.3453 5.70802C34.7093 5.70802 34.2279 5.91544 33.807 6.33632C33.3861 6.7572 33.1787 7.23855 33.1787 7.87458C33.1787 8.51062 33.3861 8.99197 33.807 9.41285C34.2279 9.83373 34.7093 10.0411 35.3453 10.0411C35.9813 10.0411 36.4627 9.83373 36.8836 9.41285C37.3044 8.99197 37.5118 8.51062 37.5118 7.87458C37.5118 7.23855 37.3044 6.7572 36.8836 6.33632C36.4627 5.91544 35.9813 5.70802 35.3453 5.70802ZM33.4189 5.94823C33.9429 5.42422 34.564 5.15918 35.3453 5.15918C36.1266 5.15918 36.7476 5.42422 37.2716 5.94823C37.7957 6.47224 38.0607 7.09327 38.0607 7.87458C38.0607 8.65589 37.7957 9.27693 37.2716 9.80094C36.7476 10.325 36.1266 10.59 35.3453 10.59C34.564 10.59 33.9429 10.325 33.4189 9.80094C32.8949 9.27693 32.6299 8.65589 32.6299 7.87458C32.6299 7.09327 32.8949 6.47224 33.4189 5.94823ZM76.9995 5.70802C76.3635 5.70802 75.8821 5.91544 75.4612 6.33632C75.0403 6.7572 74.8329 7.23855 74.8329 7.87458C74.8329 8.51062 75.0403 8.99197 75.4612 9.41285C75.8821 9.83373 76.3635 10.0411 76.9995 10.0411C77.6355 10.0411 78.1169 9.83373 78.5378 9.41285C78.9586 8.99196 79.166 8.51062 79.166 7.87458C79.166 7.23855 78.9586 6.7572 78.5378 6.33632C78.1169 5.91543 77.6355 5.70802 76.9995 5.70802ZM75.0731 5.94823C75.5971 5.42422 76.2182 5.15918 76.9995 5.15918C77.7808 5.15918 78.4018 5.42422 78.9258 5.94823C79.4499 6.47224 79.7149 7.09327 79.7149 7.87458C79.7149 8.6559 79.4499 9.27693 78.9258 9.80094C78.4018 10.325 77.7808 10.59 76.9995 10.59C76.2182 10.59 75.5971 10.325 75.0731 9.80094C74.5491 9.27693 74.2841 8.65589 74.2841 7.87458C74.2841 7.09327 74.5491 6.47224 75.0731 5.94823ZM38.378 5.23792H39.5142L41.3702 8.24584V5.23792H42.549V10.5112H41.4908L39.5568 7.35228V10.5112H38.378V5.23792ZM38.9268 5.78676V9.9624H39.0079V5.78676H38.9268ZM41.919 9.9624H42.0001V5.78676H41.919V9.9624ZM42.7088 5.23792H46.486V6.33795H45.1474V10.2368H44.9517V10.5112H44.0474V6.33795H42.7088V5.23792ZM44.5986 9.9624H44.5962V5.78911H43.2576V5.78676H45.9372V5.78911H44.5986V9.9624ZM46.8033 5.23792H48.4951C49.2594 5.23792 49.9653 5.49208 50.4215 5.94823C50.9611 6.48787 51.1318 7.11889 51.1318 7.87458C51.1318 8.65323 50.8692 9.26544 50.4382 9.78257L50.4303 9.79214L50.4215 9.80094C49.8818 10.3406 49.2508 10.5112 48.4951 10.5112H46.8033V5.23792ZM47.3522 5.78676V9.9624H48.4951C49.152 9.9624 49.6213 9.82017 50.0246 9.42155C50.3762 8.99607 50.5829 8.50847 50.5829 7.87458C50.5829 7.21293 50.4386 6.74157 50.0334 6.33632C49.7021 6.00505 49.1481 5.78676 48.4951 5.78676H47.3522ZM51.4491 5.23792H54.7539V6.33795H52.6278V7.2852H54.5964V8.38523H52.6278V9.33247H54.7539V10.5112H51.4491V5.23792ZM51.9979 5.78676V9.9624H54.205V9.88132H52.079V7.83639H54.0475V7.83404H52.079V5.78911H54.205V5.78676H51.9979ZM55.2287 5.23792H56.4074V7.19909L58.0523 5.23792H59.5594L57.582 7.57481L59.6548 10.5112H58.2753L56.8269 8.4835L56.4074 8.99618V10.5112H55.2287V5.23792ZM55.7775 5.78676V9.9624H55.8586V8.80026L56.8565 7.58063L58.5577 9.9624H58.5956L56.8888 7.54443L58.376 5.78676H58.3083L55.8586 8.70756V5.78676H55.7775ZM60.9768 5.23792H62.1556V7.2852H63.969V5.23792H65.1477V10.5112H63.969V8.38523H62.1556V10.5112H60.9768V5.23792ZM61.5256 5.78676V9.9624H61.6067V7.83639H64.5178V9.9624H64.5989V5.78676H64.5178V7.83404H61.6067V5.78676H61.5256ZM65.7013 5.23792H69.0061V6.33795H66.88V7.2852H68.8486V8.38523H66.88V9.33247H69.0061V10.5112H65.7013V5.23792ZM66.2501 5.78676V9.9624H68.4572V9.88132H66.3312V7.83639H68.2997V7.83404H66.3312V5.78911H68.4572V5.78676H66.2501ZM69.0084 5.23792H72.7856V6.33795H71.447V10.2368H71.2514V10.5112H70.347V6.33795H69.0084V5.23792ZM70.8982 9.9624H70.8959V5.78911H69.5572V5.78676H72.2368V5.78911H70.8982V9.9624ZM79.9535 5.23792H81.8027C82.2796 5.23792 82.652 5.43223 82.991 5.68651C83.3893 5.9852 83.5732 6.46902 83.5732 6.92969C83.5732 7.41378 83.3729 7.79489 83.0204 8.14737L83.0066 8.16116L82.991 8.17286C82.652 8.42715 82.2796 8.62145 81.8027 8.62145H81.0535V10.2368H80.8578V10.5112H79.9535V5.23792ZM80.5047 9.9624H80.5023V5.78676H81.8027C82.1133 5.78676 82.3708 5.90742 82.6617 6.12559C82.8934 6.29935 83.0244 6.60294 83.0244 6.92969C83.0244 7.22799 82.9135 7.47358 82.6459 7.74553C82.3615 7.95627 82.1076 8.07261 81.8027 8.07261H80.5047V9.9624ZM33.8808 6.35263C34.2618 5.88504 34.8196 5.71037 35.3453 5.71037C35.8978 5.71037 36.4319 5.97995 36.7885 6.33132C37.2602 6.71568 37.4308 7.27784 37.4308 7.87458C37.4308 8.49912 37.1659 9.03517 36.8098 9.39654C36.4288 9.86413 35.8709 10.0388 35.3453 10.0388C34.7927 10.0388 34.2587 9.76922 33.9021 9.41785C33.4304 9.03349 33.2598 8.47133 33.2598 7.87458C33.2598 7.25005 33.5247 6.714 33.8808 6.35263ZM35.3453 6.25921C34.9305 6.25921 34.5484 6.39654 34.2997 6.70741L34.2902 6.71928L34.2795 6.73003C34.011 6.99851 33.8087 7.40293 33.8087 7.87458C33.8087 8.37522 33.9502 8.75354 34.2569 8.9989L34.2687 9.00839L34.2795 9.01914C34.5529 9.29253 34.9585 9.48995 35.3453 9.48995C35.7601 9.48995 36.1422 9.35263 36.3909 9.04176L36.4004 9.02989L36.4111 9.01914C36.6796 8.75066 36.8819 8.34624 36.8819 7.87458C36.8819 7.37395 36.7404 6.99563 36.4337 6.75027L36.4218 6.74077L36.4111 6.73003C36.1377 6.45664 35.7321 6.25921 35.3453 6.25921ZM75.535 6.35265C75.916 5.88504 76.4738 5.71037 76.9995 5.71037C77.552 5.71037 78.0861 5.97995 78.4427 6.33131C78.9144 6.71568 79.085 7.27784 79.085 7.87458C79.085 8.49911 78.8201 9.03515 78.464 9.39652C78.083 9.86412 77.5251 10.0388 76.9995 10.0388C76.4469 10.0388 75.9129 9.76922 75.5563 9.41785C75.0846 9.03349 74.914 8.47133 74.914 7.87458C74.914 7.25005 75.1789 6.71401 75.535 6.35265ZM76.9995 6.25921C76.5847 6.25921 76.2026 6.39654 75.9539 6.70741L75.9444 6.71928L75.9337 6.73003C75.6652 6.99851 75.4629 7.40293 75.4629 7.87458C75.4629 8.37522 75.6044 8.75354 75.9111 8.9989L75.9229 9.00839L75.9337 9.01914C76.2071 9.29253 76.6127 9.48995 76.9995 9.48995C77.4143 9.48995 77.7964 9.35263 78.0451 9.04176L78.0546 9.02989L78.0653 9.01914C78.3338 8.75066 78.5361 8.34624 78.5361 7.87458C78.5361 7.37395 78.3946 6.99563 78.0879 6.75027L78.076 6.74077L78.0653 6.73003C77.7919 6.45664 77.3863 6.25921 76.9995 6.25921ZM47.3545 5.78911H48.4951C49.022 5.78911 49.5709 5.96386 49.949 6.34194C50.3305 6.72345 50.5018 7.27516 50.5018 7.87458C50.5018 8.47401 50.3305 9.02572 49.949 9.40723C49.5748 9.78142 49.1073 9.96006 48.4951 9.96006H47.3545V5.78911ZM47.9034 6.33795V9.41121H48.4951C48.9853 9.41121 49.3052 9.27488 49.5609 9.01914C49.8093 8.77073 49.953 8.37754 49.953 7.87458C49.953 7.37163 49.8093 6.97844 49.5609 6.73003C49.3091 6.47817 48.9131 6.33795 48.4951 6.33795H47.9034ZM80.5834 5.86785H81.8815C82.1721 5.86785 82.4848 5.96386 82.7054 6.18445C82.9177 6.39677 83.022 6.70433 83.022 6.92969C83.022 7.15505 82.9177 7.46261 82.7054 7.67492C82.4848 7.89552 82.1721 7.99152 81.8815 7.99152H80.5834V5.86785ZM81.1322 6.4167V7.44268H81.8815C82.0632 7.44268 82.223 7.3812 82.3173 7.28683C82.3649 7.23931 82.4053 7.17442 82.4338 7.10337C82.4627 7.03112 82.4732 6.96738 82.4732 6.92969C82.4732 6.89199 82.4627 6.82825 82.4338 6.75601C82.4053 6.68495 82.3649 6.62007 82.3173 6.57254C82.223 6.47817 82.0632 6.4167 81.8815 6.4167H81.1322Z" fill="white"/>
<defs>
<linearGradient id="paint0_linear_237_7753" x1="25.0487" y1="6.62757" x2="13.2467" y2="26.9686" gradientUnits="userSpaceOnUse">
<stop stop-color="#00A0FF"/>
<stop offset="0.007" stop-color="#00A1FF"/>
<stop offset="0.26" stop-color="#00BEFF"/>
<stop offset="0.512" stop-color="#00D2FF"/>
<stop offset="0.76" stop-color="#00DFFF"/>
<stop offset="1" stop-color="#00E3FF"/>
</linearGradient>
<linearGradient id="paint1_linear_237_7753" x1="28.126" y1="15.6558" x2="-15.1422" y2="15.6558" gradientUnits="userSpaceOnUse">
<stop stop-color="#FFE000"/>
<stop offset="0.409" stop-color="#FFBD00"/>
<stop offset="0.775" stop-color="#FFA500"/>
<stop offset="1" stop-color="#FF9C00"/>
</linearGradient>
<linearGradient id="paint2_linear_237_7753" x1="24.2538" y1="9.25488" x2="-9.20464" y2="32.3989" gradientUnits="userSpaceOnUse">
<stop stop-color="#FF3A44"/>
<stop offset="1" stop-color="#C31162"/>
</linearGradient>
<linearGradient id="paint3_linear_237_7753" x1="6.44608" y1="0.139058" x2="14.4486" y2="8.14155" gradientUnits="userSpaceOnUse">
<stop stop-color="#32A071"/>
<stop offset="0.069" stop-color="#2DA771"/>
<stop offset="0.476" stop-color="#15CF74"/>
<stop offset="0.801" stop-color="#06E775"/>
<stop offset="1" stop-color="#00F076"/>
</linearGradient>
</defs>
</svg>
