<svg width="189" height="57" viewBox="0 0 189 57" fill="none" xmlns="http://www.w3.org/2000/svg">
<path d="M187.695 50.2419C187.695 50.9504 187.555 51.6519 187.284 52.3064C187.012 52.9608 186.615 53.5554 186.113 54.0561C185.612 54.5568 185.017 54.9538 184.362 55.2245C183.707 55.4951 183.005 55.634 182.296 55.6332H5.632C4.20013 55.6347 2.82628 55.0676 1.81261 54.0566C0.798932 53.0455 0.228429 51.6734 0.226562 50.2419V7.24774C0.228428 5.8156 0.798706 4.44273 1.81218 3.43058C2.82565 2.41843 4.19948 1.84974 5.632 1.84937H182.295C183.004 1.84937 183.706 1.98901 184.361 2.26032C185.016 2.53163 185.612 2.92929 186.113 3.4306C186.614 3.9319 187.012 4.52703 187.283 5.18198C187.554 5.83693 187.694 6.53888 187.693 7.24774L187.695 50.2419Z" fill="white"/>
<path d="M187.695 50.2419C187.695 50.9504 187.555 51.6519 187.284 52.3064C187.012 52.9608 186.615 53.5554 186.113 54.0561C185.612 54.5568 185.017 54.9538 184.362 55.2245C183.707 55.4951 183.005 55.634 182.296 55.6332H5.632C4.20013 55.6347 2.82628 55.0676 1.81261 54.0566C0.798932 53.0455 0.228429 51.6734 0.226562 50.2419V7.24774C0.228428 5.8156 0.798706 4.44273 1.81218 3.43058C2.82565 2.41843 4.19948 1.84974 5.632 1.84937H182.295C183.004 1.84937 183.706 1.98901 184.361 2.26032C185.016 2.53163 185.612 2.92929 186.113 3.4306C186.614 3.9319 187.012 4.52703 187.283 5.18198C187.554 5.83693 187.694 6.53888 187.693 7.24774L187.695 50.2419Z" fill="black"/>
<path d="M41.3942 28.4456C41.3533 23.9087 45.11 21.7015 45.2817 21.5988C43.1542 18.4977 39.8566 18.074 38.6978 18.0402C35.9282 17.7488 33.2417 19.697 31.8308 19.697C30.3918 19.697 28.2192 18.0684 25.8776 18.1162C22.8645 18.1627 20.0456 19.9068 18.4996 22.6151C15.309 28.1373 17.6885 36.2525 20.7454 40.7162C22.2745 42.9037 24.0613 45.3432 26.4 45.2573C28.6881 45.1644 29.5428 43.8004 32.3039 43.8004C35.0397 43.8004 35.8423 45.2573 38.2275 45.2024C40.6831 45.1644 42.2291 43.0065 43.7048 40.8007C45.4718 38.2964 46.1815 35.8274 46.2096 35.7007C46.1533 35.681 41.442 33.882 41.3942 28.4456ZM36.8885 15.1038C38.1191 13.5652 38.9611 11.4721 38.7274 9.3479C36.9462 9.42673 34.7187 10.5796 33.436 12.0844C32.3011 13.4104 31.2873 15.5838 31.5492 17.6278C33.55 17.777 35.6043 16.6185 36.8885 15.1038Z" fill="white"/>
<path d="M182.295 0.596436H87.668L124.732 56.8874H182.295C184.059 56.8859 185.751 56.185 186.999 54.9385C188.247 53.6919 188.95 52.0014 188.953 50.2376V7.24904C188.95 5.48484 188.248 3.79382 187 2.54674C185.751 1.29966 184.059 0.598296 182.295 0.596436Z" fill="url(#paint0_linear_548_25524)"/>
<path d="M74.5341 44.9433H71.3365L69.5849 39.4408H63.4965L61.828 44.9433H58.7148L64.7483 26.2102H68.4739L74.5341 44.9433ZM69.0568 37.1322L67.4728 32.2406C67.3053 31.7409 66.9899 30.5641 66.528 28.7116H66.4717C66.2858 29.5083 65.9887 30.6851 65.5818 32.2406L64.0245 37.1322H69.0568ZM90.0196 38.0233C90.0196 40.3206 89.3959 42.1364 88.147 43.4695C87.029 44.6561 85.6392 45.2488 83.982 45.2488C82.1924 45.2488 80.9054 44.6111 80.124 43.3329V50.4205H77.1221V35.8752C77.1221 34.4323 77.084 32.9529 77.0108 31.4354H79.6509L79.8184 33.5765H79.8748C80.8759 31.9633 82.3951 31.1567 84.434 31.1567C86.0279 31.1567 87.3585 31.7859 88.4229 33.0458C89.486 34.3084 90.0196 35.9667 90.0196 38.0233ZM86.9614 38.133C86.9614 36.8183 86.6657 35.7344 86.0715 34.8799C85.4224 33.9917 84.5508 33.5469 83.4582 33.5469C82.7176 33.5469 82.0445 33.7946 81.4433 34.2831C80.8407 34.7758 80.4464 35.4191 80.262 36.2158C80.1796 36.5138 80.1328 36.8204 80.1226 37.1294V39.3831C80.1226 40.3642 80.4239 41.1933 81.0265 41.8718C81.6292 42.5475 82.412 42.8867 83.3751 42.8867C84.5058 42.8867 85.3858 42.4489 86.0152 41.5804C86.646 40.7091 86.9614 39.5604 86.9614 38.133ZM105.56 38.0233C105.56 40.3206 104.936 42.1364 103.687 43.4695C102.568 44.6561 101.18 45.2488 99.5211 45.2488C97.7314 45.2488 96.4445 44.6111 95.663 43.3329V50.4205H92.6611V35.8752C92.6611 34.4323 92.6231 32.9529 92.5499 31.4354H95.1899L95.3575 33.5765H95.4138C96.4135 31.9633 97.9328 31.1567 99.973 31.1567C101.566 31.1567 102.896 31.7859 103.963 33.0458C105.025 34.3084 105.56 35.9667 105.56 38.0233ZM102.5 38.133C102.5 36.8183 102.203 35.7344 101.609 34.8799C100.96 33.9917 100.091 33.5469 98.9987 33.5469C98.258 33.5469 97.585 33.7946 96.981 34.2831C96.3783 34.7758 95.9855 35.4191 95.801 36.2158C95.7095 36.5874 95.6602 36.8901 95.6602 37.1294V39.3831C95.6602 40.3642 95.9629 41.1933 96.5628 41.8718C97.1654 42.5461 97.9483 42.8867 98.9142 42.8867C100.046 42.8867 100.926 42.4489 101.554 41.5804C102.185 40.7091 102.5 39.5604 102.5 38.133ZM122.935 39.6885C122.935 41.2834 122.378 42.5798 121.27 43.5807C120.05 44.673 118.348 45.2206 116.165 45.2206C114.149 45.2206 112.533 44.8321 111.313 44.0537L112.007 41.5523C113.324 42.3321 114.77 42.7206 116.344 42.7206C117.476 42.7206 118.356 42.4644 118.984 41.9563C119.614 41.4467 119.932 40.7654 119.932 39.9151C119.932 39.1536 119.669 38.5159 119.152 37.9965C118.632 37.4785 117.773 36.9957 116.567 36.5522C113.286 35.329 111.644 33.5399 111.644 31.1862C111.644 29.6491 112.224 28.3906 113.382 27.4067C114.539 26.4241 116.074 25.9329 117.983 25.9329C119.688 25.9329 121.109 26.2299 122.237 26.8225L121.484 29.269C120.422 28.6947 119.224 28.4075 117.883 28.4075C116.824 28.4075 115.994 28.6679 115.399 29.186C114.9 29.6491 114.646 30.2136 114.646 30.8836C114.646 31.6226 114.935 32.2364 115.509 32.7178C116.008 33.1612 116.917 33.644 118.232 34.162C119.846 34.8124 121.032 35.5697 121.79 36.4396C122.555 37.3096 122.935 38.3949 122.935 39.6885ZM132.886 33.6877H129.577V40.2459C129.577 41.914 130.16 42.746 131.329 42.746C131.865 42.746 132.31 42.7009 132.662 42.6066L132.745 44.8856C132.154 45.1066 131.375 45.2178 130.41 45.2178C129.225 45.2178 128.298 44.856 127.63 44.1325C126.964 43.409 126.629 42.197 126.629 40.4909V33.682H124.657V31.4298H126.629V28.9565L129.577 28.0669V31.4298H132.886V33.6877ZM147.786 38.0782C147.786 40.1545 147.191 41.8591 146.006 43.1922C144.765 44.5646 143.115 45.2488 141.058 45.2488C139.073 45.2488 137.494 44.5914 136.317 43.278C135.14 41.9619 134.552 40.3037 134.552 38.3034C134.552 36.2102 135.16 34.4957 136.372 33.1626C137.587 31.8281 139.223 31.1609 141.28 31.1609C143.263 31.1609 144.855 31.8197 146.061 33.1344C147.213 34.4098 147.786 36.0568 147.786 38.0782ZM144.674 38.1471C144.674 36.9098 144.406 35.8484 143.87 34.9602C143.24 33.8875 142.339 33.3512 141.172 33.3512C139.97 33.3512 139.047 33.8875 138.419 34.9602C137.882 35.8484 137.614 36.9281 137.614 38.2034C137.614 39.4422 137.882 40.5064 138.419 41.3918C139.068 42.4644 139.974 43.0007 141.147 43.0007C142.294 43.0007 143.194 42.4532 143.845 41.365C144.396 40.4557 144.674 39.3873 144.674 38.1471ZM157.548 34.0748C157.235 34.0184 156.919 33.9906 156.601 33.9917C155.545 33.9917 154.729 34.3887 154.154 35.1882C153.656 35.8921 153.405 36.7817 153.405 37.8557V44.9433H150.403V35.6894C150.406 34.2714 150.377 32.8535 150.316 31.4368H152.931L153.04 34.0213H153.123C153.442 33.133 153.94 32.4165 154.624 31.8802C155.251 31.4116 156.012 31.1578 156.794 31.1567C157.072 31.1567 157.322 31.1764 157.545 31.2116L157.548 34.0748ZM170.973 37.5503C170.981 38.0065 170.944 38.4624 170.863 38.9115H161.857C161.891 40.2459 162.328 41.2679 163.164 41.9717C163.923 42.5996 164.904 42.9149 166.11 42.9149C167.443 42.9149 168.66 42.7037 169.754 42.2772L170.224 44.3591C168.946 44.9166 167.436 45.1939 165.694 45.1939C163.599 45.1939 161.955 44.5773 160.758 43.347C159.564 42.1153 158.965 40.4599 158.965 38.3864C158.965 36.351 159.522 34.6547 160.635 33.302C161.801 31.8577 163.377 31.1356 165.359 31.1356C167.307 31.1356 168.781 31.8577 169.782 33.302C170.575 34.4464 170.973 35.8653 170.973 37.5503ZM168.111 36.7718C168.132 35.8808 167.935 35.1136 167.528 34.4647C167.008 33.6285 166.208 33.2119 165.137 33.2119C164.155 33.2119 163.356 33.6187 162.747 34.4351C162.248 35.0841 161.95 35.8639 161.859 36.769L168.111 36.7718Z" fill="white"/>
<path d="M62.6312 19.5871C61.7962 19.5871 61.0739 19.5463 60.4727 19.4773V10.4205C61.3135 10.2906 62.1633 10.2266 63.0142 10.229C66.4568 10.229 68.0422 11.9224 68.0422 14.6829C68.0422 17.867 66.1696 19.5871 62.6312 19.5871ZM63.1352 11.3903C62.6706 11.3903 62.2749 11.4185 61.9469 11.4861V18.3709C62.1243 18.3991 62.465 18.4118 62.9438 18.4118C65.1994 18.4118 66.4835 17.128 66.4835 14.7237C66.4835 12.5798 65.3219 11.3903 63.1352 11.3903ZM72.983 19.6561C71.0428 19.6561 69.7854 18.2076 69.7854 16.2411C69.7854 14.1916 71.0695 12.7304 73.0929 12.7304C75.005 12.7304 76.2905 14.1099 76.2905 16.1327C76.2905 18.2076 74.9655 19.6561 72.983 19.6561ZM73.0393 13.8087C71.9735 13.8087 71.2906 14.8053 71.2906 16.1989C71.2906 17.5657 71.9875 18.5624 73.0253 18.5624C74.063 18.5624 74.76 17.4968 74.76 16.1708C74.76 14.8194 74.0771 13.8087 73.0393 13.8087ZM87.3548 12.867L85.278 19.5055H83.9249L83.0645 16.6226C82.8506 15.9174 82.6725 15.2019 82.5309 14.4787H82.5027C82.3943 15.2023 82.1887 15.9272 81.9705 16.6226L81.0553 19.5055H79.6881L77.7337 12.867H79.2502L80.0021 16.023C80.1795 16.7746 80.3287 17.4841 80.4526 18.1541H80.4808C80.5892 17.5953 80.7666 16.8971 81.0271 16.037L81.9705 12.8684H83.173L84.0755 15.9695C84.2938 16.7211 84.4712 17.4588 84.6092 18.1556H84.6486C84.7443 17.4728 84.895 16.7479 85.0991 15.9695L85.906 12.8684L87.3548 12.867ZM95.0004 19.5055H93.5248V15.6936C93.5248 14.5196 93.0742 13.9312 92.1858 13.9312C91.3114 13.9312 90.7102 14.6829 90.7102 15.557V19.5055H89.2345V14.7645C89.2345 14.1775 89.2205 13.5483 89.1796 12.8656H90.4778L90.5468 13.8903H90.5877C90.9847 13.1809 91.7901 12.7304 92.6927 12.7304C94.0866 12.7304 95.0018 13.796 95.0018 15.5303L95.0004 19.5055ZM99.0696 19.5055H97.5926V9.8208H99.0696V19.5055ZM104.45 19.6561C102.511 19.6561 101.252 18.2076 101.252 16.2411C101.252 14.1916 102.536 12.7304 104.558 12.7304C106.472 12.7304 107.756 14.1099 107.756 16.1327C107.757 18.2076 106.431 19.6561 104.45 19.6561ZM104.505 13.8087C103.439 13.8087 102.756 14.8053 102.756 16.1989C102.756 17.5657 103.454 18.5624 104.489 18.5624C105.528 18.5624 106.224 17.4968 106.224 16.1708C106.225 14.8194 105.544 13.8087 104.505 13.8087ZM113.574 19.5055L113.467 18.7411H113.427C112.977 19.3563 112.319 19.6561 111.486 19.6561C110.296 19.6561 109.451 18.8228 109.451 17.7023C109.451 16.0638 110.872 15.2164 113.332 15.2164V15.0939C113.332 14.2197 112.868 13.782 111.953 13.782C111.298 13.782 110.724 13.9467 110.218 14.2746L109.919 13.3048C110.532 12.9219 111.298 12.7304 112.198 12.7304C113.933 12.7304 114.809 13.6454 114.809 15.4768V17.9219C114.809 18.5919 114.838 19.1114 114.904 19.5069L113.574 19.5055ZM113.371 16.1989C111.732 16.1989 110.91 16.5959 110.91 17.5376C110.91 18.2344 111.334 18.575 111.922 18.575C112.673 18.575 113.371 18.0021 113.371 17.2237V16.1989ZM121.974 19.5055L121.905 18.4399H121.864C121.44 19.2451 120.728 19.6561 119.733 19.6561C118.132 19.6561 116.946 18.2485 116.946 16.2679C116.946 14.1916 118.175 12.729 119.854 12.729C120.742 12.729 121.371 13.0289 121.726 13.6313H121.756V9.8208H123.233V17.7164C123.233 18.3583 123.248 18.9593 123.288 19.5055H121.974ZM121.756 15.5992C121.756 14.6702 121.141 13.8777 120.201 13.8777C119.107 13.8777 118.439 14.8476 118.439 16.213C118.439 17.5517 119.133 18.4681 120.172 18.4681C121.1 18.4681 121.756 17.6615 121.756 16.7057V15.5992ZM132.598 19.6561C130.659 19.6561 129.402 18.2076 129.402 16.2411C129.402 14.1916 130.686 12.7304 132.708 12.7304C134.621 12.7304 135.905 14.1099 135.905 16.1327C135.907 18.2076 134.582 19.6561 132.598 19.6561ZM132.653 13.8087C131.588 13.8087 130.905 14.8053 130.905 16.1989C130.905 17.5657 131.602 18.5624 132.639 18.5624C133.678 18.5624 134.373 17.4968 134.373 16.1708C134.376 14.8194 133.693 13.8087 132.653 13.8087ZM143.841 19.5055H142.364V15.6936C142.364 14.5196 141.913 13.9312 141.025 13.9312C140.15 13.9312 139.551 14.6829 139.551 15.557V19.5055H138.074V14.7645C138.074 14.1775 138.059 13.5483 138.019 12.8656H139.317L139.386 13.8903H139.427C139.822 13.1809 140.629 12.729 141.53 12.729C142.924 12.729 143.841 13.7946 143.841 15.5289V19.5055ZM153.769 13.9734H152.145V17.1969C152.145 18.0176 152.43 18.4272 153.004 18.4272C153.265 18.4272 153.483 18.3991 153.659 18.3583L153.7 19.4788C153.414 19.5886 153.031 19.6435 152.555 19.6435C151.392 19.6435 150.697 19.0016 150.697 17.3208V13.9734H149.728V12.867H150.697V11.6508L152.145 11.213V12.8656H153.769V13.9734ZM161.581 19.5055H160.106V15.7217C160.106 14.5336 159.657 13.9326 158.767 13.9326C158.003 13.9326 157.29 14.452 157.29 15.5035V19.5055H155.816V9.8208H157.29V13.8087H157.32C157.785 13.0852 158.458 12.729 159.317 12.729C160.722 12.729 161.581 13.8214 161.581 15.557V19.5055ZM169.584 16.541H165.156C165.184 17.798 166.016 18.5075 167.248 18.5075C167.903 18.5075 168.505 18.3977 169.038 18.1936L169.267 19.2183C168.639 19.4914 167.9 19.628 167.04 19.628C164.963 19.628 163.734 18.316 163.734 16.282C163.734 14.2465 164.992 12.7164 166.873 12.7164C168.57 12.7164 169.635 13.9734 169.635 15.8723C169.644 16.0964 169.627 16.3209 169.584 16.541ZM168.231 15.4894C168.231 14.4647 167.714 13.7411 166.771 13.7411C165.923 13.7411 165.253 14.4787 165.157 15.4894H168.231Z" fill="white"/>
<defs>
<linearGradient id="paint0_linear_548_25524" x1="138.309" y1="57.0368" x2="138.309" y2="-145.975" gradientUnits="userSpaceOnUse">
<stop stop-color="#1A1A1A" stop-opacity="0.1"/>
<stop offset="0.123" stop-color="#212121" stop-opacity="0.151"/>
<stop offset="0.308" stop-color="#353535" stop-opacity="0.227"/>
<stop offset="0.532" stop-color="#575757" stop-opacity="0.318"/>
<stop offset="0.783" stop-color="#858585" stop-opacity="0.421"/>
<stop offset="1" stop-color="#B3B3B3" stop-opacity="0.51"/>
</linearGradient>
</defs>
</svg>
