<svg width="16" height="16" viewBox="0 0 16 16" fill="none" xmlns="http://www.w3.org/2000/svg">
<path d="M10.7733 6.66699C10.7733 6.66699 10.6733 7.33366 8.6066 10.0003C6.6666 12.5137 9.4733 14.427 9.80663 14.647C9.82663 14.6603 9.84662 14.6603 9.87328 14.647C10.3266 14.367 15.3733 11.1203 10.7733 6.66699Z" fill="#F97300"/>
<path d="M9.17318 5.19337C9.17318 3.66004 8.57319 2.26004 7.97319 1.46004C7.77319 1.26004 7.43984 1.32671 7.37318 1.59337C7.10651 2.59337 6.30651 4.72671 4.37318 7.26004C1.90651 10.46 4.17319 13.9267 6.50652 14.5934C7.77318 14.9267 6.17319 13.9267 5.97319 11.86C5.77319 9.26004 9.17318 7.32671 9.17318 5.19337Z" fill="#F97300"/>
</svg>
