<svg width="48" height="25" viewBox="0 0 48 25" fill="none" xmlns="http://www.w3.org/2000/svg">
<path d="M15.8206 24.6963C7.63534 24.6963 0.984375 19.271 0.984375 12.6002C0.984375 5.9293 7.63534 0.496338 15.8206 0.496338C16.4309 0.496338 17.0163 0.737857 17.4479 1.16776C17.8795 1.59767 18.1219 2.18075 18.1219 2.78873C18.1219 3.39671 17.8795 3.97979 17.4479 4.40969C17.0163 4.8396 16.4309 5.08112 15.8206 5.08112C10.1899 5.08112 5.58712 8.45093 5.58712 12.6002C5.58712 16.7494 10.1899 20.1116 15.8206 20.1116C21.4512 20.1116 26.0463 16.7417 26.0463 12.6002C26.0463 11.9922 26.2888 11.4091 26.7204 10.9792C27.152 10.5493 27.7373 10.3078 28.3477 10.3078C28.9581 10.3078 29.5434 10.5493 29.975 10.9792C30.4066 11.4091 30.6491 11.9922 30.6491 12.6002C30.6491 19.271 23.9981 24.6963 15.8206 24.6963Z" fill="white"/>
<path d="M32.1762 24.6963C31.5658 24.6963 30.9804 24.4548 30.5489 24.0249C30.1173 23.595 29.8748 23.0119 29.8748 22.4039C29.8748 21.796 30.1173 21.2129 30.5489 20.783C30.9804 20.3531 31.5658 20.1116 32.1762 20.1116C37.8069 20.1116 42.4096 16.7417 42.4096 12.6002C42.4096 8.45857 37.8069 5.08112 32.1762 5.08112C26.5455 5.08112 21.9504 8.45093 21.9504 12.6002C21.9504 13.2081 21.7079 13.7912 21.2763 14.2211C20.8448 14.651 20.2594 14.8925 19.649 14.8925C19.0387 14.8925 18.4533 14.651 18.0217 14.2211C17.5901 13.7912 17.3477 13.2081 17.3477 12.6002C17.3477 5.92166 23.9986 0.496338 32.1762 0.496338C40.3537 0.496338 47.0123 5.92166 47.0123 12.6002C47.0123 19.2787 40.3614 24.6963 32.1762 24.6963Z" fill="white"/>
</svg>
