<svg width="26" height="25" viewBox="0 0 26 25" fill="none" xmlns="http://www.w3.org/2000/svg">
<path d="M24.098 18.3584C25.3321 16.5707 25.9961 14.4513 26.0025 12.279C26.0025 5.83817 20.17 0.596436 12.9973 0.596436C5.82466 0.596436 -0.0078125 5.83817 -0.0078125 12.279C-0.0078125 18.7199 5.82466 23.9616 12.9973 23.9616C14.9588 23.9635 16.8996 23.5598 18.6976 22.7757L24.1994 24.5391C24.3914 24.6012 24.5967 24.6089 24.7928 24.5614C24.9889 24.5139 25.168 24.4132 25.3103 24.2702C25.4549 24.1298 25.5574 23.9519 25.6065 23.7564C25.6555 23.561 25.6492 23.3557 25.5881 23.1637L24.098 18.3584Z" fill="white"/>
</svg>
