<svg width="24" height="25" viewBox="0 0 24 25" fill="none" xmlns="http://www.w3.org/2000/svg">
<path d="M12.2265 0.596436C10.2326 0.597124 8.27152 1.10398 6.52697 2.06952C4.78242 3.03506 3.31155 4.42768 2.25216 6.11688C1.19276 7.80608 0.57954 9.73658 0.469939 11.7275C0.360338 13.7184 0.757949 15.7045 1.62552 17.4998L0.0329679 23.3471C-0.0115227 23.5155 -0.0109738 23.6927 0.0345597 23.8608C0.0800931 24.0289 0.169012 24.1821 0.292406 24.3051C0.384239 24.3979 0.493668 24.4715 0.614289 24.5215C0.734911 24.5716 0.8643 24.597 0.994884 24.5964C1.08362 24.5959 1.17201 24.5852 1.25831 24.5645L7.09766 22.968C8.69079 23.7395 10.4374 24.142 12.2075 24.1454C13.9777 24.1488 15.7258 23.753 17.3219 22.9875C18.9179 22.222 20.3209 21.1065 21.4263 19.724C22.5317 18.3414 23.3112 16.7275 23.7068 15.0021C24.1023 13.2767 24.1038 11.4843 23.711 9.75832C23.3182 8.0323 22.5414 6.41705 21.4382 5.03273C20.335 3.64841 18.9338 2.53064 17.339 1.76257C15.7442 0.994507 13.9967 0.595911 12.2265 0.596436ZM16.5691 16.49L16.1461 16.9171C15.9031 17.1627 15.5903 17.3274 15.2503 17.3888C14.9104 17.4502 14.5597 17.4054 14.2462 17.2603C12.6732 16.5058 11.2398 15.4896 10.0074 14.2548C8.77347 13.0217 7.75728 11.5885 7.00187 10.016C6.85684 9.70247 6.81199 9.35183 6.87341 9.01187C6.93483 8.6719 7.09955 8.35913 7.34512 8.11614L7.76821 7.68907C7.93049 7.52772 8.15004 7.43715 8.37888 7.43715C8.60773 7.43715 8.82728 7.52772 8.98956 7.68907L10.2309 8.93437C10.392 9.09597 10.4824 9.31486 10.4824 9.54305C10.4824 9.77124 10.392 9.99013 10.2309 10.1517L9.69603 10.6866C10.1359 11.505 10.6941 12.2541 11.3524 12.9098C12.0052 13.5681 12.7516 14.1262 13.5676 14.5662L14.1025 14.0313C14.2622 13.8743 14.4772 13.7864 14.7012 13.7864C14.9251 13.7864 15.1402 13.8743 15.2999 14.0313L16.5412 15.2726C16.6238 15.3502 16.6901 15.4435 16.7363 15.547C16.7825 15.6505 16.8076 15.7622 16.8102 15.8755C16.8128 15.9888 16.7928 16.1015 16.7514 16.207C16.71 16.3125 16.6481 16.4087 16.5691 16.49Z" fill="white"/>
</svg>
