<svg width="28" height="25" viewBox="0 0 28 25" fill="none" xmlns="http://www.w3.org/2000/svg">
<path d="M22.9407 0.596436H5.05836C3.74826 0.597681 2.49218 1.11867 1.5658 2.04505C0.63942 2.97143 0.118433 4.22751 0.117188 5.53761L0.117188 19.6553C0.118433 20.9654 0.63942 22.2214 1.5658 23.1478C2.49218 24.0742 3.74826 24.5952 5.05836 24.5964H22.9407C24.2508 24.5952 25.5069 24.0742 26.4333 23.1478C27.3597 22.2214 27.8806 20.9654 27.8819 19.6553V5.53761C27.8806 4.22751 27.3597 2.97143 26.4333 2.04505C25.5069 1.11867 24.2508 0.597681 22.9407 0.596436ZM24.4607 8.74232L16.0184 13.4906C15.4006 13.8329 14.7059 14.0126 13.9995 14.0126C13.2932 14.0126 12.5985 13.8329 11.9807 13.4906L3.53836 8.74232C3.38466 8.678 3.24637 8.58177 3.13266 8.46C3.01894 8.33822 2.93238 8.19368 2.87872 8.03595C2.82506 7.87821 2.80551 7.71087 2.82137 7.54501C2.83724 7.37915 2.88815 7.21855 2.97075 7.07385C3.05334 6.92915 3.16572 6.80364 3.30047 6.70563C3.43521 6.60762 3.58923 6.53935 3.75234 6.50534C3.91545 6.47132 4.08392 6.47234 4.2466 6.50833C4.40928 6.54432 4.56247 6.61445 4.69601 6.71408L13.1337 11.42C13.3983 11.5679 13.6964 11.6456 13.9995 11.6456C14.3027 11.6456 14.6008 11.5679 14.8654 11.42L23.3031 6.71408C23.4378 6.63208 23.5876 6.578 23.7436 6.55504C23.8996 6.53208 24.0586 6.54072 24.2112 6.58043C24.3638 6.62015 24.5068 6.69014 24.6319 6.78624C24.7569 6.88234 24.8613 7.00259 24.9389 7.13985C25.0165 7.2771 25.0658 7.42856 25.0837 7.58522C25.1016 7.74189 25.0879 7.90055 25.0433 8.0518C24.9987 8.20304 24.9241 8.34377 24.824 8.46563C24.7239 8.58748 24.6004 8.68798 24.4607 8.76114V8.74232Z" fill="white"/>
</svg>
