<svg width="220" height="42" viewBox="0 0 267 42" fill="none" xmlns="http://www.w3.org/2000/svg">
<path d="M54.8316 7.55804C54.637 7.36364 54.4229 7.28589 54.1504 7.28589C53.8779 7.28589 53.6444 7.38308 53.4497 7.55804C53.2551 7.75243 53.1578 7.96626 53.1578 8.23841C53.1578 8.51056 53.2551 8.72439 53.4497 8.91878C53.6444 9.11318 53.8779 9.19094 54.1504 9.19094C54.4229 9.19094 54.637 9.09374 54.8316 8.91878C55.0262 8.72439 55.1041 8.51056 55.1041 8.23841C55.1041 7.96626 55.0068 7.75243 54.8316 7.55804ZM52.1846 7.55804C52.0095 7.36364 51.7759 7.28589 51.5229 7.28589C51.2699 7.28589 51.0168 7.38308 50.8222 7.55804C50.6276 7.75243 50.5303 7.96626 50.5303 8.23841C50.5303 8.51056 50.6276 8.72439 50.8222 8.91878C51.0168 9.11318 51.2309 9.19094 51.5229 9.19094C51.8148 9.19094 52.0095 9.09374 52.1846 8.91878C52.3793 8.72439 52.4766 8.51056 52.4766 8.23841C52.4766 7.96626 52.3793 7.75243 52.1846 7.55804Z" fill="white"/>
<path d="M61.9742 20.5241C61.7796 20.3297 61.5655 20.252 61.293 20.252C61.0205 20.252 60.7869 20.3491 60.5923 20.5241C60.3977 20.7185 60.3004 20.9323 60.3004 21.2045C60.3004 21.4766 60.3977 21.7099 60.5923 21.8848C60.7869 22.0792 61.0205 22.1764 61.293 22.1764C61.5655 22.1764 61.7796 22.0792 61.9742 21.8848C62.1494 21.7099 62.2467 21.4766 62.2467 21.2045C62.2467 20.9323 62.1494 20.7185 61.9742 20.5241ZM59.3272 20.5241C59.1326 20.3297 58.9185 20.252 58.646 20.252C58.3735 20.252 58.1594 20.3491 57.9648 20.5241C57.7702 20.7185 57.6729 20.9323 57.6729 21.2045C57.6729 21.4766 57.7702 21.7099 57.9648 21.8848C58.1594 22.0792 58.3735 22.1764 58.646 22.1764C58.9185 22.1764 59.1326 22.0792 59.3272 21.8848C59.5218 21.7099 59.6192 21.4766 59.6192 21.2045C59.6192 20.9323 59.5218 20.7185 59.3272 20.5241Z" fill="white"/>
<path d="M66.1007 8.04388C65.9061 7.84948 65.692 7.77173 65.4195 7.77173C65.147 7.77173 64.9329 7.86892 64.7383 8.04388C64.5437 8.23827 64.4658 8.47154 64.4658 8.74369C64.4658 9.01584 64.5631 9.22967 64.7383 9.42406C64.9329 9.61846 65.1665 9.69621 65.4195 9.69621C65.6725 9.69621 65.9061 9.59902 66.1007 9.42406C66.2953 9.22967 66.3732 9.01584 66.3732 8.74369C66.3732 8.47154 66.2759 8.23827 66.1007 8.04388Z" fill="white"/>
<path d="M64.6214 11.5235V16.4028C64.6214 16.8693 64.4268 17.1026 64.0181 17.122H61.3906C61.6241 16.4416 61.7409 15.7613 61.7409 15.1003V11.5235H60.1644V15.1781C60.1644 16.4611 59.6389 17.122 58.6268 17.122H56.5053V11.4846C55.649 10.9015 54.6758 10.6099 53.5859 10.6099C52.496 10.6099 51.8926 10.882 51.1725 11.4069C50.1604 12.2233 49.6738 13.3119 49.6738 14.6532C49.6738 15.9945 50.2383 17.0637 51.3476 17.8607C51.951 18.3078 52.9631 18.5605 54.4033 18.5605H64.5241C65.6724 18.5605 66.2563 17.7441 66.2952 16.1306V11.5041H64.6409L64.6214 11.5235ZM54.8705 17.122H54.1892C52.2624 17.122 51.3087 16.2667 51.3087 14.556C51.3087 12.8454 51.5812 13.0786 52.1067 12.5149C52.4765 12.1261 52.9436 11.9317 53.508 11.9317C54.0725 11.9317 54.4228 12.0484 54.8705 12.2622V17.122Z" fill="white"/>
<path d="M71.1216 22.1375H70.0901V20.6601H71.0243C72.2894 20.6601 72.9512 19.9603 73.029 18.5607H72.4062C70.9854 18.5607 69.9733 18.308 69.3505 17.8609C68.2411 17.0639 67.6767 15.9947 67.6572 14.6534C67.6572 13.2926 68.1633 12.204 69.1948 11.407C69.8955 10.8627 70.6934 10.5906 71.5887 10.5906C72.484 10.5906 73.6518 10.8822 74.5082 11.4653V18.6968C74.4693 20.9711 73.321 22.1181 71.1022 22.1181L71.1216 22.1375ZM72.8928 17.1222V12.2624C72.4451 12.0485 71.9975 11.9319 71.5304 11.9319C71.0632 11.9319 70.5183 12.1263 70.1485 12.5151C69.623 13.0982 69.3505 13.7786 69.3505 14.5756C69.3505 16.2668 70.3042 17.1222 72.2116 17.1222H72.8733H72.8928Z" fill="white"/>
<path d="M84.8048 8.43255C84.6296 8.2576 84.3961 8.1604 84.143 8.1604C83.89 8.1604 83.637 8.2576 83.4424 8.43255C83.2478 8.62694 83.1504 8.86021 83.1504 9.13236C83.1504 9.40451 83.2478 9.61835 83.4424 9.81274C83.637 9.98769 83.8511 10.0849 84.143 10.0849C84.435 10.0849 84.6296 9.98769 84.8048 9.81274C84.9994 9.61835 85.0967 9.40451 85.0967 9.13236C85.0967 8.86021 84.9994 8.6075 84.8048 8.43255ZM82.3135 8.43255C82.1189 8.2576 81.9048 8.1604 81.6323 8.1604C81.3598 8.1604 81.1458 8.2576 80.9511 8.43255C80.7565 8.62694 80.6592 8.86021 80.6592 9.13236C80.6592 9.40451 80.7565 9.61835 80.9511 9.81274C81.1458 9.98769 81.3598 10.0849 81.6323 10.0849C81.9048 10.0849 82.1189 9.98769 82.3135 9.81274C82.5082 9.61835 82.586 9.40451 82.586 9.13236C82.586 8.86021 82.4887 8.6075 82.3135 8.43255Z" fill="white"/>
<path d="M95.8791 7.49991V15.1395C95.8791 16.0532 95.6845 16.8308 95.2758 17.4528C94.8281 18.1332 94.1469 18.522 93.2321 18.5609C93.1543 18.5609 93.0764 18.5609 92.9791 18.5609H79.394V18.9302C79.394 21.0685 78.2262 22.1377 75.9101 22.1377H75.0537V20.6603H75.7349C77.0973 20.6603 77.7785 20.0188 77.7785 18.7164V11.5044H79.4134V17.1029H81.2429C82.2745 17.1029 82.8 16.4614 82.8 15.159V11.5044H84.357V15.0812C84.357 15.7616 84.2402 16.4225 84.0261 17.1029H90.41C90.0986 14.6924 88.6389 13.2151 85.9919 12.6902V11.0184L91.8697 7.63598L92.2395 9.15225L87.6852 11.7377C90.1765 12.5541 91.6362 14.3425 92.1033 17.1029H93.0181C93.8744 17.1029 94.2832 16.4809 94.2832 15.2756V7.48047H95.918L95.8791 7.49991Z" fill="white"/>
<path d="M101.115 18.5799H97.2998V17.1219H100.823C102.049 17.1219 102.652 16.4416 102.652 15.0614V7.49951H104.287V15.0614C104.287 17.2969 103.236 18.4633 101.115 18.5799ZM99.1682 16.1694L98.3897 7.49951H99.9468L100.803 16.15H99.1682V16.1694ZM99.1099 22.2928L99.0125 21.6902L99.5381 21.4375C99.1293 21.2042 98.9152 20.8932 98.9152 20.4849C98.9152 20.0767 99.1293 19.7074 99.5381 19.4741C99.6743 19.3963 99.8689 19.3575 100.102 19.3575C100.336 19.3575 100.609 19.3963 100.784 19.4935L100.686 20.0378C100.589 20.0184 100.472 19.999 100.355 19.999C99.9273 19.999 99.7132 20.1933 99.7132 20.5821C99.7132 20.9709 100.161 21.2236 101.056 21.2236L101.017 21.7874C100.278 21.8846 99.6354 22.0595 99.1099 22.2734V22.2928Z" fill="white"/>
<path d="M107.323 18.5799H105.688V7.49951H107.323V18.5799Z" fill="white"/>
<path d="M116.14 8.04388C115.945 7.84948 115.731 7.77173 115.459 7.77173C115.186 7.77173 114.972 7.86892 114.777 8.04388C114.583 8.23827 114.485 8.47154 114.485 8.74369C114.485 9.01584 114.583 9.22967 114.777 9.42406C114.972 9.61846 115.205 9.69621 115.459 9.69621C115.712 9.69621 115.945 9.59902 116.14 9.42406C116.334 9.22967 116.412 9.01584 116.412 8.74369C116.412 8.47154 116.315 8.23827 116.14 8.04388Z" fill="white"/>
<path d="M125.599 20.5241C125.405 20.3297 125.19 20.252 124.918 20.252C124.645 20.252 124.431 20.3491 124.217 20.5241C124.023 20.7185 123.925 20.9323 123.925 21.2045C123.925 21.4766 124.023 21.7099 124.217 21.8848C124.412 22.0792 124.645 22.1764 124.918 22.1764C125.19 22.1764 125.405 22.0792 125.599 21.8848C125.794 21.7099 125.872 21.4766 125.872 21.2045C125.872 20.9323 125.774 20.7185 125.599 20.5241ZM122.972 20.5241C122.777 20.3297 122.563 20.252 122.271 20.252C121.979 20.252 121.784 20.3491 121.59 20.5241C121.395 20.6991 121.298 20.9323 121.298 21.2045C121.298 21.4766 121.395 21.7099 121.59 21.8848C121.784 22.0792 121.999 22.1764 122.271 22.1764C122.543 22.1764 122.777 22.0792 122.972 21.8848C123.166 21.6905 123.244 21.4766 123.244 21.2045C123.244 20.9323 123.147 20.7185 122.972 20.5241Z" fill="white"/>
<path d="M134.24 12.0673C133.598 11.3286 132.742 10.9592 131.652 10.9592C130.562 10.9592 129.705 11.3091 129.122 12.0284C128.538 12.7282 128.246 13.7196 128.246 14.9832V15.2942C128.246 16.5189 127.818 17.1215 126.981 17.1409H125.073C125.287 16.4605 125.404 15.7802 125.404 15.1192V11.5424H123.828V15.197C123.828 16.48 123.322 17.1409 122.29 17.1409H120.149V11.5424H118.534V18.9682C118.534 20.0957 117.891 20.6594 116.587 20.6789H115.867C113.979 20.6594 113.026 19.7458 113.026 17.9574C113.026 16.169 113.395 15.8774 114.135 15.0415L112.889 14.1473C111.936 15.0804 111.449 16.3633 111.43 18.0351C111.43 19.2987 111.916 20.3484 112.85 21.1843C113.59 21.8452 114.583 22.1757 115.867 22.1757H116.685C118.962 22.1757 120.11 20.9899 120.169 18.5989H127.156C127.837 18.5989 128.363 18.2295 128.732 17.5297C129.55 18.7155 130.659 19.2987 132.041 19.2987C133.267 19.2987 134.143 18.7349 134.707 17.6658C135.058 17.0048 135.233 16.1884 135.233 15.1776C135.233 14.1667 134.922 12.806 134.279 12.0673H134.24ZM131.749 17.899C130.406 17.899 129.725 16.966 129.725 15.0998C129.725 13.2336 130.367 12.3589 131.632 12.3394C132.995 12.3394 133.656 13.3308 133.656 15.3331C133.656 17.3353 133.014 17.899 131.749 17.899Z" fill="white"/>
<path d="M137.277 4.62262C137.277 4.23384 137.491 4.03945 137.919 4.03945C138.347 4.03945 138.152 4.03945 138.269 4.07832L138.367 3.53402C138.172 3.43683 137.958 3.39795 137.685 3.39795C137.413 3.39795 137.277 3.43683 137.121 3.51459C136.712 3.74786 136.498 4.09776 136.498 4.54487C136.498 4.99197 136.693 5.24468 137.121 5.49739L136.595 5.73066L136.693 6.33328C137.218 6.10001 137.841 5.9445 138.6 5.8473L138.639 5.28356C137.744 5.28356 137.296 5.06973 137.296 4.64206L137.277 4.62262Z" fill="white"/>
<path d="M144.011 8.43255C143.816 8.2576 143.602 8.1604 143.33 8.1604C143.057 8.1604 142.824 8.2576 142.629 8.43255C142.434 8.62694 142.337 8.86021 142.337 9.13236C142.337 9.40451 142.434 9.61834 142.629 9.81274C142.824 9.98769 143.038 10.0849 143.33 10.0849C143.622 10.0849 143.816 9.98769 144.011 9.81274C144.186 9.61834 144.283 9.40451 144.283 9.13236C144.283 8.86021 144.186 8.6075 144.011 8.43255ZM141.5 8.43255C141.325 8.2576 141.091 8.1604 140.819 8.1604C140.546 8.1604 140.332 8.2576 140.138 8.43255C139.943 8.62694 139.846 8.86021 139.846 9.13236C139.846 9.40451 139.943 9.61834 140.138 9.81274C140.332 9.98769 140.546 10.0849 140.819 10.0849C141.091 10.0849 141.325 9.98769 141.5 9.81274C141.695 9.61834 141.792 9.40451 141.792 9.13236C141.792 8.86021 141.695 8.6075 141.5 8.43255Z" fill="white"/>
<path d="M147.631 7.49991V15.1395C147.631 16.0532 147.437 16.8308 147.028 17.4528C146.58 18.1332 145.88 18.522 144.984 18.5609C144.906 18.5609 144.829 18.5609 144.751 18.5609H138.445C137.257 18.5609 136.654 17.7444 136.654 16.1309L136.596 7.48047H138.328V16.3836C138.328 16.8502 138.523 17.0835 138.912 17.1029H140.449C141.481 17.1029 141.987 16.4614 141.987 15.159V11.5044H143.544V15.0812C143.544 15.7616 143.447 16.4225 143.213 17.1029H144.731C145.568 17.1029 145.996 16.4808 145.996 15.2756V7.48047H147.631V7.49991Z" fill="white"/>
<path d="M150.667 18.5799H149.032V7.49951H150.667V18.5799Z" fill="white"/>
<path d="M159.893 7.55804C159.698 7.36364 159.484 7.28589 159.212 7.28589C158.939 7.28589 158.706 7.38308 158.511 7.55804C158.317 7.75243 158.219 7.96626 158.219 8.23841C158.219 8.51056 158.317 8.72439 158.511 8.91878C158.706 9.11318 158.939 9.19094 159.212 9.19094C159.484 9.19094 159.698 9.09374 159.893 8.91878C160.068 8.72439 160.166 8.51056 160.166 8.23841C160.166 7.96626 160.068 7.75243 159.893 7.55804ZM157.227 7.55804C157.032 7.36364 156.818 7.28589 156.545 7.28589C156.273 7.28589 156.059 7.38308 155.864 7.55804C155.67 7.75243 155.572 7.96626 155.572 8.23841C155.572 8.51056 155.67 8.72439 155.864 8.91878C156.059 9.11318 156.273 9.19094 156.545 9.19094C156.818 9.19094 157.032 9.09374 157.227 8.91878C157.421 8.72439 157.499 8.51056 157.499 8.23841C157.499 7.96626 157.402 7.75243 157.227 7.55804Z" fill="white"/>
<path d="M173.341 12.2034C172.543 11.1343 171.511 10.6094 170.266 10.6094C169.02 10.6094 168.942 10.7649 168.358 11.1343C167.619 11.5814 166.86 12.3395 166.101 13.4087V7.51855H164.466C164.466 12.6116 164.466 15.8191 164.446 17.141H161.566V11.5036C160.71 10.9204 159.736 10.6288 158.646 10.6288C157.557 10.6288 156.953 10.901 156.233 11.4258C155.221 12.2423 154.734 13.3309 154.734 14.6722C154.734 16.0135 155.299 17.0827 156.408 17.8797C157.012 18.3268 158.024 18.5795 159.464 18.5795H173.808L174.139 16.9077C174.275 16.2273 174.334 15.6247 174.334 15.0804C174.334 14.1085 174.003 13.1365 173.36 12.2229L173.341 12.2034ZM159.931 17.1216H159.25C157.323 17.1216 156.369 16.2662 156.369 14.5556C156.369 12.8449 156.642 13.0782 157.167 12.5144C157.537 12.1257 158.004 11.9313 158.569 11.9313C159.133 11.9313 159.483 12.0479 159.931 12.2617V17.1216ZM172.348 17.1216H166.023V15.9552C166.023 15.8191 166.101 15.6053 166.237 15.3137C166.685 14.4195 167.191 13.7391 167.755 13.1948C168.553 12.4367 169.371 12.0479 170.246 12.0479C171.122 12.0479 171.784 12.495 172.271 13.3698C172.543 13.8946 172.699 14.4972 172.699 15.2165C172.699 15.9358 172.582 16.3634 172.348 17.1021V17.1216Z" fill="white"/>
<path d="M191.754 11.5234V15.0031C191.754 16.1889 191.54 17.0636 191.132 17.6662C190.684 18.3466 190.061 18.6771 189.283 18.6771C188.504 18.6771 187.453 18.3272 186.83 17.6274C186.227 18.2689 185.507 18.5799 184.611 18.5799H177.469C176.32 18.5799 175.736 17.7634 175.736 16.15V7.49951H177.352V16.4027C177.352 16.8692 177.546 17.1025 177.955 17.1219H181.089V12.787H182.704V17.1219H183.93C184.436 17.1219 184.787 17.0636 184.981 16.947C185.39 16.7137 185.604 16.1305 185.604 15.1975V12.0872H187.22V15.2363C187.22 16.4999 187.706 17.1414 188.66 17.1414C189.613 17.1414 190.119 16.461 190.119 15.1197V11.5429H191.735L191.754 11.5234Z" fill="white"/>
<path d="M202.245 7.49991V15.2951C202.245 16.5003 201.836 17.1029 200.979 17.1223H200.026V11.485C199.169 10.9018 198.196 10.6102 197.106 10.6102C196.016 10.6102 195.413 10.8823 194.712 11.4072C193.681 12.2236 193.175 13.3122 193.175 14.6536C193.175 15.9949 193.759 17.064 194.868 17.861C195.471 18.3081 196.484 18.5609 197.904 18.5609H198.508C198.449 19.9605 197.768 20.6409 196.503 20.6409H195.569V22.1182H196.6C198.877 22.1182 200.006 20.913 200.006 18.5414H200.979C201.077 18.5414 201.155 18.5414 201.232 18.5414C202.147 18.4831 202.809 18.1137 203.276 17.4334C203.665 16.8113 203.879 16.0337 203.879 15.1201V7.48047H202.245V7.49991ZM198.371 17.1223H197.71C195.802 17.1223 194.829 16.267 194.829 14.5564C194.829 12.8457 195.102 13.079 195.627 12.5152C195.997 12.1265 196.464 11.9321 197.009 11.9321C197.554 11.9321 197.924 12.0487 198.371 12.2625V17.1223Z" fill="white"/>
<path d="M211.217 8.04388C211.022 7.84948 210.808 7.77173 210.536 7.77173C210.263 7.77173 210.049 7.86892 209.854 8.04388C209.66 8.23827 209.562 8.47154 209.562 8.74369C209.562 9.01584 209.66 9.22967 209.854 9.42406C210.049 9.61846 210.263 9.69621 210.536 9.69621C210.808 9.69621 211.022 9.59902 211.217 9.42406C211.411 9.22967 211.509 9.01584 211.509 8.74369C211.509 8.47154 211.411 8.23827 211.217 8.04388Z" fill="white"/>
<path d="M216.9 20.5241C216.705 20.3297 216.491 20.252 216.219 20.252C215.946 20.252 215.732 20.3491 215.518 20.5241C215.323 20.7185 215.226 20.9323 215.226 21.2045C215.226 21.4766 215.323 21.7099 215.518 21.8848C215.713 22.0792 215.946 22.1764 216.219 22.1764C216.491 22.1764 216.705 22.0792 216.9 21.8848C217.095 21.7099 217.172 21.4766 217.172 21.2045C217.172 20.9323 217.075 20.7185 216.9 20.5241ZM214.272 20.5241C214.078 20.3297 213.864 20.252 213.572 20.252C213.28 20.252 213.085 20.3491 212.891 20.5241C212.696 20.7185 212.599 20.9323 212.599 21.2045C212.599 21.4766 212.696 21.7099 212.891 21.8848C213.085 22.0792 213.299 22.1764 213.572 22.1764C213.844 22.1764 214.078 22.0792 214.272 21.8848C214.448 21.7099 214.545 21.4766 214.545 21.2045C214.545 20.9323 214.448 20.7185 214.272 20.5241Z" fill="white"/>
<path d="M224.491 18.5799H211.392V18.9492C211.392 21.0876 210.224 22.1567 207.908 22.1567H207.052V20.6793H207.733C209.095 20.6793 209.777 20.0378 209.777 18.7354V11.5234H211.411V17.122H213.572C214.603 17.122 215.109 16.4805 215.109 15.178V11.5234H216.686V15.1003C216.686 15.7806 216.569 16.4416 216.355 17.122H222.7C222.389 14.7115 220.929 13.2341 218.301 12.7092V11.0375L224.179 7.65503L224.53 9.17129L219.975 11.7567C222.914 12.7287 224.432 15.0031 224.491 18.5799Z" fill="white"/>
<path d="M225.931 22.1377H225.055V20.6603H225.716C227.098 20.6603 227.78 20.0188 227.78 18.7164V11.5044H229.395V18.9302C229.395 21.0685 228.247 22.1377 225.931 22.1377Z" fill="white"/>
<path d="M238.621 7.55804C238.426 7.36364 238.212 7.28589 237.939 7.28589C237.667 7.28589 237.433 7.38308 237.239 7.55804C237.044 7.73299 236.947 7.96626 236.947 8.23841C236.947 8.51056 237.044 8.72439 237.239 8.91878C237.433 9.11318 237.667 9.19094 237.939 9.19094C238.212 9.19094 238.426 9.09374 238.621 8.91878C238.815 8.72439 238.893 8.51056 238.893 8.23841C238.893 7.96626 238.796 7.75243 238.621 7.55804ZM235.974 7.55804C235.799 7.36364 235.565 7.28589 235.312 7.28589C235.059 7.28589 234.806 7.38308 234.611 7.55804C234.417 7.75243 234.319 7.96626 234.319 8.23841C234.319 8.51056 234.417 8.72439 234.611 8.91878C234.806 9.11318 235.02 9.19094 235.312 9.19094C235.604 9.19094 235.799 9.09374 235.974 8.91878C236.168 8.72439 236.266 8.51056 236.266 8.23841C236.266 7.96626 236.168 7.75243 235.974 7.55804Z" fill="white"/>
<path d="M243.389 11.7567L247.943 9.17129L247.593 7.65503L241.715 11.0375V12.7092C244.343 13.2341 245.822 14.7309 246.133 17.122H240.294V11.4846C239.438 10.9014 238.465 10.6098 237.394 10.6098C236.324 10.6098 235.682 10.8819 234.981 11.4068C233.988 12.2233 233.482 13.3119 233.482 14.6532C233.482 15.9945 234.047 17.0636 235.156 17.8606C235.76 18.3077 236.772 18.5605 238.231 18.5605H247.943C247.885 14.9836 246.367 12.7092 243.428 11.7373L243.389 11.7567ZM238.66 17.122H237.978C236.052 17.122 235.098 16.2666 235.098 14.556C235.098 12.8453 235.37 13.0786 235.896 12.5148C236.285 12.1261 236.752 11.9317 237.297 11.9317C237.842 11.9317 238.212 12.0483 238.66 12.2621V17.122Z" fill="white"/>
<path d="M263.144 8.4328C262.95 8.25784 262.735 8.16065 262.463 8.16065C262.19 8.16065 261.976 8.25784 261.762 8.4328C261.568 8.62719 261.47 8.86046 261.47 9.13261C261.47 9.40476 261.568 9.61859 261.762 9.81298C261.957 9.98794 262.19 10.0851 262.463 10.0851C262.735 10.0851 262.95 9.98794 263.144 9.81298C263.339 9.61859 263.417 9.40476 263.417 9.13261C263.417 8.86046 263.319 8.60775 263.144 8.4328ZM261.704 5.92513C261.509 5.73074 261.295 5.63354 261.023 5.63354C260.75 5.63354 260.536 5.73074 260.322 5.92513C260.127 6.10009 260.03 6.33336 260.03 6.62495C260.03 6.91654 260.127 7.11093 260.322 7.30532C260.517 7.49971 260.75 7.57747 261.023 7.57747C261.295 7.57747 261.509 7.48028 261.704 7.30532C261.898 7.11093 261.976 6.8971 261.976 6.62495C261.976 6.3528 261.879 6.10009 261.704 5.92513ZM260.497 8.4328C260.322 8.25784 260.088 8.16065 259.835 8.16065C259.582 8.16065 259.329 8.25784 259.135 8.4328C258.94 8.62719 258.843 8.86046 258.843 9.13261C258.843 9.40476 258.94 9.61859 259.135 9.81298C259.329 9.98794 259.543 10.0851 259.835 10.0851C260.127 10.0851 260.322 9.98794 260.497 9.81298C260.692 9.61859 260.789 9.40476 260.789 9.13261C260.789 8.86046 260.692 8.60775 260.497 8.4328Z" fill="white"/>
<path d="M266.725 11.5237V15.0033C266.725 16.1891 266.511 17.0639 266.102 17.6665C265.655 18.3469 265.032 18.6773 264.253 18.6773C263.475 18.6773 262.424 18.3274 261.801 17.6276C261.198 18.2691 260.477 18.5801 259.582 18.5801H252.829V18.9495C252.829 21.0878 251.661 22.157 249.345 22.157H248.488V20.6796H249.169C250.532 20.6796 251.213 20.0381 251.213 18.7356V11.5237H252.848V17.1222H256.059V12.7872H257.675V17.1222H258.901C259.407 17.1222 259.757 17.0639 259.952 16.9472C260.361 16.714 260.575 16.1308 260.575 15.1977V12.0874H262.19V15.2366C262.19 16.5001 262.677 17.1416 263.631 17.1416C264.584 17.1416 265.09 16.4613 265.09 15.1199V11.5431H266.706L266.725 11.5237Z" fill="white"/>
<path d="M50.4141 29.0972C50.8812 29 51.5624 28.9417 52.2047 28.9417C53.1973 28.9417 53.8396 29.136 54.3067 29.5443C54.657 29.8553 54.8711 30.3607 54.8711 30.9245C54.8711 31.877 54.2677 32.499 53.5087 32.7712C54.0537 32.985 54.3845 33.5099 54.5597 34.268C54.7932 35.2789 54.9684 35.9592 55.1241 36.2508H54.151C54.0342 36.037 53.8785 35.4344 53.6838 34.5207C53.4698 33.5293 53.0805 33.1405 52.2241 33.1211H51.3483V36.2508H50.4141V29.136V29.0972ZM51.3483 32.3824H52.302C53.2946 32.3824 53.9369 31.8381 53.9369 31.0217C53.9369 30.2052 53.2557 29.6803 52.2825 29.6803C51.8349 29.6803 51.5235 29.7192 51.3678 29.7581V32.3824H51.3483Z" fill="white"/>
<path d="M59.5228 36.2107L59.4449 35.5497H59.4255C59.1335 35.958 58.5886 36.3273 57.849 36.3273C57.1094 36.3273 56.2725 35.5886 56.2725 34.8499C56.2725 33.5864 57.3819 32.906 59.3865 32.9254V32.8088C59.3865 32.3811 59.2698 31.6036 58.1993 31.623C57.7127 31.623 57.2067 31.7591 56.8564 32.0118L56.6423 31.3897C57.0704 31.1176 57.6933 30.9426 58.355 30.9426C59.9315 30.9426 60.3208 32.0312 60.3208 33.0615V35.0054C60.3208 35.4525 60.3402 35.8802 60.3986 36.2495H59.5422L59.5228 36.2107ZM59.3671 33.5669C58.355 33.5475 57.1872 33.7224 57.1872 34.7333C57.1872 35.7441 57.5959 35.6275 58.063 35.6275C58.7443 35.6275 59.1724 35.1998 59.3281 34.7527C59.3671 34.6555 59.3671 34.5389 59.3671 34.4611V33.5669Z" fill="white"/>
<path d="M62.7525 33.4124H62.772C62.8888 33.2375 63.0834 33.0042 63.2196 32.8293L64.7572 31.0408H65.8861L63.8814 33.1792L66.1585 36.2311H65.0102L63.2196 33.7429L62.7331 34.2872V36.2311H61.7988V28.6304H62.7331V33.4319L62.7525 33.4124Z" fill="white"/>
<path d="M67.3845 33.8005C67.3845 35.0641 68.2214 35.5889 69.1556 35.5889C70.0898 35.5889 70.2456 35.4723 70.5959 35.3168L70.7516 35.9777C70.4207 36.1332 69.8368 36.3082 69.0194 36.3082C67.4234 36.3082 66.4697 35.239 66.4697 33.7033C66.4697 32.1676 67.404 30.9041 68.9026 30.9041C70.4013 30.9041 71.0435 32.3814 71.0435 33.334C71.0435 34.2865 71.0435 33.6644 71.0046 33.7811H67.365L67.3845 33.8005ZM70.1482 33.1201C70.1482 32.5369 69.8952 31.6039 68.8442 31.6039C67.7932 31.6039 67.4818 32.4786 67.4039 33.1201H70.1482Z" fill="white"/>
<path d="M72.9323 33.8005C72.9323 35.0641 73.7692 35.5889 74.7035 35.5889C75.6377 35.5889 75.7934 35.4723 76.1437 35.3168L76.2994 35.9777C75.9686 36.1332 75.3847 36.3082 74.5672 36.3082C72.9713 36.3082 72.0176 35.239 72.0176 33.7033C72.0176 32.1676 72.9518 30.9041 74.4504 30.9041C75.9491 30.9041 76.5914 32.3814 76.5914 33.334C76.5914 34.2865 76.5914 33.6644 76.5524 33.7811H72.9129L72.9323 33.8005ZM75.6961 33.1201C75.6961 32.5369 75.4431 31.6039 74.3921 31.6039C73.3411 31.6039 73.0297 32.4786 72.9518 33.1201H75.6961Z" fill="white"/>
<path d="M77.292 35.6672L79.6276 32.6153C79.8611 32.3237 80.0752 32.071 80.3088 31.7988C80.3088 31.7794 77.4866 31.7794 77.4866 31.7794V31.0212H81.4376V31.6044L79.1215 34.6175C78.9074 34.8897 78.6933 35.1618 78.4598 35.4145C78.4598 35.434 81.496 35.4339 81.496 35.4339V36.1921H77.292V35.6478V35.6672Z" fill="white"/>
<path d="M88.522 32.8293H85.7194V35.4341H88.8529V36.2117H84.7852V28.9998H88.6972V29.7773H85.7388V32.0712H88.5415V32.8487L88.522 32.8293Z" fill="white"/>
<path d="M90.0205 28.6111H90.9547V36.2118H90.0205V28.6111Z" fill="white"/>
<path d="M93.0769 33.8005C93.0769 35.0641 93.9138 35.5889 94.848 35.5889C95.7822 35.5889 95.9379 35.4723 96.2883 35.3168L96.444 35.9777C96.1131 36.1332 95.5292 36.3082 94.7118 36.3082C93.1158 36.3082 92.1621 35.239 92.1621 33.7033C92.1621 32.1676 93.0963 30.9041 94.595 30.9041C96.0936 30.9041 96.7359 32.3814 96.7359 33.334C96.7359 34.2865 96.7359 33.6644 96.697 33.7811H93.0574L93.0769 33.8005ZM95.8406 33.1201C95.8406 32.5369 95.5876 31.6039 94.5366 31.6039C93.4856 31.6039 93.1742 32.4786 93.0963 33.1201H95.8406Z" fill="white"/>
<path d="M101.621 36.0359C101.367 36.1525 100.823 36.3275 100.141 36.3275C98.5843 36.3275 97.5527 35.2583 97.5527 33.6837C97.5527 32.1091 98.6427 30.9233 100.336 30.9233C102.029 30.9233 101.387 31.0594 101.64 31.1955L101.426 31.9147C101.192 31.7981 100.842 31.662 100.316 31.662C99.1292 31.662 98.487 32.5562 98.487 33.6254C98.487 34.8306 99.2655 35.5693 100.297 35.5693C101.329 35.5693 101.192 35.4333 101.445 35.3166L101.601 36.0164L101.621 36.0359Z" fill="white"/>
<path d="M103.995 29.5442V31.041H105.357V31.7603H103.995V34.5595C103.995 35.201 104.19 35.5704 104.715 35.5704C105.241 35.5704 105.143 35.5315 105.26 35.4926L105.299 36.2119C105.124 36.2896 104.832 36.3479 104.462 36.3479C104.092 36.3479 103.664 36.2119 103.45 35.9591C103.197 35.6676 103.08 35.2205 103.08 34.5984V31.7797H102.282V31.0605H103.08V29.8163L103.995 29.5636V29.5442Z" fill="white"/>
<path d="M106.409 32.6534C106.409 32.0508 106.409 31.526 106.37 31.04H107.188L107.226 32.0508H107.265C107.499 31.351 108.083 30.9233 108.706 30.9233C109.328 30.9233 108.881 30.9233 108.978 30.9428V31.837C108.881 31.8175 108.784 31.8175 108.667 31.8175C108.005 31.8175 107.538 32.323 107.402 33.0228C107.382 33.1589 107.363 33.3144 107.363 33.4699V36.2303H106.429V32.6729L106.409 32.6534Z" fill="white"/>
<path d="M114.505 33.5864C114.505 35.5108 113.181 36.3467 111.936 36.3467C110.69 36.3467 109.444 35.3165 109.444 33.6836C109.444 32.0507 110.593 30.9426 112.013 30.9426C113.434 30.9426 114.505 32.0312 114.505 33.6058V33.5864ZM110.398 33.6447C110.398 34.7722 111.04 35.6275 111.975 35.6275C112.909 35.6275 113.551 34.7916 113.551 33.6058C113.551 32.42 113.103 31.623 111.994 31.623C110.885 31.623 110.398 32.6533 110.398 33.6447Z" fill="white"/>
<path d="M115.712 32.4396C115.712 31.8953 115.712 31.4676 115.673 31.04H116.51L116.568 31.8953H116.588C116.841 31.4093 117.444 30.9233 118.3 30.9233C119.157 30.9233 120.13 31.351 120.13 33.1394V36.2303H119.196V33.2366C119.196 32.4007 118.884 31.7009 117.989 31.7009C117.094 31.7009 116.88 32.148 116.724 32.6729C116.685 32.7895 116.665 32.9645 116.665 33.1005V36.2108H115.731V32.4396H115.712Z" fill="white"/>
<path d="M122.719 29.5829C122.719 29.894 122.485 30.1661 122.115 30.1661C121.745 30.1661 121.551 29.894 121.551 29.5829C121.551 29.2719 121.784 28.9998 122.135 28.9998C122.485 28.9998 122.719 29.2525 122.719 29.5829ZM121.668 36.2117V31.0409H122.602V36.2117H121.668Z" fill="white"/>
<path d="M127.876 36.0359C127.623 36.1525 127.078 36.3275 126.397 36.3275C124.84 36.3275 123.809 35.2583 123.809 33.6837C123.809 32.1091 124.899 30.9233 126.592 30.9233C128.285 30.9233 127.643 31.0594 127.896 31.1955L127.682 31.9147C127.448 31.7981 127.098 31.662 126.572 31.662C125.385 31.662 124.743 32.5562 124.743 33.6254C124.743 34.8306 125.521 35.5693 126.553 35.5693C127.584 35.5693 127.448 35.4333 127.701 35.3166L127.857 36.0164L127.876 36.0359Z" fill="white"/>
<path d="M132.216 28.9998V36.2117H131.282V28.9998H132.216Z" fill="white"/>
<path d="M133.929 32.4396C133.929 31.8953 133.929 31.4676 133.89 31.04H134.727L134.785 31.8953H134.804C135.057 31.4093 135.661 30.9233 136.517 30.9233C137.374 30.9233 138.347 31.351 138.347 33.1394V36.2303H137.412V33.2366C137.412 32.4007 137.101 31.7009 136.206 31.7009C135.31 31.7009 135.096 32.148 134.941 32.6729C134.902 32.7895 134.882 32.9645 134.882 33.1005V36.2108H133.948V32.4396H133.929Z" fill="white"/>
<path d="M139.748 35.2583C140.04 35.4332 140.527 35.6276 140.994 35.6276C141.675 35.6276 142.006 35.2972 142.006 34.8501C142.006 34.403 141.733 34.1697 141.033 33.8975C140.098 33.5671 139.651 33.0422 139.651 32.4396C139.651 31.6037 140.332 30.9233 141.441 30.9233C142.551 30.9233 142.415 31.0594 142.707 31.2344L142.473 31.9147C142.278 31.7981 141.889 31.6037 141.402 31.6037C140.916 31.6037 140.546 31.9147 140.546 32.323C140.546 32.7312 140.858 32.945 141.539 33.1977C142.434 33.5282 142.901 33.9753 142.901 34.7529C142.901 35.6665 142.181 36.308 140.955 36.308C139.729 36.308 139.865 36.1525 139.495 35.9387L139.729 35.2194L139.748 35.2583Z" fill="white"/>
<path d="M148.449 34.7925C148.449 35.3368 148.449 35.8033 148.487 36.2115H147.651L147.592 35.3562H147.573C147.339 35.7644 146.794 36.3282 145.86 36.3282C144.926 36.3282 144.069 35.8811 144.069 34.0538V31.0212H145.004V33.8788C145.004 34.8702 145.315 35.5311 146.171 35.5311C147.028 35.5311 147.242 35.084 147.417 34.6758C147.456 34.5397 147.495 34.3648 147.495 34.1898V31.0212H148.429V34.773L148.449 34.7925Z" fill="white"/>
<path d="M150.024 32.6534C150.024 32.0508 150.024 31.526 149.985 31.04H150.803L150.842 32.0508H150.881C151.114 31.351 151.698 30.9233 152.321 30.9233C152.944 30.9233 152.496 30.9233 152.574 30.9428V31.837C152.477 31.8175 152.379 31.8175 152.263 31.8175C151.601 31.8175 151.134 32.323 150.997 33.0228C150.978 33.1589 150.959 33.3144 150.959 33.4699V36.2303H150.024V32.6729V32.6534Z" fill="white"/>
<path d="M156.35 36.2107L156.272 35.5497H156.253C155.961 35.958 155.416 36.3273 154.676 36.3273C153.937 36.3273 153.1 35.5886 153.1 34.8499C153.1 33.5864 154.209 32.906 156.214 32.9254V32.8088C156.214 32.3811 156.097 31.6036 155.026 31.623C154.54 31.623 154.034 31.7591 153.683 32.0118L153.469 31.3897C153.898 31.1176 154.52 30.9426 155.182 30.9426C156.759 30.9426 157.148 32.0312 157.148 33.0615V35.0054C157.148 35.4525 157.167 35.8802 157.226 36.2495H156.369L156.35 36.2107ZM156.214 33.5669C155.202 33.5475 154.034 33.7224 154.034 34.7333C154.034 35.7441 154.443 35.6275 154.91 35.6275C155.591 35.6275 156.019 35.1998 156.175 34.7527C156.214 34.6555 156.214 34.5389 156.214 34.4611V33.5669Z" fill="white"/>
<path d="M158.647 32.4396C158.647 31.8953 158.647 31.4676 158.608 31.04H159.445L159.504 31.8953H159.523C159.776 31.4093 160.38 30.9233 161.236 30.9233C162.092 30.9233 163.065 31.351 163.065 33.1394V36.2303H162.131V33.2366C162.131 32.4007 161.82 31.7009 160.924 31.7009C160.029 31.7009 159.815 32.148 159.659 32.6729C159.62 32.7895 159.601 32.9645 159.601 33.1005V36.2108H158.667V32.4396H158.647Z" fill="white"/>
<path d="M168.301 36.0359C168.048 36.1525 167.503 36.3275 166.822 36.3275C165.265 36.3275 164.233 35.2583 164.233 33.6837C164.233 32.1091 165.323 30.9233 167.017 30.9233C168.71 30.9233 168.068 31.0594 168.321 31.1955L168.107 31.9147C167.873 31.7981 167.523 31.662 166.997 31.662C165.81 31.662 165.168 32.5562 165.168 33.6254C165.168 34.8306 165.946 35.5693 166.978 35.5693C168.009 35.5693 167.873 35.4333 168.126 35.3166L168.282 36.0164L168.301 36.0359Z" fill="white"/>
<path d="M169.878 33.8005C169.878 35.0641 170.715 35.5889 171.649 35.5889C172.583 35.5889 172.739 35.4723 173.089 35.3168L173.245 35.9777C172.914 36.1332 172.33 36.3082 171.513 36.3082C169.917 36.3082 168.963 35.239 168.963 33.7033C168.963 32.1676 169.897 30.9041 171.396 30.9041C172.894 30.9041 173.537 32.3814 173.537 33.334C173.537 34.2865 173.537 33.6644 173.498 33.7811H169.858L169.878 33.8005ZM172.641 33.1201C172.641 32.5369 172.388 31.6039 171.337 31.6039C170.286 31.6039 169.975 32.4786 169.897 33.1201H172.641Z" fill="white"/>
<path d="M177.021 29.0972C177.429 29 178.071 28.9417 178.733 28.9417C179.667 28.9417 180.271 29.0972 180.718 29.4665C181.088 29.7581 181.322 30.1858 181.322 30.7495C181.322 31.3132 180.855 32.0519 180.096 32.3241C180.777 32.5185 181.594 33.0822 181.594 34.1708C181.594 35.2594 181.341 35.2594 180.971 35.6093C180.485 36.0759 179.667 36.2897 178.48 36.2897C177.293 36.2897 177.351 36.2508 177.04 36.2119V29.1166L177.021 29.0972ZM177.955 32.0519H178.811C179.784 32.0519 180.368 31.5271 180.368 30.8273C180.368 30.1274 179.726 29.6609 178.792 29.6609C177.857 29.6609 178.11 29.6998 177.955 29.7192V32.0519ZM177.955 35.5121C178.149 35.551 178.402 35.551 178.733 35.551C179.706 35.551 180.602 35.2011 180.602 34.1514C180.602 33.1017 179.745 32.7517 178.733 32.7517H177.955V35.4927V35.5121Z" fill="white"/>
<path d="M182.82 32.6534C182.82 32.0508 182.82 31.526 182.781 31.04H183.599L183.638 32.0508H183.677C183.91 31.351 184.494 30.9233 185.117 30.9233C185.74 30.9233 185.292 30.9233 185.37 30.9428V31.837C185.272 31.8175 185.175 31.8175 185.058 31.8175C184.397 31.8175 183.93 32.323 183.793 33.0228C183.774 33.1589 183.754 33.3144 183.754 33.4699V36.2303H182.82V32.6729V32.6534Z" fill="white"/>
<path d="M190.917 33.5864C190.917 35.5108 189.593 36.3467 188.348 36.3467C187.102 36.3467 185.856 35.3165 185.856 33.6836C185.856 32.0507 187.005 30.9426 188.426 30.9426C189.846 30.9426 190.917 32.0312 190.917 33.6058V33.5864ZM186.81 33.6447C186.81 34.7722 187.452 35.6275 188.387 35.6275C189.321 35.6275 189.963 34.7916 189.963 33.6058C189.963 32.42 189.516 31.623 188.406 31.623C187.297 31.623 186.81 32.6533 186.81 33.6447Z" fill="white"/>
<path d="M193.039 33.4124H193.058C193.175 33.2375 193.37 33.0042 193.506 32.8293L195.043 31.0408H196.172L194.168 33.1792L196.445 36.2311H195.296L193.506 33.7429L193.019 34.2872V36.2311H192.085V28.6304H193.019V33.4319L193.039 33.4124Z" fill="white"/>
<path d="M197.671 33.8005C197.671 35.0641 198.508 35.5889 199.442 35.5889C200.376 35.5889 200.532 35.4723 200.882 35.3168L201.038 35.9777C200.707 36.1332 200.123 36.3082 199.306 36.3082C197.71 36.3082 196.756 35.239 196.756 33.7033C196.756 32.1676 197.69 30.9041 199.189 30.9041C200.687 30.9041 201.33 32.3814 201.33 33.334C201.33 34.2865 201.33 33.6644 201.291 33.7811H197.651L197.671 33.8005ZM200.434 33.1201C200.434 32.5369 200.181 31.6039 199.13 31.6039C198.079 31.6039 197.768 32.4786 197.69 33.1201H200.434Z" fill="white"/>
<path d="M202.516 32.6534C202.516 32.0508 202.516 31.526 202.478 31.04H203.295L203.334 32.0508H203.373C203.606 31.351 204.19 30.9233 204.813 30.9233C205.436 30.9233 204.988 30.9233 205.066 30.9428V31.837C204.969 31.8175 204.871 31.8175 204.755 31.8175C204.093 31.8175 203.626 32.323 203.49 33.0228C203.47 33.1589 203.451 33.3144 203.451 33.4699V36.2303H202.516V32.6729V32.6534Z" fill="white"/>
<path d="M208.862 36.2107L208.784 35.5497H208.764C208.472 35.958 207.927 36.3273 207.188 36.3273C206.448 36.3273 205.611 35.5886 205.611 34.8499C205.611 33.5864 206.721 32.906 208.725 32.9254V32.8088C208.725 32.3811 208.609 31.6036 207.538 31.623C207.052 31.623 206.546 31.7591 206.195 32.0118L205.981 31.3897C206.409 31.1176 207.032 30.9426 207.694 30.9426C209.27 30.9426 209.66 32.0312 209.66 33.0615V35.0054C209.66 35.4525 209.679 35.8802 209.737 36.2495H208.881L208.862 36.2107ZM208.706 33.5669C207.694 33.5475 206.526 33.7224 206.526 34.7333C206.526 35.7441 206.935 35.6275 207.402 35.6275C208.083 35.6275 208.511 35.1998 208.667 34.7527C208.706 34.6555 208.706 34.5389 208.706 34.4611V33.5669Z" fill="white"/>
<path d="M215.615 31.0398C215.595 31.4092 215.576 31.8174 215.576 32.4589V35.472C215.576 36.6772 215.323 37.3965 214.836 37.8436C214.33 38.3101 213.61 38.4656 212.948 38.4656C212.287 38.4656 211.644 38.3101 211.216 38.038L211.45 37.3187C211.8 37.5325 212.326 37.7269 212.968 37.7269C213.921 37.7269 214.642 37.2215 214.642 35.9191V35.3359H214.622C214.33 35.8219 213.766 36.2107 212.968 36.2107C211.683 36.2107 210.749 35.1221 210.749 33.6836C210.749 32.2451 211.897 30.9426 213.085 30.9426C214.272 30.9426 214.466 31.4092 214.7 31.8368H214.719L214.758 31.0593H215.595L215.615 31.0398ZM214.642 33.0809C214.642 32.9254 214.642 32.7894 214.583 32.6533C214.408 32.109 213.96 31.6424 213.26 31.6424C212.559 31.6424 211.722 32.4006 211.722 33.6058C211.722 34.811 212.248 35.472 213.26 35.472C214.272 35.472 214.369 35.1026 214.564 34.5C214.622 34.3445 214.642 34.1695 214.642 33.9946V33.0615V33.0809Z" fill="white"/>
<path d="M217.678 33.8005C217.678 35.0641 218.496 35.5889 219.45 35.5889C220.403 35.5889 220.54 35.4723 220.89 35.3168L221.065 35.9777C220.734 36.1332 220.15 36.3082 219.333 36.3082C217.737 36.3082 216.783 35.239 216.783 33.7033C216.783 32.1676 217.717 30.9041 219.216 30.9041C220.715 30.9041 221.357 32.3814 221.357 33.334C221.357 34.2865 221.357 33.6644 221.318 33.7811H217.678V33.8005ZM220.423 33.1201C220.423 32.5369 220.189 31.6039 219.119 31.6039C218.048 31.6039 217.756 32.4786 217.678 33.1201H220.423Z" fill="white"/>
<path d="M229.863 35.9777C229.532 36.1526 228.831 36.3276 227.955 36.3276C225.912 36.3276 224.394 35.0446 224.394 32.673C224.394 30.3014 225.931 28.8823 228.169 28.8823C230.408 28.8823 229.629 29.0767 229.882 29.1934L229.649 29.9515C229.298 29.7765 228.792 29.6599 228.189 29.6599C226.496 29.6599 225.367 30.7485 225.367 32.6341C225.367 34.5197 226.379 35.5305 228.13 35.5305C229.882 35.5305 229.279 35.4139 229.668 35.239L229.863 35.9777Z" fill="white"/>
<path d="M235.584 33.5864C235.584 35.5108 234.26 36.3467 233.015 36.3467C231.769 36.3467 230.523 35.3165 230.523 33.6836C230.523 32.0507 231.672 30.9426 233.093 30.9426C234.513 30.9426 235.584 32.0312 235.584 33.6058V33.5864ZM231.477 33.6447C231.477 34.7722 232.119 35.6275 233.054 35.6275C233.988 35.6275 234.63 34.7916 234.63 33.6058C234.63 32.42 234.182 31.623 233.073 31.623C231.964 31.623 231.477 32.6533 231.477 33.6447Z" fill="white"/>
<path d="M236.792 32.4398C236.792 31.8955 236.792 31.4678 236.753 31.0401H237.57L237.629 31.876H237.648C237.94 31.39 238.427 30.9235 239.283 30.9235C240.139 30.9235 240.529 31.3512 240.743 31.9538H240.762C240.937 31.6622 241.132 31.4289 241.346 31.2734C241.658 31.0401 242.008 30.9041 242.495 30.9041C243.195 30.9041 244.207 31.3512 244.207 33.159V36.211H243.293V33.2756C243.293 32.2648 242.923 31.6816 242.164 31.6816C241.405 31.6816 241.21 32.0704 241.035 32.537C240.996 32.673 240.957 32.848 240.957 33.0035V36.211H240.042V33.1007C240.042 32.2842 239.672 31.6816 238.972 31.6816C238.271 31.6816 237.96 32.1482 237.804 32.6147C237.765 32.7508 237.726 32.9257 237.726 33.0813V36.211H236.811V32.4398H236.792Z" fill="white"/>
<path d="M245.315 32.7312C245.315 32.0703 245.315 31.526 245.276 31.04H246.113L246.172 31.9147H246.191C246.561 31.2927 247.184 30.9233 248.04 30.9233C249.305 30.9233 250.239 31.9731 250.239 33.5476C250.239 35.1222 249.091 36.3275 247.884 36.3275C246.678 36.3275 246.6 36.0359 246.288 35.511H246.269V38.3297H245.335V32.7117L245.315 32.7312ZM246.25 34.1114C246.25 34.2475 246.25 34.3835 246.288 34.5002C246.464 35.1611 247.028 35.6082 247.69 35.6082C248.682 35.6082 249.266 34.7918 249.266 33.606C249.266 32.4202 248.721 31.6815 247.729 31.6815C246.736 31.6815 246.483 32.1286 246.308 32.8478C246.269 32.9645 246.25 33.1005 246.25 33.2366V34.1308V34.1114Z" fill="white"/>
<path d="M254.424 36.2107L254.346 35.5497H254.327C254.035 35.958 253.49 36.3273 252.75 36.3273C252.011 36.3273 251.174 35.5886 251.174 34.8499C251.174 33.5864 252.283 32.906 254.288 32.9254V32.8088C254.288 32.3811 254.171 31.6036 253.101 31.623C252.614 31.623 252.108 31.7591 251.758 32.0118L251.544 31.3897C251.972 31.1176 252.595 30.9426 253.256 30.9426C254.833 30.9426 255.222 32.0312 255.222 33.0615V35.0054C255.222 35.4525 255.242 35.8802 255.3 36.2495H254.444L254.424 36.2107ZM254.268 33.5669C253.256 33.5475 252.089 33.7224 252.089 34.7333C252.089 35.7441 252.497 35.6275 252.964 35.6275C253.646 35.6275 254.074 35.1998 254.23 34.7527C254.268 34.6555 254.268 34.5389 254.268 34.4611V33.5669Z" fill="white"/>
<path d="M256.722 32.4396C256.722 31.8953 256.722 31.4676 256.683 31.04H257.52L257.578 31.8953H257.597C257.85 31.4093 258.454 30.9233 259.31 30.9233C260.167 30.9233 261.14 31.351 261.14 33.1394V36.2303H260.205V33.2366C260.205 32.4007 259.894 31.7009 258.999 31.7009C258.103 31.7009 257.889 32.148 257.734 32.6729C257.695 32.7895 257.675 32.9645 257.675 33.1005V36.2108H256.741V32.4396H256.722Z" fill="white"/>
<path d="M262.871 31.0405L264 34.0925C264.117 34.4424 264.253 34.8312 264.331 35.1422H264.351C264.448 34.8312 264.565 34.4424 264.681 34.073L265.713 31.0405H266.706L265.285 34.734C264.604 36.5224 264.156 37.4166 263.514 37.9803C263.047 38.3886 262.579 38.5441 262.365 38.583L262.132 37.8054C262.365 37.7276 262.677 37.5916 262.949 37.3388C263.202 37.125 263.514 36.7751 263.728 36.2891C263.767 36.1919 263.806 36.1142 263.806 36.0559C263.806 35.9975 263.806 35.9198 263.747 35.8226L261.84 31.0405H262.871Z" fill="white"/>
<path d="M36.6333 0.288086H5.4146C2.573 0.288086 0.276367 2.58192 0.276367 5.40061V36.5812C0.276367 39.4193 2.573 41.7132 5.4146 41.7132H36.6333C39.4554 41.7132 41.752 39.4193 41.752 36.5812V5.40061C41.752 2.58192 39.4554 0.288086 36.6333 0.288086ZM20.5763 38.253C20.5568 38.253 14.0367 36.0952 9.85216 33.0238C3.42937 28.3001 5.86225 22.0795 8.48975 15.9367C9.32666 13.9928 8.43136 12.2432 7.3609 10.9797L9.03472 8.82192C9.26827 9.03575 9.50183 9.26903 9.75485 9.52174C11.6428 11.9128 12.1099 14.5759 11.0394 17.0253C9.73538 20.0578 8.64546 22.7599 8.54814 25.1315C8.52868 25.6369 8.54814 26.1229 8.62599 26.5505C8.64546 26.7255 8.68438 26.881 8.72331 27.0365C8.72331 27.0365 8.7298 27.03 8.74277 27.0171C9.26827 26.2589 9.63807 25.6563 9.69646 25.5591C11.0589 23.4014 12.9468 22.2933 12.9468 22.2933C13.5891 21.9046 15.1656 20.9715 17.1313 21.2242C18.1629 21.3603 18.9219 21.7685 19.5058 22.0989C21.8998 23.4208 22.289 25.0537 23.3984 24.9176C24.391 24.801 24.936 23.3625 24.9555 23.2653C25.0917 22.9154 25.4031 21.7879 23.9434 18.9887C23.5346 18.2305 21.8414 15.1397 17.579 11.6601C17.5011 11.6017 17.4233 11.5434 17.3649 11.4851C15.7495 10.2021 13.4334 8.53033 10.3193 6.878C9.63807 6.50865 8.89847 6.1393 8.11995 5.76996C8.17834 5.57557 8.60653 4.95351 9.50183 3.68996C12.032 4.58416 14.2313 5.05071 15.8468 5.28398C17.5984 5.53669 19.0192 5.61444 19.7588 5.63388C20.6152 5.67276 22.036 5.73108 23.885 5.59501C24.5467 5.53669 25.6561 5.47837 27.038 5.22566C28.3809 4.97295 30.2105 4.54528 32.3319 3.67052C32.799 4.37033 33.2662 5.08958 33.7527 5.7894C33.6749 5.84772 33.6165 5.86716 33.5581 5.92547C33.2467 6.1393 32.4682 6.56697 31.0668 6.97519C29.6655 7.38342 27.6219 7.81108 24.7219 8.02491C23.5736 8.10267 22.3085 8.16099 20.8877 8.16099C19.4669 8.16099 18.7857 8.12211 17.8515 8.08323C18.2991 8.4137 18.7857 8.76361 19.2723 9.17183C20.5957 10.2215 23.379 12.4571 25.5783 15.8006C26.4736 17.1614 30.2883 23.1875 28.1085 26.7449C27.9528 27.0365 26.9018 28.7277 25.0528 29.0582C24.138 29.2137 23.3595 28.9999 23.0481 28.9027C22.1139 28.6111 21.8024 28.2223 20.1092 26.9393C18.7857 25.9479 18.1045 25.4619 17.6179 25.3647C16.0219 25.0926 14.6011 26.1423 14.2703 26.395C12.9857 27.3475 11.0394 29.7386 10.9226 29.8552C10.9226 29.8552 10.9226 29.8552 10.8837 29.8746C10.8448 29.9135 10.8058 29.9524 10.728 30.0302C10.7085 30.069 10.6696 30.0885 10.6501 30.1079C10.9032 30.3217 11.1562 30.5356 11.4287 30.7689C14.3481 32.9072 18.6689 34.6178 20.4984 35.2982V38.2141L20.5763 38.253Z" fill="#32012F"/>
<path d="M33.7731 5.82719C33.6953 5.88551 33.6369 5.90495 33.5785 5.96327C33.2671 6.1771 32.4886 6.60476 31.0872 7.01299C29.6859 7.42121 27.6423 7.84888 24.7423 8.06271C23.594 8.14047 22.3289 8.19878 20.9081 8.19878C19.4873 8.19878 18.8061 8.15991 17.8719 8.12103C18.3195 8.45149 18.8061 8.8014 19.2927 9.20962C20.6162 10.2593 23.3994 12.4949 25.5987 15.8384C26.494 17.1992 30.3087 23.2253 28.1289 26.7827C27.9732 27.0743 26.9222 28.7655 25.0732 29.096C24.1584 29.2515 23.3799 29.0377 23.0685 28.9405C22.1343 28.6489 21.8229 28.2601 20.1296 26.9771C18.8061 25.9857 18.1249 25.4997 17.6383 25.4025C16.0423 25.1304 14.6216 26.1801 14.2907 26.4328C13.0061 27.3853 11.0598 29.7764 10.943 29.893C10.943 29.893 10.943 29.893 10.9041 29.9124C10.8652 29.9513 10.8263 29.9902 10.7484 30.068C10.729 30.1068 10.69 30.1263 10.6706 30.1457C10.9236 30.3595 11.1766 30.5734 11.4491 30.8066C14.3685 32.945 18.6893 34.6556 20.5188 35.336V38.2519C20.4994 38.2519 13.9793 36.0941 9.79473 33.0227C3.37194 28.299 5.80481 22.0784 8.43232 15.9356C9.26923 13.9917 8.37393 12.2422 7.30346 10.9786L8.97728 8.82084C9.21084 9.03467 9.44439 9.26794 9.69741 9.52065C11.5853 11.9117 12.0524 14.5749 10.982 17.0242C9.67795 20.0567 8.58802 22.7588 8.49071 25.1304C8.47124 25.6358 8.4907 26.1218 8.56856 26.5495C8.58802 26.7244 8.62694 26.8799 8.66587 27.0354C8.66587 27.0354 8.67236 27.029 8.68534 27.016C9.21084 26.2579 9.58063 25.6552 9.63902 25.558C11.0014 23.4003 12.8893 22.2923 12.8893 22.2923C13.5316 21.9035 15.1081 20.9704 17.0739 21.2231C18.1054 21.3592 18.8645 21.7674 19.4484 22.0979C21.8423 23.4197 22.2316 25.0526 23.341 24.9166C24.3336 24.7999 24.8786 23.3614 24.898 23.2642C25.0343 22.9143 25.3457 21.7868 23.8859 18.9876C23.4772 18.2294 21.7839 15.1386 17.5215 11.659C17.4437 11.6007 17.3658 11.5423 17.3074 11.484C15.692 10.201 13.3759 8.52925 10.2618 6.87691C9.58063 6.50757 8.84104 6.13822 8.06252 5.76887C8.12091 5.57448 8.54909 4.95243 9.44439 3.68887C11.9746 4.58308 14.1739 5.04962 15.7893 5.28289C17.541 5.5356 18.9618 5.61336 19.7014 5.6328C20.5578 5.67168 21.9786 5.73 23.8276 5.59392C24.4893 5.5356 25.5987 5.47729 26.9806 5.22457C28.3235 4.97186 30.153 4.5442 32.2745 3.66943C32.7416 4.36925 33.2087 5.0885 33.6953 5.78832L33.7731 5.82719Z" fill="#E2DFD0"/>
<path d="M10.3203 6.87781C9.21095 6.50847 8.6076 6.15856 8.29619 5.96417C8.2378 5.92529 8.15995 5.88641 8.10156 5.82809C8.10156 5.81513 8.10156 5.79569 8.10156 5.76978C8.88008 6.13912 9.60022 6.50847 10.3009 6.87781H10.3203Z" fill="#E2DFD0"/>
<path d="M15.7891 31.2153C16.7028 31.2153 17.4435 30.4755 17.4435 29.563C17.4435 28.6504 16.7028 27.9106 15.7891 27.9106C14.8754 27.9106 14.1348 28.6504 14.1348 29.563C14.1348 30.4755 14.8754 31.2153 15.7891 31.2153Z" fill="#E2DFD0"/>
<path d="M18.8057 32.5559C19.7194 32.5559 20.4601 31.8161 20.4601 30.9036C20.4601 29.991 19.7194 29.2512 18.8057 29.2512C17.892 29.2512 17.1514 29.991 17.1514 30.9036C17.1514 31.8161 17.892 32.5559 18.8057 32.5559Z" fill="#E2DFD0"/>
<path d="M6.60244 6.89673L5.18164 9.03505C5.18164 9.03505 5.92123 9.50159 6.73868 10.2986L8.33465 8.17972C7.71183 7.63542 7.10848 7.2272 6.6219 6.89673H6.60244Z" fill="#E2DFD0"/>
<path d="M33.9678 11.9312C33.9873 11.8923 34.0068 11.8534 34.0457 11.8146C34.1235 11.6979 34.2014 11.5813 34.2792 11.4841C34.3571 11.3675 34.4349 11.2703 34.5128 11.1731C34.5517 11.1147 34.5907 11.0759 34.6296 11.0175C34.8437 10.7648 35.0578 10.551 35.2719 10.3372C35.3108 10.2983 35.3497 10.2594 35.4081 10.2205C35.4276 10.2011 35.4665 10.1622 35.4859 10.1428C35.5054 10.1233 35.5443 10.0845 35.5638 10.065C35.5833 10.0456 35.6222 10.0067 35.6416 9.98727C36.3034 9.40409 36.8289 9.07362 36.8289 9.07362L35.4081 6.9353C35.3886 6.9353 35.3497 6.97418 35.3302 6.99362C35.3108 6.99362 35.2719 7.0325 35.2524 7.05194C35.2135 7.07138 35.1745 7.11026 35.1162 7.1297C35.0967 7.1297 35.0578 7.16857 35.0383 7.18801C35.0383 7.18801 35.0188 7.20745 34.9994 7.22689C34.941 7.26577 34.8826 7.30465 34.8242 7.34353C34.649 7.46016 34.4739 7.59624 34.2987 7.73231C34.2792 7.75175 34.2403 7.77119 34.2209 7.79063C33.6954 8.19886 33.1309 8.68484 32.547 9.26801C32.4497 9.36521 32.3719 9.44297 32.2746 9.54017C30.3866 11.9312 29.9195 14.5944 30.99 17.0437C31.0678 17.2381 31.1457 17.4131 31.2236 17.6075C31.2819 17.7435 31.3403 17.8796 31.3987 18.0157C31.4766 18.2101 31.5544 18.385 31.6323 18.56C31.6907 18.6961 31.7491 18.8321 31.8074 18.9682C31.9242 19.2404 32.0215 19.5125 32.1188 19.7652C32.8779 21.7091 33.4034 23.4976 33.4813 25.1305C33.5591 26.9966 32.9947 28.4934 31.6712 29.8153C31.3403 30.1458 30.9511 30.4763 30.5229 30.7873C27.584 32.945 23.2826 34.6363 21.4531 35.3166V38.252C21.4531 38.252 27.9732 36.0942 32.1578 33.0228C32.7027 32.6146 33.1893 32.2064 33.598 31.7981C34.941 30.4568 35.7 29.0378 36.0309 27.5215C36.5369 25.2471 36.0893 22.8172 35.2524 20.329C35.2135 20.2318 35.194 20.1346 35.1551 20.0179C35.0772 19.8041 34.9994 19.5903 34.9215 19.3764C34.9021 19.2987 34.8631 19.2209 34.8437 19.1626C34.7658 18.9488 34.688 18.7349 34.5906 18.5211C34.5517 18.4239 34.5128 18.3267 34.4739 18.2101C34.3766 17.9574 34.2598 17.7047 34.1625 17.4519C34.1235 17.3547 34.0846 17.2576 34.0262 17.1409C33.9484 16.9465 33.8511 16.7327 33.7732 16.5383C33.7343 16.4411 33.6954 16.3439 33.637 16.2273C33.598 16.1301 33.5591 16.0329 33.5007 15.9162C33.0725 14.9054 33.092 13.9334 33.3839 13.0587C33.5202 12.6505 33.7148 12.2617 33.9484 11.8923L33.9678 11.9312Z" fill="#E2DFD0"/>
</svg>
