<svg width="119" height="49" viewBox="0 0 119 49" fill="none" xmlns="http://www.w3.org/2000/svg">
<g clip-path="url(#clip0_237_7794)">
<path d="M91.3877 40.5341C91.0394 40.5273 90.6962 40.6207 90.3994 40.8031C90.1184 40.976 89.8856 41.2167 89.7217 41.5031V38.2341H88.4873V46.3061H89.7188V43.4061C89.6854 42.9571 89.8219 42.5119 90.1016 42.1591C90.2266 42.0267 90.3777 41.9213 90.5449 41.8493C90.7121 41.7772 90.8921 41.7401 91.0742 41.7401C91.2563 41.7401 91.4363 41.7772 91.6035 41.8493C91.7707 41.9213 91.9218 42.0267 92.0469 42.1591C92.3269 42.5117 92.4635 42.957 92.4297 43.4061V46.3061H93.6602V43.4061C93.7168 42.6378 93.4968 41.8745 93.04 41.2541C92.8366 41.0161 92.5827 40.8272 92.2959 40.7017C92.0091 40.5761 91.6976 40.5171 91.3848 40.5291M96.2197 13.1771H95.4199C95.3664 13.1775 95.3128 13.1667 95.2637 13.1454C95.2146 13.124 95.1709 13.0926 95.1348 13.0531C95.0961 13.0134 95.0653 12.9665 95.0449 12.915C95.0245 12.8635 95.0146 12.8085 95.0156 12.7531C95.0147 12.7007 95.0244 12.6487 95.0449 12.6004C95.0654 12.5522 95.0964 12.5088 95.1348 12.4731C95.1725 12.4364 95.2167 12.4076 95.2656 12.3882C95.3145 12.3688 95.3673 12.3593 95.4199 12.3601C95.4887 12.359 95.5565 12.3732 95.6191 12.4017C95.6818 12.4303 95.737 12.4724 95.7812 12.5251L96.1123 12.2051C96.0246 12.1009 95.9155 12.0172 95.792 11.9598C95.6685 11.9025 95.5336 11.8729 95.3975 11.8731C95.2852 11.8703 95.1739 11.8899 95.0693 11.9308C94.9648 11.9717 94.8687 12.033 94.7881 12.1111C94.7081 12.1848 94.6445 12.2745 94.6016 12.3745C94.5587 12.4744 94.5374 12.5823 94.5391 12.6911C94.5409 12.8683 94.6038 13.0397 94.7158 13.1771H94.291V13.6771H96.2168L96.2197 13.1771ZM89.541 27.7231H88.3105V30.6231C88.3444 31.0721 88.2078 31.5174 87.9277 31.8701C87.8027 32.0026 87.6517 32.1082 87.4844 32.1803C87.3171 32.2525 87.1363 32.2896 86.9541 32.2896C86.7719 32.2896 86.5921 32.2525 86.4248 32.1803C86.2575 32.1082 86.1065 32.0026 85.9814 31.8701C85.7027 31.5168 85.5666 31.0719 85.5996 30.6231V27.7231H84.3682V30.6231C84.3102 31.3935 84.5307 32.1592 84.9893 32.7811C85.195 33.0185 85.4518 33.2065 85.7402 33.331C86.0287 33.4555 86.3414 33.5133 86.6553 33.5001C87.0087 33.5054 87.356 33.4082 87.6553 33.2201C87.942 33.0402 88.1791 32.7908 88.3438 32.4951L88.415 33.4161H89.5439L89.541 27.7231ZM93.4941 27.6921C93.155 27.668 92.8162 27.7396 92.5156 27.8987C92.2151 28.0578 91.9657 28.298 91.7949 28.5921L91.7119 27.7221H90.5879V33.4141H91.8193V30.9141C91.7932 30.6358 91.8242 30.355 91.9102 30.0891C91.9961 29.8231 92.1353 29.5774 92.3193 29.3671C92.6616 29.0487 93.1169 28.8793 93.584 28.8961C93.6508 28.8949 93.7168 28.8983 93.7832 28.9061L94.0312 27.7261C93.8732 27.7048 93.7142 27.6944 93.5547 27.6951L93.4941 27.6921ZM86.6641 45.2161C86.5271 45.2242 86.3907 45.2015 86.2637 45.1495C86.1366 45.0976 86.0228 45.0178 85.9307 44.9161C85.7416 44.6633 85.6499 44.351 85.6719 44.0361V41.7071H87.0068V40.6071H85.6719V38.7441H84.6475L84.4814 40.6071H83.6816V41.7071H84.4375V44.0571C84.4101 44.377 84.4464 44.6993 84.5449 45.0049C84.6435 45.3105 84.8026 45.5934 85.0117 45.8371C85.2062 46.0269 85.4369 46.1752 85.6904 46.273C85.944 46.3708 86.2147 46.4161 86.4863 46.4061C86.7942 46.409 87.1001 46.3526 87.3867 46.2401L87.0752 45.1401C86.9421 45.1867 86.8022 45.2114 86.6611 45.2131M78.124 33.4131V30.5131C78.1803 29.7446 77.961 28.9814 77.5039 28.3611C77.3005 28.123 77.0456 27.9341 76.7588 27.8085C76.472 27.683 76.1605 27.624 75.8477 27.6361C75.4895 27.6282 75.1373 27.7256 74.834 27.9161C74.5491 28.097 74.3134 28.3462 74.1494 28.6411L74.0771 27.7191H72.9492V33.4111H74.1875V30.5111C74.1538 30.062 74.2903 29.6168 74.5703 29.2641C74.6954 29.1318 74.8465 29.0263 75.0137 28.9542C75.1809 28.8822 75.3609 28.845 75.543 28.845C75.7251 28.845 75.905 28.8822 76.0723 28.9542C76.2395 29.0263 76.3906 29.1318 76.5156 29.2641C76.7956 29.6168 76.9322 30.062 76.8984 30.5111V33.4111L78.124 33.4131ZM96.0693 29.3511C96.2241 29.1896 96.4107 29.0618 96.6172 28.9758C96.8237 28.8897 97.0459 28.8473 97.2695 28.8511C97.7238 28.8511 98.1592 29.0315 98.4805 29.3528C98.8017 29.674 98.9824 30.1098 98.9824 30.5641C98.9824 31.0184 98.8017 31.4541 98.4805 31.7753C98.1592 32.0966 97.7238 32.2771 97.2695 32.2771C97.0453 32.2806 96.8228 32.2372 96.6162 32.1499C96.4096 32.0626 96.2232 31.9333 96.0693 31.7701C95.9082 31.615 95.7813 31.4284 95.6953 31.222C95.6093 31.0156 95.566 30.7937 95.5693 30.5701C95.5655 30.344 95.6084 30.1196 95.6943 29.9105C95.7803 29.7014 95.9076 29.5121 96.0693 29.3541M97.0518 33.4891C97.4638 33.4915 97.8685 33.3805 98.2217 33.1681C98.5602 32.9764 98.8374 32.6928 99.0215 32.3501L99.0938 33.4161H100.222V27.7241H99.0938L99.0215 28.8001C98.8388 28.4524 98.5617 28.1636 98.2217 27.9671C97.8696 27.7517 97.4645 27.6389 97.0518 27.6411C96.688 27.6374 96.3273 27.7123 95.9951 27.8605C95.6629 28.0088 95.3672 28.2269 95.127 28.5001C94.6091 29.0629 94.3213 29.7998 94.3213 30.5646C94.3213 31.3294 94.6091 32.0663 95.127 32.6291C95.3684 32.9021 95.6651 33.12 95.998 33.2682C96.331 33.4164 96.6922 33.4914 97.0566 33.4881M82.4648 30.1711C82.1321 30.0587 81.7926 29.9652 81.4492 29.8911C81.1564 29.8321 80.8698 29.7474 80.5918 29.6381C80.3568 29.5381 80.2393 29.4171 80.2393 29.2651C80.2413 29.1806 80.2677 29.0985 80.3154 29.0287C80.3632 28.9589 80.4307 28.9046 80.5088 28.8721C80.7314 28.7661 80.9764 28.7163 81.2227 28.7271C81.5149 28.7288 81.8044 28.7778 82.0811 28.8721C82.3443 28.9517 82.5812 29.1022 82.7646 29.3071L83.5098 28.5621C83.2197 28.2401 82.8605 27.988 82.459 27.8248C82.0575 27.6617 81.6238 27.5917 81.1914 27.6201C80.6279 27.5924 80.0712 27.7524 79.6084 28.0751C79.4449 28.1988 79.3086 28.3544 79.207 28.5325C79.1054 28.7107 79.0409 28.9075 79.0176 29.1113C78.9943 29.315 79.0125 29.5213 79.0713 29.7178C79.1301 29.9142 79.228 30.0967 79.3594 30.2541C79.5919 30.511 79.8886 30.7017 80.2188 30.8071C80.5502 30.916 80.8867 31.0078 81.2275 31.0821C81.5203 31.1412 81.806 31.2296 82.0811 31.3461C82.3157 31.4494 82.4336 31.5874 82.4336 31.7601C82.4353 31.8559 82.4097 31.9502 82.3594 32.0317C82.309 32.1133 82.2359 32.1787 82.1494 32.2201C81.9101 32.3379 81.6453 32.3929 81.3789 32.3801C81.0484 32.3792 80.72 32.32 80.4102 32.2051C80.1247 32.1095 79.8651 31.9501 79.6504 31.7391L78.8115 32.5461C79.1335 32.8849 79.533 33.1406 79.9756 33.2911C80.4245 33.4538 80.8985 33.5381 81.376 33.5401C81.9577 33.5615 82.5311 33.4002 83.0166 33.0791C83.2319 32.9284 83.4046 32.7255 83.5195 32.4893C83.6345 32.253 83.6881 31.9914 83.6738 31.7291C83.6863 31.3653 83.5596 31.0104 83.3203 30.7361C83.0891 30.4757 82.7937 30.2811 82.4629 30.1721M81.4688 43.5101C81.5024 43.959 81.3662 44.4041 81.0869 44.7571C80.9618 44.8895 80.8109 44.9949 80.6436 45.067C80.4762 45.139 80.2954 45.1762 80.1133 45.1762C79.9311 45.1762 79.7513 45.139 79.584 45.067C79.4167 44.9949 79.2658 44.8895 79.1406 44.7571C78.8615 44.4039 78.7251 43.959 78.7578 43.5101V40.6101H77.5264V43.5101C77.4683 44.2806 77.6888 45.0463 78.1475 45.6681C78.3533 45.9055 78.61 46.0933 78.8984 46.2178C79.1869 46.3423 79.4996 46.4002 79.8135 46.3871C80.1668 46.3929 80.5142 46.296 80.8135 46.1081C81.1003 45.9284 81.3375 45.6789 81.502 45.3831L81.5742 46.3041H82.7021V40.6121H81.4707L81.4688 43.5101ZM115.477 44.4831L114.006 40.6131H112.688L114.923 46.1591C114.606 47.0497 114.171 47.4948 113.622 47.4941C113.391 47.496 113.162 47.4501 112.949 47.3591L112.598 48.4591C112.939 48.5979 113.305 48.6683 113.674 48.6661C113.938 48.6734 114.201 48.6283 114.448 48.5332C114.695 48.4381 114.92 48.2949 115.111 48.1121C115.587 47.5935 115.944 46.9771 116.156 46.3061L118.237 40.6141H116.938L115.477 44.4831ZM111.337 45.2181C111.2 45.2262 111.062 45.2035 110.935 45.1516C110.807 45.0996 110.694 45.0199 110.602 44.9181C110.413 44.6652 110.321 44.3529 110.344 44.0381V41.7091H111.678V40.6091H110.344V38.7461H109.318L109.152 40.6091H108.353V41.7091H109.108V44.0591C109.081 44.379 109.117 44.7012 109.216 45.0068C109.314 45.3125 109.473 45.5954 109.683 45.8391C109.877 46.0288 110.108 46.1771 110.361 46.2749C110.615 46.3727 110.886 46.418 111.157 46.4081C111.465 46.411 111.771 46.3546 112.058 46.2421L111.747 45.1421C111.614 45.1886 111.475 45.2132 111.334 45.2151M109.998 32.2451C109.715 32.2396 109.438 32.1623 109.192 32.0204C108.947 31.8784 108.742 31.6765 108.597 31.4335C108.451 31.1906 108.369 30.9146 108.359 30.6314C108.35 30.3483 108.411 30.0673 108.54 29.8148C108.669 29.5623 108.86 29.3466 109.095 29.188C109.329 29.0294 109.601 28.933 109.883 28.908C110.165 28.8829 110.449 28.9299 110.708 29.0447C110.967 29.1595 111.192 29.3382 111.363 29.5641L112.389 28.8811C112.115 28.5039 111.757 28.1957 111.343 27.9811C110.929 27.7614 110.466 27.6474 109.997 27.6491C109.222 27.6491 108.478 27.9571 107.93 28.5055C107.381 29.0539 107.073 29.7976 107.073 30.5731C107.073 31.3486 107.381 32.0923 107.93 32.6406C108.478 33.189 109.222 33.4971 109.997 33.4971C110.478 33.4991 110.951 33.3797 111.373 33.1501C111.792 32.9265 112.148 32.6007 112.408 32.2031L111.394 31.5201C111.242 31.7506 111.033 31.9382 110.788 32.0651C110.543 32.1921 110.269 32.254 109.993 32.2451M114.133 30.1031C114.151 29.9241 114.204 29.7505 114.29 29.5924C114.376 29.4343 114.493 29.2949 114.633 29.1821C114.935 28.9247 115.323 28.7882 115.72 28.7991C116.124 28.7865 116.518 28.9207 116.831 29.1771C116.973 29.2896 117.091 29.4297 117.177 29.5889C117.263 29.748 117.315 29.923 117.331 30.1031H114.133ZM118.604 30.5691C118.61 30.1862 118.54 29.8058 118.396 29.4509C118.251 29.0961 118.037 28.774 117.766 28.5041C117.496 28.2331 117.176 28.0182 116.823 27.8717C116.47 27.7251 116.092 27.6499 115.71 27.6503C115.328 27.6508 114.95 27.727 114.598 27.8743C114.245 28.0217 113.925 28.2375 113.656 28.5091C113.383 28.7771 113.167 29.0978 113.021 29.4517C112.876 29.8056 112.803 30.1854 112.809 30.5681C112.802 30.9552 112.876 31.3395 113.025 31.6967C113.175 32.0538 113.397 32.3761 113.678 32.6431C113.962 32.9238 114.3 33.1441 114.672 33.2908C115.044 33.4376 115.441 33.5077 115.841 33.4971C116.32 33.4964 116.793 33.3906 117.228 33.1871C117.65 33.0002 118.02 32.7121 118.304 32.3481L117.32 31.7271C117.134 31.9326 116.906 32.0948 116.65 32.2021C116.395 32.3094 116.119 32.3592 115.842 32.3481C115.44 32.3565 115.046 32.2309 114.724 31.9911C114.421 31.7759 114.21 31.4546 114.134 31.0911H118.573C118.594 30.7601 118.604 30.5841 118.604 30.5631M72.3994 43.3341L73.3613 40.5341L74.3447 43.3341H72.3994ZM72.6582 38.7501L69.9775 46.3051H71.415L72.0264 44.5561H74.7061L75.3174 46.3051H76.7559L74.0752 38.7501H72.6582ZM106.759 38.6151C106.662 38.6143 106.565 38.6337 106.476 38.6721C106.386 38.7105 106.306 38.767 106.24 38.8381C106.171 38.9061 106.116 38.9874 106.079 39.077C106.042 39.1667 106.023 39.2629 106.023 39.3601C106.023 39.5549 106.101 39.7417 106.238 39.8795C106.376 40.0172 106.563 40.0946 106.758 40.0946C106.953 40.0946 107.14 40.0172 107.277 39.8795C107.415 39.7417 107.492 39.5549 107.492 39.3601C107.493 39.2629 107.475 39.1667 107.438 39.077C107.4 38.9874 107.345 38.9061 107.275 38.8381C107.209 38.767 107.129 38.7105 107.04 38.6721C106.951 38.6337 106.856 38.6143 106.759 38.6151ZM104.595 40.5811C104.256 40.5571 103.916 40.6288 103.615 40.7879C103.315 40.9469 103.065 41.1871 102.895 41.4811L102.812 40.6121H101.688V46.3041H102.919V43.8041C102.893 43.5258 102.923 43.2451 103.009 42.9791C103.095 42.7132 103.235 42.4675 103.419 42.2571C103.761 41.9389 104.215 41.7695 104.682 41.7861C104.748 41.785 104.815 41.7883 104.882 41.7961L105.13 40.6161C104.972 40.5944 104.812 40.584 104.652 40.5851L104.595 40.5811ZM106.137 46.3041H107.367V40.6121H106.137V46.3041ZM98.8105 44.6431C98.4969 44.9575 98.071 45.1345 97.627 45.135C97.1829 45.1356 96.7568 44.9597 96.4424 44.6461C96.128 44.3325 95.9508 43.9068 95.9502 43.4627C95.9496 43.0186 96.1258 42.5925 96.4395 42.2781C96.7531 41.9637 97.179 41.7867 97.623 41.7861C98.0671 41.7856 98.4932 41.9615 98.8076 42.2751C99.122 42.5887 99.2992 43.0144 99.2998 43.4584C99.3004 43.9025 99.1242 44.3287 98.8105 44.6431ZM97.6299 40.5431C96.9505 40.5398 96.2907 40.7723 95.7637 41.2011C95.2366 41.6299 94.8742 42.2283 94.7393 42.8942C94.6043 43.5601 94.705 44.2522 95.0234 44.8524C95.3419 45.4525 95.8592 45.9236 96.4863 46.1851C97.1134 46.4466 97.8114 46.4823 98.4619 46.2862C99.1124 46.0901 99.6746 45.6743 100.053 45.1098C100.431 44.5453 100.601 43.8671 100.535 43.1909C100.469 42.5147 100.17 41.8825 99.6895 41.4021C99.4227 41.1261 99.1023 40.9076 98.748 40.7598C98.3938 40.6121 98.0137 40.5384 97.6299 40.5431ZM106.446 33.4201V30.5201C106.503 29.7517 106.282 28.9884 105.825 28.3681C105.622 28.1299 105.368 27.941 105.081 27.8154C104.794 27.6898 104.483 27.6309 104.17 27.6431C103.812 27.6355 103.459 27.7329 103.155 27.9231C102.87 28.1037 102.636 28.353 102.473 28.6481L102.4 27.7261H101.272V33.4181H102.503V30.5181C102.47 30.0691 102.607 29.6242 102.886 29.2711C103.011 29.1387 103.162 29.0333 103.329 28.9612C103.496 28.8891 103.676 28.8519 103.858 28.8519C104.041 28.8519 104.221 28.8891 104.389 28.9612C104.556 29.0333 104.706 29.1387 104.831 29.2711C105.11 29.6242 105.248 30.0691 105.215 30.5181V33.4181L106.446 33.4201ZM77.6025 21.0881C77.5383 21.1494 77.4875 21.2233 77.4531 21.3052C77.4187 21.3871 77.4012 21.4752 77.4023 21.5641C77.4014 21.6545 77.4188 21.7442 77.4531 21.8279C77.4875 21.9115 77.5383 21.9874 77.6025 22.0511C77.6639 22.1172 77.7385 22.1698 77.8213 22.2054C77.9041 22.2411 77.9938 22.259 78.084 22.2581C78.1748 22.2584 78.2641 22.2402 78.3477 22.2046C78.4312 22.169 78.5066 22.1168 78.5693 22.0511C78.6331 21.9871 78.6834 21.9111 78.7178 21.8275C78.7521 21.744 78.7699 21.6544 78.7695 21.5641C78.768 21.3834 78.6951 21.2106 78.5674 21.0829C78.4396 20.9551 78.2676 20.8827 78.0869 20.8811C77.9959 20.8793 77.9051 20.8968 77.8213 20.9324C77.7375 20.9681 77.6624 21.0212 77.6006 21.0881M99.6621 9.42909C99.7258 9.36527 99.7772 9.28947 99.8115 9.20607C99.8458 9.12266 99.8627 9.03329 99.8623 8.9431C99.8605 8.76235 99.7881 8.58952 99.6602 8.4618C99.5322 8.33408 99.3595 8.26164 99.1787 8.26008C98.998 8.26139 98.8251 8.33375 98.6973 8.46156C98.5695 8.58936 98.4964 8.76236 98.4951 8.9431C98.4941 9.03339 98.5115 9.12293 98.5459 9.20643C98.5803 9.28993 98.631 9.36567 98.6953 9.42909C98.7567 9.49511 98.8312 9.54759 98.9141 9.58323C98.9969 9.61887 99.0866 9.63689 99.1768 9.63609C99.2676 9.63667 99.3578 9.61859 99.4414 9.58299C99.525 9.54738 99.5996 9.49501 99.6621 9.42909ZM94.4932 14.1031V17.9941C94.4685 18.5523 94.6595 19.0986 95.0264 19.5201C95.2033 19.7133 95.4204 19.8657 95.6621 19.9667C95.9039 20.0678 96.1649 20.115 96.4268 20.1051H103.557C103.712 19.8994 103.913 19.7326 104.144 19.6177C104.374 19.5028 104.629 19.4431 104.887 19.4431C105.145 19.4431 105.398 19.5028 105.629 19.6177C105.86 19.7326 106.061 19.8994 106.217 20.1051H113.388C113.65 20.1159 113.91 20.0691 114.152 19.9681C114.394 19.867 114.611 19.7141 114.787 19.5201C115.151 19.0971 115.34 18.5514 115.315 17.9941V12.0341H114.104V17.9951C114.104 18.6024 113.866 18.9057 113.39 18.9051H106.219C106.116 18.9111 106.014 18.8921 105.92 18.8498C105.826 18.8075 105.744 18.7431 105.681 18.6621C105.546 18.4667 105.48 18.232 105.493 17.9951V14.9341H104.294V17.9981C104.308 18.235 104.241 18.4697 104.106 18.6651C104.042 18.7469 103.958 18.8118 103.862 18.8541C103.767 18.8964 103.663 18.915 103.559 18.9081H96.4287C95.9454 18.9081 95.7031 18.6048 95.7031 17.9981V14.1071L94.4932 14.1031ZM101.493 9.42909C101.559 9.36644 101.612 9.29101 101.647 9.20744C101.683 9.12387 101.701 9.03393 101.7 8.9431C101.701 8.85294 101.683 8.76358 101.647 8.68077C101.612 8.59795 101.559 8.52348 101.493 8.46208C101.431 8.39864 101.357 8.34826 101.275 8.31391C101.194 8.27956 101.106 8.26196 101.018 8.2621C100.927 8.25993 100.837 8.27656 100.753 8.31098C100.669 8.34541 100.593 8.39687 100.53 8.46208C100.404 8.59151 100.334 8.76573 100.335 8.94682C100.336 9.12791 100.408 9.30123 100.536 9.42909C100.597 9.49521 100.672 9.54777 100.755 9.58342C100.838 9.61906 100.927 9.63701 101.018 9.63609C101.107 9.63584 101.195 9.61733 101.277 9.58174C101.359 9.54614 101.432 9.4942 101.493 9.42909ZM73.8652 1.79209C73.9547 1.79285 74.0433 1.7755 74.126 1.74113C74.2086 1.70676 74.2841 1.65608 74.3467 1.59208C74.4102 1.52852 74.4608 1.45309 74.4951 1.37007C74.5295 1.28705 74.5469 1.19807 74.5469 1.10823C74.5468 1.01839 74.5286 0.929431 74.4941 0.846446C74.4597 0.763462 74.4093 0.688078 74.3457 0.624584C74.2821 0.561089 74.207 0.510728 74.124 0.47639C74.041 0.442053 73.9521 0.424403 73.8623 0.424449C73.7725 0.424496 73.6836 0.442241 73.6006 0.476665C73.5176 0.511088 73.4424 0.561512 73.3789 0.625072C73.2829 0.7205 73.2169 0.842399 73.1904 0.97517C73.164 1.10794 73.1783 1.24557 73.2305 1.37049C73.2826 1.49542 73.3704 1.60197 73.4834 1.67652C73.5964 1.75108 73.7289 1.79026 73.8643 1.78907M104.465 14.2031C104.531 14.1428 104.583 14.0693 104.619 13.9872C104.655 13.9052 104.673 13.8165 104.672 13.7271C104.673 13.637 104.654 13.5477 104.618 13.4649C104.583 13.3821 104.531 13.3075 104.465 13.2461C104.401 13.1821 104.325 13.1314 104.241 13.0971C104.158 13.0627 104.069 13.0454 103.979 13.0461C103.89 13.0449 103.801 13.0621 103.719 13.0965C103.637 13.1309 103.564 13.1818 103.502 13.2461C103.436 13.3086 103.383 13.384 103.348 13.4676C103.312 13.5512 103.294 13.6412 103.295 13.7321C103.293 13.8225 103.309 13.9125 103.344 13.9962C103.378 14.0798 103.429 14.1554 103.494 14.2181C103.558 14.2815 103.634 14.3316 103.718 14.3655C103.801 14.3994 103.89 14.4164 103.98 14.4154C104.071 14.4145 104.159 14.3957 104.242 14.3601C104.325 14.3245 104.4 14.2728 104.463 14.2081M118.122 12.0351H116.911V20.1071H118.122V12.0351ZM71.8008 3.92009C71.9259 3.7884 72.0767 3.68408 72.2441 3.61369C72.4116 3.5433 72.5918 3.50836 72.7734 3.51109H74.0459V4.89808C74.0615 5.26606 73.9311 5.62534 73.6836 5.89808C73.5678 6.02281 73.4264 6.12148 73.2695 6.18751C73.1126 6.25354 72.9436 6.28543 72.7734 6.28108C72.5918 6.28381 72.4116 6.24887 72.2441 6.17848C72.0767 6.10808 71.9259 6.00376 71.8008 5.87208C71.5419 5.61245 71.3965 5.26075 71.3965 4.89408C71.3965 4.52742 71.5419 4.17572 71.8008 3.91609M113.082 4.76408C113.164 4.6789 113.263 4.61091 113.371 4.5641C113.48 4.51729 113.597 4.49258 113.715 4.49144C113.833 4.49029 113.95 4.51274 114.06 4.55745C114.169 4.60215 114.268 4.66821 114.352 4.75178C114.435 4.83536 114.501 4.93475 114.546 5.04417C114.591 5.15358 114.613 5.27083 114.612 5.38902C114.611 5.50721 114.586 5.62397 114.539 5.73249C114.492 5.84102 114.425 5.93913 114.34 6.02107C114.172 6.18246 113.948 6.27161 113.715 6.26936C113.482 6.2671 113.259 6.17362 113.095 6.00901C112.93 5.8444 112.836 5.6218 112.834 5.38902C112.832 5.15623 112.921 4.93185 113.082 4.76408ZM114.982 3.46409C115.181 3.33057 115.416 3.26079 115.655 3.26408C115.827 3.25901 115.998 3.29227 116.155 3.36146C116.313 3.43065 116.453 3.53402 116.565 3.66407C116.81 3.95779 116.936 4.3324 116.918 4.71409V6.28709H115.128C115.254 6.17609 115.354 6.03902 115.422 5.88536C115.49 5.7317 115.524 5.5651 115.521 5.39708C115.518 5.08925 115.422 4.78971 115.244 4.53822C115.067 4.28673 114.816 4.0952 114.527 3.98909C114.63 3.77691 114.787 3.59621 114.983 3.46608M72.7695 7.48707C73.118 7.50273 73.4643 7.43031 73.7773 7.2765C74.0904 7.12269 74.36 6.89245 74.5605 6.60707C74.6738 6.88439 74.8715 7.11882 75.126 7.27687C75.3805 7.43491 75.6787 7.50847 75.9775 7.48707H86.0684C86.3273 7.4984 86.5846 7.44357 86.8164 7.32774C87.0482 7.21191 87.2471 7.03892 87.3936 6.82508C87.5374 7.04122 87.7355 7.21602 87.9678 7.33213C88.2 7.44825 88.4585 7.50165 88.7178 7.48707H98.751C98.9063 7.28141 99.1062 7.11461 99.3369 6.99974C99.5676 6.88486 99.8224 6.82505 100.08 6.82505C100.338 6.82505 100.592 6.88486 100.822 6.99974C101.053 7.11461 101.254 7.28141 101.409 7.48707H118.118V4.71308C118.141 4.01405 117.893 3.33327 117.426 2.81309C117.203 2.56671 116.929 2.37155 116.623 2.24104C116.317 2.11053 115.987 2.04777 115.655 2.05708C115.157 2.05099 114.669 2.2033 114.263 2.49208C113.86 2.7719 113.548 3.16425 113.367 3.62007C112.952 3.68574 112.577 3.90575 112.316 4.23609C112.043 4.56227 111.894 4.97528 111.897 5.40107C111.893 5.56829 111.925 5.73445 111.991 5.8881C112.057 6.04175 112.156 6.17924 112.28 6.29109H101.408C101.304 6.29762 101.2 6.27895 101.104 6.23664C101.009 6.19434 100.925 6.12965 100.86 6.04808C100.726 5.85222 100.661 5.6173 100.674 5.38008V2.31709L99.4736 2.32707V5.38008C99.4869 5.6173 99.4206 5.85222 99.2861 6.04808C99.2227 6.12899 99.1406 6.19335 99.0469 6.23567C98.9532 6.27798 98.8507 6.297 98.748 6.29109H88.7158C88.2328 6.29109 87.9912 5.99108 87.9912 5.38008V2.31709H86.7803V5.38008C86.7803 5.98741 86.5421 6.29109 86.0654 6.29109H75.9873C75.504 6.29109 75.2627 5.98741 75.2627 5.38008V2.31709H72.7871C72.448 2.3119 72.112 2.3763 71.7988 2.50633C71.4856 2.63636 71.2025 2.82924 70.9668 3.07307C70.7199 3.31139 70.5245 3.59781 70.3926 3.91462C70.2607 4.23144 70.1944 4.57193 70.1992 4.91508C70.1996 5.25431 70.2671 5.59014 70.3975 5.90333C70.5278 6.21653 70.7186 6.50094 70.959 6.74031C71.1994 6.97967 71.4851 7.16929 71.7988 7.29829C72.1126 7.42729 72.4479 7.49313 72.7871 7.49208M72.0312 1.80009C72.1225 1.80147 72.2133 1.78446 72.2979 1.7501C72.3824 1.71574 72.459 1.66472 72.5234 1.60008C72.5871 1.5367 72.6374 1.46137 72.6719 1.3784C72.7064 1.29542 72.7246 1.20645 72.7246 1.11659C72.7246 1.02673 72.7064 0.937753 72.6719 0.854778C72.6374 0.771803 72.5871 0.696443 72.5234 0.633067C72.4594 0.567958 72.3825 0.516643 72.2979 0.48225C72.2132 0.447856 72.1226 0.431129 72.0312 0.433086C71.8961 0.433821 71.7644 0.474493 71.6523 0.549999C71.5403 0.625504 71.4528 0.732477 71.4014 0.857433C71.35 0.982388 71.3368 1.11974 71.3633 1.25224C71.3897 1.38474 71.4553 1.50648 71.5508 1.60209C71.6134 1.66599 71.6879 1.71663 71.7705 1.75099C71.8531 1.78535 71.9418 1.80271 72.0312 1.80207M88.3311 1.30207H87.5312C87.4781 1.30269 87.426 1.29245 87.377 1.27198C87.3279 1.25152 87.283 1.22128 87.2461 1.18309C87.2071 1.14467 87.1767 1.09866 87.1562 1.04792C87.1358 0.997182 87.1265 0.942768 87.1279 0.888072C87.1271 0.836275 87.1367 0.784844 87.1562 0.736888C87.1758 0.688933 87.2043 0.645458 87.2412 0.609081C87.2793 0.57136 87.3251 0.541798 87.375 0.522197C87.4249 0.502596 87.4777 0.493353 87.5312 0.495067C87.5994 0.492067 87.6678 0.504458 87.7305 0.531291C87.7931 0.558124 87.8487 0.598709 87.8936 0.650066L88.2246 0.329082C88.1362 0.226498 88.0259 0.144589 87.9023 0.0891222C87.7788 0.0336555 87.6452 0.00596993 87.5098 0.00806747C87.284 0.00256578 87.0648 0.0862866 86.9004 0.241069C86.8195 0.315107 86.7558 0.405656 86.7129 0.506572C86.6699 0.607489 86.6486 0.716448 86.6514 0.826091C86.6497 1.00097 86.7121 1.17036 86.8271 1.30207H86.4033V1.80207H88.3281L88.3311 1.30207ZM70.498 33.4281H71.8125V25.8731H70.498V33.4281ZM79.4482 21.0901C79.3844 21.1528 79.3342 21.2277 79.2998 21.3103C79.2654 21.3929 79.2475 21.4816 79.248 21.5711C79.2471 21.6615 79.2645 21.7512 79.2988 21.8349C79.3332 21.9185 79.384 21.9944 79.4482 22.0581C79.5097 22.1234 79.5837 22.1754 79.666 22.2109C79.7483 22.2465 79.8371 22.2649 79.9268 22.2649C80.0164 22.2649 80.1052 22.2465 80.1875 22.2109C80.2698 22.1754 80.3438 22.1234 80.4053 22.0581C80.4712 21.9953 80.5238 21.9197 80.5596 21.836C80.5953 21.7523 80.6135 21.6621 80.6133 21.5711C80.6138 21.4809 80.5954 21.3916 80.5596 21.3088C80.5238 21.226 80.4713 21.1515 80.4053 21.0901C80.3434 21.0265 80.2693 20.9761 80.1875 20.9418C80.1057 20.9074 80.0184 20.8898 79.9297 20.8901C79.8392 20.8879 79.7487 20.9045 79.665 20.9389C79.5814 20.9734 79.5061 21.0248 79.4434 21.0901M73.8438 14.2131C73.9092 14.148 73.9606 14.0707 73.9961 13.9855C74.0315 13.9002 74.0498 13.8089 74.0498 13.7166C74.0498 13.6243 74.0315 13.5329 73.9961 13.4477C73.9606 13.3625 73.9092 13.2851 73.8438 13.2201C73.7783 13.1541 73.7001 13.1018 73.6143 13.0663C73.5284 13.0308 73.4367 13.0127 73.3438 13.0131C73.1586 13.0146 72.9815 13.0889 72.8506 13.2198C72.7197 13.3508 72.6451 13.5279 72.6436 13.7131C72.6414 13.8072 72.6589 13.9007 72.6943 13.9879C72.7298 14.0751 72.7825 14.1541 72.8496 14.2201C72.9143 14.2871 72.9921 14.34 73.0781 14.3756C73.1641 14.4112 73.2565 14.4287 73.3496 14.4271C73.4446 14.4271 73.5386 14.4078 73.626 14.3703C73.7133 14.3329 73.792 14.278 73.8574 14.2091M89.7051 16.5431C89.8318 16.4136 89.9834 16.3108 90.1504 16.2406C90.3174 16.1704 90.4966 16.1342 90.6777 16.1342C90.8589 16.1342 91.0381 16.1704 91.2051 16.2406C91.3721 16.3108 91.5237 16.4136 91.6504 16.5431C91.9088 16.803 92.0537 17.1546 92.0537 17.5211C92.0537 17.8876 91.9088 18.2392 91.6504 18.4991C91.4573 18.6909 91.2114 18.8212 90.9443 18.8735C90.6773 18.9259 90.4007 18.898 90.1494 18.7934C89.8982 18.6888 89.6842 18.5122 89.5332 18.2857C89.3822 18.0593 89.3017 17.7932 89.3018 17.5211C89.2987 17.3395 89.3326 17.1591 89.4014 16.991C89.4701 16.8229 89.5717 16.6705 89.7012 16.5431M81.1016 20.1081H90.6777C91.1887 20.1073 91.6879 19.955 92.1123 19.6704C92.5367 19.3858 92.8668 18.9818 93.0615 18.5094C93.2562 18.037 93.3067 17.5174 93.2061 17.0165C93.1055 16.5155 92.8581 16.0557 92.4961 15.6951C92.1341 15.3345 91.6732 15.0894 91.1719 14.9907C90.6705 14.892 90.1513 14.9443 89.6797 15.1408C89.208 15.3374 88.8054 15.6694 88.5225 16.0948C88.2395 16.5203 88.0896 17.0201 88.0908 17.5311C88.0823 17.799 88.1396 18.0648 88.2588 18.3049C88.378 18.545 88.5549 18.7519 88.7734 18.9071H80.3457C80.2415 18.9139 80.1374 18.8953 80.042 18.853C79.9466 18.8107 79.8628 18.7458 79.7979 18.6641C79.6631 18.4687 79.5968 18.234 79.6104 17.9971V14.9341L78.4102 14.9441V17.9971C78.4233 18.234 78.358 18.4685 78.2236 18.6641C78.1603 18.745 78.0781 18.8095 77.9844 18.8518C77.8907 18.8941 77.7882 18.9131 77.6855 18.9071H76.8857C76.4091 18.9071 76.1712 18.6037 76.1719 17.9971V14.9341H74.96V19.4571C74.9822 19.9399 74.8165 20.4127 74.499 20.7771C74.3514 20.9354 74.1731 21.0616 73.9746 21.148C73.7761 21.2343 73.5622 21.2788 73.3457 21.2788C73.1292 21.2788 72.9153 21.2343 72.7168 21.148C72.5183 21.0616 72.3391 20.9354 72.1914 20.7771C71.8732 20.413 71.7081 19.9401 71.7305 19.4571V15.9691H70.5195V19.4571C70.5053 19.8546 70.5705 20.251 70.7109 20.6232C70.8514 20.9954 71.0646 21.336 71.3379 21.6251C71.8439 22.1509 72.5362 22.457 73.2656 22.4774C73.9951 22.4978 74.7028 22.2309 75.2373 21.7341C75.773 21.2262 76.0983 20.5355 76.1484 19.7991C76.2388 19.9036 76.3522 19.986 76.4795 20.0397C76.6068 20.0935 76.7449 20.1172 76.8828 20.1091H77.6826C77.8379 19.9034 78.0388 19.7366 78.2695 19.6217C78.5002 19.5068 78.754 19.4471 79.0117 19.4471C79.2694 19.4471 79.5242 19.5068 79.7549 19.6217C79.9856 19.7366 80.1865 19.9034 80.3418 20.1091H81.0977L81.1016 20.1081ZM106.315 14.2191C106.379 14.1551 106.43 14.0793 106.464 13.9959C106.498 13.9125 106.515 13.8231 106.515 13.733C106.514 13.6428 106.497 13.5536 106.462 13.4704C106.427 13.3872 106.376 13.3116 106.312 13.2481C106.249 13.1845 106.172 13.1342 106.089 13.0999C106.005 13.0657 105.916 13.0482 105.826 13.0485C105.736 13.0488 105.647 13.0668 105.563 13.1015C105.48 13.1363 105.405 13.1871 105.342 13.2511C105.213 13.3802 105.141 13.5551 105.142 13.7372C105.142 13.9193 105.216 14.0937 105.345 14.2221C105.474 14.3505 105.649 14.4222 105.831 14.4217C106.013 14.4211 106.187 14.3482 106.315 14.2191ZM29.6152 0.69807L13.1436 46.3101H21.5352L35.4355 6.53907L49.3359 46.3101H57.7275L41.2559 0.69807H29.6152ZM0.0078125 46.3101H8.07812V0.695079H0.0078125V46.3101Z" fill="white"/>
<path d="M27.3789 29.5693L21.5303 46.3063C23.214 44.3083 25.0118 42.4094 26.915 40.6193C33.7461 34.3127 41.4873 29.0703 49.8789 25.0682C54.1705 22.9878 58.5839 21.1669 63.0938 19.6152C50.7104 20.8821 38.6323 24.2482 27.3789 29.5693Z" fill="#69EE00"/>
</g>
<defs>
<clipPath id="clip0_237_7794">
<rect width="118.616" height="48.667" fill="white"/>
</clipPath>
</defs>
</svg>
