<svg width="16" height="16" viewBox="0 0 16 16" fill="none" xmlns="http://www.w3.org/2000/svg">
<path d="M14.6663 2.16602H1.33301C1.05967 2.16602 0.833008 1.93935 0.833008 1.66602C0.833008 1.39268 1.05967 1.16602 1.33301 1.16602H14.6663C14.9397 1.16602 15.1663 1.39268 15.1663 1.66602C15.1663 1.93935 14.9397 2.16602 14.6663 2.16602Z" fill="#7D94A6"/>
<path d="M2.44629 1.66602V9.64602C2.44629 10.2993 2.75296 10.9193 3.27962 11.3127L6.75296 13.9127C7.49296 14.466 8.51296 14.466 9.25296 13.9127L12.7263 11.3127C13.253 10.9193 13.5596 10.2993 13.5596 9.64602V1.66602H2.44629ZM10.6663 9.16602H5.33296C5.05962 9.16602 4.83296 8.93935 4.83296 8.66602C4.83296 8.39268 5.05962 8.16602 5.33296 8.16602H10.6663C10.9396 8.16602 11.1663 8.39268 11.1663 8.66602C11.1663 8.93935 10.9396 9.16602 10.6663 9.16602ZM10.6663 5.83268H5.33296C5.05962 5.83268 4.83296 5.60602 4.83296 5.33268C4.83296 5.05935 5.05962 4.83268 5.33296 4.83268H10.6663C10.9396 4.83268 11.1663 5.05935 11.1663 5.33268C11.1663 5.60602 10.9396 5.83268 10.6663 5.83268Z" fill="#7D94A6"/>
</svg>
