<svg width="18" height="18" viewBox="0 0 18 18" fill="none" xmlns="http://www.w3.org/2000/svg">
<path d="M9.00012 11.25C5.24262 11.25 2.18262 13.77 2.18262 16.875C2.18262 17.085 2.34762 17.25 2.55762 17.25H15.4426C15.6526 17.25 15.8176 17.085 15.8176 16.875C15.8176 13.77 12.7576 11.25 9.00012 11.25Z" fill="white"/>
<path d="M11.7825 2.745C11.1075 1.98 10.1025 1.5 9 1.5C7.95 1.5 6.99 1.9275 6.3075 2.6325C5.655 3.3075 5.25 4.2375 5.25 5.25C5.25 5.955 5.445 6.615 5.7975 7.1775C5.985 7.5 6.225 7.7925 6.51 8.0325C7.1625 8.6325 8.0325 9 9 9C10.3725 9 11.5575 8.265 12.21 7.1775C12.405 6.855 12.555 6.495 12.6375 6.12C12.7125 5.8425 12.75 5.55 12.75 5.25C12.75 4.29 12.3825 3.4125 11.7825 2.745ZM10.4025 5.94H9.705V6.6675C9.705 7.0575 9.39 7.3725 9 7.3725C8.61 7.3725 8.295 7.0575 8.295 6.6675V5.94H7.5975C7.2075 5.94 6.8925 5.625 6.8925 5.235C6.8925 4.845 7.2075 4.53 7.5975 4.53H8.295V3.8625C8.295 3.4725 8.61 3.1575 9 3.1575C9.39 3.1575 9.705 3.4725 9.705 3.8625V4.53H10.4025C10.7925 4.53 11.1075 4.845 11.1075 5.235C11.1075 5.625 10.7925 5.94 10.4025 5.94Z" fill="white"/>
</svg>
