<svg width="16" height="16" viewBox="0 0 16 16" fill="none" xmlns="http://www.w3.org/2000/svg">
<path d="M9.56618 1.33398H6.43285C5.73952 1.33398 5.17285 1.89398 5.17285 2.58732V3.21398C5.17285 3.90732 5.73285 4.46732 6.42619 4.46732H9.56618C10.2595 4.46732 10.8195 3.90732 10.8195 3.21398V2.58732C10.8262 1.89398 10.2595 1.33398 9.56618 1.33398Z" fill="#F97300"/>
<path d="M11.4934 3.2143C11.4934 4.2743 10.6267 5.14096 9.56669 5.14096H6.43336C5.37336 5.14096 4.50669 4.2743 4.50669 3.2143C4.50669 2.84096 4.10669 2.60763 3.77336 2.78096C2.83336 3.28096 2.19336 4.2743 2.19336 5.4143V11.6876C2.19336 13.3276 3.53336 14.6676 5.17336 14.6676H10.8267C12.4667 14.6676 13.8067 13.3276 13.8067 11.6876V5.4143C13.8067 4.2743 13.1667 3.28096 12.2267 2.78096C11.8934 2.60763 11.4934 2.84096 11.4934 3.2143ZM10.2267 8.48763L7.56003 11.1543C7.46003 11.2543 7.33336 11.301 7.20669 11.301C7.08003 11.301 6.95336 11.2543 6.85336 11.1543L5.85336 10.1543C5.66003 9.96096 5.66003 9.64096 5.85336 9.44763C6.04669 9.2543 6.36669 9.2543 6.56003 9.44763L7.20669 10.0943L9.52003 7.78096C9.71336 7.58763 10.0334 7.58763 10.2267 7.78096C10.42 7.9743 10.42 8.2943 10.2267 8.48763Z" fill="#F97300"/>
</svg>
