<svg width="13" height="13" viewBox="0 0 13 13" fill="none" xmlns="http://www.w3.org/2000/svg">
<path d="M4.38273 6.3002H1.84232C1.88565 3.77062 2.38398 3.35353 3.93857 2.4327C4.11732 2.32436 4.1769 2.09687 4.06857 1.9127C3.96565 1.73395 3.73273 1.67437 3.55398 1.7827C1.72315 2.86603 1.08398 3.52686 1.08398 6.67395V9.59353C1.08398 10.5198 1.8369 11.2673 2.75773 11.2673H4.38273C5.33607 11.2673 6.05648 10.5469 6.05648 9.59353V7.96853C6.05648 7.02061 5.33607 6.3002 4.38273 6.3002Z" fill="#928D8D"/>
<path d="M10.2417 6.3002H7.70125C7.74458 3.77062 8.24292 3.35353 9.7975 2.4327C9.97625 2.32437 10.0358 2.09687 9.9275 1.9127C9.81917 1.73395 9.59167 1.67437 9.4075 1.7827C7.57667 2.86603 6.9375 3.52687 6.9375 6.67937V9.59895C6.9375 10.5252 7.69042 11.2727 8.61125 11.2727H10.2362C11.1896 11.2727 11.91 10.5523 11.91 9.59895V7.97395C11.9154 7.02062 11.195 6.3002 10.2417 6.3002Z" fill="#D3D2D2"/>
</svg>
