<?xml version="1.0" encoding="UTF-8"?>
<svg id="Layer_1" data-name="Layer 1" xmlns="http://www.w3.org/2000/svg" version="1.1" viewBox="0 0 1920 1080">
  <defs>
    <style>
      .cls-1 {
        fill: #e2dfd0;
      }

      .cls-1, .cls-2, .cls-3, .cls-4 {
        stroke-width: 0px;
      }

      .cls-2 {
        fill: #32012f;
      }

      .cls-5, .cls-4 {
        display: none;
      }

      .cls-3 {
        fill: #2b2829;
      }

      .cls-4 {
        fill: #161516;
      }
    </style>
  </defs>
  <g>
    <rect class="cls-4" width="1920" height="1080"/>
    <g>
      <g>
        <path class="cls-1" d="M551.1,599.8c-.9-.9-1.9-1.3-3.2-1.3s-2.4.5-3.3,1.3c-.9.9-1.4,1.9-1.4,3.2s.5,2.3,1.4,3.2,2,1.3,3.3,1.3,2.3-.5,3.2-1.3c.9-.9,1.3-1.9,1.3-3.2s-.5-2.3-1.3-3.2ZM538.6,599.8c-.8-.9-1.9-1.3-3.1-1.3s-2.4.5-3.3,1.3c-.9.9-1.4,1.9-1.4,3.2s.5,2.3,1.4,3.2,1.9,1.3,3.3,1.3,2.3-.5,3.1-1.3c.9-.9,1.4-1.9,1.4-3.2s-.5-2.3-1.4-3.2Z"/>
        <path class="cls-1" d="M584.7,660.9c-.9-.9-1.9-1.3-3.2-1.3s-2.4.5-3.3,1.3c-.9.9-1.4,1.9-1.4,3.2s.5,2.4,1.4,3.2c.9.9,2,1.4,3.3,1.4s2.3-.5,3.2-1.4c.8-.8,1.3-1.9,1.3-3.2s-.5-2.3-1.3-3.2ZM572.3,660.9c-.9-.9-1.9-1.3-3.2-1.3s-2.3.5-3.2,1.3c-.9.9-1.4,1.9-1.4,3.2s.5,2.4,1.4,3.2c.9.9,1.9,1.4,3.2,1.4s2.3-.5,3.2-1.4c.9-.8,1.4-1.9,1.4-3.2s-.5-2.3-1.4-3.2Z"/>
        <path class="cls-1" d="M604.2,602.1c-.9-.9-1.9-1.3-3.2-1.3s-2.3.5-3.2,1.3c-.9.9-1.3,2-1.3,3.3s.5,2.3,1.3,3.2c.9.9,2,1.3,3.2,1.3s2.3-.5,3.2-1.3c.9-.9,1.3-1.9,1.3-3.2s-.5-2.4-1.3-3.3Z"/>
        <path class="cls-1" d="M597.2,618.5v23c0,2.2-.9,3.3-2.8,3.4h-12.4c1.1-3.2,1.6-6.4,1.6-9.5v-16.9h-7.4v17.2c0,6-2.5,9.2-7.2,9.2h-10v-26.6c-4-2.7-8.6-4.1-13.7-4.1s-8,1.3-11.4,3.8c-4.8,3.8-7.1,9-7.1,15.3s2.7,11.4,7.9,15.1c2.8,2.1,7.6,3.3,14.4,3.3h47.7c5.4,0,8.2-3.8,8.3-11.5v-21.8h-7.9ZM551.3,644.9h-3.2c-9.1,0-13.6-4-13.6-12.1s1.3-7,3.8-9.6c1.7-1.8,3.9-2.7,6.6-2.7s4.3.5,6.4,1.6v22.9Z"/>
        <path class="cls-1" d="M627.8,668.5h-4.9v-7h4.4c6,0,9.1-3.3,9.4-9.9h-2.9c-6.7,0-11.5-1.2-14.4-3.3-5.2-3.8-7.9-8.8-8-15.1,0-6.4,2.4-11.5,7.2-15.3,3.3-2.6,7.1-3.8,11.3-3.8s9.7,1.4,13.7,4.1v34.1c-.2,10.7-5.6,16.1-16,16.1h0ZM636.1,644.9v-22.9c-2.1-1-4.2-1.6-6.4-1.6s-4.8.9-6.5,2.7c-2.5,2.7-3.8,6-3.8,9.7,0,8,4.5,12,13.5,12h3.2Z"/>
        <path class="cls-1" d="M692.2,603.9c-.8-.8-1.9-1.3-3.1-1.3s-2.4.5-3.3,1.3c-.9.9-1.4,2-1.4,3.3s.5,2.3,1.4,3.2c.9.8,1.9,1.3,3.3,1.3s2.3-.5,3.1-1.3c.9-.9,1.4-1.9,1.4-3.2s-.5-2.5-1.4-3.3ZM680.5,603.9c-.9-.8-1.9-1.3-3.2-1.3s-2.3.5-3.2,1.3c-.9.9-1.4,2-1.4,3.3s.5,2.3,1.4,3.2c.9.8,1.9,1.3,3.2,1.3s2.3-.5,3.2-1.3c.9-.9,1.3-1.9,1.3-3.2s-.5-2.5-1.3-3.3Z"/>
        <path class="cls-1" d="M730.8,651.7h1.2-1.2Z"/>
        <path class="cls-1" d="M744.4,599.5v36c0,4.3-.9,8-2.8,10.9-2.1,3.2-5.3,5-9.6,5.2h-65.2v1.7c0,10.1-5.5,15.1-16.4,15.1h-4v-7h3.2c6.4,0,9.6-3,9.6-9.2v-34h7.7v26.4h8.6c4.9,0,7.3-3,7.3-9.2v-17.2h7.3v16.9c0,3.2-.5,6.3-1.6,9.5h30.1c-1.5-11.4-8.3-18.3-20.8-20.8v-7.9l27.7-15.9,1.7,7.1-21.4,12.2c11.7,3.8,18.6,12.3,20.8,25.3h4.3c4,0,6-2.9,6-8.6v-36.8h7.7-.2Z"/>
        <path class="cls-1" d="M769,651.7h-18v-6.9h16.6c5.8,0,8.6-3.2,8.6-9.7v-35.7h7.7v35.7c0,10.5-4.9,16-14.9,16.6h0ZM759.9,640.4l-3.7-40.9h7.3l4,40.8h-7.7ZM759.6,669.2l-.5-2.8,2.5-1.2c-1.9-1.1-2.9-2.6-2.9-4.5s1-3.7,2.9-4.8c.6-.4,1.6-.5,2.7-.5s2.4.2,3.2.6l-.5,2.6c-.5,0-1-.2-1.6-.2-2,0-3,.9-3,2.7s2.1,3,6.3,3l-.2,2.7c-3.5.5-6.5,1.3-9,2.3h0Z"/>
        <path class="cls-1" d="M798.3,651.7h-7.7v-52.2h7.7v52.2Z"/>
        <path class="cls-1" d="M839.8,602.1c-.9-.9-1.9-1.3-3.2-1.3s-2.3.5-3.2,1.3c-.9.9-1.4,2-1.4,3.3s.5,2.3,1.4,3.2,2,1.3,3.2,1.3,2.3-.5,3.2-1.3c.9-.9,1.3-1.9,1.3-3.2s-.5-2.4-1.3-3.3Z"/>
        <path class="cls-1" d="M884.3,660.9c-.9-.9-1.9-1.3-3.2-1.3s-2.3.5-3.3,1.3c-.9.9-1.4,1.9-1.4,3.2s.5,2.4,1.4,3.2c.9.9,2,1.4,3.3,1.4s2.3-.5,3.2-1.4c.9-.8,1.3-1.9,1.3-3.2s-.5-2.3-1.3-3.2ZM872,660.9c-.9-.9-1.9-1.3-3.3-1.3s-2.3.5-3.2,1.3-1.4,1.9-1.4,3.2.5,2.4,1.4,3.2c.9.9,1.9,1.4,3.2,1.4s2.4-.5,3.3-1.4,1.3-1.9,1.3-3.2-.5-2.3-1.3-3.2Z"/>
        <path class="cls-1" d="M925,621c-3-3.5-7.1-5.2-12.2-5.2s-9.2,1.6-11.9,5c-2.7,3.3-4.1,8-4.1,13.9v1.5c0,5.8-2,8.6-6,8.7h-9c1-3.2,1.6-6.4,1.6-9.5v-16.9h-7.4v17.2c0,6-2.4,9.2-7.2,9.2h-10.1v-26.4h-7.6v35c0,5.3-3,8-9.2,8.1h-3.4c-8.9,0-13.4-4.4-13.4-12.8s1.7-9.8,5.2-13.7l-5.9-4.2c-4.5,4.4-6.8,10.4-6.9,18.3,0,6,2.3,10.9,6.7,14.8,3.5,3.1,8.2,4.7,14.2,4.7h3.8c10.7,0,16.1-5.6,16.4-16.9h32.9c3.2,0,5.7-1.7,7.4-5,3.8,5.6,9.1,8.3,15.6,8.3s9.9-2.7,12.6-7.7c1.6-3.1,2.5-7,2.5-11.7s-1.5-11.2-4.5-14.7h-.2ZM913.3,648.5c-6.3,0-9.5-4.4-9.5-13.2s3-12.9,9-13c6.4,0,9.5,4.7,9.5,14.1s-3,12.1-9,12.1Z"/>
        <path class="cls-1" d="M939.3,585.9c0-1.8,1-2.7,3-2.7s1.1,0,1.6.2l.5-2.6c-.9-.5-1.9-.6-3.2-.6s-1.9.2-2.7.5c-1.9,1.1-2.9,2.7-2.9,4.9s.9,3.3,2.9,4.5l-2.5,1.1.5,2.8c2.5-1.1,5.4-1.8,9-2.3l.2-2.7c-4.2,0-6.3-1-6.3-3h0Z"/>
        <path class="cls-1" d="M971,603.9c-.9-.8-1.9-1.3-3.2-1.3s-2.4.5-3.3,1.3c-.9.9-1.4,2-1.4,3.3s.5,2.3,1.4,3.2c.9.8,1.9,1.3,3.3,1.3s2.3-.5,3.2-1.3c.8-.9,1.3-1.9,1.3-3.2s-.5-2.5-1.3-3.3ZM959.2,603.9c-.8-.8-1.9-1.3-3.2-1.3s-2.3.5-3.2,1.3c-.9.9-1.4,2-1.4,3.3s.5,2.3,1.4,3.2c.9.8,1.9,1.3,3.2,1.3s2.4-.5,3.2-1.3c.9-.9,1.4-1.9,1.4-3.2s-.5-2.5-1.4-3.3ZM974.4,651.7h1.1-1.1Z"/>
        <path class="cls-1" d="M988.1,599.5v36c0,4.3-.9,8-2.8,10.9-2.1,3.2-5.4,5-9.6,5.2h-30.8c-5.6,0-8.4-3.8-8.4-11.5l-.3-40.8h8.2v42c0,2.2.9,3.3,2.7,3.4h7.2c4.9,0,7.2-3,7.2-9.2v-17.2h7.3v16.9c0,3.2-.5,6.3-1.6,9.5h7.1c3.9,0,6-2.9,6-8.6v-36.8h7.7,0Z"/>
        <path class="cls-1" d="M1002.4,651.7h-7.7v-52.2h7.7v52.2Z"/>
        <path class="cls-1" d="M1045.8,599.8c-.9-.9-1.9-1.3-3.2-1.3s-2.4.5-3.3,1.3c-.9.9-1.4,1.9-1.4,3.2s.5,2.3,1.4,3.2,2,1.3,3.3,1.3,2.3-.5,3.2-1.3c.8-.9,1.3-1.9,1.3-3.2s-.5-2.3-1.3-3.2ZM1033.3,599.8c-.9-.9-1.9-1.3-3.2-1.3s-2.3.5-3.2,1.3c-.9.9-1.4,1.9-1.4,3.2s.5,2.3,1.4,3.2,1.9,1.3,3.2,1.3,2.3-.5,3.2-1.3c.9-.9,1.3-1.9,1.3-3.2s-.5-2.3-1.3-3.2Z"/>
        <path class="cls-1" d="M1109.1,621.7c-3.8-5-8.6-7.5-14.5-7.5s-6.2.7-9,2.5c-3.5,2.1-7.1,5.7-10.6,10.7v-27.8h-7.7c0,24,0,39.1,0,45.4h-13.6v-26.6c-4-2.7-8.6-4.1-13.7-4.1s-8,1.3-11.4,3.8c-4.8,3.8-7.1,9-7.1,15.3s2.7,11.4,7.9,15.1c2.8,2.1,7.6,3.3,14.4,3.3h67.5l1.6-7.9c.6-3.2.9-6,.9-8.6,0-4.6-1.6-9.2-4.6-13.5h0ZM1046,644.9h-3.2c-9.1,0-13.6-4-13.6-12.1s1.3-7,3.8-9.6c1.7-1.8,3.9-2.7,6.6-2.7s4.3.5,6.4,1.6v22.9h0ZM1104.5,644.9h-29.8v-5.5c0-.6.4-1.6,1-3,2.1-4.2,4.5-7.4,7.1-10,3.8-3.6,7.6-5.4,11.7-5.4s7.2,2.1,9.5,6.2c1.3,2.5,2,5.3,2,8.7s-.5,5.4-1.6,8.9h0Z"/>
        <path class="cls-1" d="M1195.8,618.5v16.4c0,5.6-1,9.7-2.9,12.6-2.1,3.2-5,4.8-8.7,4.8s-8.6-1.6-11.5-4.9c-2.8,3-6.2,4.5-10.4,4.5h-33.6c-5.4,0-8.2-3.8-8.2-11.5v-40.8h7.6v42c0,2.2.9,3.3,2.8,3.4h14.8v-20.4h7.6v20.4h5.8c2.4,0,4-.3,4.9-.8,1.9-1.1,2.9-3.8,2.9-8.2v-14.7h7.6v14.8c0,6,2.3,9,6.8,9s6.9-3.2,6.9-9.5v-16.9h7.7Z"/>
        <path class="cls-1" d="M1239.3,651.7h1.2-1.2Z"/>
        <path class="cls-1" d="M1245.2,599.5v36.8c0,5.7-1.9,8.5-6,8.6h-4.5v-26.6c-4-2.7-8.6-4.1-13.7-4.1s-8,1.3-11.3,3.8c-4.9,3.8-7.2,9-7.2,15.3s2.7,11.4,8,15.1c2.8,2.1,7.6,3.3,14.3,3.3h2.8c-.3,6.6-3.5,9.8-9.4,9.8h-4.4v7h4.9c10.7,0,16-5.7,16-16.9h5.8c4.3-.3,7.4-2,9.6-5.2,1.8-2.9,2.8-6.6,2.8-10.9v-36h-7.7,0ZM1227,644.9h-3.1c-9,0-13.6-4-13.6-12.1s1.3-7,3.8-9.6c1.7-1.8,3.9-2.7,6.5-2.7s4.3.5,6.4,1.6v22.9h0Z"/>
        <path class="cls-1" d="M1287.5,602.1c-.9-.9-1.9-1.3-3.2-1.3s-2.3.5-3.2,1.3c-.9.9-1.4,2-1.4,3.3s.5,2.3,1.4,3.2,1.9,1.3,3.2,1.3,2.3-.5,3.2-1.3c.9-.9,1.4-1.9,1.4-3.2s-.5-2.4-1.4-3.3Z"/>
        <path class="cls-1" d="M1314.3,660.9c-.9-.9-1.9-1.3-3.2-1.3s-2.3.5-3.3,1.3c-.9.9-1.4,1.9-1.4,3.2s.5,2.4,1.4,3.2c.9.9,2,1.4,3.3,1.4s2.3-.5,3.2-1.4c.9-.8,1.3-1.9,1.3-3.2s-.5-2.3-1.3-3.2ZM1301.9,660.9c-.9-.9-1.9-1.3-3.3-1.3s-2.3.5-3.2,1.3c-.9.9-1.4,1.9-1.4,3.2s.5,2.4,1.4,3.2c.9.9,1.9,1.4,3.2,1.4s2.4-.5,3.3-1.4c.8-.8,1.3-1.9,1.3-3.2s-.5-2.3-1.3-3.2Z"/>
        <path class="cls-1" d="M1350,651.7h-61.7v1.7c0,10.1-5.5,15.1-16.4,15.1h-4v-7h3.2c6.4,0,9.6-3,9.6-9.2v-34h7.7v26.4h10.2c4.9,0,7.2-3,7.2-9.2v-17.2h7.4v16.9c0,3.2-.5,6.3-1.6,9.5h29.9c-1.5-11.4-8.3-18.3-20.7-20.8v-7.9l27.7-15.9,1.6,7.1-21.4,12.2c13.8,4.6,21,15.3,21.3,32.2h0Z"/>
        <path class="cls-1" d="M1356.8,668.5h-4.1v-7h3.1c6.5,0,9.7-3,9.7-9.2v-34h7.6v35c0,10.1-5.4,15.1-16.3,15.1Z"/>
        <path class="cls-1" d="M1416.5,599.8c-.9-.9-1.9-1.3-3.2-1.3s-2.4.5-3.3,1.3-1.4,1.9-1.4,3.2.5,2.3,1.4,3.2,2,1.3,3.3,1.3,2.3-.5,3.2-1.3c.9-.9,1.3-1.9,1.3-3.2s-.5-2.3-1.3-3.2ZM1404.1,599.8c-.8-.9-1.9-1.3-3.1-1.3s-2.4.5-3.3,1.3c-.9.9-1.4,1.9-1.4,3.2s.5,2.3,1.4,3.2c.9.9,1.9,1.3,3.3,1.3s2.3-.5,3.1-1.3c.9-.9,1.4-1.9,1.4-3.2s-.5-2.3-1.4-3.2Z"/>
        <path class="cls-1" d="M1439,619.6l21.4-12.2-1.6-7.1-27.7,15.9v7.9c12.4,2.5,19.3,9.5,20.8,20.8h-27.5v-26.6c-4-2.7-8.6-4.1-13.7-4.1s-8.1,1.3-11.4,3.8c-4.7,3.8-7.1,9-7.1,15.3s2.7,11.4,7.9,15.1c2.8,2.1,7.6,3.3,14.5,3.3h45.7c-.3-16.9-7.4-27.6-21.3-32.2h-.2ZM1416.7,644.9h-3.2c-9.1,0-13.6-4-13.6-12.1s1.3-7,3.8-9.6c1.8-1.8,4-2.7,6.6-2.7s4.3.5,6.4,1.6v22.9h0Z"/>
        <path class="cls-1" d="M1532,603.9c-.9-.8-1.9-1.3-3.2-1.3s-2.3.5-3.3,1.3c-.9.9-1.4,2-1.4,3.3s.5,2.3,1.4,3.2c.9.8,2,1.3,3.3,1.3s2.3-.5,3.2-1.3c.9-.9,1.3-1.9,1.3-3.2s-.5-2.5-1.3-3.3ZM1525.2,592.1c-.9-.9-1.9-1.4-3.2-1.4s-2.3.5-3.3,1.4c-.9.8-1.4,1.9-1.4,3.3s.5,2.3,1.4,3.2,2,1.3,3.3,1.3,2.3-.5,3.2-1.3c.9-.9,1.3-1.9,1.3-3.2s-.5-2.5-1.3-3.3ZM1519.5,603.9c-.8-.8-1.9-1.3-3.1-1.3s-2.4.5-3.3,1.3c-.9.9-1.4,2-1.4,3.3s.5,2.3,1.4,3.2c.9.8,1.9,1.3,3.3,1.3s2.3-.5,3.1-1.3c.9-.9,1.4-1.9,1.4-3.2s-.5-2.5-1.4-3.3Z"/>
        <path class="cls-1" d="M1548.9,618.5v16.4c0,5.6-1,9.7-2.9,12.6-2.1,3.2-5,4.8-8.7,4.8s-8.6-1.6-11.5-4.9c-2.8,3-6.2,4.5-10.4,4.5h-31.8v1.7c0,10.1-5.5,15.1-16.4,15.1h-4v-7h3.2c6.4,0,9.6-3,9.6-9.2v-34h7.7v26.4h15.1v-20.4h7.6v20.4h5.8c2.4,0,4-.3,4.9-.8,1.9-1.1,2.9-3.8,2.9-8.2v-14.7h7.6v14.8c0,6,2.3,9,6.8,9s6.9-3.2,6.9-9.5v-16.9h7.7Z"/>
      </g>
      <path class="cls-1" d="M530.3,701.3c2.2-.5,5.4-.7,8.4-.7,4.7,0,7.7.9,9.9,2.8,1.6,1.5,2.7,3.8,2.7,6.5,0,4.5-2.8,7.4-6.4,8.7h0c2.6,1,4.1,3.5,4.9,7.1,1.1,4.8,1.9,8,2.7,9.3h-4.6c-.5-1-1.3-3.8-2.2-8.2-1-4.7-2.8-6.5-6.9-6.6h-4.1v14.8h-4.4v-33.7ZM534.7,716.8h4.5c4.7,0,7.7-2.6,7.7-6.4s-3.2-6.3-7.8-6.3-3.6.2-4.3.4v12.4h0Z"/>
      <path class="cls-1" d="M573.2,734.9l-.4-3.1h0c-1.4,1.9-3.9,3.7-7.4,3.7s-7.4-3.5-7.4-7c0-6,5.2-9.2,14.7-9.1v-.5c0-2-.5-5.7-5.6-5.6-2.3,0-4.7.6-6.3,1.8l-1-2.9c2-1.3,4.9-2.1,8.1-2.1,7.4,0,9.3,5.1,9.3,10v9.2c0,2.1,0,4.1.4,5.9h-4v-.2ZM572.5,722.4c-4.8,0-10.3.7-10.3,5.5s1.9,4.2,4.1,4.2c3.2,0,5.2-2,6-4.1.2-.5.2-1,.2-1.4v-4.2Z"/>
      <path class="cls-1" d="M588.4,721.7h0c.5-.8,1.5-1.9,2.1-2.7l7.2-8.4h5.3l-9.4,10.1,10.7,14.4h-5.4l-8.4-11.7-2.3,2.6v9.2h-4.4v-35.8h4.4v22.6h0Z"/>
      <path class="cls-1" d="M610.2,723.5c0,6,3.9,8.4,8.3,8.4s5.1-.5,6.8-1.3l.7,3.1c-1.6.7-4.3,1.6-8.2,1.6-7.5,0-12-5-12-12.3s4.4-13.2,11.5-13.2,10.1,7,10.1,11.5,0,1.6-.2,2.1h-17.1,0ZM623.2,720.3c0-2.7-1.2-7.1-6.1-7.1s-6.4,4.1-6.8,7.1h12.9Z"/>
      <path class="cls-1" d="M636.3,723.5c0,6,3.9,8.4,8.3,8.4s5.1-.5,6.8-1.3l.7,3.1c-1.6.7-4.3,1.6-8.2,1.6-7.5,0-12-5-12-12.3s4.4-13.2,11.5-13.2,10.1,7,10.1,11.5,0,1.6-.2,2.1h-17.1,0ZM649.3,720.3c0-2.7-1.2-7.1-6.1-7.1s-6.4,4.1-6.8,7.1h12.9Z"/>
      <path class="cls-1" d="M656.9,732.3l11-14.4c1.1-1.4,2.1-2.6,3.2-3.8h0c0,0-13.3,0-13.3,0v-3.6h18.6v2.7l-10.9,14.2c-1,1.3-2,2.6-3.1,3.8h0c0,0,14.3,0,14.3,0v3.6h-19.8v-2.6h0Z"/>
      <path class="cls-1" d="M709.7,718.9h-13.2v12.3h14.8v3.7h-19.2v-34h18.4v3.7h-13.9v10.8h13.2v3.7h0Z"/>
      <path class="cls-1" d="M716.8,699h4.4v35.8h-4.4v-35.8Z"/>
      <path class="cls-1" d="M731.2,723.5c0,6,3.9,8.4,8.3,8.4s5.1-.5,6.8-1.3l.7,3.1c-1.6.7-4.3,1.6-8.2,1.6-7.5,0-12-5-12-12.3s4.4-13.2,11.5-13.2,10.1,7,10.1,11.5,0,1.6-.2,2.1h-17.1,0ZM744.2,720.3c0-2.7-1.2-7.1-6.1-7.1s-6.4,4.1-6.8,7.1h12.9Z"/>
      <path class="cls-1" d="M771.4,734c-1.2.5-3.8,1.4-7,1.4-7.3,0-12.2-5-12.2-12.5s5.1-13,13.1-13,4.9.6,6.1,1.3l-1,3.4c-1.1-.5-2.7-1.2-5.2-1.2-5.6,0-8.6,4.2-8.6,9.3s3.7,9.2,8.5,9.2,4.2-.6,5.4-1.2l.7,3.3h0Z"/>
      <path class="cls-1" d="M782.6,703.4v7.1h6.4v3.4h-6.4v13.2c0,3,.9,4.8,3.4,4.8s2-.2,2.6-.4l.2,3.4c-.8.4-2.2.6-3.9.6s-3.8-.6-4.8-1.8c-1.2-1.4-1.7-3.5-1.7-6.4v-13.3h-3.8v-3.4h3.8v-5.9l4.3-1.2h0Z"/>
      <path class="cls-1" d="M794,718.1c0-2.8,0-5.3-.2-7.6h3.8l.2,4.8h.2c1.1-3.3,3.8-5.3,6.8-5.3s.8,0,1.3,0v4.2c-.5,0-.9,0-1.5,0-3.1,0-5.3,2.4-6,5.7,0,.6-.2,1.4-.2,2.1v13h-4.4v-16.8h0Z"/>
      <path class="cls-1" d="M832.1,722.5c0,9.1-6.2,13-12.1,13s-11.7-4.9-11.7-12.6,5.4-12.9,12.1-12.9,11.7,5.1,11.7,12.6h0ZM812.8,722.8c0,5.3,3,9.3,7.4,9.3s7.4-3.9,7.4-9.5-2.1-9.3-7.3-9.3-7.5,4.9-7.5,9.5h0Z"/>
      <path class="cls-1" d="M837.8,717.1c0-2.6,0-4.6-.2-6.6h3.9l.3,4h0c1.2-2.3,4-4.6,8.1-4.6s8.6,2,8.6,10.4v14.6h-4.4v-14.1c0-3.9-1.5-7.2-5.7-7.2s-5.2,2.1-6,4.6c-.2.5-.3,1.4-.3,2v14.7h-4.4v-17.8h0Z"/>
      <path class="cls-1" d="M870.8,703.6c0,1.5-1.1,2.7-2.8,2.7s-2.7-1.3-2.7-2.7,1.1-2.7,2.7-2.7,2.7,1.2,2.7,2.7ZM865.8,734.9v-24.4h4.4v24.4h-4.4Z"/>
      <path class="cls-1" d="M895.1,734c-1.2.5-3.8,1.4-7,1.4-7.3,0-12.2-5-12.2-12.5s5.1-13,13.1-13,4.9.6,6.1,1.3l-1,3.4c-1.1-.5-2.7-1.2-5.2-1.2-5.6,0-8.6,4.2-8.6,9.3s3.7,9.2,8.5,9.2,4.2-.6,5.4-1.2l.7,3.3h0Z"/>
      <path class="cls-1" d="M915.5,700.9v34h-4.4v-34h4.4Z"/>
      <path class="cls-1" d="M923.6,717.1c0-2.6,0-4.6-.2-6.6h3.9l.3,4h0c1.2-2.3,4-4.6,8.1-4.6s8.6,2,8.6,10.4v14.6h-4.4v-14.1c0-3.9-1.5-7.2-5.7-7.2s-5.2,2.1-6,4.6c-.2.5-.3,1.4-.3,2v14.7h-4.4v-17.8h0Z"/>
      <path class="cls-1" d="M951,730.4c1.4.8,3.7,1.7,5.9,1.7,3.2,0,4.8-1.6,4.8-3.7s-1.3-3.2-4.6-4.5c-4.4-1.6-6.5-4-6.5-6.9s3.2-7.1,8.4-7.1,4.6.6,6,1.5l-1.1,3.2c-.9-.5-2.7-1.5-5-1.5s-4,1.5-4,3.4,1.5,2.9,4.7,4.1c4.2,1.6,6.4,3.7,6.4,7.3s-3.4,7.3-9.2,7.3-5.1-.7-6.9-1.7l1.1-3.4v.2Z"/>
      <path class="cls-1" d="M991.9,728.2c0,2.6,0,4.8.2,6.7h-3.9l-.3-4h0c-1.1,1.9-3.7,4.6-8.1,4.6s-8.4-2.1-8.4-10.7v-14.3h4.4v13.5c0,4.7,1.5,7.8,5.5,7.8s5-2.1,5.9-4c.2-.6.4-1.5.4-2.3v-14.9h4.4v17.7h0Z"/>
      <path class="cls-1" d="M999.3,718.1c0-2.8,0-5.3-.2-7.6h3.8l.2,4.8h.2c1.1-3.3,3.8-5.3,6.8-5.3s.8,0,1.2,0v4.2c-.5,0-.9,0-1.5,0-3.1,0-5.3,2.4-6,5.7,0,.6-.2,1.4-.2,2.1v13h-4.4v-16.8h0Z"/>
      <path class="cls-1" d="M1029.1,734.9l-.4-3.1h0c-1.4,1.9-3.9,3.7-7.4,3.7s-7.4-3.5-7.4-7c0-6,5.2-9.2,14.7-9.1v-.5c0-2-.5-5.7-5.6-5.6-2.3,0-4.7.6-6.3,1.8l-1-2.9c2-1.3,4.9-2.1,8.1-2.1,7.4,0,9.3,5.1,9.3,10v9.2c0,2.1,0,4.1.4,5.9h-4v-.2ZM1028.5,722.4c-4.8,0-10.3.7-10.3,5.5s1.9,4.2,4.1,4.2c3.2,0,5.2-2,6-4.1.2-.5.2-1,.2-1.4v-4.2Z"/>
      <path class="cls-1" d="M1039.9,717.1c0-2.6,0-4.6-.2-6.6h3.9l.3,4h0c1.2-2.3,4-4.6,8.1-4.6s8.6,2,8.6,10.4v14.6h-4.4v-14.1c0-3.9-1.5-7.2-5.7-7.2s-5.2,2.1-6,4.6c-.2.5-.3,1.4-.3,2v14.7h-4.4v-17.8h0Z"/>
      <path class="cls-1" d="M1085.4,734c-1.2.5-3.8,1.4-7,1.4-7.3,0-12.2-5-12.2-12.5s5.1-13,13.1-13,4.9.6,6.1,1.3l-1,3.4c-1.1-.5-2.7-1.2-5.2-1.2-5.6,0-8.6,4.2-8.6,9.3s3.7,9.2,8.5,9.2,4.2-.6,5.4-1.2l.7,3.3h0Z"/>
      <path class="cls-1" d="M1092.8,723.5c0,6,3.9,8.4,8.3,8.4s5.1-.5,6.8-1.3l.7,3.1c-1.6.7-4.3,1.6-8.2,1.6-7.5,0-12-5-12-12.3s4.4-13.2,11.5-13.2,10.1,7,10.1,11.5,0,1.6-.2,2.1h-17.1,0ZM1105.8,720.3c0-2.7-1.2-7.1-6.1-7.1s-6.4,4.1-6.8,7.1h12.9Z"/>
      <path class="cls-1" d="M1126.5,701.3c1.9-.5,4.9-.7,8.1-.7s7.2.7,9.3,2.5c1.7,1.4,2.8,3.4,2.8,6s-2.2,6.1-5.8,7.4h0c3.2.9,7.1,3.6,7.1,8.7s-1.2,5.1-2.9,6.8c-2.3,2.2-6.1,3.2-11.7,3.2s-5.3-.2-6.8-.4v-33.5h0ZM1130.9,715.3h4c4.6,0,7.3-2.5,7.3-5.8s-3-5.5-7.4-5.5-3.2.2-3.9.3v11ZM1130.9,731.6c.9.2,2.1.2,3.7.2,4.6,0,8.8-1.6,8.8-6.6s-4-6.6-8.8-6.6h-3.7v12.9h0Z"/>
      <path class="cls-1" d="M1153.8,718.1c0-2.8,0-5.3-.2-7.6h3.8l.2,4.8h.2c1.1-3.3,3.8-5.3,6.8-5.3s.8,0,1.2,0v4.2c-.5,0-.9,0-1.5,0-3.1,0-5.3,2.4-6,5.7,0,.6-.2,1.4-.2,2.1v13h-4.4v-16.8h0Z"/>
      <path class="cls-1" d="M1191.9,722.5c0,9.1-6.2,13-12.1,13s-11.7-4.9-11.7-12.6,5.4-12.9,12.1-12.9,11.7,5.1,11.7,12.6h0ZM1172.6,722.8c0,5.3,3,9.3,7.4,9.3s7.4-3.9,7.4-9.5-2.1-9.3-7.3-9.3-7.5,4.9-7.5,9.5Z"/>
      <path class="cls-1" d="M1201.9,721.7h0c.5-.8,1.5-1.9,2.1-2.7l7.2-8.4h5.3l-9.4,10.1,10.7,14.4h-5.4l-8.4-11.7-2.3,2.6v9.2h-4.4v-35.8h4.4v22.6h0Z"/>
      <path class="cls-1" d="M1223.7,723.5c0,6,3.9,8.4,8.3,8.4s5.1-.5,6.8-1.3l.7,3.1c-1.6.7-4.3,1.6-8.2,1.6-7.5,0-12-5-12-12.3s4.4-13.2,11.5-13.2,10.1,7,10.1,11.5,0,1.6-.2,2.1h-17.1,0ZM1236.7,720.3c0-2.7-1.2-7.1-6.1-7.1s-6.4,4.1-6.8,7.1h12.9Z"/>
      <path class="cls-1" d="M1246.5,718.1c0-2.8,0-5.3-.2-7.6h3.8l.2,4.8h.2c1.1-3.3,3.8-5.3,6.8-5.3s.8,0,1.2,0v4.2c-.5,0-.9,0-1.5,0-3.1,0-5.3,2.4-6,5.7,0,.6-.2,1.4-.2,2.1v13h-4.4v-16.8h0Z"/>
      <path class="cls-1" d="M1276.4,734.9l-.4-3.1h0c-1.4,1.9-3.9,3.7-7.4,3.7s-7.4-3.5-7.4-7c0-6,5.2-9.2,14.7-9.1v-.5c0-2-.5-5.7-5.6-5.6-2.3,0-4.7.6-6.3,1.8l-1-2.9c2-1.3,4.9-2.1,8.1-2.1,7.4,0,9.3,5.1,9.3,10v9.2c0,2.1,0,4.1.4,5.9h-4v-.2ZM1275.7,722.4c-4.8,0-10.3.7-10.3,5.5s1.9,4.2,4.1,4.2c3.2,0,5.2-2,6-4.1.2-.5.2-1,.2-1.4v-4.2Z"/>
      <path class="cls-1" d="M1308.2,710.5c0,1.7-.2,3.7-.2,6.7v14.2c0,5.7-1.2,9.1-3.5,11.2-2.4,2.2-5.8,2.9-8.9,2.9s-6.1-.7-8.2-2l1.1-3.4c1.6,1,4.1,1.9,7.1,1.9,4.5,0,7.9-2.4,7.9-8.5v-2.7h0c-1.4,2.3-4,4.1-7.8,4.1-6,0-10.4-5.1-10.4-11.9s5.4-12.9,11-12.9,6.5,2.2,7.6,4.2h0l.2-3.7h4ZM1303.6,720.1c0-.7,0-1.4-.3-2-.8-2.6-2.9-4.8-6.2-4.8s-7.2,3.6-7.2,9.3,2.5,8.8,7.2,8.8,5.2-1.7,6.1-4.6c.3-.7.4-1.6.4-2.4v-4.4h0Z"/>
      <path class="cls-1" d="M1317.9,723.5c0,6,3.8,8.4,8.3,8.4s5.1-.5,6.8-1.3l.8,3.1c-1.6.7-4.3,1.6-8.2,1.6-7.5,0-12-5-12-12.3s4.4-13.2,11.5-13.2,10.1,7,10.1,11.5,0,1.6-.2,2.1h-17.1ZM1330.8,720.3c0-2.7-1.1-7.1-6.1-7.1s-6.4,4.1-6.8,7.1h12.9Z"/>
      <path class="cls-1" d="M1375.3,733.8c-1.6.8-4.9,1.6-9,1.6-9.6,0-16.8-6-16.8-17.2s7.2-17.9,17.8-17.9,6.9.9,8.1,1.5l-1.1,3.6c-1.6-.8-4-1.4-6.9-1.4-8,0-13.3,5.1-13.3,14s4.8,13.7,13,13.7,5.4-.5,7.2-1.4l.9,3.5h0Z"/>
      <path class="cls-1" d="M1402.2,722.5c0,9.1-6.2,13-12.1,13s-11.7-4.9-11.7-12.6,5.4-12.9,12.1-12.9,11.7,5.1,11.7,12.6h0ZM1382.9,722.8c0,5.3,3,9.3,7.4,9.3s7.4-3.9,7.4-9.5-2.1-9.3-7.3-9.3-7.5,4.9-7.5,9.5Z"/>
      <path class="cls-1" d="M1407.9,717.1c0-2.6,0-4.6-.2-6.6h3.8l.3,3.9h0c1.4-2.3,3.7-4.5,7.7-4.5s5.9,2,6.9,4.9h0c.8-1.4,1.7-2.5,2.7-3.2,1.5-1.1,3.1-1.7,5.4-1.7,3.3,0,8.1,2.1,8.1,10.6v14.4h-4.3v-13.8c0-4.8-1.7-7.5-5.3-7.5s-4.5,1.8-5.3,4c-.2.6-.4,1.5-.4,2.2v15.1h-4.3v-14.7c0-3.8-1.7-6.7-5-6.7s-4.8,2.2-5.5,4.4c-.2.6-.4,1.5-.4,2.2v14.8h-4.3v-17.8h0Z"/>
      <path class="cls-1" d="M1448.1,718.5c0-3.1,0-5.7-.2-8h3.9l.3,4.1h0c1.7-2.9,4.7-4.7,8.7-4.7,6,0,10.4,4.9,10.4,12.4s-5.4,13.1-11.1,13.1-6-1.4-7.5-3.8h0v13.3h-4.4v-26.5h0ZM1452.5,725c0,.6,0,1.3.2,1.8.8,3.1,3.5,5.2,6.6,5.2,4.7,0,7.4-3.8,7.4-9.4s-2.6-9.1-7.2-9.1-5.9,2.1-6.7,5.5c-.2.5-.3,1.2-.3,1.8v4.2h0Z"/>
      <path class="cls-1" d="M1490.9,734.9l-.4-3.1h0c-1.4,1.9-3.9,3.7-7.4,3.7s-7.4-3.5-7.4-7c0-6,5.2-9.2,14.7-9.1v-.5c0-2-.5-5.7-5.6-5.6-2.3,0-4.7.6-6.3,1.8l-1-2.9c2-1.3,4.9-2.1,8.1-2.1,7.4,0,9.3,5.1,9.3,10v9.2c0,2.1,0,4.1.4,5.9h-4v-.2ZM1490.2,722.4c-4.8,0-10.3.7-10.3,5.5s1.9,4.2,4.1,4.2c3.2,0,5.2-2,6-4.1.2-.5.2-1,.2-1.4v-4.2Z"/>
      <path class="cls-1" d="M1501.8,717.1c0-2.6,0-4.6-.2-6.6h3.9l.3,4h0c1.2-2.3,4-4.6,8.1-4.6s8.6,2,8.6,10.4v14.6h-4.4v-14.1c0-3.9-1.5-7.2-5.7-7.2s-5.2,2.1-6,4.6c-.2.5-.3,1.4-.3,2v14.7h-4.4v-17.8h0Z"/>
      <path class="cls-1" d="M1530.7,710.5l5.3,14.4c.5,1.6,1.2,3.5,1.6,4.9h0c.5-1.5,1-3.3,1.6-5l4.9-14.3h4.7l-6.7,17.4c-3.2,8.4-5.3,12.6-8.3,15.3-2.2,1.9-4.4,2.7-5.4,2.8l-1.1-3.7c1.1-.4,2.6-1,3.8-2.2,1.2-1,2.7-2.7,3.7-4.9.2-.5.4-.8.4-1.1s0-.6-.3-1.1l-9-22.5h4.9Z"/>
    </g>
    <g class="cls-5">
      <g>
        <path class="cls-3" d="M339.9-41.9c-1.3-1.3-2.8-1.8-4.6-1.8s-3.4.7-4.7,1.8c-1.3,1.3-2,2.8-2,4.6s.7,3.3,2,4.6,2.9,1.8,4.7,1.8,3.3-.7,4.6-1.8c1.3-1.3,1.8-2.8,1.8-4.6s-.7-3.3-1.8-4.6ZM322-41.9c-1.2-1.3-2.8-1.8-4.5-1.8s-3.4.7-4.7,1.8c-1.3,1.3-2,2.8-2,4.6s.7,3.3,2,4.6,2.8,1.8,4.7,1.8,3.3-.7,4.5-1.8c1.3-1.3,2-2.8,2-4.6s-.7-3.3-2-4.6Z"/>
        <path class="cls-3" d="M388.1,45.7c-1.3-1.3-2.8-1.8-4.6-1.8s-3.4.7-4.7,1.8c-1.3,1.3-2,2.8-2,4.6s.7,3.4,2,4.6c1.3,1.3,2.9,2,4.7,2s3.3-.7,4.6-2c1.2-1.2,1.8-2.8,1.8-4.6s-.7-3.3-1.8-4.6ZM370.2,45.7c-1.3-1.3-2.8-1.8-4.6-1.8s-3.3.7-4.6,1.8c-1.3,1.3-2,2.8-2,4.6s.7,3.4,2,4.6c1.3,1.3,2.8,2,4.6,2s3.3-.7,4.6-2c1.3-1.2,2-2.8,2-4.6s-.7-3.3-2-4.6Z"/>
        <path class="cls-3" d="M416-38.6c-1.3-1.3-2.8-1.8-4.6-1.8s-3.3.7-4.6,1.8c-1.3,1.3-1.8,2.9-1.8,4.7s.7,3.3,1.8,4.6c1.3,1.3,2.9,1.8,4.6,1.8s3.3-.7,4.6-1.8c1.3-1.3,1.8-2.8,1.8-4.6s-.7-3.4-1.8-4.7Z"/>
        <path class="cls-3" d="M406-15.1V17.9c0,3.2-1.3,4.7-4.1,4.9h-17.7c1.6-4.6,2.4-9.2,2.4-13.7V-15.1h-10.6V9.6c0,8.7-3.5,13.1-10.4,13.1h-14.3V-15.4c-5.8-3.9-12.3-5.9-19.7-5.9s-11.4,1.8-16.3,5.4c-6.8,5.5-10.1,12.9-10.1,21.9s3.8,16.3,11.3,21.7c4.1,3,10.9,4.7,20.6,4.7h68.3c7.8,0,11.7-5.5,12-16.4V-15.3h-11.3ZM340.2,22.7h-4.6c-13,0-19.4-5.8-19.4-17.3s1.8-10,5.4-13.8c2.5-2.6,5.6-3.9,9.5-3.9s6.2.8,9.2,2.2V22.7Z"/>
        <path class="cls-3" d="M449.9,56.6h-7v-10h6.3c8.5,0,13-4.7,13.5-14.2h-4.2c-9.6,0-16.4-1.7-20.6-4.7-7.5-5.4-11.3-12.6-11.4-21.7,0-9.2,3.4-16.6,10.4-21.9,4.7-3.7,10.1-5.5,16.2-5.5s13.9,2,19.7,5.9v48.9c-.3,15.4-8,23.1-23,23.1h.1ZM461.8,22.7V-10.1c-3-1.4-6-2.2-9.2-2.2s-6.8,1.3-9.3,3.9c-3.5,3.9-5.4,8.5-5.4,13.9,0,11.4,6.4,17.2,19.3,17.2h4.6Z"/>
        <path class="cls-3" d="M542.2-36c-1.2-1.2-2.8-1.8-4.5-1.8s-3.4.7-4.7,1.8c-1.3,1.3-2,2.9-2,4.7s.7,3.3,2,4.6c1.3,1.2,2.8,1.8,4.7,1.8s3.3-.7,4.5-1.8c1.3-1.3,2-2.8,2-4.6s-.7-3.5-2-4.7ZM525.4-36c-1.3-1.2-2.8-1.8-4.6-1.8s-3.3.7-4.6,1.8c-1.3,1.3-2,2.9-2,4.7s.7,3.3,2,4.6c1.3,1.2,2.8,1.8,4.6,1.8s3.3-.7,4.6-1.8c1.3-1.3,1.8-2.8,1.8-4.6s-.7-3.5-1.8-4.7Z"/>
        <path class="cls-3" d="M597.5,32.6h1.7-1.7Z"/>
        <path class="cls-3" d="M617-42.3V9.3c0,6.2-1.3,11.4-4.1,15.6-3,4.6-7.6,7.2-13.8,7.5h-93.4v2.5c0,14.5-7.9,21.7-23.5,21.7h-5.8v-10h4.6c9.2,0,13.8-4.3,13.8-13.1V-15.3h11V22.6h12.3c7,0,10.5-4.3,10.5-13.1V-15.3h10.5V8.9c0,4.6-.8,9.1-2.2,13.7h43.1c-2.1-16.3-12-26.3-29.8-29.8v-11.3l39.7-22.9,2.5,10.2-30.7,17.5c16.8,5.5,26.7,17.6,29.8,36.3h6.2c5.8,0,8.5-4.2,8.5-12.3v-52.7h11-.3Z"/>
        <path class="cls-3" d="M652.3,32.6h-25.8v-9.9h23.8c8.3,0,12.3-4.6,12.3-13.9v-51.1h11V8.8c0,15.1-7.1,23-21.4,23.8h0ZM639.2,16.3l-5.3-58.6h10.5l5.8,58.5h-11ZM638.8,57.7l-.7-4.1,3.5-1.7c-2.8-1.6-4.2-3.7-4.2-6.4s1.4-5.3,4.2-6.8c.9-.5,2.2-.8,3.8-.8s3.4.3,4.6.9l-.7,3.7c-.7-.1-1.4-.3-2.2-.3-2.9,0-4.3,1.3-4.3,3.9s3,4.3,9.1,4.3l-.3,3.8c-5,.7-9.3,1.8-12.9,3.3h0Z"/>
        <path class="cls-3" d="M694.2,32.6h-11V-42.3h11V32.6Z"/>
        <path class="cls-3" d="M753.8-38.6c-1.3-1.3-2.8-1.8-4.6-1.8s-3.3.7-4.6,1.8c-1.3,1.3-2,2.9-2,4.7s.7,3.3,2,4.6,2.9,1.8,4.6,1.8,3.3-.7,4.6-1.8c1.3-1.3,1.8-2.8,1.8-4.6s-.7-3.4-1.8-4.7Z"/>
        <path class="cls-3" d="M817.6,45.7c-1.3-1.3-2.8-1.8-4.6-1.8s-3.3.7-4.7,1.8c-1.3,1.3-2,2.8-2,4.6s.7,3.4,2,4.6c1.3,1.3,2.9,2,4.7,2s3.3-.7,4.6-2c1.3-1.2,1.8-2.8,1.8-4.6s-.7-3.3-1.8-4.6ZM799.9,45.7c-1.3-1.3-2.8-1.8-4.7-1.8s-3.3.7-4.6,1.8-2,2.8-2,4.6.7,3.4,2,4.6c1.3,1.3,2.8,2,4.6,2s3.4-.7,4.7-2,1.8-2.8,1.8-4.6-.7-3.3-1.8-4.6Z"/>
        <path class="cls-3" d="M875.9-11.4c-4.3-5-10.1-7.5-17.5-7.5s-13.1,2.4-17.1,7.2c-3.9,4.7-5.9,11.4-5.9,20v2.1c0,8.3-2.9,12.3-8.5,12.5h-12.9c1.4-4.6,2.2-9.2,2.2-13.7V-15h-10.6V9.7c0,8.7-3.4,13.1-10.4,13.1h-14.5V-15h-10.9v50.2c0,7.6-4.3,11.4-13.1,11.6h-4.9c-12.7-.1-19.2-6.3-19.2-18.4s2.5-14.1,7.5-19.7l-8.4-6c-6.4,6.3-9.7,15-9.9,26.3,0,8.5,3.3,15.6,9.6,21.3,5,4.5,11.7,6.7,20.4,6.7h5.5c15.4,0,23.1-8,23.5-24.2h47.2c4.6,0,8.1-2.5,10.6-7.2,5.5,8,13,12,22.3,12s14.2-3.8,18-11c2.4-4.5,3.5-10,3.5-16.8s-2.1-16-6.4-21h-.3ZM859.1,28c-9.1,0-13.7-6.3-13.7-18.9s4.3-18.5,12.9-18.7c9.2,0,13.7,6.7,13.7,20.2s-4.3,17.3-12.9,17.3Z"/>
        <path class="cls-3" d="M896.4-61.8c0-2.6,1.4-3.9,4.3-3.9s1.6,0,2.4.3l.7-3.7c-1.3-.7-2.8-.9-4.6-.9s-2.8.3-3.8.8c-2.8,1.6-4.2,3.9-4.2,7s1.3,4.7,4.2,6.4l-3.5,1.6.7,4.1c3.5-1.6,7.8-2.6,12.9-3.3l.3-3.8c-6,0-9.1-1.4-9.1-4.3h-.1Z"/>
        <path class="cls-3" d="M941.9-36c-1.3-1.2-2.8-1.8-4.6-1.8s-3.4.7-4.7,1.8c-1.3,1.3-2,2.9-2,4.7s.7,3.3,2,4.6c1.3,1.2,2.8,1.8,4.7,1.8s3.3-.7,4.6-1.8c1.2-1.3,1.8-2.8,1.8-4.6s-.7-3.5-1.8-4.7ZM924.9-36c-1.2-1.2-2.8-1.8-4.6-1.8s-3.3.7-4.6,1.8c-1.3,1.3-2,2.9-2,4.7s.7,3.3,2,4.6c1.3,1.2,2.8,1.8,4.6,1.8s3.4-.7,4.6-1.8c1.3-1.3,2-2.8,2-4.6s-.7-3.5-2-4.7ZM946.8,32.6h1.6-1.6Z"/>
        <path class="cls-3" d="M966.3-42.3V9.3c0,6.2-1.3,11.4-4.1,15.6-3,4.6-7.8,7.2-13.8,7.5h-44.1c-8,0-12.1-5.5-12.1-16.4l-.4-58.5h11.7V17.7c0,3.2,1.3,4.7,3.9,4.9h10.4c7,0,10.4-4.3,10.4-13.1V-15.3h10.5V8.9c0,4.6-.7,9.1-2.2,13.7h10.2c5.6,0,8.5-4.2,8.5-12.3v-52.7h11,0Z"/>
        <path class="cls-3" d="M986.8,32.6h-11V-42.3h11V32.6Z"/>
        <path class="cls-3" d="M1049.1-41.9c-1.3-1.3-2.8-1.8-4.6-1.8s-3.4.7-4.7,1.8c-1.3,1.3-2,2.8-2,4.6s.7,3.3,2,4.6c1.3,1.3,2.9,1.8,4.7,1.8s3.3-.7,4.6-1.8c1.2-1.3,1.8-2.8,1.8-4.6s-.7-3.3-1.8-4.6ZM1031.1-41.9c-1.3-1.3-2.8-1.8-4.6-1.8s-3.3.7-4.6,1.8c-1.3,1.3-2,2.8-2,4.6s.7,3.3,2,4.6,2.8,1.8,4.6,1.8,3.3-.7,4.6-1.8c1.3-1.3,1.8-2.8,1.8-4.6s-.7-3.3-1.8-4.6Z"/>
        <path class="cls-3" d="M1139.9-10.5c-5.4-7.2-12.3-10.8-20.8-10.8s-8.9,1.1-12.9,3.5c-5,3-10.1,8.1-15.2,15.4v-39.8h-11c0,34.4,0,56.1-.1,65h-19.4V-15.3c-5.8-3.9-12.3-5.9-19.7-5.9s-11.4,1.8-16.3,5.4c-6.8,5.5-10.1,12.9-10.1,21.9s3.8,16.3,11.3,21.7c4.1,3,10.9,4.7,20.6,4.7h96.8l2.2-11.3c.9-4.6,1.3-8.7,1.3-12.3,0-6.6-2.2-13.1-6.6-19.3h-.1ZM1049.4,22.7h-4.6c-13,0-19.4-5.8-19.4-17.3s1.8-10,5.4-13.8c2.5-2.6,5.6-3.9,9.5-3.9s6.2.8,9.2,2.2V22.7h0ZM1133.2,22.7h-42.7v-7.9c0-.9.5-2.4,1.4-4.3,3-6,6.4-10.6,10.2-14.3,5.4-5.1,10.9-7.8,16.8-7.8s10.4,3,13.7,8.9c1.8,3.5,2.9,7.6,2.9,12.5s-.8,7.8-2.4,12.7h0Z"/>
        <path class="cls-3" d="M1264.2-15.1V8.4c0,8-1.4,13.9-4.2,18-3,4.6-7.2,6.8-12.5,6.8s-12.3-2.4-16.6-7.1c-4.1,4.3-8.9,6.4-15,6.4h-48.2c-7.8,0-11.7-5.5-11.7-16.4v-58.5h10.9V17.9c0,3.2,1.3,4.7,4.1,4.9h21.2V-6.6h10.9v29.3h8.3c3.4,0,5.8-.4,7.1-1.2,2.8-1.6,4.2-5.5,4.2-11.8V-11.3h10.9V10c0,8.5,3.3,12.9,9.7,12.9s9.9-4.6,9.9-13.7V-15h11Z"/>
        <path class="cls-3" d="M1326.4,32.6h1.7-1.7Z"/>
        <path class="cls-3" d="M1335-42.3V10.4c0,8.1-2.8,12.2-8.5,12.3h-6.4V-15.4c-5.8-3.9-12.3-5.9-19.7-5.9s-11.4,1.8-16.2,5.4c-7,5.5-10.4,12.9-10.4,21.9s3.9,16.3,11.4,21.7c4.1,3,10.9,4.7,20.5,4.7h4.1c-.4,9.5-5,14.1-13.5,14.1h-6.3v10h7c15.4,0,23-8.1,23-24.2h8.3c6.2-.4,10.6-2.9,13.8-7.5,2.6-4.2,4.1-9.5,4.1-15.6v-51.6h-11,0ZM1308.8,22.7h-4.5c-12.9,0-19.4-5.8-19.4-17.3s1.8-10,5.4-13.8c2.5-2.6,5.6-3.9,9.3-3.9s6.2.8,9.2,2.2V22.7h0Z"/>
        <path class="cls-3" d="M1395.6-38.6c-1.3-1.3-2.8-1.8-4.6-1.8s-3.3.7-4.6,1.8c-1.3,1.3-2,2.9-2,4.7s.7,3.3,2,4.6,2.8,1.8,4.6,1.8,3.3-.7,4.6-1.8c1.3-1.3,2-2.8,2-4.6s-.7-3.4-2-4.7Z"/>
        <path class="cls-3" d="M1433.9,45.7c-1.3-1.3-2.8-1.8-4.6-1.8s-3.3.7-4.7,1.8c-1.3,1.3-2,2.8-2,4.6s.7,3.4,2,4.6c1.3,1.3,2.9,2,4.7,2s3.3-.7,4.6-2c1.3-1.2,1.8-2.8,1.8-4.6s-.7-3.3-1.8-4.6ZM1416.2,45.7c-1.3-1.3-2.8-1.8-4.7-1.8s-3.3.7-4.6,1.8c-1.3,1.3-2,2.8-2,4.6s.7,3.4,2,4.6c1.3,1.3,2.8,2,4.6,2s3.4-.7,4.7-2c1.2-1.2,1.8-2.8,1.8-4.6s-.7-3.3-1.8-4.6Z"/>
        <path class="cls-3" d="M1485.2,32.6h-88.4v2.5c0,14.5-7.9,21.7-23.5,21.7h-5.8v-10h4.6c9.2,0,13.8-4.3,13.8-13.1V-15.1h11V22.7h14.6c7,0,10.4-4.3,10.4-13.1V-15.1h10.6V9.1c0,4.6-.8,9.1-2.2,13.7h42.8c-2.1-16.3-12-26.3-29.7-29.8v-11.3l39.7-22.9,2.4,10.2-30.7,17.5c19.8,6.6,30.1,21.9,30.5,46.1h0Z"/>
        <path class="cls-3" d="M1494.9,56.6h-5.9v-10h4.5c9.3,0,13.9-4.3,13.9-13.1V-15.3h10.9v50.2c0,14.5-7.8,21.7-23.4,21.7Z"/>
        <path class="cls-3" d="M1580.5-41.9c-1.3-1.3-2.8-1.8-4.6-1.8s-3.4.7-4.7,1.8-2,2.8-2,4.6.7,3.3,2,4.6c1.3,1.3,2.9,1.8,4.7,1.8s3.3-.7,4.6-1.8c1.3-1.3,1.8-2.8,1.8-4.6s-.7-3.3-1.8-4.6ZM1562.7-41.9c-1.2-1.3-2.8-1.8-4.5-1.8s-3.4.7-4.7,1.8c-1.3,1.3-2,2.8-2,4.6s.7,3.3,2,4.6c1.3,1.3,2.8,1.8,4.7,1.8s3.3-.7,4.5-1.8c1.3-1.3,2-2.8,2-4.6s-.7-3.3-2-4.6Z"/>
        <path class="cls-3" d="M1612.7-13.5l30.7-17.5-2.4-10.2-39.7,22.9V-7.1c17.7,3.5,27.7,13.7,29.8,29.8h-39.4V-15.4c-5.8-3.9-12.3-5.9-19.6-5.9s-11.6,1.8-16.3,5.4c-6.7,5.5-10.1,12.9-10.1,21.9s3.8,16.3,11.3,21.7c4.1,3,10.9,4.7,20.8,4.7h65.6c-.4-24.2-10.6-39.5-30.5-46.1h-.3ZM1580.8,22.7h-4.6c-13,0-19.4-5.8-19.4-17.3s1.8-10,5.4-13.8c2.6-2.6,5.8-3.9,9.5-3.9s6.2.8,9.2,2.2V22.7h0Z"/>
        <path class="cls-3" d="M1746.1-36c-1.3-1.2-2.8-1.8-4.6-1.8s-3.3.7-4.7,1.8c-1.3,1.3-2,2.9-2,4.7s.7,3.3,2,4.6c1.3,1.2,2.9,1.8,4.7,1.8s3.3-.7,4.6-1.8c1.3-1.3,1.8-2.8,1.8-4.6s-.7-3.5-1.8-4.7ZM1736.4-53c-1.3-1.3-2.8-2-4.6-2s-3.3.7-4.7,2c-1.3,1.2-2,2.8-2,4.7s.7,3.3,2,4.6,2.9,1.8,4.7,1.8,3.3-.7,4.6-1.8c1.3-1.3,1.8-2.8,1.8-4.6s-.7-3.5-1.8-4.7ZM1728.2-36c-1.2-1.2-2.8-1.8-4.5-1.8s-3.4.7-4.7,1.8c-1.3,1.3-2,2.9-2,4.7s.7,3.3,2,4.6c1.3,1.2,2.8,1.8,4.7,1.8s3.3-.7,4.5-1.8c1.3-1.3,2-2.8,2-4.6s-.7-3.5-2-4.7Z"/>
        <path class="cls-3" d="M1770.3-15.1V8.4c0,8-1.4,13.9-4.2,18-3,4.6-7.2,6.8-12.5,6.8s-12.3-2.4-16.6-7.1c-4.1,4.3-8.9,6.4-15,6.4h-45.6v2.5c0,14.5-7.9,21.7-23.5,21.7h-5.8v-10h4.6c9.2,0,13.8-4.3,13.8-13.1V-15.1h11V22.7h21.7V-6.6h10.9v29.3h8.3c3.4,0,5.8-.4,7.1-1.2,2.8-1.6,4.2-5.5,4.2-11.8V-11.3h10.9V10c0,8.5,3.3,12.9,9.7,12.9s9.9-4.6,9.9-13.7V-15h11Z"/>
      </g>
      <path class="cls-3" d="M310.1,103.6c3.2-.7,7.8-1.1,12.1-1.1,6.7,0,11,1.3,14.2,4.1,2.4,2.1,3.8,5.5,3.8,9.3,0,6.4-4.1,10.6-9.2,12.5h0c3.7,1.4,5.9,5,7.1,10.1,1.6,6.8,2.8,11.4,3.8,13.4h-6.6c-.8-1.4-1.8-5.5-3.2-11.7-1.4-6.7-4.1-9.3-9.9-9.5h-5.9v21.2h-6.3v-48.3ZM316.4,125.9h6.4c6.7,0,11-3.7,11-9.2s-4.6-9.1-11.2-9.1-5.1.3-6.2.5v17.7h-.1Z"/>
      <path class="cls-3" d="M371.6,151.7l-.5-4.5h-.1c-2,2.8-5.6,5.3-10.6,5.3s-10.6-5-10.6-10c0-8.5,7.5-13.1,21-13v-.8c0-2.9-.8-8.1-8-8-3.3,0-6.7.9-9.1,2.6l-1.4-4.2c2.9-1.8,7.1-3,11.6-3,10.6,0,13.3,7.4,13.3,14.3v13.1c0,3,.1,5.9.5,8.4h-5.8v-.3ZM370.5,133.9c-6.8-.1-14.7,1.1-14.7,7.9s2.8,6,5.9,6c4.6,0,7.5-2.9,8.5-5.9.3-.7.3-1.4.3-2v-6Z"/>
      <path class="cls-3" d="M393.4,132.8h.1c.8-1.2,2.1-2.8,3-3.9l10.4-12.1h7.6l-13.5,14.5,15.4,20.6h-7.8l-12.1-16.8-3.3,3.7v13.1h-6.3v-51.4h6.3v32.5h.1Z"/>
      <path class="cls-3" d="M424.6,135.4c0,8.5,5.6,12.1,12,12.1s7.4-.8,9.7-1.8l1.1,4.5c-2.2,1.1-6.2,2.2-11.7,2.2-10.8,0-17.2-7.2-17.2-17.6s6.3-18.9,16.4-18.9,14.5,10,14.5,16.4,0,2.2-.3,3h-24.6.1ZM443.3,130.8c0-3.9-1.7-10.2-8.8-10.2s-9.2,5.9-9.7,10.2h18.5Z"/>
      <path class="cls-3" d="M462.1,135.4c0,8.5,5.6,12.1,12,12.1s7.4-.8,9.7-1.8l1.1,4.5c-2.2,1.1-6.2,2.2-11.7,2.2-10.8,0-17.2-7.2-17.2-17.6s6.3-18.9,16.4-18.9,14.5,10,14.5,16.4,0,2.2-.3,3h-24.6.1ZM480.7,130.8c0-3.9-1.7-10.2-8.8-10.2s-9.2,5.9-9.7,10.2h18.5Z"/>
      <path class="cls-3" d="M491.5,148.1l15.8-20.6c1.6-2,3-3.7,4.6-5.5h0c0-.1-19.1-.1-19.1-.1v-5.1h26.7v3.9l-15.6,20.4c-1.4,1.8-2.9,3.7-4.5,5.4h0c0,.1,20.5.1,20.5.1v5.1h-28.4v-3.7h0Z"/>
      <path class="cls-3" d="M567.3,128.9h-18.9v17.6h21.2v5.3h-27.5v-48.7h26.4v5.3h-20v15.5h18.9v5.3h-.1Z"/>
      <path class="cls-3" d="M577.4,100.4h6.3v51.4h-6.3v-51.4Z"/>
      <path class="cls-3" d="M598.1,135.4c0,8.5,5.6,12.1,12,12.1s7.4-.8,9.7-1.8l1.1,4.5c-2.2,1.1-6.2,2.2-11.7,2.2-10.8,0-17.2-7.2-17.2-17.6s6.3-18.9,16.4-18.9,14.5,10,14.5,16.4,0,2.2-.3,3h-24.6.1ZM616.7,130.8c0-3.9-1.7-10.2-8.8-10.2s-9.2,5.9-9.7,10.2h18.5Z"/>
      <path class="cls-3" d="M655.7,150.5c-1.7.8-5.4,2-10,2-10.5,0-17.5-7.2-17.5-17.9s7.4-18.7,18.8-18.7,7.1.9,8.8,1.8l-1.4,4.9c-1.6-.8-3.9-1.7-7.5-1.7-8,0-12.3,6-12.3,13.3s5.3,13.1,12.2,13.1,6-.9,7.8-1.7l1.1,4.7h.1Z"/>
      <path class="cls-3" d="M671.8,106.7v10.1h9.2v4.9h-9.2v18.9c0,4.3,1.3,6.8,4.9,6.8s2.9-.3,3.7-.5l.3,4.9c-1.2.5-3.2.9-5.6.9s-5.4-.9-6.8-2.6c-1.7-2-2.5-5-2.5-9.2v-19.1h-5.4v-4.9h5.4v-8.4l6.2-1.7h0Z"/>
      <path class="cls-3" d="M688.1,127.7c0-4.1,0-7.6-.3-10.9h5.5l.3,6.8h.3c1.6-4.7,5.5-7.6,9.7-7.6s1.2,0,1.8.1v6c-.7-.1-1.3-.1-2.1-.1-4.5,0-7.6,3.4-8.5,8.1-.1.9-.3,2-.3,3v18.7h-6.3v-24h-.1Z"/>
      <path class="cls-3" d="M742.7,134c0,13-8.9,18.7-17.3,18.7s-16.8-7-16.8-18,7.8-18.5,17.3-18.5,16.8,7.4,16.8,18h0ZM715,134.4c0,7.6,4.3,13.4,10.6,13.4s10.6-5.6,10.6-13.7-3-13.4-10.5-13.4-10.8,7-10.8,13.7h0Z"/>
      <path class="cls-3" d="M750.9,126.2c0-3.7,0-6.6-.3-9.5h5.6l.4,5.8h.1c1.7-3.3,5.8-6.6,11.6-6.6s12.3,2.9,12.3,15v20.9h-6.3v-20.2c0-5.6-2.1-10.4-8.1-10.4s-7.5,3-8.5,6.6c-.3.8-.4,2-.4,2.9v21h-6.3v-25.5h-.1Z"/>
      <path class="cls-3" d="M798.2,106.9c0,2.1-1.6,3.9-4.1,3.9s-3.8-1.8-3.8-3.9,1.6-3.9,3.9-3.9,3.9,1.7,3.9,3.9ZM791.1,151.7v-34.9h6.3v34.9h-6.3Z"/>
      <path class="cls-3" d="M833,150.5c-1.7.8-5.4,2-10,2-10.5,0-17.5-7.2-17.5-17.9s7.4-18.7,18.8-18.7,7.1.9,8.8,1.8l-1.4,4.9c-1.6-.8-3.9-1.7-7.5-1.7-8,0-12.3,6-12.3,13.3s5.3,13.1,12.2,13.1,6-.9,7.8-1.7l1.1,4.7h.1Z"/>
      <path class="cls-3" d="M862.3,103v48.7h-6.3v-48.7h6.3Z"/>
      <path class="cls-3" d="M873.8,126.2c0-3.7,0-6.6-.3-9.5h5.6l.4,5.8h.1c1.7-3.3,5.8-6.6,11.6-6.6s12.3,2.9,12.3,15v20.9h-6.3v-20.2c0-5.6-2.1-10.4-8.1-10.4s-7.5,3-8.5,6.6c-.3.8-.4,2-.4,2.9v21h-6.3v-25.5h-.1Z"/>
      <path class="cls-3" d="M913.1,145.3c2,1.2,5.3,2.5,8.4,2.5,4.6,0,6.8-2.2,6.8-5.3s-1.8-4.6-6.6-6.4c-6.3-2.2-9.3-5.8-9.3-9.9s4.6-10.2,12.1-10.2,6.6.9,8.5,2.1l-1.6,4.6c-1.3-.8-3.9-2.1-7.2-2.1s-5.8,2.1-5.8,4.9,2.1,4.2,6.7,5.9c6,2.2,9.2,5.3,9.2,10.5s-4.9,10.5-13.1,10.5-7.4-1.1-9.9-2.5l1.6-4.9v.3Z"/>
      <path class="cls-3" d="M971.8,142.1c0,3.7,0,6.8.3,9.6h-5.6l-.4-5.8h-.1c-1.6,2.8-5.3,6.6-11.6,6.6s-12.1-3-12.1-15.4v-20.5h6.3v19.3c0,6.7,2.1,11.2,7.9,11.2s7.2-3,8.4-5.8c.3-.9.5-2.1.5-3.3v-21.4h6.3v25.4h.1Z"/>
      <path class="cls-3" d="M982.5,127.7c0-4.1,0-7.6-.3-10.9h5.5l.3,6.8h.3c1.6-4.7,5.5-7.6,9.7-7.6s1.2,0,1.7.1v6c-.7-.1-1.3-.1-2.1-.1-4.5,0-7.6,3.4-8.5,8.1-.1.9-.3,2-.3,3v18.7h-6.3v-24h0Z"/>
      <path class="cls-3" d="M1025.2,151.7l-.5-4.5h-.1c-2,2.8-5.6,5.3-10.6,5.3s-10.6-5-10.6-10c0-8.5,7.5-13.1,21-13v-.8c0-2.9-.8-8.1-8-8-3.3,0-6.7.9-9.1,2.6l-1.4-4.2c2.9-1.8,7.1-3,11.6-3,10.6,0,13.3,7.4,13.3,14.3v13.1c0,3,.1,5.9.5,8.4h-5.8v-.3ZM1024.3,133.9c-6.8-.1-14.7,1.1-14.7,7.9s2.8,6,5.9,6c4.6,0,7.5-2.9,8.5-5.9.3-.7.3-1.4.3-2v-6Z"/>
      <path class="cls-3" d="M1040.7,126.2c0-3.7,0-6.6-.3-9.5h5.6l.4,5.8h.1c1.7-3.3,5.8-6.6,11.6-6.6s12.3,2.9,12.3,15v20.9h-6.3v-20.2c0-5.6-2.1-10.4-8.1-10.4s-7.5,3-8.5,6.6c-.3.8-.4,2-.4,2.9v21h-6.3v-25.5h-.1Z"/>
      <path class="cls-3" d="M1105.9,150.5c-1.7.8-5.4,2-10,2-10.5,0-17.5-7.2-17.5-17.9s7.4-18.7,18.8-18.7,7.1.9,8.8,1.8l-1.4,4.9c-1.6-.8-3.9-1.7-7.5-1.7-8,0-12.3,6-12.3,13.3s5.3,13.1,12.2,13.1,6-.9,7.8-1.7l1.1,4.7h.1Z"/>
      <path class="cls-3" d="M1116.5,135.4c0,8.5,5.6,12.1,12,12.1s7.4-.8,9.7-1.8l1.1,4.5c-2.2,1.1-6.2,2.2-11.7,2.2-10.8,0-17.2-7.2-17.2-17.6s6.3-18.9,16.4-18.9,14.5,10,14.5,16.4,0,2.2-.3,3h-24.6.1ZM1135.2,130.8c0-3.9-1.7-10.2-8.8-10.2s-9.2,5.9-9.7,10.2h18.5Z"/>
      <path class="cls-3" d="M1164.7,103.6c2.8-.7,7.1-1.1,11.6-1.1s10.4,1.1,13.4,3.5c2.5,2,4.1,4.9,4.1,8.7s-3.2,8.8-8.3,10.6h0c4.6,1.3,10.1,5.1,10.1,12.5s-1.7,7.4-4.2,9.7c-3.3,3.2-8.8,4.6-16.8,4.6s-7.6-.3-9.7-.5v-48h-.1ZM1171,123.6h5.8c6.6,0,10.5-3.5,10.5-8.3s-4.3-7.9-10.6-7.9-4.6.3-5.6.4v15.8ZM1171,147c1.3.3,3,.3,5.3.3,6.6,0,12.6-2.4,12.6-9.5s-5.8-9.5-12.6-9.5h-5.3v18.5h0Z"/>
      <path class="cls-3" d="M1203.9,127.7c0-4.1,0-7.6-.3-10.9h5.5l.3,6.8h.3c1.6-4.7,5.5-7.6,9.7-7.6s1.2,0,1.7.1v6c-.7-.1-1.3-.1-2.1-.1-4.5,0-7.6,3.4-8.5,8.1-.1.9-.3,2-.3,3v18.7h-6.3v-24h0Z"/>
      <path class="cls-3" d="M1258.5,134c0,13-8.9,18.7-17.3,18.7s-16.8-7-16.8-18,7.8-18.5,17.3-18.5,16.8,7.4,16.8,18h0ZM1230.8,134.4c0,7.6,4.3,13.4,10.6,13.4s10.6-5.6,10.6-13.7-3-13.4-10.5-13.4-10.8,7-10.8,13.7Z"/>
      <path class="cls-3" d="M1272.8,132.8h.1c.8-1.2,2.1-2.8,3-3.9l10.4-12.1h7.6l-13.5,14.5,15.4,20.6h-7.8l-12.1-16.8-3.3,3.7v13.1h-6.3v-51.4h6.3v32.5h.1Z"/>
      <path class="cls-3" d="M1304.1,135.4c0,8.5,5.6,12.1,12,12.1s7.4-.8,9.7-1.8l1.1,4.5c-2.2,1.1-6.2,2.2-11.7,2.2-10.8,0-17.2-7.2-17.2-17.6s6.3-18.9,16.4-18.9,14.5,10,14.5,16.4,0,2.2-.3,3h-24.6.1ZM1322.8,130.8c0-3.9-1.7-10.2-8.8-10.2s-9.2,5.9-9.7,10.2h18.5Z"/>
      <path class="cls-3" d="M1336.8,127.7c0-4.1,0-7.6-.3-10.9h5.5l.3,6.8h.3c1.6-4.7,5.5-7.6,9.7-7.6s1.2,0,1.7.1v6c-.7-.1-1.3-.1-2.1-.1-4.5,0-7.6,3.4-8.5,8.1-.1.9-.3,2-.3,3v18.7h-6.3v-24h0Z"/>
      <path class="cls-3" d="M1379.7,151.7l-.5-4.5h-.1c-2,2.8-5.6,5.3-10.6,5.3s-10.6-5-10.6-10c0-8.5,7.5-13.1,21-13v-.8c0-2.9-.8-8.1-8-8-3.3,0-6.7.9-9.1,2.6l-1.4-4.2c2.9-1.8,7.1-3,11.6-3,10.6,0,13.3,7.4,13.3,14.3v13.1c0,3,.1,5.9.5,8.4h-5.8v-.3ZM1378.6,133.9c-6.8-.1-14.7,1.1-14.7,7.9s2.8,6,5.9,6c4.6,0,7.5-2.9,8.5-5.9.3-.7.3-1.4.3-2v-6Z"/>
      <path class="cls-3" d="M1425.2,116.8c-.1,2.5-.3,5.3-.3,9.6v20.4c0,8.1-1.7,13-5,16-3.4,3.2-8.3,4.2-12.7,4.2s-8.8-1.1-11.7-2.9l1.6-4.9c2.4,1.4,5.9,2.8,10.2,2.8,6.4,0,11.3-3.4,11.3-12.2v-3.9h-.1c-2,3.3-5.8,5.9-11.2,5.9-8.7,0-15-7.4-15-17.1s7.8-18.5,15.8-18.5,9.3,3.2,10.9,6h.1l.3-5.3h5.8ZM1418.7,130.6c0-1.1,0-2-.4-2.9-1.2-3.7-4.2-6.8-8.9-6.8s-10.4,5.1-10.4,13.3,3.5,12.6,10.4,12.6,7.5-2.5,8.8-6.6c.4-1.1.5-2.2.5-3.4v-6.3h0Z"/>
      <path class="cls-3" d="M1439.2,135.4c0,8.5,5.5,12.1,12,12.1s7.4-.8,9.7-1.8l1.2,4.5c-2.2,1.1-6.2,2.2-11.7,2.2-10.8,0-17.2-7.2-17.2-17.6s6.3-18.9,16.4-18.9,14.5,10,14.5,16.4,0,2.2-.3,3h-24.6ZM1457.7,130.8c0-3.9-1.6-10.2-8.8-10.2s-9.2,5.9-9.7,10.2h18.5Z"/>
      <path class="cls-3" d="M1521.4,150.2c-2.2,1.2-7,2.4-12.9,2.4-13.8,0-24-8.7-24-24.7s10.4-25.6,25.5-25.6,9.9,1.3,11.6,2.1l-1.6,5.1c-2.4-1.2-5.8-2-9.9-2-11.4,0-19.1,7.4-19.1,20.1s6.8,19.6,18.7,19.6,7.8-.8,10.4-2l1.3,5h0Z"/>
      <path class="cls-3" d="M1560,134c0,13-8.9,18.7-17.3,18.7s-16.8-7-16.8-18,7.8-18.5,17.3-18.5,16.8,7.4,16.8,18h0ZM1532.3,134.4c0,7.6,4.3,13.4,10.6,13.4s10.6-5.6,10.6-13.7-3-13.4-10.5-13.4-10.8,7-10.8,13.7Z"/>
      <path class="cls-3" d="M1568.2,126.2c0-3.7,0-6.6-.3-9.5h5.5l.4,5.6h.1c2-3.3,5.3-6.4,11-6.4s8.4,2.9,9.9,7h.1c1.2-2,2.5-3.5,3.9-4.6,2.1-1.6,4.5-2.5,7.8-2.5,4.7,0,11.6,3,11.6,15.2v20.6h-6.2v-19.8c0-6.8-2.5-10.8-7.6-10.8s-6.4,2.6-7.6,5.8c-.3.9-.5,2.1-.5,3.2v21.7h-6.2v-21c0-5.5-2.5-9.6-7.2-9.6s-6.8,3.2-7.9,6.3c-.3.9-.5,2.1-.5,3.2v21.2h-6.2v-25.5h-.1Z"/>
      <path class="cls-3" d="M1625.7,128.2c0-4.5,0-8.1-.3-11.4h5.6l.4,5.9h.1c2.5-4.2,6.7-6.7,12.5-6.7,8.5,0,14.8,7.1,14.8,17.7s-7.8,18.8-15.9,18.8-8.7-2-10.8-5.5h-.1v19.1h-6.3v-38h-.1ZM1632,137.5c0,.9,0,1.8.3,2.6,1.2,4.5,5,7.5,9.5,7.5,6.7,0,10.6-5.5,10.6-13.5s-3.7-13-10.4-13-8.4,3-9.6,7.9c-.3.8-.4,1.7-.4,2.6v6h0Z"/>
      <path class="cls-3" d="M1687.2,151.7l-.5-4.5h-.1c-2,2.8-5.6,5.3-10.6,5.3s-10.6-5-10.6-10c0-8.5,7.5-13.1,21-13v-.8c0-2.9-.8-8.1-8-8-3.3,0-6.7.9-9.1,2.6l-1.4-4.2c2.9-1.8,7.1-3,11.6-3,10.6,0,13.3,7.4,13.3,14.3v13.1c0,3,.1,5.9.5,8.4h-5.8v-.3ZM1686.2,133.9c-6.8-.1-14.7,1.1-14.7,7.9s2.8,6,5.9,6c4.6,0,7.5-2.9,8.5-5.9.3-.7.3-1.4.3-2v-6Z"/>
      <path class="cls-3" d="M1702.7,126.2c0-3.7,0-6.6-.3-9.5h5.6l.4,5.8h.1c1.7-3.3,5.8-6.6,11.6-6.6s12.3,2.9,12.3,15v20.9h-6.3v-20.2c0-5.6-2.1-10.4-8.1-10.4s-7.5,3-8.5,6.6c-.3.8-.4,2-.4,2.9v21h-6.3v-25.5h-.1Z"/>
      <path class="cls-3" d="M1744.2,116.8l7.6,20.6c.8,2.4,1.7,5,2.2,7.1h.1c.7-2.1,1.4-4.7,2.2-7.2l7-20.5h6.7l-9.6,25c-4.6,12.1-7.6,18.1-12,21.9-3.2,2.8-6.3,3.8-7.8,4.1l-1.6-5.3c1.6-.5,3.7-1.4,5.5-3.2,1.7-1.4,3.8-3.8,5.3-7.1.3-.7.5-1.2.5-1.6s0-.9-.4-1.6l-12.9-32.3h7Z"/>
    </g>
    <g class="cls-5">
      <path class="cls-2" d="M221-84.7H10.8c-19.1,0-34.6,15.5-34.6,34.5v210.3c0,19.1,15.5,34.6,34.6,34.6h210.3c19,0,34.5-15.5,34.5-34.6V-50.2c0-19-15.5-34.5-34.5-34.5h0ZM112.9,171.3c-.1,0-44-14.6-72.2-35.3C-2.6,104.2,13.8,62.3,31.5,20.9c5.6-13.1-.4-24.9-7.6-33.4l11.3-14.6c1.6,1.4,3.1,3,4.9,4.7,12.7,16.1,15.9,34.1,8.7,50.6-8.8,20.4-16.1,38.7-16.8,54.7-.1,3.4,0,6.7.5,9.6.1,1.2.4,2.2.7,3.3,0,0,0,0,.1-.1,3.5-5.1,6-9.2,6.4-9.8,9.2-14.6,21.9-22,21.9-22,4.3-2.6,14.9-8.9,28.2-7.2,6.9.9,12.1,3.7,16,5.9,16.1,8.9,18.7,19.9,26.2,19,6.7-.8,10.4-10.5,10.5-11.1.9-2.4,3-10-6.8-28.8-2.8-5.1-14.2-26-42.9-49.4-.5-.4-1-.8-1.4-1.2-10.9-8.7-26.5-19.9-47.5-31.1h0c-4.6-2.5-9.6-5-14.8-7.5h0c.4-1.3,3.3-5.5,9.3-14,17,6,31.9,9.2,42.7,10.7,11.8,1.7,21.4,2.2,26.3,2.4,5.8.3,15.3.7,27.8-.3,4.5-.4,11.9-.8,21.2-2.5,9-1.7,21.4-4.6,35.7-10.5,3.1,4.7,6.3,9.6,9.6,14.3-.5.4-.9.5-1.3.9-2.1,1.4-7.3,4.3-16.8,7.1-9.4,2.8-23.2,5.6-42.7,7.1-7.7.5-16.3.9-25.8.9s-14.2-.3-20.4-.5c3,2.2,6.3,4.6,9.6,7.3,8.9,7.1,27.7,22.2,42.5,44.7,6,9.2,31.7,49.8,17,73.8-1,2-8.1,13.4-20.6,15.6-6.2,1-11.4-.4-13.5-1-6.3-2-8.4-4.6-19.8-13.2-8.9-6.7-13.5-10-16.8-10.6-10.7-1.8-20.3,5.2-22.5,6.9-8.7,6.4-21.8,22.5-22.5,23.3h-.3c-.3.4-.5.7-1,1.2-.1.3-.4.4-.5.5,1.7,1.4,3.4,2.9,5.2,4.5,19.7,14.4,48.8,26,61.1,30.5v19.7l.5.3Z"/>
      <g>
        <path class="cls-1" d="M28.9-47.8h0s0,0-.1,0h.1Z"/>
        <path class="cls-1" d="M201.8-47.3c-.5.4-.9.5-1.3.9-2.1,1.4-7.3,4.3-16.8,7.1-9.4,2.8-23.2,5.6-42.7,7.1-7.7.5-16.3.9-25.8.9s-14.2-.3-20.4-.5c3,2.2,6.3,4.6,9.6,7.3,8.9,7.1,27.7,22.2,42.5,44.7,6,9.2,31.7,49.8,17,73.8-1,2-8.1,13.4-20.6,15.6-6.2,1-11.4-.4-13.5-1-6.3-2-8.4-4.6-19.8-13.2-8.9-6.7-13.5-10-16.8-10.6-10.7-1.8-20.3,5.2-22.5,6.9-8.7,6.4-21.8,22.5-22.5,23.3h-.3c-.3.4-.5.7-1,1.2-.1.3-.4.4-.5.5,1.7,1.4,3.4,2.9,5.2,4.5,19.7,14.4,48.8,26,61.1,30.5v19.7c-.1,0-44-14.6-72.2-35.3C-3,104.2,13.4,62.3,31.1,20.9c5.6-13.1-.4-24.9-7.6-33.4l11.3-14.6c1.6,1.4,3.1,3,4.9,4.7,12.7,16.1,15.9,34.1,8.7,50.6-8.8,20.4-16.1,38.7-16.8,54.7-.1,3.4,0,6.7.5,9.6.1,1.2.4,2.2.7,3.3,0,0,0,0,.1-.1,3.5-5.1,6-9.2,6.4-9.8,9.2-14.6,21.9-22,21.9-22,4.3-2.6,14.9-8.9,28.2-7.2,6.9.9,12.1,3.7,16,5.9,16.1,8.9,18.7,19.9,26.2,19,6.7-.8,10.4-10.5,10.5-11.1.9-2.4,3-10-6.8-28.8-2.8-5.1-14.2-26-42.9-49.4-.5-.4-1-.8-1.4-1.2-10.9-8.7-26.5-19.9-47.5-31.1h0c-4.6-2.5-9.6-5-14.8-7.5h0c.4-1.3,3.3-5.5,9.3-14,17,6,31.9,9.2,42.7,10.7,11.8,1.7,21.4,2.2,26.3,2.4,5.8.3,15.3.7,27.8-.3,4.5-.4,11.9-.8,21.2-2.5,9-1.7,21.4-4.6,35.7-10.5,3.1,4.7,6.3,9.6,9.6,14.3l.5.3Z"/>
        <path class="cls-1" d="M43.8-40.2c-7.5-2.5-11.5-4.9-13.6-6.2-.4-.3-.9-.5-1.3-.9h0v-.4h0c5.2,2.5,10.1,5,14.8,7.5h.1Z"/>
        <circle class="cls-1" cx="80.6" cy="112.7" r="11.1"/>
        <circle class="cls-1" cx="101" cy="121.8" r="11.1"/>
        <g>
          <path class="cls-1" d="M18.8-40.1l-9.6,14.4s5,3.1,10.5,8.5l10.7-14.3c-4.2-3.7-8.3-6.4-11.5-8.7h-.1Z"/>
          <path class="cls-1" d="M203.1-6.1c.1-.3.3-.5.5-.8.5-.8,1-1.6,1.6-2.2.5-.8,1-1.4,1.6-2.1q.3-.4,0,0c.3-.4.5-.7.8-1h0c1.4-1.7,2.9-3.1,4.3-4.6h0c.3-.3.5-.5.9-.8h0c.1-.1.4-.4.5-.5.1-.1.4-.4.5-.5.1-.1.4-.4.5-.5,4.5-3.9,8-6.2,8-6.2h0l-9.6-14.4h0c-.1,0-.4.3-.5.4-.1,0-.4.3-.5.4h0c-.3.1-.5.4-.9.5h0c-.1,0-.4.3-.5.4,0,0-.1.1-.3.3-.4.3-.8.5-1.2.8-1.2.8-2.4,1.7-3.5,2.6-.1.1-.4.3-.5.4-3.5,2.8-7.3,6-11.3,10l-1.8,1.8c-12.7,16.1-15.9,34.1-8.7,50.6.5,1.3,1,2.5,1.6,3.8.4.9.8,1.8,1.2,2.8.5,1.3,1,2.5,1.6,3.7.4.9.8,1.8,1.2,2.8.8,1.8,1.4,3.7,2.1,5.4,5.1,13.1,8.7,25.2,9.2,36.2.5,12.6-3.3,22.7-12.2,31.6-2.2,2.2-4.9,4.5-7.7,6.6-19.8,14.6-48.8,26-61.1,30.5h0v19.8s43.9-14.6,72.1-35.3c3.7-2.8,6.9-5.5,9.7-8.3,9-9,14.2-18.6,16.4-28.8h0c3.4-15.3.4-31.7-5.2-48.5-.3-.7-.4-1.3-.7-2.1-.5-1.4-1-2.9-1.6-4.3-.1-.5-.4-1-.5-1.4-.5-1.4-1-2.9-1.7-4.3-.3-.7-.5-1.3-.8-2.1-.7-1.7-1.4-3.4-2.1-5.1-.3-.7-.5-1.3-.9-2.1-.5-1.3-1.2-2.8-1.7-4.1-.3-.7-.5-1.3-.9-2.1-.3-.7-.5-1.3-.9-2.1-2.9-6.8-2.8-13.4-.8-19.3.9-2.8,2.2-5.4,3.8-7.9v.3Z"/>
        </g>
      </g>
    </g>
  </g>
  <g>
    <path class="cls-2" d="M1233.6,53h-366.6c-33.4,0-60.3,26.9-60.3,60.1v366.6c0,33.4,26.9,60.3,60.3,60.3h366.6c33.3,0,60.1-26.9,60.1-60.3V113.2c0-33.3-26.9-60.1-60.1-60.1h0ZM1045,499.6c-.2,0-76.8-25.3-125.8-61.4-75.4-55.5-47-128.8-15.9-201,9.9-22.8-.7-43.5-13.3-58.2l19.6-25.4c2.7,2.6,5.5,5.3,8.4,8.3,22.1,28.2,27.6,59.4,15.2,88.3-15.3,35.5-28.2,67.3-29.3,95.4-.2,5.9,0,11.6.9,16.8.2,2,.7,3.9,1.1,5.8,0,0,.2-.2.2-.2,6.2-9,10.6-15.9,11.2-17,16-25.3,38.2-38.5,38.2-38.5,7.6-4.4,26-15.4,49.2-12.6,12.1,1.6,21,6.4,27.9,10.2,28,15.4,32.7,34.6,45.6,33,11.7-1.5,18.1-18.4,18.4-19.5,1.6-4.2,5.3-17.4-12-50.3-4.8-9-24.7-45.2-74.7-86.3-1-.7-1.8-1.5-2.5-2-19-15.2-46.1-34.9-82.7-54.2h-.1c-8.1-4.3-16.6-8.6-25.8-13.1h0c.7-2.3,5.7-9.5,16.3-24.4,29.8,10.6,55.5,15.9,74.6,18.7,20.7,3.1,37.2,3.9,46,4.2,10.1.5,26.7,1.1,48.4-.5,7.6-.6,20.8-1.5,37.1-4.3,15.8-2.8,37.2-8.1,62.2-18.2,5.5,8.3,11,16.6,16.6,25-.9.6-1.6,1-2.3,1.6-3.7,2.6-12.7,7.5-29.2,12.4-16.5,4.9-40.4,9.9-74.4,12.3-13.4,1-28.3,1.6-45,1.6s-24.7-.5-35.7-1c5.3,3.9,11,8.1,16.8,12.7,15.4,12.3,48.3,38.7,74.1,78,10.6,15.9,55.3,86.9,29.8,128.6-1.8,3.3-14.2,23.3-36,27.4-10.7,1.8-20-.7-23.5-1.7-11-3.3-14.8-8.1-34.5-22.9-15.7-11.7-23.5-17.5-29.2-18.5-18.6-3.2-35.5,9.2-39.3,12.1-15,11.1-37.8,39.3-39.3,40.8,0,0-.1.1-.5.2-.5.5-1,1-1.8,1.7-.2.5-.6.7-1,.9,2.8,2.6,5.9,5.1,9.2,7.6,34.4,25.1,85.2,45.2,106.6,53.1v34.4h.5Z"/>
    <g>
      <path class="cls-1" d="M898.7,117.5c.1,0,.1.1.1.1h.1c0,0-.2-.1-.2-.1h0Z"/>
      <path class="cls-1" d="M1200.3,118.2c-.9.6-1.6,1-2.3,1.6-3.7,2.6-12.7,7.5-29.2,12.4-16.5,4.9-40.4,9.9-74.4,12.3-13.4,1-28.3,1.6-45,1.6s-24.7-.5-35.7-1c5.3,3.9,11,8.1,16.8,12.7,15.4,12.3,48.3,38.7,74.1,78,10.6,15.9,55.3,86.9,29.8,128.6-1.8,3.3-14.2,23.3-36,27.4-10.7,1.8-20-.7-23.5-1.7-11-3.3-14.8-8.1-34.5-22.9-15.7-11.7-23.5-17.5-29.2-18.5-18.6-3.2-35.5,9.2-39.3,12.1-15,11.1-37.8,39.3-39.3,40.8,0,0-.1.1-.5.2-.5.5-1,1-1.8,1.7-.2.5-.6.7-1,.9,2.8,2.6,5.9,5.1,9.2,7.6,34.4,25.1,85.2,45.2,106.6,53.1v34.4c-.2,0-76.8-25.3-125.8-61.4-75.4-55.5-47-128.8-15.9-201,9.9-22.8-.7-43.5-13.3-58.2l19.6-25.4c2.7,2.6,5.5,5.3,8.4,8.3,22.1,28.2,27.6,59.4,15.2,88.3-15.3,35.5-28.2,67.3-29.3,95.4-.2,5.9,0,11.6.9,16.8.2,2,.7,3.9,1.1,5.8l.2-.2c6.2-9,10.6-15.9,11.2-17,16-25.3,38.2-38.5,38.2-38.5,7.6-4.4,26-15.4,49.2-12.6,12.1,1.6,21,6.4,27.9,10.2,28,15.4,32.7,34.6,45.6,33,11.7-1.5,18.1-18.4,18.4-19.5,1.6-4.2,5.3-17.4-12-50.3-4.8-9-24.7-45.2-74.7-86.3-1-.7-1.8-1.5-2.5-2-19-15.2-46.1-34.9-82.7-54.2h-.1c-8.1-4.3-16.6-8.6-25.8-13.1h0c.7-2.3,5.7-9.5,16.3-24.4,29.8,10.6,55.5,15.9,74.6,18.7,20.7,3.1,37.2,3.9,46,4.2,10.1.5,26.7,1.1,48.4-.5,7.6-.6,20.8-1.5,37.1-4.3,15.8-2.8,37.2-8.1,62.2-18.2,5.5,8.3,11,16.6,16.6,25h.5Z"/>
      <path class="cls-1" d="M924.7,130.7c-13.1-4.3-20.2-8.5-23.7-10.8-.7-.5-1.6-1-2.3-1.6h0c0-.2,0-.4.1-.6h.1c9.1,4.3,17.6,8.6,25.8,13.1h0Z"/>
      <circle class="cls-1" cx="988.9" cy="397.4" r="19.4"/>
      <circle class="cls-1" cx="1024.4" cy="413.3" r="19.4"/>
      <g>
        <path class="cls-1" d="M881,130.9l-16.6,25.1s8.6,5.5,18.2,14.9l18.6-25c-7.4-6.4-14.3-11.2-20.2-15h0Z"/>
        <path class="cls-1" d="M1202.5,190.1c.2-.5.6-.9.9-1.4.9-1.4,1.7-2.6,2.7-3.9,1-1.2,1.8-2.5,2.8-3.7q.7-.8,0,0c.5-.6,1-1.2,1.5-1.7h0c2.5-3,5.1-5.5,7.5-8h0l1.5-1.5h0c.4-.4.6-.6,1-.9s.6-.6,1-.9.6-.6,1-.9c7.8-6.9,14.1-10.8,14.1-10.8h0l-16.8-25.1h0c-.4.2-.6.4-1,.6s-.6.4-1,.6h0c-.5.4-1,.6-1.5,1h0c-.4.2-.6.5-1,.7-.1,0-.4.2-.5.4-.6.5-1.4.9-2,1.4-2,1.4-4.1,3-6.2,4.6-.4.2-.6.5-1,.7-6.2,4.8-12.8,10.6-19.7,17.4-1.1,1.1-2.1,2.2-3.2,3.3-22.2,28.2-27.6,59.4-15.2,88.3,1,2.2,1.8,4.4,2.8,6.7.7,1.6,1.4,3.3,2.1,4.9.9,2.2,1.8,4.3,2.7,6.5.6,1.6,1.4,3.2,2,4.8,1.2,3.2,2.6,6.3,3.7,9.5,8.9,22.8,15.2,43.9,16,63.2,1,21.9-5.7,39.4-21.2,55.1-3.9,3.9-8.4,7.6-13.4,11.3-34.4,25.3-85,45.4-106.5,53.1h0v34.5s76.7-25.3,125.8-61.5c6.4-4.7,12.1-9.5,17-14.4,15.8-15.7,24.7-32.5,28.5-50.2h0c5.9-26.7.6-55.3-9.1-84.6-.4-1.2-.7-2.3-1.2-3.6-.9-2.6-1.7-5.1-2.7-7.6-.4-.9-.6-1.7-1-2.6-1-2.6-2-5.1-3-7.6-.5-1.2-1-2.3-1.4-3.6-1.2-3-2.5-5.9-3.7-9-.5-1.2-1-2.3-1.5-3.6-1-2.3-2-4.8-3.1-7.1-.5-1.2-1-2.3-1.5-3.6s-1-2.3-1.5-3.6c-5.2-12-4.7-23.3-1.4-33.5,1.6-4.8,3.9-9.5,6.5-13.8h-.1Z"/>
      </g>
    </g>
  </g>
</svg>