<svg width="20" height="20" viewBox="0 0 20 20" fill="none" xmlns="http://www.w3.org/2000/svg">
<path fill-rule="evenodd" clip-rule="evenodd" d="M9.16634 15.0007C12.388 15.0007 14.9997 12.389 14.9997 9.16732C14.9997 5.94566 12.388 3.33398 9.16634 3.33398C5.94468 3.33398 3.33301 5.94566 3.33301 9.16732C3.33301 12.389 5.94468 15.0007 9.16634 15.0007ZM9.16634 4.83398C8.59728 4.83398 8.03379 4.94607 7.50805 5.16384C6.9823 5.38161 6.5046 5.7008 6.10221 6.10319C5.69982 6.50558 5.38063 6.98328 5.16286 7.50902C4.94509 8.03477 4.83301 8.59826 4.83301 9.16732C4.83301 9.7196 5.28072 10.1673 5.83301 10.1673C6.38529 10.1673 6.83301 9.7196 6.83301 9.16732C6.83301 8.8609 6.89336 8.55748 7.01062 8.27439C7.12788 7.9913 7.29976 7.73407 7.51643 7.5174C7.7331 7.30073 7.99032 7.12886 8.27341 7.0116C8.55651 6.89434 8.85992 6.83398 9.16634 6.83398C9.71863 6.83398 10.1663 6.38627 10.1663 5.83398C10.1663 5.2817 9.71863 4.83398 9.16634 4.83398Z" fill="white"/>
<path d="M16.6667 16.6667L15 15" stroke="white" stroke-width="2" stroke-linecap="round"/>
</svg>
