<svg width="21" height="21" viewBox="0 0 21 21" fill="none" xmlns="http://www.w3.org/2000/svg">
<path d="M13.9496 2.96719L6.42461 5.46719C1.36628 7.15886 1.36628 9.91719 6.42461 11.6005L8.65794 12.3422L9.39961 14.5755C11.0829 19.6339 13.8496 19.6339 15.5329 14.5755L18.0413 7.05886C19.1579 3.68386 17.3246 1.84219 13.9496 2.96719ZM14.2163 7.45052L11.0496 10.6339C10.9246 10.7589 10.7663 10.8172 10.6079 10.8172C10.4496 10.8172 10.2913 10.7589 10.1663 10.6339C9.92461 10.3922 9.92461 9.99219 10.1663 9.75052L13.3329 6.56719C13.5746 6.32552 13.9746 6.32552 14.2163 6.56719C14.4579 6.80886 14.4579 7.20886 14.2163 7.45052Z" fill="white"/>
</svg>
