<svg width="32" height="32" viewBox="0 0 32 32" fill="none" xmlns="http://www.w3.org/2000/svg">
<g id="solar:download-bold">
<path id="Vector" fill-rule="evenodd" clip-rule="evenodd" d="M16.0005 1.66602C15.7353 1.66602 15.4809 1.77137 15.2934 1.95891C15.1058 2.14645 15.0005 2.4008 15.0005 2.66602V17.2967L12.7605 14.682C12.675 14.5822 12.5708 14.5002 12.4536 14.4407C12.3365 14.3812 12.2088 14.3453 12.0778 14.3352C11.9468 14.325 11.8151 14.3408 11.6902 14.3815C11.5653 14.4223 11.4496 14.4872 11.3498 14.5727C11.25 14.6581 11.168 14.7624 11.1085 14.8795C11.049 14.9967 11.0131 15.1244 11.003 15.2554C10.9928 15.3864 11.0086 15.5181 11.0493 15.643C11.0901 15.7679 11.155 15.8835 11.2405 15.9833L15.2405 20.65C15.3344 20.7598 15.4509 20.8479 15.5821 20.9084C15.7133 20.9688 15.856 21.0001 16.0005 21.0001C16.1449 21.0001 16.2877 20.9688 16.4189 20.9084C16.5501 20.8479 16.6666 20.7598 16.7605 20.65L20.7605 15.9833C20.8459 15.8835 20.9109 15.7679 20.9516 15.643C20.9924 15.5181 21.0081 15.3864 20.998 15.2554C20.9878 15.1244 20.952 14.9967 20.8925 14.8795C20.833 14.7624 20.751 14.6581 20.6512 14.5727C20.5513 14.4872 20.4357 14.4223 20.3108 14.3815C20.1859 14.3408 20.0542 14.325 19.9232 14.3352C19.7922 14.3453 19.6645 14.3812 19.5473 14.4407C19.4302 14.5002 19.3259 14.5822 19.2405 14.682L17.0005 17.2953V2.66602C17.0005 2.4008 16.8951 2.14645 16.7076 1.95891C16.5201 1.77137 16.2657 1.66602 16.0005 1.66602Z" fill="#374151"/>
<path id="Vector_2" d="M19.0003 12V12.504C19.6235 12.2825 20.3024 12.2732 20.9314 12.4776C21.5603 12.682 22.1041 13.0886 22.478 13.6341C22.8519 14.1796 23.035 14.8334 22.9988 15.4938C22.9625 16.1542 22.709 16.784 22.2777 17.2853L18.2777 21.952C17.996 22.2804 17.6467 22.5441 17.2536 22.7248C16.8605 22.9055 16.433 22.9991 16.0003 22.9991C15.5677 22.9991 15.1401 22.9055 14.7471 22.7248C14.354 22.5441 14.0046 22.2804 13.723 21.952L9.72299 17.2853C9.29283 16.7837 9.04032 16.1541 9.00467 15.4943C8.96901 14.8345 9.1522 14.1813 9.5258 13.6363C9.89939 13.0912 10.4425 12.6848 11.0708 12.4801C11.699 12.2753 12.3773 12.2837 13.0003 12.504V12H10.667C6.89633 12 5.00966 12 3.83899 13.172C2.66699 14.3427 2.66699 16.2293 2.66699 20V21.3333C2.66699 25.104 2.66699 26.9907 3.83899 28.1613C5.00966 29.3333 6.89633 29.3333 10.667 29.3333H21.3337C25.1043 29.3333 26.991 29.3333 28.1617 28.1613C29.3337 26.9907 29.3337 25.104 29.3337 21.3333V20C29.3337 16.2293 29.3337 14.3427 28.1617 13.172C26.991 12 25.1043 12 21.3337 12H19.0003Z" fill="#374151"/>
</g>
</svg>
