<svg width="18" height="16" viewBox="0 0 18 16" fill="none" xmlns="http://www.w3.org/2000/svg">
<path d="M10.1534 0.695165L17.8189 13.9717C17.9358 14.1741 17.9973 14.4038 17.9973 14.6376C17.9973 14.8713 17.9358 15.101 17.8189 15.3034C17.702 15.5059 17.5339 15.674 17.3314 15.7909C17.129 15.9078 16.8994 15.9693 16.6656 15.9693H1.33463C1.10087 15.9693 0.871221 15.9078 0.668776 15.7909C0.466331 15.674 0.29822 15.5059 0.18134 15.3034C0.0644597 15.101 0.0029282 14.8713 0.00292969 14.6376C0.00293117 14.4038 0.0644656 14.1741 0.181348 13.9717L7.84682 0.695165C8.3591 -0.192659 9.64023 -0.192659 10.1534 0.695165ZM9.00011 11.2177C8.76464 11.2177 8.53882 11.3112 8.37232 11.4777C8.20582 11.6442 8.11228 11.87 8.11228 12.1055C8.11228 12.341 8.20582 12.5668 8.37232 12.7333C8.53882 12.8998 8.76464 12.9933 9.00011 12.9933C9.23557 12.9933 9.46139 12.8998 9.62789 12.7333C9.79439 12.5668 9.88793 12.341 9.88793 12.1055C9.88793 11.87 9.79439 11.6442 9.62789 11.4777C9.46139 11.3112 9.23557 11.2177 9.00011 11.2177ZM9.00011 5.00289C8.78265 5.00292 8.57276 5.08276 8.41026 5.22726C8.24776 5.37176 8.14394 5.57087 8.1185 5.78684L8.11228 5.89071V9.44201C8.11253 9.6683 8.19918 9.88595 8.35452 10.0505C8.50987 10.215 8.72218 10.3141 8.94808 10.3273C9.17398 10.3406 9.39641 10.2671 9.56994 10.1219C9.74347 9.97661 9.85499 9.77059 9.88172 9.54589L9.88793 9.44201V5.89071C9.88793 5.65525 9.79439 5.42943 9.62789 5.26293C9.46139 5.09643 9.23557 5.00289 9.00011 5.00289Z" fill="#15B097"/>
</svg>
