<svg width="49" height="48" viewBox="0 0 49 48" fill="none" xmlns="http://www.w3.org/2000/svg">
<rect x="0.5" width="48" height="48" rx="24" fill="#F97300"/>
<path d="M36.2091 20.2355C35.9584 20.0015 35.7608 19.7166 35.6295 19.3999C35.4981 19.0832 35.4361 18.742 35.4477 18.3994C35.4697 17.6926 35.3466 16.9889 35.0861 16.3315C34.8257 15.6741 34.4333 15.077 33.9331 14.577C33.4353 14.0752 32.8386 13.6823 32.1809 13.4231C31.5232 13.1639 30.8188 13.044 30.1124 13.0712C29.7698 13.0755 29.4299 13.0096 29.1137 12.8775C28.7976 12.7454 28.5119 12.5499 28.2743 12.3031C27.7919 11.7867 27.2084 11.375 26.5601 11.0935C25.9119 10.812 25.2126 10.6667 24.5058 10.6667C23.799 10.6667 23.0998 10.812 22.4515 11.0935C21.8033 11.375 21.2198 11.7867 20.7374 12.3031C20.499 12.5486 20.2131 12.7428 19.897 12.874C19.581 13.0051 19.2415 13.0703 18.8993 13.0657C18.192 13.0372 17.4866 13.1569 16.8283 13.4172C16.1701 13.6775 15.5736 14.0726 15.0772 14.577C14.5783 15.0776 14.1871 15.6749 13.9279 16.3323C13.6686 16.9897 13.5466 17.6931 13.5695 18.3994C13.5803 18.7424 13.5175 19.0838 13.3852 19.4006C13.2529 19.7173 13.0542 20.002 12.8026 20.2355C12.2864 20.718 11.8749 21.3014 11.5935 21.9494C11.3122 22.5975 11.167 23.2964 11.167 24.0028C11.167 24.7093 11.3122 25.4082 11.5935 26.0563C11.8749 26.7043 12.2864 27.2877 12.8026 27.7701C13.0532 28.0041 13.2509 28.2891 13.3822 28.6058C13.5135 28.9225 13.5755 29.2636 13.564 29.6063C13.5396 30.3125 13.6607 31.0161 13.9199 31.6735C14.179 32.3309 14.5706 32.928 15.0703 33.4276C15.57 33.9273 16.1672 34.319 16.8247 34.5782C17.4822 34.8374 18.186 34.9587 18.8924 34.9345C19.2352 34.9268 19.5758 34.9907 19.8925 35.122C20.2092 35.2533 20.4951 35.4491 20.7319 35.697C21.2143 36.2134 21.7978 36.6252 22.446 36.9067C23.0943 37.1882 23.7935 37.3334 24.5003 37.3334C25.2071 37.3334 25.9064 37.1882 26.5546 36.9067C27.2029 36.6252 27.7864 36.2134 28.2688 35.697C28.505 35.4488 28.7905 35.2527 29.1071 35.1213C29.4237 34.99 29.7642 34.9264 30.1069 34.9345C30.8134 34.9589 31.5173 34.8377 32.175 34.5786C32.8327 34.3195 33.43 33.9279 33.9299 33.4282C34.4298 32.9285 34.8215 32.3313 35.0807 31.6738C35.3399 31.0163 35.4611 30.3126 35.4367 29.6063C35.4251 29.2636 35.4871 28.9225 35.6184 28.6058C35.7498 28.2891 35.9474 28.0041 36.1981 27.7701C36.7142 27.2877 37.1258 26.7043 37.4071 26.0563C37.6885 25.4082 37.8337 24.7093 37.8337 24.0028C37.8337 23.2964 37.6885 22.5975 37.4071 21.9494C37.1258 21.3014 36.7142 20.718 36.1981 20.2355H36.2091ZM21.3487 29.1053C21.089 29.356 20.7412 29.4947 20.3802 29.4916C20.0192 29.4885 19.6739 29.3437 19.4186 29.0885C19.1633 28.8333 19.0185 28.4881 19.0154 28.1272C19.0123 27.7663 19.151 27.4186 19.4018 27.159L27.663 18.9004C27.9226 18.6497 28.2704 18.5109 28.6314 18.5141C28.9924 18.5172 29.3378 18.662 29.5931 18.9172C29.8483 19.1724 29.9931 19.5176 29.9963 19.8785C29.9994 20.2394 29.8606 20.5871 29.6098 20.8467L21.3487 29.1053ZM28.6364 28.8204C28.6364 29.2287 28.5153 29.6279 28.2883 29.9674C28.0614 30.3069 27.7388 30.5716 27.3615 30.7278C26.9841 30.8841 26.5688 30.925 26.1682 30.8453C25.7676 30.7657 25.3996 30.569 25.1107 30.2803C24.8219 29.9915 24.6252 29.6237 24.5455 29.2232C24.4658 28.8226 24.5067 28.4075 24.663 28.0302C24.8194 27.653 25.0841 27.3305 25.4237 27.1037C25.7633 26.8768 26.1626 26.7557 26.5711 26.7557C27.1189 26.7557 27.6442 26.9732 28.0315 27.3604C28.4188 27.7476 28.6364 28.2728 28.6364 28.8204ZM20.3753 19.1853C20.3753 18.777 20.4964 18.3778 20.7233 18.0383C20.9503 17.6987 21.2728 17.4341 21.6502 17.2778C22.0276 17.1216 22.4428 17.0807 22.8435 17.1603C23.2441 17.24 23.6121 17.4366 23.9009 17.7254C24.1898 18.0141 24.3865 18.382 24.4662 18.7825C24.5458 19.183 24.5049 19.5982 24.3486 19.9754C24.1923 20.3527 23.9276 20.6751 23.588 20.902C23.2483 21.1289 22.849 21.25 22.4406 21.25C21.8928 21.25 21.3675 21.0324 20.9802 20.6452C20.5929 20.258 20.3753 19.7329 20.3753 19.1853Z" fill="white"/>
</svg>
