<svg width="49" height="48" viewBox="0 0 49 48" fill="none" xmlns="http://www.w3.org/2000/svg">
<rect x="0.5" width="48" height="48" rx="24" fill="#DDDDDD"/>
<path d="M19.3897 23.7774C19.3897 22.1094 20.4243 20.6174 21.9857 20.0321L28.5043 17.5881C28.9563 17.4187 29.4323 17.3334 29.9083 17.3334C30.3843 17.3334 30.8603 17.4187 31.3123 17.5881L32.5003 18.0334V13.3334C32.5003 11.8627 31.3443 10.6667 29.923 10.6667H20.5003V17.3334C20.5003 18.8041 19.3043 20.0001 17.8337 20.0001H11.167V34.6667C11.167 36.1374 12.323 37.3334 13.7443 37.3334H25.2643C22.7883 34.9347 19.3897 30.4401 19.3897 23.7774Z" fill="#6B7280"/>
<path d="M17.8337 17.3334V10.8401C17.191 11.0241 16.595 11.3521 16.1097 11.8387L12.339 15.6094C11.8523 16.0947 11.5243 16.6907 11.3403 17.3334H17.8337Z" fill="#6B7280"/>
<path d="M36.8937 22.5294L30.375 20.0854C30.0723 19.9721 29.7403 19.9721 29.439 20.0854L22.9203 22.5294C22.4003 22.7241 22.055 23.2227 22.055 23.7787C22.055 32.5641 28.9083 36.9494 29.2003 37.1321C29.4177 37.2654 29.663 37.3334 29.9083 37.3334C30.1537 37.3334 30.399 37.2654 30.615 37.1307C30.907 36.9481 37.759 32.5641 37.759 23.7774C37.759 23.2227 37.415 22.7241 36.8937 22.5294ZM29.9123 34.3507L29.9083 34.3467V22.7561L35.063 24.6894C34.7123 29.9574 31.403 33.1628 29.9123 34.3507Z" fill="#6B7280"/>
</svg>
