<svg width="49" height="48" viewBox="0 0 49 48" fill="none" xmlns="http://www.w3.org/2000/svg">
<rect x="0.5" width="48" height="48" rx="24" fill="#F97300"/>
<path d="M35.166 14.6667H13.8327C13.1254 14.6667 12.4472 14.9477 11.9471 15.4478C11.447 15.9479 11.166 16.6262 11.166 17.3334V30.6667C11.166 31.374 11.447 32.0523 11.9471 32.5524C12.4472 33.0525 13.1254 33.3334 13.8327 33.3334H35.166C35.8733 33.3334 36.5515 33.0525 37.0516 32.5524C37.5517 32.0523 37.8327 31.374 37.8327 30.6667V17.3334C37.8327 16.6262 37.5517 15.9479 37.0516 15.4478C36.5515 14.9477 35.8733 14.6667 35.166 14.6667ZM13.8327 30.6667V22.6667H35.166V30.6667H13.8327Z" fill="white"/>
<path d="M19.166 25.3334H16.4993C16.1457 25.3334 15.8066 25.4739 15.5565 25.7239C15.3065 25.974 15.166 26.3131 15.166 26.6667C15.166 27.0204 15.3065 27.3595 15.5565 27.6096C15.8066 27.8596 16.1457 28.0001 16.4993 28.0001H19.166C19.5196 28.0001 19.8588 27.8596 20.1088 27.6096C20.3589 27.3595 20.4993 27.0204 20.4993 26.6667C20.4993 26.3131 20.3589 25.974 20.1088 25.7239C19.8588 25.4739 19.5196 25.3334 19.166 25.3334Z" fill="white"/>
<path d="M29.8327 25.3334H23.166C22.8124 25.3334 22.4733 25.4739 22.2232 25.7239C21.9732 25.974 21.8327 26.3131 21.8327 26.6667C21.8327 27.0204 21.9732 27.3595 22.2232 27.6096C22.4733 27.8596 22.8124 28.0001 23.166 28.0001H29.8327C30.1863 28.0001 30.5254 27.8596 30.7755 27.6096C31.0255 27.3595 31.166 27.0204 31.166 26.6667C31.166 26.3131 31.0255 25.974 30.7755 25.7239C30.5254 25.4739 30.1863 25.3334 29.8327 25.3334Z" fill="white"/>
</svg>
