<svg width="49" height="48" viewBox="0 0 49 48" fill="none" xmlns="http://www.w3.org/2000/svg">
<rect x="0.5" width="48" height="48" rx="24" fill="#DDDDDD"/>
<path d="M35.167 14.6667H13.8337C13.1264 14.6667 12.4481 14.9477 11.948 15.4478C11.4479 15.9479 11.167 16.6262 11.167 17.3334V30.6667C11.167 31.374 11.4479 32.0523 11.948 32.5524C12.4481 33.0525 13.1264 33.3334 13.8337 33.3334H35.167C35.8742 33.3334 36.5525 33.0525 37.0526 32.5524C37.5527 32.0523 37.8337 31.374 37.8337 30.6667V17.3334C37.8337 16.6262 37.5527 15.9479 37.0526 15.4478C36.5525 14.9477 35.8742 14.6667 35.167 14.6667ZM13.8337 30.6667V22.6667H35.167V30.6667H13.8337Z" fill="#32012F"/>
<path d="M19.167 25.3334H16.5003C16.1467 25.3334 15.8076 25.4739 15.5575 25.7239C15.3075 25.974 15.167 26.3131 15.167 26.6667C15.167 27.0204 15.3075 27.3595 15.5575 27.6096C15.8076 27.8596 16.1467 28.0001 16.5003 28.0001H19.167C19.5206 28.0001 19.8598 27.8596 20.1098 27.6096C20.3598 27.3595 20.5003 27.0204 20.5003 26.6667C20.5003 26.3131 20.3598 25.974 20.1098 25.7239C19.8598 25.4739 19.5206 25.3334 19.167 25.3334Z" fill="#32012F"/>
<path d="M29.8337 25.3334H23.167C22.8134 25.3334 22.4742 25.4739 22.2242 25.7239C21.9741 25.974 21.8337 26.3131 21.8337 26.6667C21.8337 27.0204 21.9741 27.3595 22.2242 27.6096C22.4742 27.8596 22.8134 28.0001 23.167 28.0001H29.8337C30.1873 28.0001 30.5264 27.8596 30.7765 27.6096C31.0265 27.3595 31.167 27.0204 31.167 26.6667C31.167 26.3131 31.0265 25.974 30.7765 25.7239C30.5264 25.4739 30.1873 25.3334 29.8337 25.3334Z" fill="#32012F"/>
</svg>
