<svg width="49" height="48" viewBox="0 0 49 48" fill="none" xmlns="http://www.w3.org/2000/svg">
<rect x="0.5" width="48" height="48" rx="24" fill="#DDDDDD"/>
<path d="M35.167 13.3333H13.8337C13.1264 13.3333 12.4481 13.6142 11.948 14.1143C11.4479 14.6144 11.167 15.2927 11.167 15.9999V31.9999C11.167 32.7072 11.4479 33.3854 11.948 33.8855C12.4481 34.3856 13.1264 34.6666 13.8337 34.6666H35.167C35.8742 34.6666 36.5525 34.3856 37.0526 33.8855C37.5527 33.3854 37.8337 32.7072 37.8337 31.9999V15.9999C37.8337 15.2927 37.5527 14.6144 37.0526 14.1143C36.5525 13.6142 35.8742 13.3333 35.167 13.3333ZM19.8337 17.3333C20.4929 17.3333 21.1374 17.5287 21.6856 17.895C22.2337 18.2613 22.661 18.7819 22.9133 19.391C23.1656 20.0001 23.2316 20.6703 23.1029 21.3169C22.9743 21.9635 22.6569 22.5574 22.1907 23.0236C21.7245 23.4898 21.1306 23.8073 20.484 23.9359C19.8374 24.0645 19.1671 23.9985 18.558 23.7462C17.949 23.4939 17.4284 23.0666 17.0621 22.5185C16.6958 21.9703 16.5003 21.3259 16.5003 20.6666C16.5003 19.7825 16.8515 18.9347 17.4766 18.3096C18.1018 17.6844 18.9496 17.3333 19.8337 17.3333ZM15.1857 30.6946L15.395 29.8612C15.5815 28.8153 16.1268 27.867 16.9368 27.1796C17.7469 26.4921 18.7713 26.1085 19.8337 26.0946C20.8907 26.1092 21.9099 26.4899 22.7176 27.1719C23.5253 27.8539 24.0715 28.795 24.263 29.8346L24.475 30.6639L15.1857 30.6946ZM32.5003 29.3333H28.5003C28.1467 29.3333 27.8076 29.1928 27.5575 28.9427C27.3075 28.6927 27.167 28.3535 27.167 27.9999C27.167 27.6463 27.3075 27.3072 27.5575 27.0571C27.8076 26.8071 28.1467 26.6666 28.5003 26.6666H32.5003C32.8539 26.6666 33.1931 26.8071 33.4431 27.0571C33.6932 27.3072 33.8337 27.6463 33.8337 27.9999C33.8337 28.3535 33.6932 28.6927 33.4431 28.9427C33.1931 29.1928 32.8539 29.3333 32.5003 29.3333ZM32.5003 25.3333H28.5003C28.1467 25.3333 27.8076 25.1928 27.5575 24.9427C27.3075 24.6927 27.167 24.3535 27.167 23.9999C27.167 23.6463 27.3075 23.3072 27.5575 23.0571C27.8076 22.8071 28.1467 22.6666 28.5003 22.6666H32.5003C32.8539 22.6666 33.1931 22.8071 33.4431 23.0571C33.6932 23.3072 33.8337 23.6463 33.8337 23.9999C33.8337 24.3535 33.6932 24.6927 33.4431 24.9427C33.1931 25.1928 32.8539 25.3333 32.5003 25.3333ZM32.5003 21.3333H28.5003C28.1467 21.3333 27.8076 21.1928 27.5575 20.9427C27.3075 20.6927 27.167 20.3535 27.167 19.9999C27.167 19.6463 27.3075 19.3072 27.5575 19.0571C27.8076 18.8071 28.1467 18.6666 28.5003 18.6666H32.5003C32.8539 18.6666 33.1931 18.8071 33.4431 19.0571C33.6932 19.3072 33.8337 19.6463 33.8337 19.9999C33.8337 20.3535 33.6932 20.6927 33.4431 20.9427C33.1931 21.1928 32.8539 21.3333 32.5003 21.3333Z" fill="#6B7280"/>
</svg>
