<svg width="34" height="35" viewBox="0 0 34 35" fill="none" xmlns="http://www.w3.org/2000/svg">
<circle cx="17.0039" cy="17.7305" r="16.5" fill="white" stroke="#0CB0B1"/>
<path d="M22.2352 17.1305H17.5852V12.3305C17.5852 12.1713 17.5239 12.0187 17.4149 11.9062C17.3059 11.7937 17.1581 11.7305 17.0039 11.7305C16.8497 11.7305 16.7019 11.7937 16.5929 11.9062C16.4839 12.0187 16.4227 12.1713 16.4227 12.3305V17.1305H11.7727C11.6185 17.1305 11.4707 17.1937 11.3617 17.3062C11.2526 17.4187 11.1914 17.5713 11.1914 17.7305C11.1914 17.8896 11.2526 18.0422 11.3617 18.1547C11.4707 18.2673 11.6185 18.3305 11.7727 18.3305H16.4227V23.1305C16.4227 23.2896 16.4839 23.4422 16.5929 23.5547C16.7019 23.6673 16.8497 23.7305 17.0039 23.7305C17.1581 23.7305 17.3059 23.6673 17.4149 23.5547C17.5239 23.4422 17.5852 23.2896 17.5852 23.1305V18.3305H22.2352C22.3893 18.3305 22.5372 18.2673 22.6462 18.1547C22.7552 18.0422 22.8164 17.8896 22.8164 17.7305C22.8164 17.5713 22.7552 17.4187 22.6462 17.3062C22.5372 17.1937 22.3893 17.1305 22.2352 17.1305Z" fill="#0CB0B1"/>
</svg>
