<svg width="20" height="20" viewBox="0 0 31 23" fill="none" xmlns="http://www.w3.org/2000/svg">
<path id="Vector" d="M17.4868 0.960789L30.6926 20.1176C30.894 20.4097 31 20.7411 31 21.0784C31 21.4157 30.894 21.7471 30.6926 22.0392C30.4913 22.3313 30.2017 22.5739 29.8529 22.7425C29.5041 22.9112 29.1085 23 28.7058 23H2.29421C1.89148 23 1.49586 22.9112 1.14709 22.7425C0.79833 22.5739 0.508716 22.3313 0.307359 22.0392C0.106002 21.7471 -2.55772e-06 21.4157 0 21.0784C2.55781e-06 20.7411 0.106012 20.4097 0.307373 20.1176L13.5132 0.960789C14.3957 -0.320263 16.6028 -0.320263 17.4868 0.960789ZM15.5 16.1438C15.0943 16.1438 14.7053 16.2788 14.4185 16.519C14.1316 16.7593 13.9705 17.0851 13.9705 17.4249C13.9705 17.7646 14.1316 18.0905 14.4185 18.3307C14.7053 18.5709 15.0943 18.7059 15.5 18.7059C15.9057 18.7059 16.2947 18.5709 16.5815 18.3307C16.8684 18.0905 17.0295 17.7646 17.0295 17.4249C17.0295 17.0851 16.8684 16.7593 16.5815 16.519C16.2947 16.2788 15.9057 16.1438 15.5 16.1438ZM15.5 7.17645C15.1254 7.17649 14.7638 7.29169 14.4838 7.50019C14.2039 7.7087 14.025 7.996 13.9812 8.30762L13.9705 8.4575V13.5817C13.9709 13.9082 14.1202 14.2223 14.3878 14.4597C14.6554 14.6971 15.0212 14.84 15.4104 14.8591C15.7995 14.8783 16.1827 14.7722 16.4817 14.5627C16.7806 14.3531 16.9728 14.0558 17.0188 13.7316L17.0295 13.5817V8.4575C17.0295 8.11775 16.8684 7.79191 16.5815 7.55166C16.2947 7.31142 15.9057 7.17645 15.5 7.17645Z" fill="#C81E1E"/>
</svg>
