<svg width="26" height="21" viewBox="0 0 26 21" fill="none" xmlns="http://www.w3.org/2000/svg">
<path d="M24.6999 9.15529H4.43638L11.37 2.22165C11.6143 1.978 11.7517 1.6473 11.7521 1.30231C11.7525 0.957325 11.6158 0.626305 11.3722 0.382074C11.1285 0.137843 10.7978 0.00040725 10.4528 9.03613e-07C10.1079 -0.000405443 9.77684 0.136251 9.53261 0.379907L0.380206 9.53231C0.136748 9.77607 0 10.1065 0 10.451C0 10.7955 0.136748 11.126 0.380206 11.3697L9.53261 20.5308C9.65163 20.6585 9.79516 20.761 9.95463 20.832C10.1141 20.9031 10.2863 20.9413 10.4608 20.9444C10.6354 20.9475 10.8088 20.9153 10.9706 20.85C11.1325 20.7846 11.2796 20.6872 11.403 20.5638C11.5265 20.4403 11.6238 20.2933 11.6892 20.1314C11.7546 19.9695 11.7867 19.7961 11.7836 19.6216C11.7805 19.447 11.7423 19.2749 11.6713 19.1154C11.6002 18.9559 11.4978 18.8124 11.37 18.6934L4.43638 11.7597H24.6999C25.0447 11.7597 25.3754 11.6228 25.6192 11.379C25.863 11.1352 26 10.8045 26 10.4597C26 10.1149 25.863 9.78421 25.6192 9.54041C25.3754 9.2966 25.0447 9.15963 24.6999 9.15963V9.15529Z" fill="white"/>
</svg>
