<svg width="40" height="15" viewBox="0 0 40 15" fill="none" xmlns="http://www.w3.org/2000/svg">
<g id="arrow back-2 1" clip-path="url(#clip0_104_6296)">
<g id="Layer 2">
<g id="Layer 1">
<path id="arrow back-2" d="M0.778668 8.29976L7.46667 14.4266C7.64676 14.5803 7.88495 14.664 8.13106 14.66C8.37718 14.656 8.612 14.5647 8.78605 14.4053C8.96011 14.2458 9.05981 14.0307 9.06416 13.8052C9.0685 13.5798 8.97714 13.3616 8.80933 13.1966L3.74267 8.55505L38.55 8.55505C38.802 8.55505 39.0436 8.46336 39.2218 8.30015C39.3999 8.13694 39.5 7.91558 39.5 7.68477C39.5 7.45395 39.3999 7.23259 39.2218 7.06938C39.0436 6.90617 38.802 6.81448 38.55 6.81448L3.74267 6.81448L8.80933 2.17295C8.98724 2.00977 9.08717 1.78858 9.08717 1.55795C9.08717 1.32732 8.98724 1.10613 8.80934 0.942948C8.63121 0.779971 8.38975 0.688429 8.138 0.688429C7.88625 0.688429 7.64479 0.779971 7.46667 0.942947L0.778668 7.06686C0.690102 7.14771 0.619832 7.24378 0.571885 7.34957C0.523938 7.45535 0.499253 7.56877 0.499253 7.68331C0.499253 7.79785 0.523938 7.91127 0.571885 8.01705C0.619832 8.12284 0.690102 8.21891 0.778668 8.29976Z" fill="white"/>
</g>
</g>
</g>
<defs>
<clipPath id="clip0_104_6296">
<rect width="39" height="14" fill="white" transform="translate(39.5 14.6819) rotate(-180)"/>
</clipPath>
</defs>
</svg>
