<svg width="103" height="8" viewBox="0 0 103 8" fill="none" xmlns="http://www.w3.org/2000/svg">
<path id="Arrow 1" d="M0.646446 3.64645C0.451187 3.84171 0.451187 4.15829 0.646446 4.35355L3.82843 7.53553C4.02369 7.7308 4.34027 7.7308 4.53554 7.53553C4.7308 7.34027 4.7308 7.02369 4.53554 6.82843L1.70711 4L4.53554 1.17157C4.7308 0.976311 4.7308 0.659728 4.53554 0.464466C4.34027 0.269204 4.02369 0.269204 3.82843 0.464466L0.646446 3.64645ZM103 3.5H102.019V4.5H103V3.5ZM100.058 3.5H98.0962V4.5L100.058 4.5V3.5ZM96.1346 3.5H94.1731V4.5H96.1346V3.5ZM92.2115 3.5L90.25 3.5V4.5H92.2115V3.5ZM88.2885 3.5L86.3269 3.5V4.5H88.2885V3.5ZM84.3654 3.5L82.4038 3.5V4.5H84.3654V3.5ZM80.4423 3.5L78.4808 3.5V4.5H80.4423V3.5ZM76.5192 3.5L74.5577 3.5V4.5H76.5192V3.5ZM72.5962 3.5L70.6346 3.5V4.5H72.5962V3.5ZM68.6731 3.5H66.7115V4.5H68.6731V3.5ZM64.75 3.5L62.7885 3.5V4.5L64.75 4.5V3.5ZM60.8269 3.5H58.8654V4.5H60.8269V3.5ZM56.9038 3.5H54.9423V4.5L56.9038 4.5V3.5ZM52.9808 3.5H51.0192V4.5H52.9808V3.5ZM49.0577 3.5H47.0961V4.5H49.0577V3.5ZM45.1346 3.5H43.1731V4.5H45.1346V3.5ZM41.2115 3.5L39.25 3.5V4.5L41.2115 4.5V3.5ZM37.2884 3.5L35.3269 3.5V4.5H37.2884V3.5ZM33.3654 3.5L31.4038 3.5V4.5H33.3654V3.5ZM29.4423 3.5L27.4807 3.5V4.5H29.4423V3.5ZM25.5192 3.5L23.5577 3.5V4.5H25.5192V3.5ZM21.5961 3.5L19.6346 3.5V4.5L21.5961 4.5V3.5ZM17.673 3.5H15.7115V4.5H17.673V3.5ZM13.75 3.5H11.7884V4.5L13.75 4.5V3.5ZM9.82687 3.5H7.86533V4.5H9.82687V3.5ZM5.90379 3.5H3.94225V4.5L5.90379 4.5V3.5ZM1.98071 3.5H1V4.5H1.98071V3.5ZM0.646446 3.64645C0.451187 3.84171 0.451187 4.15829 0.646446 4.35355L3.82843 7.53553C4.02369 7.7308 4.34027 7.7308 4.53554 7.53553C4.7308 7.34027 4.7308 7.02369 4.53554 6.82843L1.70711 4L4.53554 1.17157C4.7308 0.976311 4.7308 0.659728 4.53554 0.464466C4.34027 0.269204 4.02369 0.269204 3.82843 0.464466L0.646446 3.64645ZM103 3.5H102.019V4.5H103V3.5ZM100.058 3.5H98.0962V4.5L100.058 4.5V3.5ZM96.1346 3.5H94.1731V4.5H96.1346V3.5ZM92.2115 3.5L90.25 3.5V4.5H92.2115V3.5ZM88.2885 3.5L86.3269 3.5V4.5H88.2885V3.5ZM84.3654 3.5L82.4038 3.5V4.5H84.3654V3.5ZM80.4423 3.5L78.4808 3.5V4.5H80.4423V3.5ZM76.5192 3.5L74.5577 3.5V4.5H76.5192V3.5ZM72.5962 3.5L70.6346 3.5V4.5H72.5962V3.5ZM68.6731 3.5H66.7115V4.5H68.6731V3.5ZM64.75 3.5L62.7885 3.5V4.5L64.75 4.5V3.5ZM60.8269 3.5H58.8654V4.5H60.8269V3.5ZM56.9038 3.5H54.9423V4.5L56.9038 4.5V3.5ZM52.9808 3.5H51.0192V4.5H52.9808V3.5ZM49.0577 3.5H47.0961V4.5H49.0577V3.5ZM45.1346 3.5H43.1731V4.5H45.1346V3.5ZM41.2115 3.5L39.25 3.5V4.5L41.2115 4.5V3.5ZM37.2884 3.5L35.3269 3.5V4.5H37.2884V3.5ZM33.3654 3.5L31.4038 3.5V4.5H33.3654V3.5ZM29.4423 3.5L27.4807 3.5V4.5H29.4423V3.5ZM25.5192 3.5L23.5577 3.5V4.5H25.5192V3.5ZM21.5961 3.5L19.6346 3.5V4.5L21.5961 4.5V3.5ZM17.673 3.5H15.7115V4.5H17.673V3.5ZM13.75 3.5H11.7884V4.5L13.75 4.5V3.5ZM9.82687 3.5H7.86533V4.5H9.82687V3.5ZM5.90379 3.5H3.94225V4.5L5.90379 4.5V3.5ZM1.98071 3.5H1V4.5H1.98071V3.5Z" fill="#D2D2D2"/>
</svg>
