<svg width="16" height="17" viewBox="0 0 16 17" fill="none" xmlns="http://www.w3.org/2000/svg">
<g id="vuesax/bold/calendar-2">
<g id="calendar-2">
<path id="Vector" d="M11.1681 2.87398V1.83398C11.1681 1.56065 10.9415 1.33398 10.6681 1.33398C10.3948 1.33398 10.1681 1.56065 10.1681 1.83398V2.83398H5.83479V1.83398C5.83479 1.56065 5.60812 1.33398 5.33479 1.33398C5.06145 1.33398 4.83479 1.56065 4.83479 1.83398V2.87398C3.03479 3.04065 2.16145 4.11398 2.02812 5.70732C2.01479 5.90065 2.17479 6.06065 2.36145 6.06065H13.6415C13.8348 6.06065 13.9948 5.89398 13.9748 5.70732C13.8415 4.11398 12.9681 3.04065 11.1681 2.87398Z" fill="#4B5563"/>
<path id="Vector_2" d="M13.3333 7.06055H2.66667C2.3 7.06055 2 7.36055 2 7.72721V11.8339C2 13.8339 3 15.1672 5.33333 15.1672H10.6667C13 15.1672 14 13.8339 14 11.8339V7.72721C14 7.36055 13.7 7.06055 13.3333 7.06055ZM6.14 12.6405C6.07333 12.7005 6 12.7472 5.92 12.7805C5.84 12.8139 5.75333 12.8339 5.66667 12.8339C5.58 12.8339 5.49333 12.8139 5.41333 12.7805C5.33333 12.7472 5.26 12.7005 5.19333 12.6405C5.07333 12.5139 5 12.3405 5 12.1672C5 11.9939 5.07333 11.8205 5.19333 11.6939C5.26 11.6339 5.33333 11.5872 5.41333 11.5539C5.57333 11.4872 5.76 11.4872 5.92 11.5539C6 11.5872 6.07333 11.6339 6.14 11.6939C6.26 11.8205 6.33333 11.9939 6.33333 12.1672C6.33333 12.3405 6.26 12.5139 6.14 12.6405ZM6.28 10.0872C6.24667 10.1672 6.2 10.2405 6.14 10.3072C6.07333 10.3672 6 10.4139 5.92 10.4472C5.84 10.4805 5.75333 10.5005 5.66667 10.5005C5.58 10.5005 5.49333 10.4805 5.41333 10.4472C5.33333 10.4139 5.26 10.3672 5.19333 10.3072C5.13333 10.2405 5.08667 10.1672 5.05333 10.0872C5.02 10.0072 5 9.92055 5 9.83388C5 9.74721 5.02 9.66055 5.05333 9.58055C5.08667 9.50055 5.13333 9.42721 5.19333 9.36055C5.26 9.30055 5.33333 9.25388 5.41333 9.22055C5.57333 9.15388 5.76 9.15388 5.92 9.22055C6 9.25388 6.07333 9.30055 6.14 9.36055C6.2 9.42721 6.24667 9.50055 6.28 9.58055C6.31333 9.66055 6.33333 9.74721 6.33333 9.83388C6.33333 9.92055 6.31333 10.0072 6.28 10.0872ZM8.47333 10.3072C8.40667 10.3672 8.33333 10.4139 8.25333 10.4472C8.17333 10.4805 8.08667 10.5005 8 10.5005C7.91333 10.5005 7.82667 10.4805 7.74667 10.4472C7.66667 10.4139 7.59333 10.3672 7.52667 10.3072C7.40667 10.1805 7.33333 10.0072 7.33333 9.83388C7.33333 9.66055 7.40667 9.48721 7.52667 9.36055C7.59333 9.30055 7.66667 9.25388 7.74667 9.22055C7.90667 9.14721 8.09333 9.14721 8.25333 9.22055C8.33333 9.25388 8.40667 9.30055 8.47333 9.36055C8.59333 9.48721 8.66667 9.66055 8.66667 9.83388C8.66667 10.0072 8.59333 10.1805 8.47333 10.3072Z" fill="#4B5563"/>
</g>
</g>
</svg>
