<svg width="34" height="35" viewBox="0 0 34 35" fill="none" xmlns="http://www.w3.org/2000/svg">
<circle cx="17" cy="17.7305" r="16.5" fill="white" stroke="#F90000"/>
<path d="M22.9722 13.2755H20.1672C20.007 12.5537 19.6055 11.9081 19.0288 11.4454C18.4522 10.9827 17.7349 10.7305 16.9956 10.7305C16.2562 10.7305 15.5389 10.9827 14.9623 11.4454C14.3856 11.9081 13.9841 12.5537 13.8239 13.2755H11.0284C10.8569 13.2978 10.6994 13.3818 10.5853 13.5117C10.4711 13.6416 10.4082 13.8086 10.4082 13.9815C10.4082 14.1545 10.4711 14.3215 10.5853 14.4514C10.6994 14.5813 10.8569 14.6653 11.0284 14.6875H12.177L12.8415 22.571C12.8945 23.1585 13.1646 23.7053 13.599 24.1046C14.0333 24.5038 14.6008 24.727 15.1908 24.7305H18.8027C19.3926 24.727 19.9602 24.5038 20.3945 24.1046C20.8289 23.7053 21.0989 23.1585 21.152 22.571L21.8141 14.6875H22.9722C23.1437 14.6653 23.3012 14.5813 23.4153 14.4514C23.5295 14.3215 23.5924 14.1545 23.5924 13.9815C23.5924 13.8086 23.5295 13.6416 23.4153 13.5117C23.3012 13.3818 23.1437 13.2978 22.9722 13.2755ZM16.9967 12.1531C17.3599 12.1538 17.7147 12.2618 18.0167 12.4637C18.3186 12.6655 18.554 12.9521 18.6935 13.2874H15.3C15.442 12.9539 15.6781 12.669 15.9794 12.4676C16.2808 12.2661 16.6343 12.1568 16.9967 12.1531ZM15.9383 21.5244H15.898C15.7489 21.5247 15.6053 21.4682 15.4964 21.3664C15.3875 21.2645 15.3215 21.125 15.3118 20.9762L15.0864 17.5875C15.076 17.4317 15.1279 17.2782 15.2307 17.1607C15.3335 17.0432 15.4788 16.9713 15.6346 16.961C15.7904 16.9506 15.9439 17.0025 16.0614 17.1053C16.1789 17.2081 16.2507 17.3534 16.2611 17.5091L16.4865 20.9003C16.4923 20.9774 16.4827 21.055 16.4581 21.1283C16.4336 21.2017 16.3946 21.2694 16.3436 21.3276C16.2925 21.3857 16.2304 21.433 16.1608 21.4668C16.0912 21.5006 16.0156 21.5202 15.9383 21.5244ZM18.6816 20.9786C18.6714 21.1272 18.6053 21.2664 18.4965 21.3681C18.3877 21.4698 18.2444 21.5265 18.0955 21.5268H18.0551C17.9781 21.522 17.9028 21.502 17.8335 21.468C17.7642 21.4339 17.7023 21.3866 17.6514 21.3286C17.6005 21.2706 17.5615 21.2031 17.5367 21.13C17.5119 21.0569 17.5018 20.9797 17.507 20.9027L17.7443 17.5115C17.7488 17.4344 17.7686 17.3589 17.8025 17.2895C17.8364 17.22 17.8837 17.158 17.9418 17.107C17.9999 17.056 18.0675 17.0171 18.1407 16.9924C18.2139 16.9677 18.2913 16.9579 18.3684 16.9633C18.522 16.9761 18.6645 17.0486 18.7653 17.1653C18.866 17.282 18.9169 17.4336 18.9071 17.5875L18.6816 20.9786Z" fill="#FF0000"/>
</svg>
