<svg width="220" height="42" viewBox="0 0 176 28" fill="none" xmlns="http://www.w3.org/2000/svg">
<g id="Group">
<g id="Group_2">
<g id="Group_3">
<path id="Vector" d="M36.4164 5.1372C36.2882 5.00903 36.1472 4.95776 35.9678 4.95776C35.7883 4.95776 35.6345 5.02185 35.5064 5.1372C35.3782 5.26537 35.3141 5.40636 35.3141 5.5858C35.3141 5.76524 35.3782 5.90623 35.5064 6.0344C35.6345 6.16257 35.7883 6.21384 35.9678 6.21384C36.1472 6.21384 36.2882 6.14975 36.4164 6.0344C36.5445 5.90623 36.5958 5.76524 36.5958 5.5858C36.5958 5.40636 36.5317 5.26537 36.4164 5.1372ZM34.6733 5.1372C34.5579 5.00903 34.4041 4.95776 34.2375 4.95776C34.0708 4.95776 33.9042 5.02185 33.7761 5.1372C33.6479 5.26537 33.5838 5.40636 33.5838 5.5858C33.5838 5.76524 33.6479 5.90623 33.7761 6.0344C33.9042 6.16257 34.0452 6.21384 34.2375 6.21384C34.4297 6.21384 34.5579 6.14975 34.6733 6.0344C34.8014 5.90623 34.8655 5.76524 34.8655 5.5858C34.8655 5.40636 34.8014 5.26537 34.6733 5.1372Z" fill="#2B2829"/>
<path id="Vector_2" d="M41.1202 13.6863C40.992 13.5581 40.851 13.5068 40.6716 13.5068C40.4921 13.5068 40.3383 13.5709 40.2102 13.6863C40.082 13.8144 40.0179 13.9554 40.0179 14.1349C40.0179 14.3143 40.082 14.4681 40.2102 14.5835C40.3383 14.7116 40.4921 14.7757 40.6716 14.7757C40.851 14.7757 40.992 14.7116 41.1202 14.5835C41.2355 14.4681 41.2996 14.3143 41.2996 14.1349C41.2996 13.9554 41.2355 13.8144 41.1202 13.6863ZM39.3771 13.6863C39.2489 13.5581 39.1079 13.5068 38.9285 13.5068C38.749 13.5068 38.608 13.5709 38.4799 13.6863C38.3517 13.8144 38.2876 13.9554 38.2876 14.1349C38.2876 14.3143 38.3517 14.4681 38.4799 14.5835C38.608 14.7116 38.749 14.7757 38.9285 14.7757C39.1079 14.7757 39.2489 14.7116 39.3771 14.5835C39.5052 14.4681 39.5693 14.3143 39.5693 14.1349C39.5693 13.9554 39.5052 13.8144 39.3771 13.6863Z" fill="#2B2829"/>
<path id="Vector_3" d="M43.8374 5.45776C43.7093 5.32959 43.5683 5.27832 43.3888 5.27832C43.2094 5.27832 43.0684 5.34241 42.9402 5.45776C42.8121 5.58593 42.7608 5.73974 42.7608 5.91918C42.7608 6.09861 42.8249 6.2396 42.9402 6.36777C43.0684 6.49594 43.2222 6.54721 43.3888 6.54721C43.5555 6.54721 43.7093 6.48313 43.8374 6.36777C43.9656 6.2396 44.0169 6.09861 44.0169 5.91918C44.0169 5.73974 43.9528 5.58593 43.8374 5.45776Z" fill="#2B2829"/>
<path id="Vector_4" d="M42.8634 7.75182V10.9689C42.8634 11.2765 42.7352 11.4303 42.466 11.4431H40.7357C40.8895 10.9945 40.9664 10.5459 40.9664 10.1102V7.75182H39.9283V10.1614C39.9283 11.0074 39.5822 11.4431 38.9157 11.4431H37.5186V7.72618C36.9547 7.34167 36.3138 7.14941 35.5961 7.14941C34.8783 7.14941 34.481 7.32885 34.0068 7.67491C33.3403 8.21323 33.0198 8.93099 33.0198 9.81537C33.0198 10.6997 33.3915 11.4047 34.1221 11.9302C34.5194 12.225 35.1859 12.3916 36.1344 12.3916H42.7993C43.5555 12.3916 43.94 11.8533 43.9656 10.7895V7.739H42.8762L42.8634 7.75182ZM36.442 11.4431H35.9934C34.7245 11.4431 34.0965 10.8792 34.0965 9.75128C34.0965 8.62338 34.2759 8.77718 34.622 8.40549C34.8655 8.14915 35.1731 8.02098 35.5448 8.02098C35.9165 8.02098 36.1472 8.09788 36.442 8.23887V11.4431Z" fill="#2B2829"/>
<path id="Vector_5" d="M47.1443 14.7501H46.465V13.776H47.0802C47.9133 13.776 48.3491 13.3146 48.4003 12.3917H47.9902C47.0545 12.3917 46.3881 12.2251 45.9779 11.9303C45.2473 11.4048 44.8756 10.6999 44.8628 9.81549C44.8628 8.91829 45.1961 8.20054 45.8754 7.67504C46.3368 7.31616 46.8623 7.13672 47.4519 7.13672C48.0415 7.13672 48.8105 7.32898 49.3744 7.71349V12.4815C49.3488 13.9811 48.5926 14.7373 47.1314 14.7373L47.1443 14.7501ZM48.3106 11.4433V8.23899C48.0158 8.098 47.721 8.0211 47.4134 8.0211C47.1058 8.0211 46.7469 8.14927 46.5034 8.40561C46.1573 8.79012 45.9779 9.23872 45.9779 9.76422C45.9779 10.8793 46.6059 11.4433 47.862 11.4433H48.2978H48.3106Z" fill="#2B2829"/>
<path id="Vector_6" d="M56.1547 5.71386C56.0393 5.59851 55.8855 5.53442 55.7189 5.53442C55.5523 5.53442 55.3857 5.59851 55.2575 5.71386C55.1293 5.84203 55.0652 5.99584 55.0652 6.17528C55.0652 6.35472 55.1293 6.49571 55.2575 6.62388C55.3857 6.73923 55.5267 6.80332 55.7189 6.80332C55.9112 6.80332 56.0393 6.73923 56.1547 6.62388C56.2829 6.49571 56.3469 6.35472 56.3469 6.17528C56.3469 5.99584 56.2829 5.82922 56.1547 5.71386ZM54.5141 5.71386C54.3859 5.59851 54.2449 5.53442 54.0655 5.53442C53.8861 5.53442 53.7451 5.59851 53.6169 5.71386C53.4887 5.84203 53.4247 5.99584 53.4247 6.17528C53.4247 6.35472 53.4887 6.49571 53.6169 6.62388C53.7451 6.73923 53.8861 6.80332 54.0655 6.80332C54.2449 6.80332 54.3859 6.73923 54.5141 6.62388C54.6423 6.49571 54.6935 6.35472 54.6935 6.17528C54.6935 5.99584 54.6295 5.82922 54.5141 5.71386Z" fill="#2B2829"/>
<path id="Vector_7" d="M63.4476 5.099V10.1361C63.4476 10.7385 63.3194 11.2512 63.0502 11.6614C62.7554 12.1099 62.3068 12.3663 61.7044 12.3919C61.6532 12.3919 61.6019 12.3919 61.5378 12.3919H52.5915V12.6355C52.5915 14.0453 51.8225 14.7503 50.2972 14.7503H49.7333V13.7762H50.1819C51.0791 13.7762 51.5277 13.3532 51.5277 12.4945V7.73932H52.6043V11.4306H53.8091C54.4884 11.4306 54.8345 11.0077 54.8345 10.1489V7.73932H55.8598V10.0977C55.8598 10.5463 55.7829 10.982 55.642 11.4306H59.846C59.6409 9.84132 58.6796 8.86722 56.9365 8.52116V7.41889L60.8072 5.18872L61.0508 6.18845L58.0516 7.89313C59.6922 8.43144 60.6534 9.61062 60.9611 11.4306H61.5635C62.1274 11.4306 62.3966 11.0205 62.3966 10.2258V5.08618H63.4732L63.4476 5.099Z" fill="#2B2829"/>
<path id="Vector_8" d="M66.8953 12.4046H64.3832V11.4433H66.7031C67.5105 11.4433 67.9079 10.9947 67.9079 10.0847V5.09888H68.9845V10.0847C68.9845 11.5587 68.2924 12.3277 66.8953 12.4046ZM65.6136 10.8153L65.1009 5.09888H66.1263L66.6903 10.8025H65.6136V10.8153ZM65.5752 14.8527L65.5111 14.4554L65.8571 14.2887C65.588 14.1349 65.447 13.9299 65.447 13.6607C65.447 13.3915 65.588 13.148 65.8571 12.9942C65.9469 12.9429 66.075 12.9173 66.2288 12.9173C66.3826 12.9173 66.5621 12.9429 66.6774 13.007L66.6133 13.3659C66.5493 13.3531 66.4724 13.3403 66.3955 13.3403C66.1135 13.3403 65.9725 13.4684 65.9725 13.7248C65.9725 13.9811 66.2673 14.1477 66.8569 14.1477L66.8312 14.5194C66.3442 14.5835 65.9212 14.6989 65.5752 14.8399V14.8527Z" fill="#2B2829"/>
<path id="Vector_9" d="M70.9841 12.4046H69.9075V5.09888H70.9841V12.4046Z" fill="#2B2829"/>
<path id="Vector_10" d="M76.7901 5.45776C76.6619 5.32959 76.5209 5.27832 76.3415 5.27832C76.162 5.27832 76.021 5.34241 75.8929 5.45776C75.7647 5.58593 75.7006 5.73974 75.7006 5.91918C75.7006 6.09861 75.7647 6.2396 75.8929 6.36777C76.021 6.49594 76.1749 6.54721 76.3415 6.54721C76.5081 6.54721 76.6619 6.48313 76.7901 6.36777C76.9182 6.2396 76.9695 6.09861 76.9695 5.91918C76.9695 5.73974 76.9054 5.58593 76.7901 5.45776Z" fill="#2B2829"/>
<path id="Vector_11" d="M83.0193 13.6863C82.8911 13.5581 82.7501 13.5068 82.5707 13.5068C82.3912 13.5068 82.2503 13.5709 82.1093 13.6863C81.9811 13.8144 81.917 13.9554 81.917 14.1349C81.917 14.3143 81.9811 14.4681 82.1093 14.5835C82.2374 14.7116 82.3912 14.7757 82.5707 14.7757C82.7501 14.7757 82.8911 14.7116 83.0193 14.5835C83.1475 14.4681 83.1987 14.3143 83.1987 14.1349C83.1987 13.9554 83.1346 13.8144 83.0193 13.6863ZM81.289 13.6863C81.1608 13.5581 81.0198 13.5068 80.8276 13.5068C80.6353 13.5068 80.5071 13.5709 80.379 13.6863C80.2508 13.8016 80.1867 13.9554 80.1867 14.1349C80.1867 14.3143 80.2508 14.4681 80.379 14.5835C80.5071 14.7116 80.6481 14.7757 80.8276 14.7757C81.007 14.7757 81.1608 14.7116 81.289 14.5835C81.4171 14.4553 81.4684 14.3143 81.4684 14.1349C81.4684 13.9554 81.4043 13.8144 81.289 13.6863Z" fill="#2B2829"/>
<path id="Vector_12" d="M88.7101 8.1107C88.2871 7.62365 87.7231 7.38013 87.0054 7.38013C86.2876 7.38013 85.7237 7.61083 85.3392 8.08507C84.9546 8.54648 84.7624 9.20016 84.7624 10.0333V10.2383C84.7624 11.0458 84.4804 11.4431 83.9293 11.456H82.6732C82.8142 11.0074 82.8911 10.5588 82.8911 10.123V7.76464H81.8529V10.1743C81.8529 11.0202 81.5197 11.456 80.8404 11.456H79.4305V7.76464H78.3667V12.6608C78.3667 13.4042 77.9437 13.7759 77.0849 13.7887H76.6107C75.3675 13.7759 74.7394 13.1735 74.7394 11.9943C74.7394 10.8151 74.9829 10.6229 75.47 10.0717L74.6497 9.48213C74.0217 10.0974 73.7012 10.9433 73.6884 12.0455C73.6884 12.8787 74.0088 13.5708 74.6241 14.1219C75.1111 14.5577 75.7648 14.7756 76.6107 14.7756H77.149C78.6486 14.7756 79.4048 13.9938 79.4433 12.4172H84.0446C84.4932 12.4172 84.8393 12.1737 85.0828 11.7123C85.6211 12.4942 86.3517 12.8787 87.2617 12.8787C88.0692 12.8787 88.646 12.507 89.0177 11.802C89.2484 11.3662 89.3637 10.8279 89.3637 10.1614C89.3637 9.49495 89.1587 8.59775 88.7357 8.1107H88.7101ZM87.0695 11.9558C86.1851 11.9558 85.7365 11.3406 85.7365 10.1102C85.7365 8.87973 86.1595 8.30296 86.9926 8.29014C87.8898 8.29014 88.3255 8.94381 88.3255 10.264C88.3255 11.5841 87.9026 11.9558 87.0695 11.9558Z" fill="#2B2829"/>
<path id="Vector_13" d="M90.7095 3.20176C90.7095 2.94542 90.8505 2.81725 91.1325 2.81725C91.4145 2.81725 91.2863 2.81725 91.3632 2.84289L91.4273 2.48401C91.2991 2.41992 91.1581 2.39429 90.9787 2.39429C90.7992 2.39429 90.7095 2.41992 90.607 2.47119C90.3378 2.625 90.1968 2.8557 90.1968 3.1505C90.1968 3.44529 90.325 3.61191 90.607 3.77853L90.2609 3.93234L90.325 4.32967C90.6711 4.17586 91.0812 4.07333 91.5811 4.00924L91.6067 3.63755C91.0171 3.63755 90.7223 3.49656 90.7223 3.21458L90.7095 3.20176Z" fill="#2B2829"/>
<path id="Vector_14" d="M95.1444 5.71386C95.0162 5.59851 94.8752 5.53442 94.6958 5.53442C94.5163 5.53442 94.3625 5.59851 94.2343 5.71386C94.1062 5.84203 94.0421 5.99584 94.0421 6.17528C94.0421 6.35472 94.1062 6.49571 94.2343 6.62388C94.3625 6.73923 94.5035 6.80332 94.6958 6.80332C94.888 6.80332 95.0162 6.73923 95.1444 6.62388C95.2597 6.49571 95.3238 6.35472 95.3238 6.17528C95.3238 5.99584 95.2597 5.82922 95.1444 5.71386ZM93.4909 5.71386C93.3756 5.59851 93.2218 5.53442 93.0423 5.53442C92.8629 5.53442 92.7219 5.59851 92.5937 5.71386C92.4656 5.84203 92.4015 5.99584 92.4015 6.17528C92.4015 6.35472 92.4656 6.49571 92.5937 6.62388C92.7219 6.73923 92.8629 6.80332 93.0423 6.80332C93.2218 6.80332 93.3756 6.73923 93.4909 6.62388C93.6191 6.49571 93.6832 6.35472 93.6832 6.17528C93.6832 5.99584 93.6191 5.82922 93.4909 5.71386Z" fill="#2B2829"/>
<path id="Vector_15" d="M97.5283 5.099V10.1361C97.5283 10.7385 97.4001 11.2512 97.131 11.6614C96.8362 12.11 96.3747 12.3663 95.7852 12.3919C95.7339 12.3919 95.6826 12.3919 95.6314 12.3919H91.4786C90.6968 12.3919 90.2994 11.8536 90.2994 10.7898L90.261 5.08618H91.4017V10.9564C91.4017 11.264 91.5299 11.4178 91.7862 11.4306H92.7988C93.4781 11.4306 93.8113 11.0077 93.8113 10.1489V7.73932H94.8367V10.0977C94.8367 10.5463 94.7726 10.982 94.6188 11.4306H95.6185C96.1697 11.4306 96.4517 11.0205 96.4517 10.2258V5.08618H97.5283V5.099Z" fill="#2B2829"/>
<path id="Vector_16" d="M99.5278 12.4046H98.4512V5.09888H99.5278V12.4046Z" fill="#2B2829"/>
<path id="Vector_17" d="M105.603 5.1372C105.475 5.00903 105.334 4.95776 105.154 4.95776C104.975 4.95776 104.821 5.02185 104.693 5.1372C104.565 5.26537 104.501 5.40636 104.501 5.5858C104.501 5.76524 104.565 5.90623 104.693 6.0344C104.821 6.16257 104.975 6.21384 105.154 6.21384C105.334 6.21384 105.475 6.14975 105.603 6.0344C105.718 5.90623 105.783 5.76524 105.783 5.5858C105.783 5.40636 105.718 5.26537 105.603 5.1372ZM103.847 5.1372C103.719 5.00903 103.578 4.95776 103.399 4.95776C103.219 4.95776 103.078 5.02185 102.95 5.1372C102.822 5.26537 102.758 5.40636 102.758 5.5858C102.758 5.76524 102.822 5.90623 102.95 6.0344C103.078 6.16257 103.219 6.21384 103.399 6.21384C103.578 6.21384 103.719 6.14975 103.847 6.0344C103.975 5.90623 104.027 5.76524 104.027 5.5858C104.027 5.40636 103.962 5.26537 103.847 5.1372Z" fill="#2B2829"/>
<path id="Vector_18" d="M114.46 8.20049C113.934 7.49555 113.255 7.14949 112.435 7.14949C111.614 7.14949 111.563 7.25203 111.178 7.49555C110.691 7.79035 110.192 8.29021 109.692 8.99515V5.11157H108.615C108.615 8.46965 108.615 10.5845 108.602 11.456H106.705V7.73908C106.141 7.35456 105.5 7.16231 104.783 7.16231C104.065 7.16231 103.668 7.34175 103.193 7.68781C102.527 8.22613 102.206 8.94388 102.206 9.82826C102.206 10.7126 102.578 11.4176 103.309 11.9431C103.706 12.2379 104.373 12.4045 105.321 12.4045H114.767L114.985 11.3022C115.075 10.8536 115.113 10.4563 115.113 10.0974C115.113 9.45657 114.895 8.81571 114.472 8.21331L114.46 8.20049ZM105.629 11.4432H105.18C103.911 11.4432 103.283 10.8793 103.283 9.75136C103.283 8.62346 103.463 8.77726 103.809 8.40557C104.052 8.14922 104.36 8.02105 104.731 8.02105C105.103 8.02105 105.334 8.09796 105.629 8.23895V11.4432ZM113.806 11.4432H109.64V10.6742C109.64 10.5845 109.692 10.4435 109.781 10.2512C110.076 9.66164 110.409 9.21304 110.781 8.85416C111.307 8.3543 111.845 8.09796 112.422 8.09796C112.998 8.09796 113.434 8.39275 113.755 8.96952C113.934 9.31558 114.037 9.71291 114.037 10.1871C114.037 10.6614 113.96 10.9434 113.806 11.4304V11.4432Z" fill="#2B2829"/>
<path id="Vector_19" d="M126.585 7.75202V10.0463C126.585 10.8281 126.444 11.4049 126.175 11.8022C125.88 12.2508 125.47 12.4687 124.957 12.4687C124.444 12.4687 123.752 12.238 123.342 11.7766C122.945 12.1996 122.47 12.4046 121.881 12.4046H117.177C116.421 12.4046 116.036 11.8663 116.036 10.8025V5.09888H117.1V10.9691C117.1 11.2767 117.228 11.4305 117.497 11.4433H119.561V8.58513H120.625V11.4433H121.432C121.765 11.4433 121.996 11.4049 122.124 11.328C122.393 11.1742 122.534 10.7897 122.534 10.1744V8.12371H123.598V10.2001C123.598 11.0332 123.919 11.4562 124.547 11.4562C125.175 11.4562 125.508 11.0076 125.508 10.1232V7.76483H126.572L126.585 7.75202Z" fill="#2B2829"/>
<path id="Vector_20" d="M133.493 5.099V10.2387C133.493 11.0333 133.224 11.4306 132.66 11.4435H132.032V7.7265C131.468 7.34199 130.827 7.14973 130.109 7.14973C129.392 7.14973 128.994 7.32917 128.533 7.67523C127.854 8.21355 127.52 8.93131 127.52 9.81569C127.52 10.7001 127.905 11.405 128.635 11.9305C129.033 12.2253 129.699 12.3919 130.635 12.3919H131.032C130.994 13.3148 130.545 13.7634 129.712 13.7634H129.097V14.7375H129.776C131.276 14.7375 132.019 13.9428 132.019 12.3791H132.66C132.724 12.3791 132.775 12.3791 132.827 12.3791C133.429 12.3407 133.865 12.0971 134.172 11.6485C134.429 11.2384 134.57 10.7257 134.57 10.1233V5.08618H133.493V5.099ZM130.943 11.4435H130.507C129.251 11.4435 128.61 10.8795 128.61 9.7516C128.61 8.6237 128.789 8.7775 129.135 8.40581C129.379 8.14947 129.686 8.0213 130.045 8.0213C130.404 8.0213 130.648 8.0982 130.943 8.23919V11.4435Z" fill="#2B2829"/>
<path id="Vector_21" d="M139.402 5.45776C139.274 5.32959 139.133 5.27832 138.953 5.27832C138.774 5.27832 138.633 5.34241 138.505 5.45776C138.376 5.58593 138.312 5.73974 138.312 5.91918C138.312 6.09861 138.376 6.2396 138.505 6.36777C138.633 6.49594 138.774 6.54721 138.953 6.54721C139.133 6.54721 139.274 6.48313 139.402 6.36777C139.53 6.2396 139.594 6.09861 139.594 5.91918C139.594 5.73974 139.53 5.58593 139.402 5.45776Z" fill="#2B2829"/>
<path id="Vector_22" d="M143.144 13.6863C143.016 13.5581 142.875 13.5068 142.696 13.5068C142.516 13.5068 142.375 13.5709 142.234 13.6863C142.106 13.8144 142.042 13.9554 142.042 14.1349C142.042 14.3143 142.106 14.4681 142.234 14.5835C142.362 14.7116 142.516 14.7757 142.696 14.7757C142.875 14.7757 143.016 14.7116 143.144 14.5835C143.272 14.4681 143.324 14.3143 143.324 14.1349C143.324 13.9554 143.26 13.8144 143.144 13.6863ZM141.414 13.6863C141.286 13.5581 141.145 13.5068 140.953 13.5068C140.76 13.5068 140.632 13.5709 140.504 13.6863C140.376 13.8144 140.312 13.9554 140.312 14.1349C140.312 14.3143 140.376 14.4681 140.504 14.5835C140.632 14.7116 140.773 14.7757 140.953 14.7757C141.132 14.7757 141.286 14.7116 141.414 14.5835C141.529 14.4681 141.593 14.3143 141.593 14.1349C141.593 13.9554 141.529 13.8144 141.414 13.6863Z" fill="#2B2829"/>
<path id="Vector_23" d="M148.143 12.4046H139.517V12.6482C139.517 14.058 138.748 14.763 137.223 14.763H136.659V13.7889H137.108C138.005 13.7889 138.453 13.3659 138.453 12.5072V7.75202H139.53V11.4433H140.953C141.632 11.4433 141.965 11.0204 141.965 10.1616V7.75202H143.003V10.1104C143.003 10.559 142.927 10.9947 142.786 11.4433H146.964C146.759 9.85402 145.798 8.87992 144.067 8.53386V7.43159L147.938 5.20142L148.169 6.20115L145.169 7.90582C147.105 8.54668 148.105 10.0463 148.143 12.4046Z" fill="#2B2829"/>
<path id="Vector_24" d="M149.091 14.7497H148.515V13.7756H148.95C149.86 13.7756 150.309 13.3527 150.309 12.4939V7.73877H151.373V12.6349C151.373 14.0448 150.617 14.7497 149.091 14.7497Z" fill="#2B2829"/>
<path id="Vector_25" d="M157.448 5.1372C157.32 5.00903 157.179 4.95776 157 4.95776C156.82 4.95776 156.666 5.02185 156.538 5.1372C156.41 5.25256 156.346 5.40636 156.346 5.5858C156.346 5.76524 156.41 5.90623 156.538 6.0344C156.666 6.16257 156.82 6.21384 157 6.21384C157.179 6.21384 157.32 6.14975 157.448 6.0344C157.576 5.90623 157.628 5.76524 157.628 5.5858C157.628 5.40636 157.564 5.26537 157.448 5.1372ZM155.705 5.1372C155.59 5.00903 155.436 4.95776 155.269 4.95776C155.103 4.95776 154.936 5.02185 154.808 5.1372C154.68 5.26537 154.616 5.40636 154.616 5.5858C154.616 5.76524 154.68 5.90623 154.808 6.0344C154.936 6.16257 155.077 6.21384 155.269 6.21384C155.462 6.21384 155.59 6.14975 155.705 6.0344C155.833 5.90623 155.897 5.76524 155.897 5.5858C155.897 5.40636 155.833 5.26537 155.705 5.1372Z" fill="#2B2829"/>
<path id="Vector_26" d="M160.588 7.90582L163.588 6.20115L163.357 5.20142L159.486 7.43159V8.53386C161.216 8.87992 162.191 9.86684 162.396 11.4433H158.55V7.72639C157.987 7.34187 157.346 7.14962 156.641 7.14962C155.936 7.14962 155.513 7.32905 155.051 7.67512C154.398 8.21343 154.065 8.93119 154.065 9.81557C154.065 10.7 154.436 11.4049 155.167 11.9304C155.564 12.2252 156.231 12.3918 157.192 12.3918H163.588C163.549 10.0335 162.549 8.53386 160.614 7.89301L160.588 7.90582ZM157.474 11.4433H157.025C155.756 11.4433 155.128 10.8794 155.128 9.75149C155.128 8.62358 155.308 8.77739 155.654 8.40569C155.91 8.14935 156.218 8.02118 156.577 8.02118C156.936 8.02118 157.179 8.09808 157.474 8.23907V11.4433Z" fill="#2B2829"/>
<path id="Vector_27" d="M173.598 5.71407C173.47 5.59872 173.329 5.53463 173.149 5.53463C172.97 5.53463 172.829 5.59872 172.688 5.71407C172.56 5.84224 172.495 5.99605 172.495 6.17549C172.495 6.35492 172.56 6.49591 172.688 6.62408C172.816 6.73944 172.97 6.80352 173.149 6.80352C173.329 6.80352 173.47 6.73944 173.598 6.62408C173.726 6.49591 173.777 6.35492 173.777 6.17549C173.777 5.99605 173.713 5.82942 173.598 5.71407ZM172.649 4.06066C172.521 3.93249 172.38 3.86841 172.201 3.86841C172.021 3.86841 171.88 3.93249 171.739 4.06066C171.611 4.17602 171.547 4.32982 171.547 4.52208C171.547 4.71434 171.611 4.84251 171.739 4.97068C171.867 5.09885 172.021 5.15012 172.201 5.15012C172.38 5.15012 172.521 5.08603 172.649 4.97068C172.777 4.84251 172.829 4.70152 172.829 4.52208C172.829 4.34264 172.765 4.17602 172.649 4.06066ZM171.855 5.71407C171.739 5.59872 171.585 5.53463 171.419 5.53463C171.252 5.53463 171.086 5.59872 170.957 5.71407C170.829 5.84224 170.765 5.99605 170.765 6.17549C170.765 6.35492 170.829 6.49591 170.957 6.62408C171.086 6.73944 171.227 6.80352 171.419 6.80352C171.611 6.80352 171.739 6.73944 171.855 6.62408C171.983 6.49591 172.047 6.35492 172.047 6.17549C172.047 5.99605 171.983 5.82942 171.855 5.71407Z" fill="#2B2829"/>
<path id="Vector_28" d="M175.956 7.75146V10.0457C175.956 10.8276 175.815 11.4043 175.546 11.8017C175.251 12.2503 174.841 12.4682 174.328 12.4682C173.816 12.4682 173.124 12.2375 172.713 11.776C172.316 12.199 171.842 12.4041 171.252 12.4041H166.805V12.6476C166.805 14.0575 166.036 14.7624 164.51 14.7624H163.947V13.7883H164.395C165.292 13.7883 165.741 13.3654 165.741 12.5066V7.75146H166.818V11.4428H168.932V8.58457H169.996V11.4428H170.804C171.137 11.4428 171.368 11.4043 171.496 11.3274C171.765 11.1736 171.906 10.7891 171.906 10.1739V8.12316H172.97V10.1995C172.97 11.0326 173.29 11.4556 173.918 11.4556C174.546 11.4556 174.88 11.007 174.88 10.1226V7.76428H175.943L175.956 7.75146Z" fill="#2B2829"/>
</g>
<path id="Vector_29" d="M33.5069 19.3384C33.8145 19.2743 34.2631 19.2358 34.6861 19.2358C35.3397 19.2358 35.7627 19.364 36.0703 19.6332C36.301 19.8382 36.442 20.1715 36.442 20.5432C36.442 21.1712 36.0447 21.5814 35.5448 21.7608C35.9037 21.9018 36.1216 22.2479 36.2369 22.7477C36.3907 23.4142 36.5061 23.8628 36.6086 24.0551H35.9678C35.8909 23.9141 35.7883 23.5168 35.6602 22.9143C35.5192 22.2607 35.2628 22.0043 34.6989 21.9915H34.1221V24.0551H33.5069V19.364V19.3384ZM34.1221 21.5045H34.7502C35.4038 21.5045 35.8268 21.1456 35.8268 20.6073C35.8268 20.069 35.3782 19.7229 34.7373 19.7229C34.4425 19.7229 34.2375 19.7485 34.1349 19.7742V21.5045H34.1221Z" fill="#2B2829"/>
<path id="Vector_30" d="M39.5053 24.0296L39.454 23.5938H39.4412C39.2489 23.863 38.89 24.1065 38.403 24.1065C37.9159 24.1065 37.3648 23.6194 37.3648 23.1324C37.3648 22.2993 38.0954 21.8507 39.4155 21.8635V21.7866C39.4155 21.5046 39.3386 20.9919 38.6337 21.0048C38.3133 21.0048 37.98 21.0945 37.7493 21.2611L37.6083 20.8509C37.8903 20.6715 38.3004 20.5562 38.7362 20.5562C39.7744 20.5562 40.0308 21.2739 40.0308 21.9532V23.2349C40.0308 23.5297 40.0436 23.8117 40.082 24.0552H39.5181L39.5053 24.0296ZM39.4027 22.2865C38.7362 22.2736 37.9672 22.389 37.9672 23.0555C37.9672 23.722 38.2364 23.6451 38.544 23.6451C38.9926 23.6451 39.2745 23.3631 39.3771 23.0683C39.4027 23.0042 39.4027 22.9273 39.4027 22.876V22.2865Z" fill="#2B2829"/>
<path id="Vector_31" d="M41.6329 22.1843H41.6457C41.7226 22.0689 41.8508 21.9151 41.9405 21.7997L42.9531 20.6206H43.6965L42.3763 22.0305L43.8759 24.0427H43.1197L41.9405 22.4021L41.6201 22.761V24.0427H41.0049V19.0312H41.6201V22.1971L41.6329 22.1843Z" fill="#2B2829"/>
<path id="Vector_32" d="M44.6834 22.4403C44.6834 23.2734 45.2345 23.6194 45.8498 23.6194C46.465 23.6194 46.5675 23.5425 46.7982 23.44L46.9008 23.8758C46.6829 23.9783 46.2984 24.0937 45.76 24.0937C44.709 24.0937 44.081 23.3887 44.081 22.3762C44.081 21.3636 44.6962 20.5305 45.6831 20.5305C46.67 20.5305 47.093 21.5046 47.093 22.1327C47.093 22.7607 47.093 22.3505 47.0674 22.4274H44.6706L44.6834 22.4403ZM46.5034 21.9917C46.5034 21.6072 46.3368 20.9919 45.6447 20.9919C44.9526 20.9919 44.7475 21.5687 44.6962 21.9917H46.5034Z" fill="#2B2829"/>
<path id="Vector_33" d="M48.3362 22.4403C48.3362 23.2734 48.8873 23.6194 49.5026 23.6194C50.1178 23.6194 50.2203 23.5425 50.451 23.44L50.5536 23.8758C50.3357 23.9783 49.9512 24.0937 49.4128 24.0937C48.3618 24.0937 47.7338 23.3887 47.7338 22.3762C47.7338 21.3636 48.349 20.5305 49.3359 20.5305C50.3228 20.5305 50.7458 21.5046 50.7458 22.1327C50.7458 22.7607 50.7458 22.3505 50.7202 22.4274H48.3234L48.3362 22.4403ZM50.1562 21.9917C50.1562 21.6072 49.9896 20.9919 49.2975 20.9919C48.6054 20.9919 48.4003 21.5687 48.349 21.9917H50.1562Z" fill="#2B2829"/>
<path id="Vector_34" d="M51.2073 23.6707L52.7454 21.6584C52.8992 21.4662 53.0402 21.2995 53.194 21.1201C53.194 21.1073 51.3355 21.1073 51.3355 21.1073V20.6074H53.9373V20.9919L52.4121 22.9786C52.2711 23.158 52.1301 23.3375 51.9763 23.5041C51.9763 23.5169 53.9758 23.5169 53.9758 23.5169V24.0168H51.2073V23.6579V23.6707Z" fill="#2B2829"/>
<path id="Vector_35" d="M58.6028 21.7996H56.7572V23.5171H58.8207V24.0298H56.1419V19.2747H58.7182V19.7873H56.77V21.2998H58.6156V21.8124L58.6028 21.7996Z" fill="#2B2829"/>
<path id="Vector_36" d="M59.5897 19.0183H60.2049V24.0298H59.5897V19.0183Z" fill="#2B2829"/>
<path id="Vector_37" d="M61.602 22.4403C61.602 23.2734 62.1531 23.6194 62.7683 23.6194C63.3836 23.6194 63.4861 23.5425 63.7168 23.44L63.8193 23.8758C63.6014 23.9783 63.2169 24.0937 62.6786 24.0937C61.6276 24.0937 60.9996 23.3887 60.9996 22.3762C60.9996 21.3636 61.6148 20.5305 62.6017 20.5305C63.5886 20.5305 64.0116 21.5046 64.0116 22.1327C64.0116 22.7607 64.0116 22.3505 63.986 22.4274H61.5892L61.602 22.4403ZM63.422 21.9917C63.422 21.6072 63.2554 20.9919 62.5633 20.9919C61.8711 20.9919 61.6661 21.5687 61.6148 21.9917H63.422Z" fill="#2B2829"/>
<path id="Vector_38" d="M67.2286 23.9144C67.062 23.9913 66.7031 24.1066 66.2545 24.1066C65.2292 24.1066 64.5499 23.4017 64.5499 22.3635C64.5499 21.3253 65.2676 20.5435 66.3827 20.5435C67.4978 20.5435 67.0748 20.6332 67.2415 20.7229L67.1005 21.1971C66.9467 21.1202 66.716 21.0305 66.3699 21.0305C65.5881 21.0305 65.1651 21.6201 65.1651 22.325C65.1651 23.1197 65.6778 23.6067 66.3571 23.6067C67.0364 23.6067 66.9467 23.517 67.1133 23.4401L67.2158 23.9015L67.2286 23.9144Z" fill="#2B2829"/>
<path id="Vector_39" d="M68.7923 19.6338V20.6207H69.6895V21.0949H68.7923V22.9406C68.7923 23.3636 68.9205 23.6071 69.2666 23.6071C69.6126 23.6071 69.5485 23.5815 69.6254 23.5558L69.6511 24.0301C69.5357 24.0813 69.3435 24.1198 69.0999 24.1198C68.8564 24.1198 68.5744 24.0301 68.4335 23.8634C68.2668 23.6712 68.1899 23.3764 68.1899 22.9662V21.1078H67.6644V20.6335H68.1899V19.8132L68.7923 19.6466V19.6338Z" fill="#2B2829"/>
<path id="Vector_40" d="M70.3817 21.6842C70.3817 21.2868 70.3817 20.9408 70.3561 20.6204H70.8944L70.92 21.2868H70.9457C71.0995 20.8254 71.484 20.5435 71.8941 20.5435C72.3043 20.5435 72.0095 20.5435 72.0736 20.5563V21.1459C72.0095 21.133 71.9454 21.133 71.8685 21.133C71.4327 21.133 71.1251 21.4663 71.0354 21.9277C71.0226 22.0174 71.0098 22.12 71.0098 22.2225V24.0425H70.3945V21.697L70.3817 21.6842Z" fill="#2B2829"/>
<path id="Vector_41" d="M75.7135 22.2993C75.7135 23.5682 74.842 24.1193 74.0217 24.1193C73.2014 24.1193 72.3811 23.44 72.3811 22.3634C72.3811 21.2867 73.1373 20.5562 74.073 20.5562C75.0086 20.5562 75.7135 21.2739 75.7135 22.3121V22.2993ZM73.0091 22.3377C73.0091 23.0811 73.4321 23.6451 74.0473 23.6451C74.6625 23.6451 75.0855 23.0939 75.0855 22.3121C75.0855 21.5302 74.7907 21.0048 74.0601 21.0048C73.3296 21.0048 73.0091 21.6841 73.0091 22.3377Z" fill="#2B2829"/>
<path id="Vector_42" d="M76.5082 21.5432C76.5082 21.1843 76.5082 20.9023 76.4826 20.6204H77.0337L77.0722 21.1843H77.085C77.2516 20.8639 77.649 20.5435 78.2129 20.5435C78.7769 20.5435 79.4177 20.8254 79.4177 22.0046V24.0425H78.8025V22.0687C78.8025 21.5176 78.5974 21.0561 78.0078 21.0561C77.4183 21.0561 77.2773 21.3509 77.1747 21.697C77.1491 21.7739 77.1363 21.8892 77.1363 21.979V24.0297H76.5211V21.5432H76.5082Z" fill="#2B2829"/>
<path id="Vector_43" d="M81.1224 19.6592C81.1224 19.8642 80.9686 20.0437 80.7251 20.0437C80.4816 20.0437 80.3534 19.8642 80.3534 19.6592C80.3534 19.4541 80.5072 19.2747 80.7379 19.2747C80.9686 19.2747 81.1224 19.4413 81.1224 19.6592ZM80.4303 24.0298V20.6205H81.0455V24.0298H80.4303Z" fill="#2B2829"/>
<path id="Vector_44" d="M84.5189 23.9144C84.3522 23.9913 83.9934 24.1066 83.5448 24.1066C82.5194 24.1066 81.8401 23.4017 81.8401 22.3635C81.8401 21.3253 82.5578 20.5435 83.6729 20.5435C84.788 20.5435 84.3651 20.6332 84.5317 20.7229L84.3907 21.1971C84.2369 21.1202 84.0062 21.0305 83.6601 21.0305C82.8783 21.0305 82.4553 21.6201 82.4553 22.325C82.4553 23.1197 82.968 23.6067 83.6473 23.6067C84.3266 23.6067 84.2369 23.517 84.4035 23.4401L84.506 23.9015L84.5189 23.9144Z" fill="#2B2829"/>
<path id="Vector_45" d="M87.3771 19.2747V24.0298H86.7619V19.2747H87.3771Z" fill="#2B2829"/>
<path id="Vector_46" d="M88.505 21.5432C88.505 21.1843 88.505 20.9023 88.4794 20.6204H89.0305L89.069 21.1843H89.0818C89.2484 20.8639 89.6457 20.5435 90.2097 20.5435C90.7736 20.5435 91.4145 20.8254 91.4145 22.0046V24.0425H90.7993V22.0687C90.7993 21.5176 90.5942 21.0561 90.0046 21.0561C89.415 21.0561 89.274 21.3509 89.1715 21.697C89.1459 21.7739 89.133 21.8892 89.133 21.979V24.0297H88.5178V21.5432H88.505Z" fill="#2B2829"/>
<path id="Vector_47" d="M92.3373 23.4017C92.5295 23.517 92.85 23.6452 93.1576 23.6452C93.6062 23.6452 93.8241 23.4273 93.8241 23.1325C93.8241 22.8377 93.6446 22.6839 93.1832 22.5045C92.568 22.2866 92.2732 21.9405 92.2732 21.5432C92.2732 20.9921 92.7218 20.5435 93.4524 20.5435C94.1829 20.5435 94.0932 20.6332 94.2855 20.7485L94.1317 21.1971C94.0035 21.1202 93.7472 20.9921 93.4267 20.9921C93.1063 20.9921 92.8628 21.1971 92.8628 21.4663C92.8628 21.7354 93.0679 21.8764 93.5164 22.0431C94.106 22.2609 94.4136 22.5557 94.4136 23.0684C94.4136 23.6708 93.9394 24.0938 93.1319 24.0938C92.3245 24.0938 92.4142 23.9913 92.1707 23.8503L92.3245 23.376L92.3373 23.4017Z" fill="#2B2829"/>
<path id="Vector_48" d="M98.0665 23.0939C98.0665 23.4528 98.0665 23.7604 98.0922 24.0296H97.541L97.5026 23.4656H97.4898C97.336 23.7348 96.9771 24.1065 96.3619 24.1065C95.7466 24.1065 95.1827 23.8117 95.1827 22.6069V20.6074H95.7979V22.4915C95.7979 23.1452 96.003 23.581 96.5669 23.581C97.1309 23.581 97.2719 23.2862 97.3872 23.017C97.4129 22.9273 97.4385 22.812 97.4385 22.6966V20.6074H98.0537V23.0811L98.0665 23.0939Z" fill="#2B2829"/>
<path id="Vector_49" d="M99.1047 21.6842C99.1047 21.2868 99.1047 20.9408 99.079 20.6204H99.6174L99.643 21.2868H99.6686C99.8224 20.8254 100.207 20.5435 100.617 20.5435C101.027 20.5435 100.732 20.5435 100.784 20.5563V21.1459C100.72 21.133 100.656 21.133 100.579 21.133C100.143 21.133 99.8352 21.4663 99.7455 21.9277C99.7327 22.0174 99.7199 22.12 99.7199 22.2225V24.0425H99.1047V21.697V21.6842Z" fill="#2B2829"/>
<path id="Vector_50" d="M103.27 24.0296L103.219 23.5938H103.206C103.014 23.863 102.655 24.1065 102.168 24.1065C101.681 24.1065 101.13 23.6194 101.13 23.1324C101.13 22.2993 101.86 21.8507 103.181 21.8635V21.7866C103.181 21.5046 103.104 20.9919 102.399 21.0048C102.078 21.0048 101.745 21.0945 101.514 21.2611L101.373 20.8509C101.655 20.6715 102.066 20.5562 102.501 20.5562C103.539 20.5562 103.796 21.2739 103.796 21.9532V23.2349C103.796 23.5297 103.809 23.8117 103.847 24.0552H103.283L103.27 24.0296ZM103.181 22.2865C102.514 22.2736 101.745 22.389 101.745 23.0555C101.745 23.722 102.014 23.6451 102.322 23.6451C102.77 23.6451 103.052 23.3631 103.155 23.0683C103.181 23.0042 103.181 22.9273 103.181 22.876V22.2865Z" fill="#2B2829"/>
<path id="Vector_51" d="M104.783 21.5432C104.783 21.1843 104.783 20.9023 104.757 20.6204H105.308L105.347 21.1843H105.359C105.526 20.8639 105.923 20.5435 106.487 20.5435C107.051 20.5435 107.692 20.8254 107.692 22.0046V24.0425H107.077V22.0687C107.077 21.5176 106.872 21.0561 106.282 21.0561C105.693 21.0561 105.552 21.3509 105.449 21.697C105.424 21.7739 105.411 21.8892 105.411 21.979V24.0297H104.796V21.5432H104.783Z" fill="#2B2829"/>
<path id="Vector_52" d="M111.14 23.9144C110.973 23.9913 110.615 24.1066 110.166 24.1066C109.141 24.1066 108.461 23.4017 108.461 22.3635C108.461 21.3253 109.179 20.5435 110.294 20.5435C111.409 20.5435 110.986 20.6332 111.153 20.7229L111.012 21.1971C110.858 21.1202 110.627 21.0305 110.281 21.0305C109.499 21.0305 109.077 21.6201 109.077 22.325C109.077 23.1197 109.589 23.6067 110.269 23.6067C110.948 23.6067 110.858 23.517 111.025 23.4401L111.127 23.9015L111.14 23.9144Z" fill="#2B2829"/>
<path id="Vector_53" d="M112.178 22.4403C112.178 23.2734 112.729 23.6194 113.344 23.6194C113.96 23.6194 114.062 23.5425 114.293 23.44L114.396 23.8758C114.178 23.9783 113.793 24.0937 113.255 24.0937C112.204 24.0937 111.576 23.3887 111.576 22.3762C111.576 21.3636 112.191 20.5305 113.178 20.5305C114.165 20.5305 114.588 21.5046 114.588 22.1327C114.588 22.7607 114.588 22.3505 114.562 22.4274H112.165L112.178 22.4403ZM113.998 21.9917C113.998 21.6072 113.832 20.9919 113.139 20.9919C112.447 20.9919 112.242 21.5687 112.191 21.9917H113.998Z" fill="#2B2829"/>
<path id="Vector_54" d="M116.882 19.3384C117.151 19.2743 117.574 19.2358 118.01 19.2358C118.625 19.2358 119.023 19.3384 119.317 19.5819C119.561 19.7742 119.715 20.0561 119.715 20.4278C119.715 20.7995 119.407 21.2866 118.907 21.466C119.356 21.5942 119.894 21.9659 119.894 22.6836C119.894 23.4014 119.727 23.4014 119.484 23.6321C119.164 23.9397 118.625 24.0807 117.843 24.0807C117.062 24.0807 117.1 24.0551 116.895 24.0294V19.3512L116.882 19.3384ZM117.497 21.2866H118.061C118.702 21.2866 119.087 20.9405 119.087 20.4791C119.087 20.0177 118.664 19.7101 118.048 19.7101C117.433 19.7101 117.6 19.7357 117.497 19.7485V21.2866ZM117.497 23.568C117.625 23.5937 117.792 23.5937 118.01 23.5937C118.651 23.5937 119.24 23.3629 119.24 22.6708C119.24 21.9787 118.676 21.748 118.01 21.748H117.497V23.5552V23.568Z" fill="#2B2829"/>
<path id="Vector_55" d="M120.702 21.6842C120.702 21.2868 120.702 20.9408 120.676 20.6204H121.214L121.24 21.2868H121.266C121.419 20.8254 121.804 20.5435 122.214 20.5435C122.624 20.5435 122.329 20.5435 122.381 20.5563V21.1459C122.317 21.133 122.252 21.133 122.176 21.133C121.74 21.133 121.432 21.4663 121.342 21.9277C121.33 22.0174 121.317 22.12 121.317 22.2225V24.0425H120.702V21.697V21.6842Z" fill="#2B2829"/>
<path id="Vector_56" d="M126.033 22.2993C126.033 23.5682 125.162 24.1193 124.342 24.1193C123.521 24.1193 122.701 23.44 122.701 22.3634C122.701 21.2867 123.457 20.5562 124.393 20.5562C125.328 20.5562 126.033 21.2739 126.033 22.3121V22.2993ZM123.329 22.3377C123.329 23.0811 123.752 23.6451 124.367 23.6451C124.982 23.6451 125.405 23.0939 125.405 22.3121C125.405 21.5302 125.111 21.0048 124.38 21.0048C123.649 21.0048 123.329 21.6841 123.329 22.3377Z" fill="#2B2829"/>
<path id="Vector_57" d="M127.431 22.1843H127.443C127.52 22.0689 127.649 21.9151 127.738 21.7997L128.751 20.6206H129.494L128.174 22.0305L129.674 24.0427H128.917L127.738 22.4021L127.418 22.761V24.0427H126.803V19.0312H127.418V22.1971L127.431 22.1843Z" fill="#2B2829"/>
<path id="Vector_58" d="M130.481 22.4403C130.481 23.2734 131.032 23.6194 131.647 23.6194C132.263 23.6194 132.365 23.5425 132.596 23.44L132.698 23.8758C132.48 23.9783 132.096 24.0937 131.558 24.0937C130.507 24.0937 129.879 23.3887 129.879 22.3762C129.879 21.3636 130.494 20.5305 131.481 20.5305C132.468 20.5305 132.891 21.5046 132.891 22.1327C132.891 22.7607 132.891 22.3505 132.865 22.4274H130.468L130.481 22.4403ZM132.301 21.9917C132.301 21.6072 132.134 20.9919 131.442 20.9919C130.75 20.9919 130.545 21.5687 130.494 21.9917H132.301Z" fill="#2B2829"/>
<path id="Vector_59" d="M133.672 21.6842C133.672 21.2868 133.672 20.9408 133.647 20.6204H134.185L134.211 21.2868H134.236C134.39 20.8254 134.775 20.5435 135.185 20.5435C135.595 20.5435 135.3 20.5435 135.352 20.5563V21.1459C135.287 21.133 135.223 21.133 135.146 21.133C134.711 21.133 134.403 21.4663 134.313 21.9277C134.301 22.0174 134.288 22.12 134.288 22.2225V24.0425H133.672V21.697V21.6842Z" fill="#2B2829"/>
<path id="Vector_60" d="M137.851 24.0296L137.8 23.5938H137.787C137.595 23.863 137.236 24.1065 136.749 24.1065C136.262 24.1065 135.71 23.6194 135.71 23.1324C135.71 22.2993 136.441 21.8507 137.761 21.8635V21.7866C137.761 21.5046 137.684 20.9919 136.979 21.0048C136.659 21.0048 136.326 21.0945 136.095 21.2611L135.954 20.8509C136.236 20.6715 136.646 20.5562 137.082 20.5562C138.12 20.5562 138.376 21.2739 138.376 21.9532V23.2349C138.376 23.5297 138.389 23.8117 138.428 24.0552H137.864L137.851 24.0296ZM137.748 22.2865C137.082 22.2736 136.313 22.389 136.313 23.0555C136.313 23.722 136.582 23.6451 136.89 23.6451C137.338 23.6451 137.62 23.3631 137.723 23.0683C137.748 23.0042 137.748 22.9273 137.748 22.876V22.2865Z" fill="#2B2829"/>
<path id="Vector_61" d="M142.298 20.6202C142.285 20.8638 142.273 21.1329 142.273 21.5559V23.5425C142.273 24.3372 142.106 24.8114 141.786 25.1062C141.452 25.4138 140.978 25.5164 140.542 25.5164C140.107 25.5164 139.684 25.4138 139.402 25.2344L139.555 24.7602C139.786 24.9011 140.132 25.0293 140.555 25.0293C141.183 25.0293 141.657 24.6961 141.657 23.8373V23.4528H141.645C141.452 23.7732 141.081 24.0296 140.555 24.0296C139.709 24.0296 139.094 23.3118 139.094 22.3634C139.094 21.4149 139.85 20.5562 140.632 20.5562C141.414 20.5562 141.542 20.8638 141.696 21.1457H141.709L141.734 20.6331H142.285L142.298 20.6202ZM141.657 21.966C141.657 21.8635 141.657 21.7738 141.619 21.6841C141.504 21.3252 141.209 21.0176 140.747 21.0176C140.286 21.0176 139.735 21.5174 139.735 22.3121C139.735 23.1068 140.081 23.5425 140.747 23.5425C141.414 23.5425 141.478 23.299 141.606 22.9017C141.645 22.7991 141.657 22.6838 141.657 22.5684V21.9532V21.966Z" fill="#2B2829"/>
<path id="Vector_62" d="M143.657 22.4403C143.657 23.2734 144.195 23.6194 144.823 23.6194C145.451 23.6194 145.541 23.5425 145.772 23.44L145.887 23.8758C145.669 23.9783 145.285 24.0937 144.746 24.0937C143.695 24.0937 143.067 23.3887 143.067 22.3762C143.067 21.3636 143.683 20.5305 144.669 20.5305C145.656 20.5305 146.079 21.5046 146.079 22.1327C146.079 22.7607 146.079 22.3505 146.054 22.4274H143.657V22.4403ZM145.464 21.9917C145.464 21.6072 145.31 20.9919 144.605 20.9919C143.9 20.9919 143.708 21.5687 143.657 21.9917H145.464Z" fill="#2B2829"/>
<path id="Vector_63" d="M151.68 23.8755C151.463 23.9909 151.001 24.1062 150.424 24.1062C149.079 24.1062 148.079 23.2603 148.079 21.6966C148.079 20.1329 149.091 19.1973 150.565 19.1973C152.039 19.1973 151.527 19.3254 151.693 19.4023L151.539 19.9022C151.309 19.7869 150.976 19.7099 150.578 19.7099C149.463 19.7099 148.72 20.4277 148.72 21.671C148.72 22.9142 149.386 23.5807 150.54 23.5807C151.693 23.5807 151.296 23.5038 151.552 23.3885L151.68 23.8755Z" fill="#2B2829"/>
<path id="Vector_64" d="M155.449 22.2993C155.449 23.5682 154.577 24.1193 153.757 24.1193C152.937 24.1193 152.116 23.44 152.116 22.3634C152.116 21.2867 152.872 20.5562 153.808 20.5562C154.744 20.5562 155.449 21.2739 155.449 22.3121V22.2993ZM152.744 22.3377C152.744 23.0811 153.167 23.6451 153.782 23.6451C154.398 23.6451 154.821 23.0939 154.821 22.3121C154.821 21.5302 154.526 21.0048 153.795 21.0048C153.065 21.0048 152.744 21.6841 152.744 22.3377Z" fill="#2B2829"/>
<path id="Vector_65" d="M156.243 21.5431C156.243 21.1842 156.243 20.9022 156.218 20.6202H156.756L156.795 21.1714H156.807C157 20.8509 157.32 20.5433 157.884 20.5433C158.448 20.5433 158.704 20.8253 158.845 21.2226H158.858C158.974 21.0304 159.102 20.8766 159.243 20.774C159.448 20.6202 159.678 20.5305 159.999 20.5305C160.46 20.5305 161.127 20.8253 161.127 22.0173V24.0296H160.524V22.0942C160.524 21.4277 160.281 21.0432 159.781 21.0432C159.281 21.0432 159.153 21.2995 159.038 21.6072C159.012 21.6969 158.986 21.8122 158.986 21.9148V24.0296H158.384V21.9788C158.384 21.4405 158.14 21.0432 157.679 21.0432C157.218 21.0432 157.012 21.3508 156.91 21.6584C156.884 21.7481 156.859 21.8635 156.859 21.966V24.0296H156.256V21.5431H156.243Z" fill="#2B2829"/>
<path id="Vector_66" d="M161.857 21.7354C161.857 21.2997 161.857 20.9408 161.832 20.6204H162.383L162.421 21.1971H162.434C162.677 20.787 163.088 20.5435 163.652 20.5435C164.485 20.5435 165.1 21.2356 165.1 22.2738C165.1 23.312 164.344 24.1066 163.549 24.1066C162.754 24.1066 162.703 23.9144 162.498 23.5683H162.485V25.4268H161.87V21.7226L161.857 21.7354ZM162.472 22.6455C162.472 22.7352 162.472 22.8249 162.498 22.9018C162.613 23.3376 162.985 23.6324 163.421 23.6324C164.075 23.6324 164.459 23.0941 164.459 22.3122C164.459 21.5304 164.1 21.0433 163.446 21.0433C162.793 21.0433 162.626 21.3381 162.511 21.8123C162.485 21.8893 162.472 21.979 162.472 22.0687V22.6583V22.6455Z" fill="#2B2829"/>
<path id="Vector_67" d="M167.856 24.0296L167.804 23.5938H167.792C167.599 23.863 167.24 24.1065 166.753 24.1065C166.266 24.1065 165.715 23.6194 165.715 23.1324C165.715 22.2993 166.446 21.8507 167.766 21.8635V21.7866C167.766 21.5046 167.689 20.9919 166.984 21.0048C166.664 21.0048 166.33 21.0945 166.1 21.2611L165.959 20.8509C166.241 20.6715 166.651 20.5562 167.087 20.5562C168.125 20.5562 168.381 21.2739 168.381 21.9532V23.2349C168.381 23.5297 168.394 23.8117 168.432 24.0552H167.868L167.856 24.0296ZM167.753 22.2865C167.087 22.2736 166.318 22.389 166.318 23.0555C166.318 23.722 166.587 23.6451 166.894 23.6451C167.343 23.6451 167.625 23.3631 167.727 23.0683C167.753 23.0042 167.753 22.9273 167.753 22.876V22.2865Z" fill="#2B2829"/>
<path id="Vector_68" d="M169.368 21.5432C169.368 21.1843 169.368 20.9023 169.342 20.6204H169.894L169.932 21.1843H169.945C170.111 20.8639 170.509 20.5435 171.073 20.5435C171.637 20.5435 172.278 20.8254 172.278 22.0046V24.0425H171.662V22.0687C171.662 21.5176 171.457 21.0561 170.868 21.0561C170.278 21.0561 170.137 21.3509 170.035 21.697C170.009 21.7739 169.996 21.8892 169.996 21.979V24.0297H169.381V21.5432H169.368Z" fill="#2B2829"/>
<path id="Vector_69" d="M173.418 20.6204L174.162 22.6326C174.239 22.8634 174.328 23.1197 174.38 23.3248H174.392C174.457 23.1197 174.533 22.8634 174.61 22.6198L175.29 20.6204H175.943L175.008 23.0556C174.559 24.2348 174.264 24.8244 173.841 25.1961C173.534 25.4652 173.226 25.5678 173.085 25.5934L172.931 25.0807C173.085 25.0294 173.29 24.9397 173.47 24.7731C173.636 24.6321 173.841 24.4014 173.982 24.081C174.008 24.0169 174.034 23.9656 174.034 23.9272C174.034 23.8887 174.034 23.8374 173.995 23.7734L172.739 20.6204H173.418Z" fill="#2B2829"/>
</g>
<g id="Group_4">
<path id="Vector_70" d="M24.4323 0.343994H3.8737C2.00241 0.343994 0.48999 1.85641 0.48999 3.71489V24.2735C0.48999 26.1448 2.00241 27.6572 3.8737 27.6572H24.4323C26.2908 27.6572 27.8032 26.1448 27.8032 24.2735V3.71489C27.8032 1.85641 26.2908 0.343994 24.4323 0.343994ZM13.8582 25.3758C13.8454 25.3758 9.55168 23.9531 6.796 21.928C2.56636 18.8134 4.1685 14.712 5.8988 10.6618C6.44994 9.38005 5.86035 8.22651 5.15541 7.3934L6.25768 5.9707C6.41149 6.11169 6.56529 6.26549 6.73191 6.43212C7.97517 8.00862 8.28278 9.76456 7.57784 11.3795C6.7191 13.379 6.00134 15.1606 5.93726 16.7242C5.92444 17.0575 5.93726 17.3779 5.98852 17.6599C6.00134 17.7752 6.02698 17.8778 6.05261 17.9803C6.05261 17.9803 6.05688 17.976 6.06543 17.9675C6.41149 17.4676 6.65501 17.0703 6.69346 17.0062C7.59066 15.5835 8.83392 14.8529 8.83392 14.8529C9.25688 14.5966 10.2951 13.9814 11.5896 14.148C12.2689 14.2377 12.7688 14.5069 13.1533 14.7248C14.7298 15.5963 14.9861 16.673 15.7167 16.5833C16.3704 16.5064 16.7293 15.5579 16.7421 15.4938C16.8318 15.2631 17.0369 14.5197 16.0756 12.674C15.8064 12.1742 14.6913 10.1363 11.8844 7.842C11.8331 7.80354 11.7819 7.76509 11.7434 7.72664C10.6796 6.88071 9.15435 5.77844 7.10361 4.68899C6.65501 4.44546 6.16796 4.20194 5.65528 3.95842C5.69373 3.83024 5.97571 3.4201 6.56529 2.58699C8.23152 3.17657 9.67985 3.48418 10.7437 3.63799C11.8972 3.80461 12.8329 3.85588 13.3199 3.8687C13.8839 3.89433 14.8195 3.93278 16.0371 3.84306C16.4729 3.80461 17.2035 3.76616 18.1135 3.59954C18.9979 3.43291 20.2027 3.15094 21.5997 2.57417C21.9074 3.03558 22.215 3.50982 22.5354 3.97123C22.4841 4.00968 22.4457 4.0225 22.4072 4.06095C22.2022 4.20194 21.6895 4.48392 20.7666 4.75307C19.8438 5.02223 18.498 5.30421 16.5883 5.4452C15.8321 5.49647 14.9989 5.53492 14.0633 5.53492C13.1276 5.53492 12.679 5.50928 12.0638 5.48365C12.3586 5.70154 12.679 5.93225 12.9995 6.20141C13.871 6.89353 15.7039 8.36749 17.1522 10.572C17.7418 11.4692 20.254 15.4425 18.8184 17.7881C18.7159 17.9803 18.0238 19.0954 16.8062 19.3133C16.2038 19.4158 15.6911 19.2748 15.486 19.2108C14.8708 19.0185 14.6657 18.7622 13.5506 17.9162C12.679 17.2626 12.2304 16.9421 11.91 16.878C10.859 16.6986 9.92337 17.3907 9.70548 17.5574C8.85955 18.1854 7.57784 19.7619 7.50094 19.8388C7.50094 19.8388 7.50094 19.8388 7.47531 19.8516C7.44967 19.8773 7.42404 19.9029 7.37277 19.9542C7.35995 19.9798 7.33432 19.9926 7.3215 20.0054C7.48812 20.1464 7.65475 20.2874 7.83419 20.4412C9.75675 21.8511 12.6021 22.979 13.807 23.4276V25.3502L13.8582 25.3758Z" fill="#32012F"/>
<g id="Group_5">
<path id="Vector_71" d="M22.5482 3.99667C22.4969 4.03512 22.4585 4.04794 22.42 4.08639C22.215 4.22738 21.7023 4.50936 20.7794 4.77852C19.8566 5.04768 18.5108 5.32965 16.6011 5.47064C15.8449 5.52191 15.0118 5.56036 14.0761 5.56036C13.1405 5.56036 12.6919 5.53473 12.0766 5.50909C12.3714 5.72698 12.6919 5.95769 13.0123 6.22685C13.8838 6.91897 15.7167 8.39294 17.165 10.5975C17.7546 11.4947 20.2668 15.468 18.8312 17.8135C18.7287 18.0058 18.0366 19.1209 16.819 19.3387C16.2166 19.4413 15.7039 19.3003 15.4988 19.2362C14.8836 19.0439 14.6785 18.7876 13.5634 17.9417C12.6919 17.288 12.2433 16.9676 11.9228 16.9035C10.8718 16.7241 9.93618 17.4162 9.71829 17.5828C8.87236 18.2108 7.59065 19.7873 7.51375 19.8642C7.51375 19.8642 7.51375 19.8642 7.48811 19.8771C7.46248 19.9027 7.43684 19.9283 7.38558 19.9796C7.37276 20.0052 7.34713 20.018 7.33431 20.0309C7.50093 20.1719 7.66755 20.3128 7.84699 20.4666C9.76956 21.8765 12.615 23.0044 13.8198 23.453V25.3756C13.8069 25.3756 9.51322 23.9529 6.75754 21.9278C2.5279 18.8132 4.13003 14.7118 5.86034 10.6616C6.41148 9.37985 5.82189 8.22632 5.11695 7.3932L6.21922 5.97051C6.37302 6.11149 6.52683 6.2653 6.69345 6.43192C7.93671 8.00843 8.24432 9.76437 7.53938 11.3793C6.68064 13.3788 5.96288 15.1604 5.89879 16.7241C5.88598 17.0573 5.89879 17.3777 5.95006 17.6597C5.96288 17.7751 5.98851 17.8776 6.01415 17.9801C6.01415 17.9801 6.01842 17.9759 6.02696 17.9673C6.37302 17.4674 6.61655 17.0701 6.655 17.006C7.5522 15.5833 8.79546 14.8528 8.79546 14.8528C9.21842 14.5964 10.2566 13.9812 11.5511 14.1478C12.2304 14.2375 12.7303 14.5067 13.1148 14.7246C14.6913 15.5961 14.9477 16.6728 15.6782 16.5831C16.3319 16.5062 16.6908 15.5577 16.7036 15.4936C16.7933 15.2629 16.9984 14.5195 16.0371 12.6739C15.768 12.174 14.6529 10.1361 11.8459 7.8418C11.7947 7.80335 11.7434 7.7649 11.7049 7.72645C10.6411 6.88052 9.11588 5.77825 7.06515 4.6888C6.61655 4.44527 6.1295 4.20175 5.61682 3.95822C5.65527 3.83005 5.93724 3.4199 6.52683 2.58679C8.19305 3.17638 9.64139 3.48399 10.7052 3.63779C11.8587 3.80442 12.7944 3.85569 13.2814 3.8685C13.8454 3.89414 14.781 3.93259 15.9987 3.84287C16.4344 3.80442 17.165 3.76596 18.075 3.59934C18.9594 3.43272 20.1642 3.15074 21.5613 2.57397C21.8689 3.03539 22.1765 3.50962 22.4969 3.97104L22.5482 3.99667Z" fill="#E2DFD0"/>
<path id="Vector_72" d="M7.1036 4.68883C6.37303 4.4453 5.9757 4.21459 5.77063 4.08642C5.73218 4.06079 5.68091 4.03515 5.64246 3.9967C5.64246 3.98816 5.64246 3.97534 5.64246 3.95825C6.15514 4.20178 6.62937 4.4453 7.09079 4.68883H7.1036Z" fill="#E2DFD0"/>
<path id="Vector_73" d="M10.7051 20.736C11.3068 20.736 11.7945 20.2483 11.7945 19.6466C11.7945 19.0449 11.3068 18.5571 10.7051 18.5571C10.1034 18.5571 9.61563 19.0449 9.61563 19.6466C9.61563 20.2483 10.1034 20.736 10.7051 20.736Z" fill="#E2DFD0"/>
<path id="Vector_74" d="M12.6917 21.6203C13.2934 21.6203 13.7812 21.1325 13.7812 20.5309C13.7812 19.9292 13.2934 19.4414 12.6917 19.4414C12.09 19.4414 11.6023 19.9292 11.6023 20.5309C11.6023 21.1325 12.09 21.6203 12.6917 21.6203Z" fill="#E2DFD0"/>
<g id="Group_6">
<path id="Vector_75" d="M4.65538 4.7019L3.71973 6.11179C3.71973 6.11179 4.20678 6.4194 4.74509 6.9449L5.7961 5.54783C5.38595 5.18895 4.98862 4.91979 4.66819 4.7019H4.65538Z" fill="#E2DFD0"/>
<path id="Vector_76" d="M22.6764 8.02129C22.6892 7.99565 22.702 7.97002 22.7276 7.94439C22.7789 7.86748 22.8302 7.79058 22.8814 7.7265C22.9327 7.64959 22.984 7.58551 23.0352 7.52142C23.0609 7.48297 23.0865 7.45734 23.1121 7.41889C23.2531 7.25226 23.3941 7.11128 23.5351 6.97029C23.5607 6.94465 23.5864 6.91902 23.6248 6.89339C23.6376 6.88057 23.6633 6.85493 23.6761 6.84212C23.6889 6.8293 23.7145 6.80367 23.7274 6.79085C23.7402 6.77803 23.7658 6.7524 23.7786 6.73958C24.2144 6.35507 24.5605 6.13718 24.5605 6.13718L23.6248 4.72729C23.612 4.72729 23.5864 4.75293 23.5736 4.76575C23.5607 4.76575 23.5351 4.79138 23.5223 4.8042C23.4967 4.81702 23.471 4.84265 23.4326 4.85547C23.4198 4.85547 23.3941 4.8811 23.3813 4.89392C23.3813 4.89392 23.3685 4.90673 23.3557 4.91955C23.3172 4.94519 23.2788 4.97082 23.2403 4.99645C23.125 5.07336 23.0096 5.16308 22.8943 5.2528C22.8814 5.26561 22.8558 5.27843 22.843 5.29125C22.4969 5.56041 22.1252 5.88083 21.7407 6.26535C21.6766 6.32943 21.6254 6.3807 21.5613 6.44479C20.318 8.02129 20.0104 9.77723 20.7153 11.3922C20.7666 11.5204 20.8179 11.6357 20.8692 11.7639C20.9076 11.8536 20.9461 11.9433 20.9845 12.033C21.0358 12.1612 21.087 12.2766 21.1383 12.3919C21.1768 12.4816 21.2152 12.5714 21.2537 12.6611C21.3306 12.8405 21.3946 13.02 21.4587 13.1866C21.9586 14.4683 22.3047 15.6475 22.3559 16.7241C22.4072 17.9545 22.0355 18.9415 21.1639 19.813C20.9461 20.0309 20.6897 20.2488 20.4077 20.4539C18.4724 21.8766 15.6398 22.9917 14.435 23.4403V25.3756C14.435 25.3756 18.7287 23.9529 21.4844 21.9278C21.8432 21.6587 22.1637 21.3895 22.4328 21.1204C23.3172 20.236 23.8171 19.3003 24.035 18.3006C24.3682 16.801 24.0734 15.1989 23.5223 13.5583C23.4967 13.4942 23.4838 13.4301 23.4582 13.3532C23.4069 13.2122 23.3557 13.0712 23.3044 12.9302C23.2916 12.879 23.2659 12.8277 23.2531 12.7893C23.2019 12.6483 23.1506 12.5073 23.0865 12.3663C23.0609 12.3022 23.0352 12.2381 23.0096 12.1612C22.9455 11.9946 22.8686 11.828 22.8045 11.6613C22.7789 11.5973 22.7533 11.5332 22.7148 11.4563C22.6635 11.3281 22.5995 11.1871 22.5482 11.0589C22.5226 10.9949 22.4969 10.9308 22.4585 10.8539C22.4328 10.7898 22.4072 10.7257 22.3687 10.6488C22.0868 9.98231 22.0996 9.34145 22.2918 8.76468C22.3816 8.49552 22.5097 8.23918 22.6635 7.99566L22.6764 8.02129Z" fill="#E2DFD0"/>
</g>
</g>
</g>
</g>
</svg>
