<svg width="56" height="42" viewBox="0 0 56 42" fill="none" xmlns="http://www.w3.org/2000/svg">
<rect width="56" height="42" rx="4" fill="#31C48D"/>
<path d="M13.7055 15.0738C14.0674 15.3905 14.2936 15.7977 14.3841 16.25H13.027L13.7055 15.0738ZM13.6603 14.8477L12.8008 16.3858H14.5651C14.4746 15.7524 14.1127 15.2096 13.6603 14.8477Z" fill="white"/>
<path d="M11.5332 18.5119C11.8046 18.6476 12.0761 18.6929 12.3927 18.6929C12.7094 18.6929 12.9808 18.6024 13.2523 18.5119L12.3927 16.9738L11.5332 18.5119Z" fill="white"/>
<path d="M12.7559 16.7928L13.6154 18.3309C14.113 17.969 14.4297 17.4262 14.4749 16.7928H12.7559Z" fill="white"/>
<path d="M13.2972 14.6667C13.0257 14.531 12.7543 14.4857 12.4376 14.4857C12.121 14.4857 11.8496 14.5762 11.5781 14.6667L12.4376 16.2048L13.2972 14.6667Z" fill="white"/>
<path d="M12.0319 16.7476H10.2676C10.3581 17.381 10.6747 17.9238 11.1723 18.2857L12.0319 16.7476Z" fill="white"/>
<path d="M12.0315 16.3405L11.172 14.8024C10.6744 15.1643 10.3577 15.7071 10.3125 16.3405H12.0315Z" fill="white"/>
<path d="M45.5521 12.631C45.5521 12.631 42.5211 12.7667 42.5211 15.8881C42.5211 17.5619 42.5211 19.7333 42.5211 19.7333C42.5211 21.4976 41.3449 23.7143 38.9021 23.7143C36.4592 23.7143 35.283 21.7238 35.283 19.7333C35.283 17.7429 35.283 11.2286 35.283 11.2286L32.7949 12.2238V20.0048C32.7949 22.9452 35.2378 25.4333 38.9021 25.4333C42.5663 25.4333 45.0092 22.9452 45.0092 20.0048C45.0092 20.0048 45.0092 17.7429 45.0092 16.431C45.0092 14.3048 45.8687 14.0333 45.8687 14.0333L45.5521 12.631Z" fill="white"/>
<path d="M29.1316 16.5666V19.6881C29.1316 21.95 27.7745 22.5381 26.553 22.5381C25.9649 22.5381 25.1959 22.3571 25.1959 22.3571L24.834 23.8047C24.834 23.8047 25.603 24.2571 27.2768 24.2571C28.9959 24.2571 31.6197 23.5333 31.6197 20.0952V15.6166L29.1316 16.5666Z" fill="white"/>
<path d="M30.895 24.5738L29.9902 25.9762L30.895 27.3786L31.845 25.9762L30.895 24.5738Z" fill="white"/>
<path d="M20.4458 30.0928L19.541 31.4952L20.4458 32.8976L21.3958 31.4952L20.4458 30.0928Z" fill="white"/>
<path d="M23.1606 30.0928L22.2559 31.4952L23.1606 32.8976L24.0654 31.4952L23.1606 30.0928Z" fill="white"/>
<path d="M39.8523 9.10242L38.9023 10.5048L39.8523 11.9072L40.7571 10.5048L39.8523 9.10242Z" fill="white"/>
<path d="M42.5669 9.10242L41.6621 10.5048L42.5669 11.9072L43.5169 10.5048L42.5669 9.10242Z" fill="white"/>
<path d="M25.6929 23.1715C25.6929 25.5238 24.3357 27.1976 21.8024 27.1976C19.2691 27.1976 17.9119 25.5238 17.9119 23.1715V20.6381L15.4238 21.6334V22.9453C15.4238 27.1976 18.5905 28.8715 21.8024 28.8715C25.0595 28.8715 28.181 27.1976 28.181 22.9453L25.6929 23.1715Z" fill="white"/>
</svg>
