<svg width="20" height="21" viewBox="0 0 20 21" fill="none" xmlns="http://www.w3.org/2000/svg">
<path d="M17.5584 4.85768C16.2167 4.72435 14.875 4.62435 13.525 4.54935V4.54102L13.3417 3.45768C13.2167 2.69102 13.0334 1.54102 11.0834 1.54102H8.90005C6.95838 1.54102 6.77505 2.64102 6.64172 3.44935L6.46672 4.51602C5.69172 4.56602 4.91672 4.61602 4.14172 4.69102L2.44172 4.85768C2.09172 4.89102 1.84172 5.19935 1.87505 5.54102C1.90838 5.88268 2.20838 6.13268 2.55838 6.09935L4.25838 5.93268C8.62505 5.49935 13.025 5.66602 17.4417 6.10768C17.4667 6.10768 17.4834 6.10768 17.5084 6.10768C17.825 6.10768 18.1 5.86602 18.1334 5.54102C18.1584 5.19935 17.9084 4.89102 17.5584 4.85768Z" fill="#302D27"/>
<path d="M16.0254 7.28398C15.8254 7.07565 15.5504 6.95898 15.2671 6.95898H4.73378C4.45044 6.95898 4.16711 7.07565 3.97544 7.28398C3.78378 7.49232 3.67544 7.77565 3.69211 8.06732L4.20878 16.6173C4.30044 17.884 4.41711 19.4673 7.32544 19.4673H12.6754C15.5838 19.4673 15.7004 17.8923 15.7921 16.6173L16.3088 8.07565C16.3254 7.77565 16.2171 7.49232 16.0254 7.28398ZM11.3838 15.2923H8.60878C8.26711 15.2923 7.98378 15.009 7.98378 14.6673C7.98378 14.3257 8.26711 14.0423 8.60878 14.0423H11.3838C11.7254 14.0423 12.0088 14.3257 12.0088 14.6673C12.0088 15.009 11.7254 15.2923 11.3838 15.2923ZM12.0838 11.959H7.91711C7.57544 11.959 7.29211 11.6757 7.29211 11.334C7.29211 10.9923 7.57544 10.709 7.91711 10.709H12.0838C12.4254 10.709 12.7088 10.9923 12.7088 11.334C12.7088 11.6757 12.4254 11.959 12.0838 11.959Z" fill="#302D27"/>
</svg>
