<svg width="76" height="81" viewBox="0 0 76 81" fill="none" xmlns="http://www.w3.org/2000/svg">
<path d="M31.2265 28.0584C28.9931 25.0346 26.3342 23.3384 23.5965 21.9751C23.1529 21.7543 22.7067 21.542 22.2592 21.3337C23.5559 21.844 24.8091 22.4272 26.8121 23.5696C29.0092 24.8228 30.9838 27.4959 32.2315 29.344C32.3863 29.5734 32.5435 29.8028 32.7015 30.0316C32.2155 29.4011 31.728 28.7373 31.2265 28.0584Z" fill="#43565C"/>
<path fill-rule="evenodd" clip-rule="evenodd" d="M9.09037 32.9531C9.18521 33.7522 9.3011 34.5486 9.43792 35.3415C14.8989 53.6048 21.2522 54.9609 36.8671 55.652C48.9967 56.1887 55.9402 53.1785 60.0294 49.409C64.1222 45.6365 65.3798 41.0828 66.0964 38.4747C66.6112 36.6003 66.9521 34.7905 67.102 32.9537L75.797 32.9531C75.4441 38.852 73.5897 44.5617 69.6707 49.6152C64.825 55.5834 57.2486 58.3284 50.6927 59.5764C44.1333 60.825 38.5664 60.5816 37.7121 60.5545C36.8593 60.5274 33.7402 60.5715 29.8973 60.2386C26.0533 59.9052 21.4735 59.1941 17.708 57.6507C16.0491 56.9709 14.6157 56.2727 13.3545 55.5389C9.94411 53.4845 6.79062 50.4962 5.24877 48.3026C3.31317 45.5488 0.989726 40.725 0.325195 32.9539L9.09037 32.9531ZM37.5106 32.9531C37.7765 33.3214 37.9849 33.5363 38.0979 33.5653C38.1649 33.5531 38.2426 33.4982 38.3572 33.3605C38.4463 33.2534 38.5434 33.1141 38.6463 32.9537L46.2392 32.9531C44.9282 33.9352 43.793 35.0585 42.725 36.4036C40.9795 38.6016 39.981 40.7636 39.662 41.8168C39.3298 42.9132 38.6981 43.8372 38.5998 43.9743C38.4832 44.1372 37.9482 44.2758 37.769 43.9641C37.5846 43.7993 37.3967 43.4598 37.2247 43.0153C37.0001 42.4354 36.7198 41.5277 36.1539 40.3865C35.5909 39.2511 34.743 37.881 33.3806 36.3691C32.2044 35.064 30.981 33.9197 29.7311 32.9537L37.5106 32.9531Z" fill="#657681"/>
<path fill-rule="evenodd" clip-rule="evenodd" d="M0.325211 32.9531C0.205469 31.5534 0.139648 30.0573 0.139648 28.4604V28.4105L0.139863 28.3622L0.140077 28.3136L0.140399 28.2653C0.199573 20.896 3.58333 14.2141 6.04903 11.3384C6.388 10.9431 7.63183 9.51616 8.70619 8.50484C11.7942 5.59801 20.1453 0.0847312 38.7575 0.588998C49.3429 0.61344 55.7899 2.00468 60.1517 3.89697C62.3336 4.84354 63.9904 5.91425 65.3807 6.99825C66.7652 8.07829 67.8846 9.17172 68.9968 10.1694L69.0266 10.1962L69.0391 10.2342C69.0462 10.2556 74.3083 16.5862 75.5014 25.5462C75.8314 28.0255 75.9434 30.5052 75.7971 32.9524L67.1021 32.953C67.2551 31.0779 67.2088 29.1742 66.9451 27.1447C66.7598 26.088 66.5659 25.243 66.4259 24.6871C66.4566 24.6663 66.2385 24.8552 66.2385 24.8552C66.2385 24.8552 64.6949 25.8115 57.218 28.0644C52.2464 29.5624 48.8849 30.9706 46.2394 32.9527L38.6464 32.9529C38.6676 32.9203 38.6891 32.8863 38.7107 32.8515C38.9665 32.4406 39.2401 31.9387 39.4926 31.5272C40.0507 30.6186 41.7454 28.2045 44.1548 25.9462C46.5067 23.7417 52.1519 21.145 56.3231 19.5956C57.0224 19.3363 57.7156 19.0609 58.4022 18.7696C60.1186 17.9782 61.8177 16.974 63.3412 15.9694C63.2413 15.58 63.1285 15.3301 63.0677 15.204C63.0677 15.204 62.9946 15.014 62.8243 14.6941C62.651 14.3681 62.376 13.9041 61.9699 13.3519C61.1571 12.2462 59.8161 10.7834 57.7077 9.36447C56.7279 8.68804 55.3091 7.93807 53.4513 7.11478C49.7523 5.59608 44.7074 4.47134 37.8766 4.47134C27.295 4.47134 21.1065 7.13997 17.5672 9.79273C15.7968 11.1195 14.6861 12.4446 14.0189 13.4354C13.6861 13.9294 13.4632 14.341 13.3235 14.6293C13.1868 14.9112 12.983 15.3162 12.983 15.3162C12.7817 15.8794 13.0103 16.1195 13.4212 16.3868C14.2525 16.9271 15.4984 17.67 15.7271 17.8058C16.7373 18.3073 18.129 18.9345 19.9088 19.5956C24.0799 21.1451 29.725 23.7418 32.077 25.9463C34.4891 28.2072 36.0673 30.6669 36.6225 31.5708C36.8743 31.9806 37.1712 32.4721 37.4523 32.8716C37.472 32.8998 37.4917 32.9272 37.5107 32.9536L29.7313 32.953C28.0775 31.675 26.3777 30.7082 24.6811 30.0932C21.6763 29.0039 18.5964 28.3282 17.2441 27.9149C16.5996 27.7179 15.8237 27.4708 15.1872 27.266C14.842 27.1548 14.4971 27.0429 14.1525 26.9303L13.9913 26.8746C12.5298 26.3649 11.0319 25.7214 9.61974 24.9039C9.56464 24.872 9.53012 24.8648 9.51147 24.8641C9.49706 24.8632 9.48275 24.8672 9.47095 24.8755C9.45551 24.8856 9.43729 24.9031 9.41467 24.9329C9.38894 24.9666 9.36643 25.0032 9.34392 25.0368C9.26245 25.1592 8.94288 27.7644 8.88886 30.8439C8.89529 30.8437 8.93699 31.6623 9.09039 32.9534L0.325318 32.953" fill="#657681"/>
<path d="M9.21199 35.0509C14.7206 53.7318 21.1287 55.1245 36.8834 55.8215C61.1988 56.8976 64.8303 43.7549 66.2643 38.5339C67.8471 32.7712 66.9611 25.2358 66.9611 25.2358L69.4307 33.6579L64.5549 49.4888L57.716 54.5551L50.434 56.7711L38.7828 58.1007L23.9024 56.7711L15.4806 52.5287L11.2379 46.4496L9.59169 40.687C9.59169 40.687 8.89489 36.5711 9.21199 35.0509Z" fill="#CCCCCC"/>
<path d="M66.5205 23.2694C66.5205 23.2694 69.1816 34.2889 64.935 43.0933C60.6885 51.8979 56.6484 57.2764 37.7733 57.3401C18.8983 57.4038 14.978 49.5476 12.0621 44.1054C9.14602 38.6632 8.77135 30.8707 8.77135 30.8707L8.4281 40.0242L13.831 50.1849L18.3324 54.3041L24.7227 57.0851L41.821 58.1609L49.3583 57.0851L57.3978 55.0612L65.0625 48.6632L68.0984 37.7072L67.7873 25.5559C67.3157 23.6902 66.8933 22.928 66.5205 23.2694Z" fill="#666666"/>
<path d="M5.42537 17.498L7.17701 18.6462C7.17701 18.6462 6.90269 31.3946 6.84791 31.6103C6.79302 31.826 6.84791 38.7195 6.84791 38.7195L9.08945 47.4671L8.10579 48.2899L3.34827 35.71L3.84192 25.3204L4.82559 18.8108L5.42537 17.498Z" fill="#808080"/>
<path d="M67.0376 23.606C67.0376 23.606 69.7391 34.9156 65.6528 43.6555C61.5666 52.3956 58.6215 56.8072 38.6413 57.5935C22.4346 57.9998 18.2214 53.7804 15.226 50.7098C12.8566 48.2808 11.2081 44.2171 11.2081 44.2171C11.2081 44.2171 3.89391 30.6831 4.66897 34.9525C5.68479 40.5466 7.30608 48.5626 13.6061 53.594C17.4651 56.676 25.2482 58.5755 25.2482 58.5755L37.4383 59.5402L48.3455 58.8934L65.5976 52.2419L72.9752 36.1129C72.6315 28.6166 71.909 22.4152 70.8074 17.5093L68.4011 19.5866L67.0376 23.606Z" fill="url(#paint0_linear_221_5159)"/>
<path d="M6.15312 12.6636C6.15312 12.6636 5.83516 16.0645 6.59564 18.0612C5.56802 19.7069 4.21473 24.6367 4.03936 28.597C3.86387 32.5576 4.60376 42.8925 9.70872 48.7912C8.85648 50.404 8.34878 51.397 8.34878 51.397C8.34878 51.397 0.312988 45.9423 0.312988 28.48C0.312988 20.0581 4.84989 12.4902 7.2561 10.4934C6.52103 11.521 6.15312 12.6636 6.15312 12.6636Z" fill="url(#paint1_radial_221_5159)"/>
<path d="M0.890503 31.8329C0.890503 31.8329 1.12141 40.2941 4.2838 45.6617C7.44619 51.0292 10.2994 54.4619 17.7881 57.5312C25.2768 60.6005 36.0359 60.3696 37.7401 60.4237C39.444 60.4777 59.951 61.3958 69.5759 49.5412C75.0904 42.4303 76.5244 34.0082 75.3752 25.5862C74.2262 17.1641 69.9539 12.2434 69.9539 12.2434C69.9539 12.2434 70.548 13.7707 69.8457 17.9891C70.8869 19.8013 72.5761 25.817 72.2521 30.6297C71.928 35.4423 71.0447 41.9702 67.3856 47.0809C65.0334 50.3663 63.1673 52.6645 58.0307 55.071C52.8942 57.4772 45.0275 58.6804 37.9168 58.5723C30.8062 58.4642 23.9657 57.9093 18.2203 55.287C12.4747 52.6645 9.42027 48.677 7.23018 45.4996C5.04009 42.3222 6.72924 43.9331 4.053 41.296C1.37676 38.6588 0.890503 31.8329 0.890503 31.8329Z" fill="#121113"/>
<path d="M6.32019 11.3101C6.32019 11.3101 13.7394 0.0806262 38.7765 0.758771C59.9275 0.807333 64.4802 6.31815 68.9191 10.3009C69.0153 10.5914 67.1607 12.0952 67.1607 12.0952L64.1162 13.2384L55.3959 6.39286L39.9048 3.01586C39.9048 3.01586 25.3266 4.74156 24.7207 4.66695C24.115 4.59234 14.5649 9.92766 14.5649 9.92766L12.7794 15.4029L7.12215 11.1308L6.32019 11.31" fill="#C9CDD1"/>
<path d="M7.64847 10.4576C7.64847 10.4576 14.4384 0.303226 38.7546 0.961861C59.2966 1.00903 64.2863 6.89032 68.5977 10.7585C67.2223 11.9331 65.7743 11.7688 65.7743 11.7688L63.3649 13.0822L54.8955 6.43376L39.8505 3.15409C39.8505 3.15409 25.6921 4.83027 25.1037 4.7578C24.5154 4.68523 15.2401 9.86694 15.2401 9.86694L10.3194 12.9249L7.34778 11.1345L7.64847 10.4576Z" fill="#E6E6E6"/>
<path d="M7.64844 11.5857C7.64844 11.5857 15.8447 2.41162 37.7261 2.41162C59.6077 2.41162 67.6026 9.81933 68.4418 10.9383C67.491 12.1608 65.7737 13.4657 65.7737 13.4657C60.168 9.94315 54.9042 7.16078 49.9828 5.11884L36.7487 3.16373C36.7487 3.16373 21.1083 6.77315 20.8075 6.77315C20.5068 6.77315 12.3857 12.4882 12.3857 12.4882C12.3857 12.4882 11.7216 13.6054 11.1041 13.4671C9.42184 12.1042 7.64844 11.5857 7.64844 11.5857Z" fill="#808080"/>
<path d="M63.2192 15.1642C63.2192 15.1642 59.1149 4.34048 37.8995 4.34048C16.6841 4.34048 13.0119 15.0431 13.0119 15.0431L11.9976 13.266L15.6069 8.32766L25.1688 3.95553L31.8101 2.94002L38.1512 2.62646L46.2795 3.06845L52.6798 4.43203L61.5137 8.9014L66.2991 12.6936L66.6409 13.0774L63.2192 15.1642Z" fill="#2A2E33"/>
<path d="M62.6192 16.8408C62.6192 16.8408 60.5713 18.206 56.3981 19.7561C52.225 21.3062 46.6075 23.8943 44.2804 26.0755C41.8826 28.323 40.1961 30.7262 39.6436 31.6258C39.0911 32.5252 38.4383 33.8584 38.0913 33.7283C38.0479 34.4978 37.8744 39.0933 37.8744 39.0933L38.1347 39.2668L40.3239 35.4839L47.586 27.5822L50.8916 24.0596L62.1534 18.6832L62.6192 16.8408Z" fill="#B3B3B3"/>
<path d="M55.9826 20.0317C54.6271 20.6261 48.2664 22.6308 45.1165 26.4787C44.0425 27.7905 42.1593 31.2454 41.645 32.0811C41.1307 32.917 38.6418 38.2439 38.0356 38.9786C37.4295 39.7135 41.2684 35.8744 41.2684 35.8744C41.2684 35.8744 51.683 26.6165 51.9127 26.4787C52.1423 26.341 55.8434 23.0071 55.8434 23.0071C55.8434 23.0071 57.0465 19.5653 55.9828 20.0317" fill="#121113"/>
<path d="M69.2704 11.7192C69.2704 11.7192 63.8152 16.5321 58.2588 19.03C52.7024 21.5283 45.7718 23.9179 41.6227 33.046C38.4677 38.6131 46.5491 28.0494 46.5491 28.0494L50.8014 25L60.665 20.6006L65.707 17.3678L69.2704 11.7192Z" fill="#333333"/>
<path d="M69.3622 11.6274C69.3622 11.6274 65.4806 15.5359 60.0129 18.6169C58.2037 19.6363 53.3928 21.7431 51.1779 22.915C46.2983 25.4971 43.7756 30.0422 42.9857 30.9698C42.196 31.8975 38.1274 39.2082 38.1274 39.2082L39.8816 38.8317L46.641 29.9045L52.1423 26.5705L64.6878 22.6396L68.8022 19.2139C68.8022 19.2139 69.799 19.7194 70.0972 15.0534C70.2809 12.1786 69.3623 11.6275 69.3623 11.6275L69.3622 11.6274Z" fill="#E6E6E6"/>
<path d="M60.1341 26.9636L51.8252 29.6331L47.1631 31.5506L41.2604 35.9496C41.2604 35.9496 39.8693 38.4313 39.7565 38.9577C39.6437 39.484 38.779 42.3414 38.779 42.3414L38.6662 43.2816L38.3653 43.6573L38.1022 41.9655L38.2506 39.6565L39.403 37.5243L40.734 35.2354L43.2155 32.5658L46.6368 30.5354L52.4267 28.7307L57.2391 27.49L60.1341 26.9636Z" fill="#333333"/>
<path d="M66.1719 24.7535C66.1719 24.7535 64.6438 25.6964 57.1975 27.9401C49.7511 30.1838 45.8818 32.2348 42.6301 36.3296C40.8742 38.541 39.8661 40.7197 39.541 41.7927C39.2159 42.8658 38.5951 43.7741 38.5005 43.9064C38.4029 44.0425 37.9013 44.1008 37.8949 43.8081C37.8928 43.7073 38.3248 44.0815 38.4711 43.0054C38.4665 41.7572 38.5809 39.5478 39.3135 38.2483C40.3214 36.4597 41.8497 34.3135 44.3209 32.8503C46.7923 31.387 49.9788 30.1189 52.0597 29.371C54.1409 28.6229 59.3434 27.1923 61.5871 26.3793C63.8308 25.5663 66.6596 24.3306 66.6596 24.3306L66.1719 24.7535Z" fill="#999999"/>
<path d="M38.3124 39.4839C38.3124 39.4839 38.4331 42.9125 38.3124 43.2745C38.1918 43.6366 37.5921 43.0934 37.5921 43.0934L35.1557 37.4096L31.7274 33.8606L26.5227 30.6092L24.2372 29.7079L20.5675 28.565L19.0626 28.1125L18.7609 27.2412L26.4323 29.1082L32.1763 32.1141L35.1254 34.8825L37.3206 37.8886L38.3124 39.4839Z" fill="#B3B3B3"/>
<path d="M13.6581 16.8408C13.6581 16.8408 15.7059 18.206 19.8791 19.7561C24.0524 21.3062 29.6698 23.8943 31.9969 26.0755C34.3947 28.323 35.9647 30.7695 36.5171 31.669C37.0696 32.5686 37.839 33.8584 38.1861 33.7283C38.2293 34.4978 38.4029 39.0933 38.4029 39.0933L38.1427 39.2668L35.9533 35.4839L28.6912 27.5822L25.3855 24.0596L14.1238 18.6832L13.6581 16.8408Z" fill="#CCCCCC"/>
<path d="M37.3958 37.9776L34.4193 34.2613L29.0139 29.6228L11.8403 22.9226L6.60561 18.1906C6.60561 18.1906 5.38257 14.1788 6.14862 12.6892C6.12117 12.2218 6.99303 9.79086 7.31806 10.5478C8.2046 11.4495 9.27209 12.7883 12.9116 15.1645C12.5977 15.9031 12.8913 16.2263 13.3621 16.5324C14.2825 17.1308 15.7102 17.9767 15.7102 17.9767L18.7761 19.6675L24.7451 22.6766L27.905 24.6687L30.9956 27.9238L33.3076 30.7787L35.8081 34.0338L38.3682 39.1428L37.3958 37.9776Z" fill="#E6E6E6"/>
<path d="M12.3598 46.4901C11.0351 45.5603 9.37135 44.7899 7.74824 43.7498C6.4433 42.9135 5.41612 39.4515 4.90542 36.572C3.08656 26.3164 6.67989 18.7775 6.67989 18.7775C6.67989 18.7775 6.74282 18.6001 6.67346 18.5367C6.41254 18.298 6.59981 17.8685 7.00996 18.141C11.5981 21.1897 12.774 21.2162 16.3678 22.8924C21.5146 25.2927 26.9102 25.2703 32.6341 31.0392C35.3588 33.7854 38.0665 39.1922 38.3806 39.1248C38.358 39.6633 38.2766 42.206 38.2766 42.206C38.2766 42.206 38.4218 39.7602 37.6422 38.5333C34.4796 33.5578 29.8466 31.4878 29.8466 31.4878C29.8466 31.4878 25.8559 29.41 19.6017 28.2068C16.9056 27.6881 13.0652 26.7312 9.71793 24.7932C9.44093 24.633 9.33812 24.8284 9.24164 24.9731C9.05951 25.2465 8.33838 32.139 9.0861 36.572C9.78 40.687 10.7315 42.9135 12.3598 46.4901Z" fill="#1A1A1A"/>
<path d="M7.35521 10.575C7.35521 10.575 9.36553 12.9561 12.7995 15.1763C11.3634 14.6436 10.7206 14.5605 9.42288 13.571C8.55156 12.9064 7.35521 10.575 7.35521 10.575Z" fill="#3C444B"/>
<path d="M68.871 10.4706C68.871 10.4706 67.2759 12.1881 66.2071 12.9883C65.1383 13.7883 63.3467 15.0993 63.3467 15.0993L66.6102 13.486L68.871 10.4705" fill="#121113"/>
<path d="M9.96106 12.7149C9.96106 12.7149 12.8381 8.7296 17.6505 6.39457C22.4629 4.05977 25.6729 3.56043 28.6449 3.12284C31.4991 2.70262 37.2826 2.59349 37.7372 2.58545H37.7657C38.2337 2.59317 44.3472 2.7023 47.2045 3.12284C50.1766 3.56043 53.4112 3.96436 58.2236 6.29938C63.0362 8.63419 66.4253 12.8306 66.4253 12.8306C66.4253 12.8306 65.2179 13.1143 64.4808 13.7182C63.7437 14.3222 63.4667 14.0496 63.4667 14.0496C63.4667 14.0496 63.401 12.382 61.1613 9.94235C58.9214 7.5028 55.4598 6.06172 50.9802 4.4593C46.6497 2.90994 38.3156 2.85827 37.7657 2.85666H37.7372C37.2016 2.85838 29.1975 2.91059 24.8691 4.4593C20.3896 6.06172 17.7836 7.90223 15.5438 10.3419C13.3041 12.7814 12.8381 15.2543 12.8381 15.2543C12.8381 15.2543 12.1058 14.3222 11.3687 13.7181C10.6316 13.1143 9.96117 12.7147 9.96117 12.7147L9.96106 12.7149Z" fill="#1A1A1A"/>
<path fill-rule="evenodd" clip-rule="evenodd" d="M32.6931 30.0373C32.2087 29.3743 31.7225 28.7126 31.2345 28.0522C29 25.0267 26.3394 23.3297 23.601 21.9659C23.1579 21.7462 22.7121 21.5324 22.2634 21.3243C23.5519 21.8533 24.8046 22.4362 26.8072 23.5784C29.0019 24.8302 30.9752 27.5014 32.2232 29.3497C32.3785 29.5798 32.5352 29.809 32.6931 30.0373ZM6.73083 11.7722C7.12286 12.2059 10.2224 14.8215 15.3244 18.1496C20.5375 21.5502 26.603 22.2894 30.9927 28.233C34.4117 32.8622 34.7626 32.3677 37.8423 38.0898C37.2703 36.4572 36.6662 35.3202 35.8921 34.1079C35.1182 32.8955 33.7168 31.0229 32.4725 29.1794C31.228 27.3361 29.2196 24.6059 26.9558 23.3147C24.692 22.0235 23.3793 21.4419 21.8996 20.8504C20.4198 20.259 18.0093 19.3226 15.6772 17.9919C13.3452 16.6612 9.33739 13.9209 6.73083 11.7722Z" fill="#3C444B"/>
<path d="M38.5233 39.1831C40.8293 34.1899 43.055 31.3225 47.6769 27.9786C50.3517 26.0436 52.2819 25.687 55.3341 24.4759C57.3559 23.6735 58.5707 23.4162 60.5852 22.5959C64.2669 21.0964 65.9071 20.3587 69.6944 18.0225C69.9576 18.9149 67.9993 22.4191 66.6007 24.4759C62.6657 26.2092 59.4981 27.1712 54.7852 28.2744C51.9579 28.9362 49.8781 29.6198 47.0052 30.7809C42.1928 32.7263 40.8 35.1217 38.5233 39.1832V39.1831Z" fill="#1A1A1A"/>
<path d="M37.2375 38.9575C37.9842 40.4334 38.3278 41.7398 38.3278 43.0557C38.3278 44.3717 37.839 44.1461 37.3878 42.9806C36.9366 41.815 36.2599 39.3335 33.5153 36.288C30.7708 33.2425 27.763 31.0618 24.7553 29.9714C21.7474 28.8811 18.6644 28.2043 17.3109 27.7906C15.9575 27.3771 14.0239 26.7422 14.0239 26.7422L17.4238 27.6028C17.4238 27.6028 25.1311 29.3323 29.53 31.9266C33.9289 34.5208 36.057 36.6249 37.2375 38.9575Z" fill="#CCCCCC"/>
<path d="M6.14797 12.6697C5.9801 12.8737 1.68086 18.1833 0.312988 28.48C0.312988 20.5095 4.39129 13.1191 6.86825 10.657C6.52156 11.1742 6.14551 12.3296 6.14797 12.6697Z" fill="#C9CDD1"/>
<path d="M12.8213 15.2305C12.8213 15.2305 11.7347 13.7998 10.3748 12.7334C9.0151 11.6669 7.97913 11.2319 7.97913 11.2319C7.97913 11.2319 8.73199 12.1567 10.2637 13.3648C11.7955 14.5729 12.8213 15.2305 12.8213 15.2305Z" fill="#121113"/>
<path d="M7.98523 11.2418C7.98523 11.2418 8.85355 11.5087 10.1223 12.5349C10.1223 12.5349 12.8473 8.83786 16.8784 6.78563C20.9096 4.73372 24.8921 3.45418 30.3585 2.91357C30.3585 2.91357 23.6135 3.14202 16.7622 6.62611C12.8778 8.60148 10.0916 12.2404 10.0916 12.2404C9.41259 11.7398 8.71044 11.407 7.98523 11.2418Z" fill="#C9CDD1"/>
<path d="M69.7466 17.8384C69.7466 17.8384 70.4883 18.806 71.4087 22.5236C72.1083 25.3494 72.2603 28.1261 72.2603 28.1261C72.2603 28.1261 71.6664 22.3478 69.6945 18.0272L69.7466 17.8384Z" fill="#E6E6E6"/>
<path d="M37.7673 2.41358C38.2629 2.40136 44.3687 2.49987 47.2341 2.9217C48.7264 3.14146 50.2843 3.35297 52.0735 3.80235C53.8664 4.25269 55.8909 4.94145 58.3124 6.11636C60.7429 7.29577 62.8099 8.94257 64.2671 10.2912C64.8777 10.8573 65.4636 11.4495 66.023 12.0662C66.2089 12.2716 66.391 12.4803 66.5694 12.6922L66.4252 12.8305C66.4252 12.8305 63.0361 8.63426 58.2236 6.29935C53.4112 3.96433 50.1766 3.5604 47.2044 3.12281C44.3471 2.70226 37.7673 2.41358 37.7673 2.41358Z" fill="#F2F2F2"/>
<path d="M19.9869 53.2808C29.4907 57.7956 48.5718 57.5275 56.7433 53.2808C48.152 58.4603 29.3858 58.7285 19.9869 53.2808Z" fill="#E6E6E6"/>
<path d="M66.0493 43.1588H69.3441C69.3441 43.1588 65.739 52.5491 55.6493 55.8169C51.4272 57.1848 45.103 57.2594 45.103 57.2594C56.6415 56.5828 62.5747 52.8937 66.0493 43.1587V43.1588Z" fill="#CCCCCC"/>
<path d="M40.0715 36.1162C40.0715 36.1162 43.0876 29.78 50.2346 26.1978C52.1166 25.2545 55.267 24.4983 55.267 24.4983L53.4333 25.1875C51.3811 25.9255 49.7534 26.4762 47.6769 27.9785C44.1109 30.5584 41.9714 32.8548 40.1207 36.0625L40.0715 36.1162Z" fill="white"/>
<path d="M39.0087 38.9109C39.0087 38.9109 40.3983 32.7384 50.3395 29.7827C44.0025 32.1786 41.1807 34.2717 39.0087 38.9108V38.9109Z" fill="#B3B3B3"/>
<path d="M37.979 43.4687C37.9045 43.3487 37.8049 43.157 37.6911 42.8633C37.4632 42.2743 37.1776 41.3535 36.603 40.1948C36.0222 39.0235 35.1505 37.6168 33.7569 36.0702C32.5992 34.7857 31.3927 33.6507 30.1566 32.6836C33.9943 35.0454 35.8784 36.9924 36.9472 39.1044C37.6762 40.5452 38.0026 41.8015 38.0026 43.0558C38.0026 43.2306 37.9932 43.3668 37.979 43.4687Z" fill="#E6E6E6"/>
<path d="M63.2301 15.2135L63.4607 15.8996C63.4607 15.8996 64.6079 15.2666 66.6721 13.6758C68.7362 12.0847 69.3749 11.6114 69.3749 11.6114C69.3749 11.6114 69.9666 12.067 72.0542 15.4738C72.0542 15.4738 71.4035 13.4685 69.0377 10.4998L66.6366 13.4628L63.2301 15.2135Z" fill="#ECECEC"/>
<path d="M30.7627 27.9282C27.4383 24.3514 25.094 23.5396 20.8372 22.016C16.7495 20.553 15.0643 18.254 14.7445 17.7688C14.9373 17.8964 15.1306 18.0234 15.3243 18.1497C20.447 21.4913 26.3927 22.2629 30.7627 27.9282Z" fill="#666666"/>
<path d="M50.1215 77.7187H53.9773C53.9773 77.7187 55.6624 77.7072 55.6624 75.061C55.6624 72.3631 53.9773 72.3591 53.9773 72.3591H50.1215V77.7187ZM26.0685 75.9148C25.6584 75.9148 25.3258 76.2948 25.3258 76.7635C25.3258 77.2323 25.6584 77.6122 26.0687 77.6122L30.5648 77.6114V75.9155L26.0685 75.9148ZM62.661 75.9148C62.2509 75.9148 61.9183 76.2949 61.9183 76.7636C61.9183 77.2324 62.2509 77.6123 62.661 77.6123L67.1572 77.6115V75.9156L62.661 75.9149V75.9148ZM61.091 73.7232H67.2225C67.2236 73.1258 67.1822 72.1799 65.7816 72.1792C64.335 72.1785 59.4924 72.1792 59.4924 72.1792V69.4854C59.4924 69.4854 64.1678 69.4868 67.1572 69.4861C69.0239 69.4856 70.4991 70.2468 70.4994 72.4769L70.4979 80.5496H61.1115L61.2186 80.5566C59.9756 80.5566 58.9304 79.4623 58.6371 77.9829C57.8013 80.5493 55.7804 80.5482 54.2173 80.5444L46.661 80.5445V71.8777L36.0285 80.5495H24.5192L24.6261 80.5565C23.5937 80.5565 22.6977 79.8016 22.2558 78.6982L22.254 80.5495H18.9698V73.428C18.9698 73.428 18.9622 72.4795 17.9517 72.4773H15.5239V80.5494H12.275V72.4773H8.86815V80.5494H5.50037L5.50573 69.4853L19.2146 69.4851C20.7276 69.4851 22.2592 70.4785 22.2592 72.4774L22.258 75.5706C22.7004 74.471 23.5938 73.7193 24.624 73.7193L24.4985 73.7231H30.6302C30.631 73.1257 30.5897 72.1799 29.1891 72.1791C27.7425 72.1785 22.9002 72.1791 22.9002 72.1791V69.4854C22.9002 69.4854 27.5753 69.4868 30.5648 69.4861C32.4314 69.4856 33.9068 70.2468 33.9069 72.4769L33.9058 78.029L44.6424 69.4854H46.661L54.2432 69.4855C56.2384 69.4855 59.0249 69.4855 59.0249 75.0012L59.0238 75.1997C59.5039 74.3056 60.3068 73.7194 61.2165 73.7194L61.091 73.7232ZM35.0835 69.4854H42.7471L39.3536 72.4774H35.0814L35.0835 69.4854ZM45.6656 80.5409H38.002L41.3957 77.549H45.6678L45.6656 80.5409Z" fill="#0080C5"/>
<path d="M20.277 28.3376C20.277 28.3376 20.9638 28.4877 21.1835 28.5392C23.6984 29.1127 25.7667 29.8004 27.2509 30.3675C28.52 30.9426 29.9431 31.6959 31.488 32.6827C37.8262 36.7311 37.8609 40.1084 37.8609 40.1084C37.8609 40.1084 37.7708 37.7835 33.903 34.5519C30.0053 31.2952 23.3814 29.2308 21.4225 28.6695C21.0634 28.5666 20.277 28.3376 20.277 28.3376Z" fill="#808080"/>
<defs>
<linearGradient id="paint0_linear_221_5159" x1="64.8085" y1="20.8408" x2="64.1333" y2="48.3492" gradientUnits="userSpaceOnUse">
<stop stop-color="#999999"/>
<stop offset="1" stop-color="#D7D7D7"/>
</linearGradient>
<radialGradient id="paint1_radial_221_5159" cx="0" cy="0" r="1" gradientUnits="userSpaceOnUse" gradientTransform="translate(2.95671 27.9084) rotate(-36.7746) scale(16.9575 10.4721)">
<stop stop-color="white"/>
<stop offset="1" stop-color="#919191"/>
</radialGradient>
</defs>
</svg>
