<svg width="52" height="21" viewBox="0 0 52 21" fill="none" xmlns="http://www.w3.org/2000/svg">
<path d="M9.91929 2.85976C9.32513 3.55219 8.37448 4.09834 7.42383 4.02032C7.305 3.08407 7.77042 2.0893 8.31507 1.47488C8.90922 0.762943 9.949 0.255807 10.7907 0.216797C10.8897 1.19206 10.5035 2.14782 9.91929 2.85976ZM10.7808 4.20562C9.40436 4.1276 8.22594 4.97607 7.57237 4.97607C6.9089 4.97607 5.90873 4.24463 4.81944 4.26413C3.40337 4.28364 2.08632 5.0736 1.36343 6.33169C-0.121962 8.84786 0.977228 12.5734 2.41311 14.6214C3.11619 15.6357 3.95792 16.7475 5.06701 16.7085C6.11669 16.6695 6.5326 16.0355 7.80013 16.0355C9.07757 16.0355 9.44396 16.7085 10.5531 16.689C11.7018 16.6695 12.4247 15.6747 13.1277 14.6604C13.9299 13.5096 14.2566 12.3881 14.2764 12.3295C14.2566 12.31 12.0583 11.4811 12.0385 8.9844C12.0186 6.89734 13.7714 5.90257 13.8506 5.84406C12.8604 4.40067 11.3156 4.24463 10.7808 4.20562ZM18.7326 1.37736V16.5817H21.1291V11.3835H24.4464C27.4766 11.3835 29.6057 9.33549 29.6057 6.3707C29.6057 3.4059 27.5162 1.37736 24.5257 1.37736H18.7326ZM21.1291 3.36689H23.8919C25.9714 3.36689 27.1597 4.45919 27.1597 6.38045C27.1597 8.30172 25.9714 9.40376 23.882 9.40376H21.1291V3.36689ZM33.9827 16.6987C35.4878 16.6987 36.8841 15.9478 37.5179 14.7579H37.5674V16.5817H39.7856V9.01366C39.7856 6.81932 38.0031 5.40519 35.2601 5.40519C32.7151 5.40519 30.8336 6.83882 30.7643 8.80885H32.9231C33.1013 7.8726 33.9826 7.25819 35.1908 7.25819C36.6564 7.25819 37.4783 7.93112 37.4783 9.1697V10.0084L34.4877 10.184C31.705 10.3498 30.1998 11.4713 30.1998 13.4218C30.1998 15.3919 31.7546 16.6987 33.9827 16.6987ZM34.6263 14.8945C33.3489 14.8945 32.5369 14.2898 32.5369 13.3633C32.5369 12.4076 33.3192 11.8517 34.8145 11.7639L37.4783 11.5981V12.4563C37.4783 13.8802 36.2503 14.8945 34.6263 14.8945ZM42.7465 20.7168C45.0835 20.7168 46.1827 19.8391 47.1432 17.1766L51.3518 5.55148H48.9158L46.0935 14.5336H46.044L43.2218 5.55148H40.7164L44.7765 16.6207L44.5586 17.2936C44.1922 18.4347 43.5981 18.8736 42.5385 18.8736C42.3504 18.8736 41.984 18.854 41.8354 18.8345V20.6583C41.9741 20.6973 42.5682 20.7168 42.7465 20.7168Z" fill="black"/>
</svg>
