<svg width="61" height="21" viewBox="0 0 61 21" fill="none" xmlns="http://www.w3.org/2000/svg">
<path d="M25.8163 11.9731H0.537109V20.278H25.8163V11.9731Z" fill="#84B740"/>
<path d="M25.8163 0.640869H0.537109V8.95316H25.8163V0.640869Z" fill="#259BD6"/>
<path d="M51.0945 18.5904L50.9819 18.6126C50.5916 18.6866 50.449 18.7162 50.1637 18.7162C49.5032 18.7162 48.7227 18.3831 48.7227 16.8139C48.7227 16.0071 48.8578 14.9339 50.0887 14.9339H50.0962C50.3064 14.9487 50.5465 14.9709 50.9969 15.1041L51.0945 15.1337V18.5904ZM51.2971 10.7666L51.0945 10.8036V13.7051L50.9143 13.6533L50.8618 13.6385C50.6591 13.5793 50.1938 13.4461 49.7434 13.4461C47.2816 13.4461 46.7637 15.2817 46.7637 16.8213C46.7637 18.9309 47.9646 20.1448 50.0587 20.1448C50.9443 20.1448 51.5973 20.0559 52.2578 19.8413C52.8658 19.6488 53.0835 19.375 53.0835 18.7902V10.4631C52.498 10.5668 51.8901 10.6704 51.2971 10.7666Z" fill="#27292D"/>
<path d="M58.4126 18.6422L58.3075 18.6718L57.9322 18.768C57.5795 18.8568 57.2642 18.9086 57.024 18.9086C56.4461 18.9086 56.1008 18.6274 56.1008 18.1462C56.1008 17.8354 56.2435 17.3098 57.1892 17.3098H58.4126V18.6422ZM57.5494 13.4091C56.7914 13.4091 56.0108 13.5423 55.0425 13.8384L54.4121 14.0234L54.6222 15.4298L55.2377 15.2299C55.8832 15.0227 56.6863 14.8894 57.2867 14.8894C57.5569 14.8894 58.3826 14.8894 58.3826 15.7703V16.1551H57.2342C55.1401 16.1551 54.1719 16.8139 54.1719 18.2277C54.1719 19.4342 55.0651 20.1596 56.5662 20.1596C57.0315 20.1596 57.677 20.0707 58.2325 19.9375L58.2625 19.9301L58.2925 19.9375L58.4801 19.9671C59.0656 20.0707 59.6736 20.1744 60.2665 20.2854V15.6666C60.2665 14.1714 59.3508 13.4091 57.5494 13.4091Z" fill="#27292D"/>
<path d="M43.8305 18.6422L43.7255 18.6718L43.3502 18.768C42.9974 18.8568 42.6897 18.9086 42.442 18.9086C41.8641 18.9086 41.5188 18.6274 41.5188 18.1462C41.5188 17.8354 41.6614 17.3098 42.5996 17.3098H43.823V18.6422H43.8305ZM42.9749 13.4091C42.2093 13.4091 41.4362 13.5423 40.468 13.8384L39.8375 14.0234L40.0477 15.4298L40.6632 15.2299C41.3086 15.0227 42.1117 14.8894 42.7122 14.8894C42.9824 14.8894 43.808 14.8894 43.808 15.7703V16.1551H42.6597C40.5656 16.1551 39.5898 16.8139 39.5898 18.2277C39.5898 19.4342 40.483 20.1596 41.9917 20.1596C42.457 20.1596 43.1025 20.0707 43.6579 19.9375L43.6879 19.9301L43.718 19.9375L43.8981 19.9671C44.491 20.0707 45.0915 20.1744 45.6844 20.2928V15.674C45.6919 14.164 44.7763 13.4091 42.9749 13.4091Z" fill="#27292D"/>
<path d="M35.927 13.4239C34.9738 13.4239 34.1857 13.7348 33.893 13.868L33.818 13.905L33.7504 13.8532C33.3451 13.5645 32.7521 13.4165 31.9265 13.4165C31.1985 13.4165 30.5155 13.5201 29.7724 13.7348C29.1344 13.9272 28.8867 14.2307 28.8867 14.8006V20.0782H30.8832V15.2003L30.9808 15.1707C31.3861 15.0375 31.6263 15.0153 31.859 15.0153C32.4369 15.0153 32.7296 15.3188 32.7296 15.9109V20.0856H34.6961V15.8295C34.6961 15.5778 34.6436 15.4298 34.6361 15.4002L34.5685 15.2744L34.7036 15.2152C35.0038 15.0819 35.3341 15.0153 35.6794 15.0153C36.0772 15.0153 36.55 15.1707 36.55 15.9109V20.0856H38.509V15.7185C38.509 14.1715 37.6684 13.4239 35.927 13.4239Z" fill="#27292D"/>
<path d="M56.9414 6.05903C56.6487 6.05903 56.1608 6.02942 55.778 5.9554L55.6655 5.9332V3.08348C55.6655 2.84662 55.6204 2.69859 55.6129 2.67638L55.5529 2.55795L55.6805 2.50614C55.7105 2.49133 55.7405 2.48393 55.778 2.46913L55.8006 2.45432C55.8456 2.43952 55.8906 2.42472 55.9357 2.40992C55.9582 2.40251 55.9732 2.39511 55.9882 2.39511C56.431 2.27668 56.8364 2.29148 57.0165 2.27668H57.024C58.2474 2.27668 58.39 3.34995 58.39 4.15675C58.3825 5.72595 57.5944 6.05903 56.9414 6.05903ZM56.9339 0.640869C56.9189 0.640869 56.8964 0.640869 56.8814 0.640869C55.733 0.640869 54.5546 0.951749 54.1343 1.5587C53.9091 1.85478 53.7815 2.22487 53.774 2.66158V5.60011C53.774 5.85178 53.7215 5.948 53.714 5.97021L53.6464 6.09604H50.0212V4.05313H50.0137C49.9686 1.89919 48.6777 0.714888 46.8087 0.714888H46.5911H44.9849C44.9098 1.24042 44.8498 1.61051 44.7747 2.13605H46.5911C47.5443 2.13605 48.0472 2.93545 48.0472 4.16415V6.22187L47.9196 6.15525C47.8971 6.14785 47.7395 6.09604 47.4918 6.09604H44.3544C44.2943 6.48834 44.2193 6.99907 44.1367 7.5098H53.7815C54.1118 7.44318 54.4946 7.38396 54.8248 7.33215C55.3127 7.56901 56.2209 7.69484 56.8439 7.69484C58.9379 7.69484 60.2965 6.31069 60.2965 4.17896C60.289 2.06943 58.9755 0.68528 56.9339 0.640869Z" fill="#27292D"/>
<path d="M40.0252 8.37569H40.1152C42.2093 8.37569 43.1851 7.69472 43.1851 6.0145C43.1851 4.80799 42.2919 3.84575 40.7907 3.84575H38.8618C38.2838 3.84575 37.9386 3.52007 37.9386 2.97233C37.9386 2.60224 38.0812 2.14333 39.0269 2.14333H43.2451C43.3352 1.60299 43.3802 1.2625 43.4628 0.722168H39.0794C37.0379 0.722168 36.0096 1.56598 36.0096 2.97233C36.0096 4.36388 36.9028 5.08926 38.4039 5.08926H40.3329C40.9108 5.08926 41.2561 5.54078 41.2561 6.0145C41.2561 6.32537 41.1135 6.96934 40.1753 6.96934H39.8525L33.6753 6.95453H32.5495C31.5963 6.95453 30.9283 6.4216 30.9283 5.18549V4.33428C30.9283 3.04635 31.4462 2.24695 32.5495 2.24695H34.3809C34.4634 1.69921 34.516 1.35133 34.591 0.833196H32.3093H32.0916C30.2227 0.833196 28.9318 2.06931 28.8867 4.22325V4.30467V5.18549C28.9318 7.33943 30.2227 8.36829 32.0916 8.36829H32.3093H33.9155L37.2631 8.37569H39.2596H40.0252Z" fill="#27292D"/>
</svg>
