<svg width="70" height="25" viewBox="0 0 70 25" fill="none" xmlns="http://www.w3.org/2000/svg">
<path d="M28.5632 0.229004H25.004C23.3245 4.82889 20.4962 12.4668 18.9385 16.6547C18.7819 17.0581 18.5904 17.4442 18.3555 17.8133H20.8182C21.4883 17.7704 22.0887 17.4013 22.4107 16.8178C22.4629 16.7319 22.5151 16.6375 22.55 16.5431L24.038 12.5354C25.8829 7.54934 28.3805 0.778244 28.5632 0.229004Z" fill="#929497"/>
<path d="M66.3912 9.0254L64.9031 13.0417C64.6246 13.754 63.9545 14.2432 63.18 14.2947H60.7173C60.9697 13.8999 61.1872 13.4794 61.3439 13.0417L62.8319 9.0254H59.264L57.7846 13.0417C57.5062 13.754 56.8274 14.2432 56.0616 14.2947H53.5814C53.8338 13.8999 54.0427 13.4794 54.208 13.0417L55.6961 9.0254H52.1282L50.6488 13.0417C50.3703 13.754 49.7002 14.2432 48.9257 14.2947H37.5258C37.7868 13.9085 37.9957 13.4966 38.161 13.0675L38.5352 12.0376C39.5099 9.39442 38.1262 7.26611 35.4546 7.26611H31.3994L30.1027 10.7761H34.1754C34.8803 10.7761 35.2458 11.3339 34.9847 12.0291L34.5931 13.0589C34.3146 13.7626 33.6446 14.2432 32.8788 14.2861H27.0134L25.7168 17.8047H61.9095C64.5898 17.8047 67.4963 15.6849 68.471 13.0589L69.9678 9.01682L66.3912 9.0254Z" fill="#ED7624"/>
<path d="M9.84447 17.8133H0.419922L1.71656 14.2948H11.1498C11.9243 14.2433 12.6031 13.7541 12.8903 13.0418L13.2558 12.0463C13.5081 11.3512 13.1513 10.7933 12.4464 10.7933H6.58982L7.88646 7.27478H13.7344C16.4147 7.27478 17.7809 9.41167 16.815 12.0463L16.4495 13.0418C15.4748 15.685 12.5161 17.8047 9.84447 17.8133Z" fill="#ED7624"/>
<path d="M25.7001 21.821H25.265L25.0996 22.2587H25.5347L25.7001 21.821Z" fill="#929497"/>
<path d="M26.6322 23.117C26.58 23.2886 26.4581 23.4345 26.3015 23.5289C26.1623 23.589 26.0056 23.6147 25.849 23.6061H24.7525C24.5785 23.6233 24.3957 23.5804 24.2478 23.4774C24.1346 23.3744 24.1259 23.1942 24.2217 22.9368L24.474 22.276H24.0302L23.7779 22.9368C23.4994 23.6834 23.7779 24.061 24.6394 24.061H26.0927C26.4843 24.061 26.8323 23.8035 26.9455 23.4259L27.3806 22.2588H26.9455L26.6322 23.117Z" fill="#929497"/>
<path d="M26.4657 21.821H26.0219L25.8652 22.2587H26.3003L26.4657 21.821Z" fill="#929497"/>
<path d="M29.4762 23.1856C29.5284 23.0397 29.6154 22.911 29.7285 22.7994C29.833 22.6879 29.9809 22.6278 30.1375 22.6278C30.3464 22.6278 30.4508 22.7308 30.4508 22.9367L30.9033 22.7565C30.8946 22.4647 30.651 22.233 30.3551 22.2416C30.3377 22.2416 30.3203 22.2416 30.3029 22.2416C30.0244 22.2416 29.7546 22.3446 29.5371 22.5162C29.3108 22.6879 29.1281 22.911 29.0237 23.177C28.9714 23.3058 28.9453 23.4517 28.954 23.5976H28.2318C28.1186 23.6147 27.9968 23.589 27.9011 23.5289C27.8401 23.4688 27.8401 23.3401 27.9011 23.1513L28.5189 21.495H28.0838L27.4137 23.3229C27.3354 23.486 27.3267 23.6662 27.3876 23.8378C27.4747 23.9837 27.64 24.0696 27.814 24.0438H30.4334L30.5988 23.589H29.4588C29.3979 23.4517 29.3979 23.2972 29.4588 23.1685" fill="#929497"/>
<path d="M35.6122 21.4521H35.1771L35.0117 21.8898H35.4468L35.6122 21.4521Z" fill="#929497"/>
<path d="M35.1069 22.2245C34.5413 22.2502 34.0453 22.6107 33.8625 23.1342C33.8016 23.28 33.7842 23.4431 33.8016 23.6062H32.7051L32.8792 23.1427C33.0706 22.6278 32.8792 22.2502 32.3744 22.2502C31.8262 22.2674 31.3389 22.6192 31.1474 23.1256C30.956 23.6491 31.1996 24.0438 31.687 24.0438H32.1134C32.0002 24.2412 31.7827 24.3528 31.5564 24.3528L31.4259 24.6961C31.9045 24.7218 32.3396 24.4643 32.5398 24.0353H34.4282C34.9938 24.0095 35.4811 23.6491 35.6639 23.1256C35.8553 22.6107 35.6465 22.1987 35.1069 22.1987M32.2526 23.589H31.8523C31.6086 23.589 31.5216 23.3659 31.6086 23.0998C31.6957 22.8424 31.9306 22.6707 32.2091 22.6536C32.444 22.6536 32.5224 22.8166 32.4528 23.0569L32.2526 23.589ZM34.5848 23.6319C34.315 23.6319 34.2193 23.4002 34.3237 23.117C34.4021 22.8424 34.6457 22.6364 34.9416 22.6107C35.2114 22.6107 35.3158 22.8338 35.2027 23.1342C35.1156 23.4088 34.872 23.6062 34.5848 23.6319Z" fill="#929497"/>
<path d="M43.348 23.1942C43.3132 23.2971 43.2696 23.3915 43.2087 23.4774C43.1217 23.5718 42.9999 23.6147 42.878 23.6061H41.8686C41.9904 23.4774 42.0861 23.3143 42.1296 23.1427L42.7388 21.4864H42.295L41.6771 23.1427C41.6423 23.2542 41.5901 23.3572 41.5205 23.443C41.4335 23.5374 41.3116 23.5889 41.1898 23.5803H40.5197L40.5632 23.4688C40.659 23.2628 40.659 23.0139 40.5632 22.808C40.4501 22.6192 40.2326 22.5162 40.015 22.5419C39.7452 22.5419 39.4755 22.6363 39.2666 22.7994C39.0403 22.971 38.875 23.1942 38.7793 23.4602C38.7793 23.5031 38.7445 23.546 38.7358 23.5889H37.8046C38.057 22.911 37.9439 22.4819 37.4739 22.3016C37.4043 22.2759 37.326 22.2502 37.2564 22.2416H36.8387L36.6907 22.6449C36.8213 22.6449 36.9518 22.6535 37.0823 22.6792C37.4565 22.7651 37.5523 23.0654 37.3608 23.5889H35.9075L35.7422 24.0352H38.7619C38.8576 24.2669 39.1013 24.3956 39.3536 24.3613C39.6669 24.3613 39.9802 24.2411 40.2064 24.0352H42.8432C43.287 24.0438 43.6786 23.7434 43.7831 23.3143L44.4531 21.4778H44.0006L43.348 23.1942ZM39.8497 23.855C39.7452 23.9494 39.6147 24.0009 39.4755 24.0009C39.197 24.0009 39.11 23.7691 39.2144 23.4859C39.2666 23.3572 39.3449 23.2371 39.4493 23.1427C39.5538 23.0397 39.693 22.9882 39.8322 22.9882C39.9541 22.9796 40.0672 23.0397 40.1107 23.1512C40.1455 23.2714 40.1368 23.4001 40.0846 23.5117C40.0411 23.6318 39.9628 23.752 39.8497 23.855Z" fill="#929497"/>
<path d="M46.559 22.3274C46.4894 22.3017 46.411 22.2759 46.3414 22.2673H45.9237L45.7758 22.6707C45.9063 22.6707 46.0368 22.6793 46.1674 22.705C46.5416 22.7908 46.6373 23.0912 46.4459 23.6147H45.0013L44.8359 24.0609H46.7417L46.9071 23.6147C47.142 22.9367 47.0289 22.5076 46.559 22.3274Z" fill="#929497"/>
<path d="M47.1426 24.0609H47.5864L48.5349 21.5035H48.0911L47.1426 24.0609Z" fill="#929497"/>
<path d="M53.6593 23.1685C53.5549 23.4603 53.3808 23.6062 53.1546 23.6062H52.7282C52.8587 23.4689 52.9544 23.3059 52.9979 23.1256L53.3286 22.2589H52.8848L52.5541 23.1685C52.4497 23.4603 52.2757 23.6062 52.0494 23.6062H51.6317V23.5805C51.7448 23.4432 51.8231 23.2887 51.8753 23.1171L52.206 22.2503H51.7274L51.3967 23.1256C51.2836 23.4432 51.1096 23.5891 50.8833 23.5891H50.0566C50.3002 22.9282 50.1958 22.482 49.7259 22.3018C49.6563 22.276 49.578 22.2503 49.5083 22.2417H49.0906L48.9427 22.645C49.0732 22.645 49.2038 22.6536 49.3343 22.6794C49.7085 22.7652 49.8042 23.0656 49.6128 23.5891H48.1595L47.9941 24.0353H53.0415C53.581 23.9752 54.0248 23.6062 54.164 23.0913L54.486 22.2417H54.0161L53.6593 23.1685Z" fill="#929497"/>
<path d="M57.7585 22.2587H56.6272C56.0006 22.2844 55.4611 22.7135 55.287 23.3142L54.791 24.7045H55.2435L55.7309 23.3829C55.8875 22.9538 56.1834 22.6877 56.4793 22.6877H56.8099C56.6881 22.8251 56.5837 22.9795 56.5228 23.1512C56.3313 23.6661 56.5489 24.0694 57.0884 24.0694C57.6454 24.0437 58.1327 23.6832 58.3241 23.1598C58.5156 22.6363 58.3067 22.2329 57.7672 22.2329M57.2538 23.6661C56.984 23.6661 56.8796 23.4344 56.9927 23.1512C57.071 22.8766 57.3147 22.6706 57.6105 22.6448C57.889 22.6448 57.976 22.868 57.8716 23.1683C57.7846 23.443 57.5409 23.6403 57.2538 23.6661Z" fill="#929497"/>
<path d="M62.9462 21.4607H62.511L62.3457 21.8984H62.7808L62.9462 21.4607Z" fill="#929497"/>
<path d="M65.3125 21.4607H64.8773L64.7207 21.8984H65.1558L65.3125 21.4607Z" fill="#929497"/>
<path d="M64.5726 22.2589L64.242 23.1857C64.2072 23.2887 64.1636 23.3831 64.1027 23.4689C64.0157 23.5633 63.8939 23.6063 63.772 23.5977H63.0498C63.3804 22.6966 63.189 22.2417 62.5102 22.2417C62.0838 22.2417 61.6226 22.4563 61.0743 22.9283L61.6574 21.4951H61.2136L60.4391 23.5977H59.5166C59.4035 23.6148 59.2817 23.5891 59.186 23.529C59.125 23.4689 59.125 23.3402 59.186 23.1514L59.8038 21.4951H59.3687L58.6986 23.3231C58.6203 23.4861 58.6029 23.6663 58.6725 23.838C58.7595 23.9839 58.9249 24.0697 59.0989 24.0439H63.7024C64.1462 24.0525 64.5378 23.7521 64.6423 23.3231L65.0426 22.2417L64.5726 22.2589ZM62.5624 23.6063H60.7785C61.2484 23.057 61.8662 22.6451 62.3101 22.6451C62.693 22.6451 62.8061 22.9712 62.6233 23.4775C62.6146 23.5204 62.5972 23.5633 62.5711 23.6063" fill="#929497"/>
</svg>
