<svg width="65" height="19" viewBox="0 0 65 19" fill="none" xmlns="http://www.w3.org/2000/svg">
<path d="M42.3096 13.8745V4.08129H43.9936V4.86475C44.5315 4.21594 45.3508 3.85278 46.2032 3.8895C48.1355 3.8895 49.5134 5.41153 49.5134 7.59461C49.5134 9.77768 48.119 11.3283 46.2032 11.3283C45.355 11.365 44.5357 11.01 43.9936 10.3653V13.8745H42.3096ZM43.9936 6.69281V8.49232C44.3164 9.25946 45.0736 9.75728 45.9136 9.7532C47.0307 9.7532 47.7755 8.93709 47.7755 7.58645C47.7755 6.2358 47.0307 5.44418 45.9136 5.44418C45.0736 5.42786 44.3081 5.92568 43.9936 6.69281Z" fill="#00C48C"/>
<path d="M50.6137 9.14127C50.5599 8.00281 51.4453 7.03573 52.5998 6.97452L55.4589 6.61544V6.24411C55.5045 5.93807 55.2934 5.64836 54.979 5.60347C54.9335 5.59531 54.8838 5.59531 54.8383 5.59939H51.2467V4.0896H54.9086C56.3568 4.0896 57.1554 4.79145 57.1554 6.04008V11.1285H55.4589V10.2634C54.9045 10.9857 54.019 11.3896 53.1004 11.3366C51.6233 11.3366 50.6178 10.443 50.6178 9.12495M53.5142 9.99002C54.3418 10.0104 55.1031 9.54932 55.4589 8.81075V7.91712L53.2784 8.21908C52.6701 8.30477 52.3391 8.62713 52.3391 9.12495C52.3391 9.62277 52.7529 9.99002 53.5142 9.99002Z" fill="#00C48C"/>
<path d="M58.3802 12.3649H59.6215C60.0187 12.4016 60.3787 12.1364 60.4491 11.7487L60.6725 11.1285L58.0781 4.0896H59.7994L61.4173 8.98621H61.4587L63.0021 4.0896H64.7647L61.9221 12.1731C61.5373 13.283 61.0242 13.8747 59.7705 13.8747H58.4009L58.3802 12.3649Z" fill="#00C48C"/>
<path d="M7.07587 18.7141C9.03302 18.7141 10.6426 18.1102 11.6977 17.0819C12.5087 16.2781 12.9556 15.1886 12.9391 14.0542C12.9556 13.0055 12.546 11.9935 11.8012 11.2427C10.9116 10.4144 9.79023 9.87167 8.58201 9.68396L6.33107 9.25143C5.39594 9.08005 4.87045 8.61895 4.87045 7.98239C4.87045 7.16629 5.698 6.57053 7.00553 6.57053C7.73791 6.54197 8.45374 6.80312 8.99165 7.29279C9.29784 7.61923 9.49231 8.03544 9.55024 8.47613L12.7942 7.75388C12.6949 6.83985 12.2687 5.9911 11.5943 5.35862C10.3364 4.212 8.67304 3.59992 6.96001 3.65705C5.38353 3.60808 3.84842 4.14263 2.65675 5.15868C1.77541 5.95846 1.27888 7.08876 1.28302 8.27211C1.24991 9.26367 1.63059 10.2226 2.33814 10.9244C3.1988 11.7038 4.2622 12.2343 5.40835 12.4546L7.63033 12.9729C8.74338 13.234 9.23991 13.638 9.23991 14.3602C9.23991 15.2539 8.41236 15.7721 7.07587 15.7721C6.24418 15.817 5.42904 15.5191 4.82493 14.956C4.46909 14.601 4.25806 14.1276 4.23737 13.6298L0.902344 14.3521C1.00165 15.3151 1.44025 16.2169 2.14367 16.8901C3.25672 18.0408 5.04009 18.7345 7.05932 18.7345M31.7451 18.7345C33.5864 18.7835 35.3698 18.1102 36.7104 16.8616C37.5504 16.0618 38.1545 15.058 38.4648 13.9481L35.0677 12.8137C34.6623 14.2705 33.2885 15.262 31.7575 15.209C30.7893 15.2049 29.8666 14.8295 29.1797 14.1562C28.4308 13.3483 28.0336 12.2792 28.075 11.1815C28.0294 10.0879 28.4267 9.01884 29.1797 8.21498C29.8666 7.54986 30.7935 7.18669 31.7534 7.20709C32.6141 7.16629 33.4499 7.48049 34.0664 8.07216C34.4761 8.5047 34.7781 9.027 34.9436 9.59827L38.4235 8.44757C38.1297 7.37031 37.5587 6.38691 36.7684 5.59121C35.3946 4.30177 33.5575 3.604 31.6624 3.65705C29.6845 3.63665 27.777 4.39562 26.3661 5.76259C24.9385 7.21117 24.1565 9.16166 24.1855 11.1815C24.1565 13.2136 24.9592 15.1682 26.4116 16.6086C27.8391 17.9837 29.7673 18.7427 31.7617 18.7141M19.9443 18.7141C21.467 18.7141 22.5469 18.253 23.0186 17.8491V14.7356C22.4393 15.1192 21.7566 15.3232 21.0573 15.311C20.5277 15.3518 20.0022 15.1886 19.5926 14.854C19.2657 14.4459 19.1084 13.9277 19.154 13.4095V0.196777H15.2934V4.08958H23.0186V7.78244H15.2934V14.3113C15.2397 15.466 15.6493 16.5963 16.4355 17.4533C17.263 18.2694 18.4547 18.6774 19.9443 18.6774" fill="#4F008C"/>
</svg>
