<svg width="43" height="43" viewBox="0 0 43 43" fill="none" xmlns="http://www.w3.org/2000/svg">
<g id="car-insurance_3205058 1" clip-path="url(#clip0_989_16436)">
<g id="Group">
<path id="Vector" d="M21.2891 25.1054H34.6159L28.9096 19.335C26.399 22.4987 22.9334 24.6655 21.2891 25.1054Z" fill="#32012F"/>
<path id="Vector_2" d="M12.7656 20.583V25.1048H19.3403C18.0835 24.7684 15.1879 23.1683 12.7656 20.583Z" fill="#32012F"/>
<path id="Vector_3" d="M19.8732 22.6347C20.1603 22.7417 20.476 22.7405 20.7625 22.6311C20.8722 22.5893 23.4778 21.5737 26.059 18.7898C28.4121 16.2519 31.2171 11.6838 31.2171 4.33364C31.2171 3.6275 30.6362 3.05901 29.9302 3.07412C26.7604 3.14215 23.6117 2.1387 21.0655 0.2483C20.6196 -0.0827666 20.0095 -0.0827666 19.5636 0.2483C17.0115 2.14316 13.8607 3.14988 10.6931 3.08101C9.99826 3.06278 9.40625 3.62657 9.40625 4.34052C9.40625 11.7333 12.2132 16.2979 14.5678 18.8254C17.1528 21.5998 19.7634 22.5937 19.8732 22.6347ZM17.0693 9.85914C17.5612 9.36716 18.3589 9.36716 18.8509 9.85914L19.6818 10.69L22.4444 7.9275C22.9363 7.43551 23.734 7.43551 24.226 7.9275C24.7179 8.41948 24.7179 9.21708 24.226 9.70906L20.5726 13.3624C20.0807 13.8544 19.283 13.8544 18.7911 13.3624L17.0694 11.6407C16.5773 11.1487 16.5773 10.3511 17.0693 9.85914Z" fill="#32012F"/>
<path id="Vector_4" d="M10.22 35.2471C8.08265 35.2471 6.34375 36.9859 6.34375 39.1232C6.34375 41.2605 8.08265 42.9995 10.22 42.9995C12.3573 42.9995 14.0962 41.2606 14.0962 39.1233C14.0962 36.986 12.3574 35.2471 10.22 35.2471Z" fill="#32012F"/>
<path id="Vector_5" d="M38.8848 32.6357C38.189 32.6357 37.625 32.0717 37.625 31.376C37.625 30.6802 38.189 30.1162 38.8848 30.1162H42.8783C42.6494 29.1312 42.1072 28.2598 41.3408 27.6246H11.5059C10.8101 27.6246 10.2461 27.0606 10.2461 26.3649V17.5527H8.96029C8.48603 17.5527 8.052 17.819 7.83717 18.2419L4.35005 25.1051H2.93945C1.31864 25.1051 0 26.4238 0 28.0446V30.2344H3.86328C4.55901 30.2344 5.12305 30.7984 5.12305 31.4941C5.12305 32.1899 4.55901 32.7539 3.86328 32.7539H0V33.0252C0 35.3652 1.74939 37.303 4.00874 37.6027C4.69321 34.8082 7.21779 32.728 10.2202 32.728C13.2375 32.728 15.7718 34.829 16.4414 37.6443H26.6361C27.3057 34.829 29.84 32.728 32.8573 32.728C35.8746 32.728 38.4089 34.829 39.0784 37.6443H41.7402C42.436 37.6443 43 37.0803 43 36.3846V32.6357L38.8848 32.6357Z" fill="#32012F"/>
<path id="Vector_6" d="M32.8606 35.2471C30.7233 35.2471 28.9844 36.9859 28.9844 39.1232C28.9844 41.2605 30.7233 42.9995 32.8606 42.9995C34.9979 42.9995 36.7368 41.2606 36.7368 39.1233C36.7368 36.986 34.9979 35.2471 32.8606 35.2471Z" fill="#32012F"/>
</g>
</g>
<defs>
<clipPath id="clip0_989_16436">
<rect width="43" height="43" fill="white"/>
</clipPath>
</defs>
</svg>
