<svg width="43" height="43" viewBox="0 0 43 43" fill="none" xmlns="http://www.w3.org/2000/svg">
<g id="shield_15698419 1">
<g id="Group">
<g id="Group_2">
<path id="Vector" d="M42.4187 26.6877C41.6286 30.8124 39.4228 34.3727 36.3611 36.9036C33.3054 39.4346 29.387 40.9288 25.1891 40.9288H25.0897C15.8971 40.8757 8.33782 33.7552 7.69349 24.6291C4.02707 23.759 3.21679 18.9699 3.1832 18.7576C3.13684 18.4983 3.16304 18.2262 3.25643 17.9735C2.3662 15.3297 1.44976 12.5468 0.533322 9.69737C0.0482287 8.16281 0.208135 6.47573 0.978104 5.0742C1.64192 3.8655 2.69139 3.01491 3.93368 2.68972C4.13323 2.64336 4.3321 2.56341 4.54442 2.47741C4.9032 2.33766 5.27542 2.18514 5.70004 2.15222C5.75312 2.1455 5.79948 2.1455 5.85256 2.1455C6.28457 2.1455 6.67628 2.30473 6.96182 2.59028C7.25409 2.88255 7.41332 3.29441 7.4066 3.74591C7.4066 4.77522 6.45657 5.39334 5.53342 5.39334H5.46757C5.12895 5.37991 4.87632 5.26031 4.67073 5.16759C4.56457 5.11384 4.47185 5.0742 4.37846 5.05405C4.13256 4.99425 3.90009 5.1938 3.65485 5.41283C2.62487 6.33598 2.29296 7.5252 2.70482 8.84006C3.6347 11.7762 4.69089 14.6787 5.50788 16.9039L5.85995 17.4085C6.0857 17.6342 6.23217 17.9198 6.28524 18.2322L6.29196 18.2524C6.3914 18.7569 6.56407 19.3153 6.77034 19.7802C6.78378 19.8131 6.8167 19.8796 6.84357 19.9394C6.86373 19.9858 6.88993 20.0389 6.91681 20.092C7.41467 21.0749 8.04623 21.5929 8.76984 21.6198H8.84979L8.87667 21.6265H8.93646C9.39468 21.6265 10.9427 21.3806 11.4473 18.2591C11.5339 17.7545 11.839 17.3426 12.271 17.1169L12.5303 16.4262C13.0087 15.151 13.4871 13.869 13.9648 12.5804C14.0911 12.2216 14.2436 11.8501 14.4035 11.4644C15.0747 9.83041 15.7721 8.14333 15.1338 6.682C14.6756 5.63925 14.1576 5.04128 13.7122 5.04128C13.5657 5.048 13.393 5.11452 13.2076 5.18103C12.9549 5.28047 12.6761 5.38663 12.3442 5.38663C12.1117 5.38663 11.8927 5.33355 11.6797 5.22739C10.8762 4.82897 10.7169 4.25116 10.6901 3.93873C10.637 3.3542 10.9622 2.76967 11.5803 2.32489C11.8128 2.15222 12.0849 2.07227 12.3771 2.07227C12.9549 2.07227 13.4931 2.38469 13.9312 2.64336C14.0179 2.68972 14.0971 2.7428 14.1704 2.78311C14.8543 3.14861 15.6384 3.59339 16.3358 4.19808C17.2986 5.048 17.7837 6.37697 17.7172 7.94445C17.6903 8.64858 17.5647 9.35942 17.3517 10.0038C16.9197 11.2857 16.4682 12.5743 16.0301 13.8166C15.625 14.9655 15.2131 16.1151 14.8214 17.2708C14.722 17.563 14.6286 17.8553 14.5359 18.1475C14.5822 18.3404 14.5889 18.546 14.5627 18.7522C13.9319 22.5651 11.9391 23.9465 10.6706 24.4444C10.6706 24.8293 10.684 25.1552 10.7169 25.467C11.155 28.569 12.57 31.4184 14.8154 33.6833C16.6489 35.5363 18.94 36.8646 21.4374 37.5224C22.6461 37.8476 23.9085 38.0142 25.1905 38.0142C33.261 38.0142 39.8232 31.452 39.8232 23.3815C39.8232 20.5119 38.933 17.6826 37.3124 15.2645C38.1825 14.7532 38.9135 14.0222 39.4382 13.1589C39.7104 13.5311 39.963 13.9161 40.2022 14.3078C41.3047 16.1346 42.0619 18.1267 42.4469 20.2257C42.8433 22.3636 42.8299 24.5425 42.4187 26.6877Z" fill="#32012F"/>
<path id="Vector_2" d="M34.1344 14.5109C36.655 14.5109 38.6984 12.4675 38.6984 9.94686C38.6984 7.42621 36.655 5.38281 34.1344 5.38281C31.6137 5.38281 29.5703 7.42621 29.5703 9.94686C29.5703 12.4675 31.6137 14.5109 34.1344 14.5109Z" fill="#32012F"/>
</g>
<path id="Vector_3" d="M33.8662 18.1058C33.1923 17.8982 30.0237 16.7439 27.2778 15.7253C26.8478 15.5607 26.3963 15.4814 25.9374 15.4814C25.4711 15.4814 25.0196 15.5601 24.5896 15.7253C21.8437 16.7432 18.6751 17.8975 18.0012 18.1058C17.4348 18.2778 17.0619 18.8086 17.1049 19.4032C17.119 19.5893 17.1338 19.762 17.1479 19.8695C17.7714 25.8841 20.6679 30.7451 25.5289 33.9069V33.9143C25.543 33.9217 25.5719 33.9358 25.6008 33.9573L25.9374 34.1508L26.2673 33.9573C26.2962 33.9358 26.3244 33.9217 26.3392 33.9143V33.9069C31.2002 30.7451 34.096 25.8848 34.7269 19.8695C34.7343 19.762 34.7484 19.59 34.7625 19.4032C34.8048 18.8086 34.4393 18.2778 33.8662 18.1058ZM30.6902 25.7766H27.22V29.2609H24.6534V25.8196H21.1839V23.253H24.6104V19.7687H27.2059V23.2315H30.6902V25.7766Z" fill="#32012F"/>
</g>
</g>
</svg>
