<svg width="43" height="43" viewBox="0 0 43 43" fill="none" xmlns="http://www.w3.org/2000/svg">
<g id="insurance_1141296 1" clip-path="url(#clip0_989_16551)">
<g id="surface1">
<path id="Vector" d="M34.028 24.2402H26.1662C25.3005 25.9603 23.8885 27.3352 22.1484 28.1563V29.9269C22.1484 30.1359 22.1527 30.3442 22.1629 30.5515C22.198 31.4084 22.3082 32.2516 22.4877 33.0711C23.4033 37.2552 26.1242 40.8623 30.0371 42.8844L30.0974 42.9156L30.1578 42.8844C35.023 40.3692 38.0454 35.4043 38.0454 29.9269V28.1563C36.3054 27.3352 34.8947 25.9603 34.028 24.2402ZM29.5568 36.2585L25.7286 32.6429L27.4582 30.811L29.5368 32.7738L33.4381 29.0031L35.189 30.8146L29.5568 36.2585Z" fill="#32012F"/>
<path id="Vector_2" d="M20.4742 26.1225C22.1788 25.5281 23.5262 24.2194 24.1702 22.5315L24.2735 22.2618C23.5603 21.9276 22.7644 21.7412 21.9246 21.7412H21.4509C18.3887 21.7412 15.9062 24.2237 15.9062 27.2848V30.5517H19.6409C19.6334 30.3437 19.6291 30.1354 19.6291 29.9271V26.4174L20.4742 26.1225Z" fill="#32012F"/>
<path id="Vector_3" d="M25.0277 15.6926C25.0277 17.5386 23.5314 19.0349 21.6857 19.0349C19.84 19.0349 18.3438 17.5386 18.3438 15.6926C18.3438 13.8469 19.84 12.3506 21.6857 12.3506C23.5314 12.3506 25.0277 13.8469 25.0277 15.6926Z" fill="#32012F"/>
<path id="Vector_4" d="M15.8228 15.6923C15.8228 14.7232 16.0607 13.8089 16.479 13.0028L16.5813 12.8135C16.9599 12.1456 17.4655 11.559 18.0652 11.0866C18.7587 9.96822 19.1599 8.65039 19.1599 7.24037C19.1599 3.20158 15.8743 -0.0839844 11.8355 -0.0839844C7.79708 -0.0839844 4.51119 3.20158 4.51119 7.24037C4.51119 9.55585 5.59184 11.6233 7.27448 12.9664C3.05459 14.7507 0.0859375 18.9326 0.0859375 23.7948V30.5523H13.3837V27.2851C13.3837 24.1455 15.1877 21.4196 17.8135 20.0887C16.5941 19.0136 15.8228 17.4419 15.8228 15.6923Z" fill="#32012F"/>
<path id="Vector_5" d="M36.4841 14.0949C38.0034 12.8289 38.9725 10.9238 38.9725 8.79598C38.9725 4.99306 35.8785 1.89941 32.0759 1.89941C28.2733 1.89941 25.1797 4.99306 25.1797 8.79598C25.1797 9.72866 25.366 10.6184 25.7029 11.4307C26.3496 12.0405 26.8581 12.7947 27.1756 13.6421C27.1756 13.6421 27.3298 14.0991 27.3633 14.2356C27.4827 14.7015 27.5463 15.1896 27.5463 15.6922C27.5463 17.4418 26.7751 19.0135 25.556 20.0883C26.3788 20.5059 27.1215 21.0597 27.753 21.721H35.7128L36.0219 22.5317C36.6659 24.2196 38.0132 25.5282 39.7178 26.1227L40.5629 26.4176V29.9272C40.5629 30.1356 40.5587 30.3442 40.5511 30.5519H43.0857V24.1825C43.0854 19.6785 40.3664 15.7982 36.4841 14.0949Z" fill="#32012F"/>
</g>
</g>
<defs>
<clipPath id="clip0_989_16551">
<rect width="43" height="43" fill="white"/>
</clipPath>
</defs>
</svg>
