<svg width="42" height="43" viewBox="0 0 42 43" fill="none" xmlns="http://www.w3.org/2000/svg">
<g id="plane_4070924 1" clip-path="url(#clip0_989_16536)">
<g id="Group">
<g id="Page-1_43_">
<g id="_x30_44---Flight">
<path id="Path_142_" d="M39.3614 8.38815C40.3018 7.86755 41.0097 7.00959 41.342 5.98735C41.7154 4.77534 41.4997 3.45837 40.7589 2.4289C39.4599 0.719408 37.0813 0.263832 35.2426 1.37242L13.4749 13.9391C13.2409 14.0746 12.9535 14.08 12.7146 13.9532L4.25819 9.46125C4.16859 9.41356 4.06066 9.41564 3.97287 9.46676L1.69282 10.7835C1.554 10.8659 1.50604 11.0438 1.58462 11.1848L6.16197 20.0801C6.21833 20.1901 6.24813 20.3116 6.24894 20.4352L6.27947 27.9189C6.2802 28.0236 6.33656 28.1201 6.42751 28.172C6.51846 28.2241 6.63019 28.2237 6.72078 28.1712L9.25797 26.5025C9.34964 26.4597 9.41639 26.377 9.43906 26.2784L12.0781 16.9261C12.1477 16.6492 12.3622 16.432 12.6382 16.3591C12.9142 16.2862 13.208 16.3691 13.4051 16.5755C13.6023 16.7819 13.6717 17.0792 13.5861 17.3516L11.8923 23.3484C12.8922 23.3612 13.8768 23.1028 14.7414 22.6006L21.5197 18.6942L20.9961 13.2945C20.9618 13.0121 21.0832 12.7333 21.3132 12.566C21.5433 12.3987 21.8459 12.3692 22.104 12.4889C22.362 12.6086 22.535 12.8587 22.5558 13.1424L23.3169 20.9937C23.3453 21.2837 23.5322 21.5339 23.8022 21.6436C24.0721 21.7531 24.3806 21.7039 24.603 21.5158C25.1421 21.0787 25.7101 20.6786 26.3031 20.3181C26.4982 20.2012 26.6325 20.0047 26.6707 19.7804L28.4737 8.78087C28.5053 8.57476 28.6187 8.39005 28.7882 8.26848C28.9577 8.14691 29.169 8.09886 29.3744 8.13499C29.8013 8.20507 30.0907 8.60781 30.021 9.03476L29.1588 14.2776L39.3614 8.38815Z" fill="#32012F"/>
<path id="Path_141_" d="M14.5568 3.49034C14.4716 3.45394 14.3742 3.45999 14.2942 3.50678L12.4288 4.58448C12.3435 4.63353 12.2884 4.72186 12.2819 4.82004C12.2754 4.91822 12.3185 5.01305 12.3966 5.07276L17.7036 9.13049C17.955 9.32269 18.2972 9.345 18.5714 9.18694L21.1791 7.6813C21.436 7.53281 21.5869 7.25201 21.5692 6.95585C21.5515 6.65969 21.368 6.39893 21.0953 6.28224L14.5568 3.49034Z" fill="#32012F"/>
<path id="Path_140_" d="M19.4603 25.4489C19.2328 25.0808 18.75 24.9668 18.3818 25.1942L3.18784 34.5997C2.82828 34.8311 2.72052 35.308 2.94569 35.6715C3.17086 36.0351 3.64586 36.1511 4.01319 35.9321L19.2063 26.5265C19.5737 26.2988 19.6873 25.8167 19.4603 25.4489Z" fill="#32012F"/>
<path id="Path_139_" d="M18.1925 30.9355C18.0832 30.7586 17.9081 30.6322 17.7057 30.5844C17.5032 30.5367 17.2901 30.5713 17.1132 30.6807L0.352478 41.0575C-0.00157784 41.291 -0.105808 41.7638 0.117374 42.1244C0.340556 42.485 0.810132 42.6027 1.17701 42.39L17.9385 32.0149C18.1153 31.9056 18.2414 31.7303 18.2891 31.5279C18.3367 31.3253 18.3019 31.1124 18.1925 30.9355Z" fill="#32012F"/>
</g>
</g>
</g>
</g>
<defs>
<clipPath id="clip0_989_16536">
<rect width="41.925" height="43" fill="white"/>
</clipPath>
</defs>
</svg>
