<svg width="30" height="37" viewBox="0 0 30 37" fill="none" xmlns="http://www.w3.org/2000/svg">
<g id="Layer 2" opacity="0.7">
<g id="Layer 1">
<path id="form" d="M2.5707 2.92079C3.66744 1.82405 5.1545 1.20723 6.70552 1.20569H23.6376C25.1886 1.20723 26.6757 1.82405 27.7724 2.92079C28.8692 4.01759 29.486 5.50475 29.4875 7.05586V30.0348C29.486 31.5859 28.8692 33.073 27.7724 34.1698C26.6756 35.2666 25.1885 35.8835 23.6373 35.8849H6.70577C5.15465 35.8835 3.6675 35.2666 2.5707 34.1698C1.47395 33.0731 0.857131 31.586 0.855591 30.035V7.05562C0.857131 5.5046 1.47395 4.01754 2.5707 2.92079ZM7.91476 28.3159H15.1716C15.7051 28.3159 16.2168 28.1039 16.5941 27.7266C16.9714 27.3493 17.1834 26.8376 17.1834 26.304C17.1834 25.7705 16.9714 25.2588 16.5941 24.8815C16.2168 24.5042 15.7051 24.2922 15.1716 24.2922H7.91476C7.38119 24.2922 6.86947 24.5042 6.49218 24.8815C6.11488 25.2588 5.90292 25.7705 5.90292 26.304C5.90292 26.8376 6.11488 27.3493 6.49218 27.7266C6.86947 28.1039 7.38118 28.3159 7.91476 28.3159ZM7.91476 20.66H22.4284C22.9619 20.66 23.4736 20.448 23.8509 20.0707C24.2282 19.6934 24.4402 19.1817 24.4402 18.6481C24.4402 18.1146 24.2282 17.6028 23.8509 17.2255C23.4736 16.8483 22.9619 16.6363 22.4284 16.6363H7.91476C7.38118 16.6363 6.86947 16.8483 6.49218 17.2255C6.11488 17.6028 5.90292 18.1146 5.90292 18.6481C5.90292 19.1817 6.11488 19.6934 6.49218 20.0707C6.86947 20.448 7.38119 20.66 7.91476 20.66ZM7.91476 12.7984H22.4284C22.9619 12.7984 23.4736 12.5865 23.8509 12.2092C24.2282 11.8319 24.4402 11.3202 24.4402 10.7866C24.4402 10.253 24.2282 9.7413 23.8509 9.36401C23.4736 8.98672 22.9619 8.77476 22.4284 8.77476H7.91476C7.38119 8.77476 6.86947 8.98672 6.49218 9.36401C6.11488 9.7413 5.90292 10.253 5.90292 10.7866C5.90292 11.3202 6.11488 11.8319 6.49218 12.2092C6.86947 12.5865 7.38119 12.7984 7.91476 12.7984Z" stroke="black"/>
</g>
</g>
</svg>
