<svg width="54" height="53" viewBox="0 0 54 53" fill="none" xmlns="http://www.w3.org/2000/svg">
<path id="Vector" d="M36.5013 20.3213H17.0339V17.8517H36.5013V20.3213ZM24.6505 47.4869L27.2397 49.9566H6.08355C2.7303 49.9566 0 46.0793 0 41.3129C0 36.5466 2.7303 32.6693 6.08355 32.6693H9.73368V9.82547C9.73368 4.71833 12.464 0.564453 15.8172 0.564453H47.4517C50.8049 0.564453 53.4135 4.44173 53.4135 9.20807C53.4135 13.9744 50.8049 17.8517 47.4517 17.8517H43.8015V35.4797L41.3681 37.8975V9.82547C41.347 7.46811 41.8809 5.13971 42.9255 3.03406H15.8172C14.0944 3.03406 12.1671 5.93831 12.1671 9.82547V32.6693H37.8883L36.1606 34.7092C34.7262 36.5958 33.986 38.9315 34.0679 41.3129C34.0684 41.8845 34.1066 42.4555 34.1822 43.0219L31.6709 40.6239C31.7311 38.7226 32.1803 36.8547 32.9899 35.1389H6.08355C4.13925 35.1389 2.43342 38.0234 2.43342 41.3129C2.43342 44.6024 4.13925 47.4869 6.08355 47.4869H24.6505ZM43.8015 15.3821H47.4517C49.396 15.3821 51.2235 12.4976 51.2235 9.20807C51.2235 5.91856 49.396 3.03406 47.4517 3.03406H45.8042C44.4431 5.02463 43.7416 7.40328 43.8015 9.82547V15.3821ZM17.0339 27.7301H36.5013V25.2605H17.0339V27.7301ZM36.5013 10.4429H17.0339V12.9125H36.5013V10.4429ZM52.2966 32.2223L35.2675 49.1416L28.3761 42.565L26.7092 44.3629L35.2992 52.5645L54 33.9881L52.2966 32.2223Z" fill="#524C42"/>
</svg>
