<svg width="52" height="53" viewBox="0 0 52 53" fill="none" xmlns="http://www.w3.org/2000/svg">
<g id="hat-imagination-magic-solutions-show-2-svgrepo-com 1">
<g id="Hat magic wand">
<path id="Vector" d="M45.4106 24.4438C45.4106 23.4152 45.0026 22.4286 44.276 21.7005C43.5494 20.9723 42.5636 20.5622 41.535 20.5601H31.0294L35.2544 16.3351L40.1294 11.4194C40.413 11.1406 40.6381 10.808 40.7916 10.4411C40.945 10.0741 41.0238 9.68029 41.0231 9.28257C41.0201 8.6843 40.8405 8.10025 40.5069 7.60361C40.1733 7.10698 39.7005 6.71987 39.1479 6.49082C38.5952 6.26176 37.9872 6.20095 37.4 6.316C36.8129 6.43105 36.2729 6.71685 35.8475 7.13757L22.4656 20.5601H15.4375C14.4667 20.5589 13.5308 20.9221 12.8149 21.5778C12.099 22.2336 11.6553 23.1342 11.5716 24.1014C11.4878 25.0686 11.7701 26.032 12.3626 26.801C12.9551 27.5701 13.8147 28.0887 14.7713 28.2544L7.45876 35.5669C6.93118 36.1427 6.6462 36.8998 6.66323 37.6805C6.68026 38.4612 6.99798 39.2052 7.55016 39.7574C8.10233 40.3096 8.84634 40.6273 9.62705 40.6443C10.4078 40.6614 11.1649 40.3764 11.7406 39.8488L14.7388 36.8507L14.1213 42.3838C14.0582 42.9536 14.1164 43.5303 14.2921 44.076C14.4679 44.6217 14.7571 45.124 15.1408 45.5499C15.5245 45.9759 15.9941 46.3158 16.5185 46.5473C17.043 46.7788 17.6105 46.8967 18.1838 46.8932H38.7888C39.362 46.8967 39.9295 46.7788 40.454 46.5473C40.9785 46.3158 41.448 45.9759 41.8317 45.5499C42.2154 45.124 42.5046 44.6217 42.6804 44.076C42.8561 43.5303 42.9143 42.9536 42.8513 42.3838L41.275 28.3194H41.535C42.5622 28.3173 43.5468 27.9083 44.2731 27.1819C44.9995 26.4556 45.4085 25.471 45.4106 24.4438ZM41.535 22.1851C42.1096 22.2196 42.6493 22.4721 43.044 22.8912C43.4386 23.3102 43.6583 23.8641 43.6583 24.4398C43.6583 25.0154 43.4386 25.5693 43.044 25.9883C42.6493 26.4074 42.1096 26.6599 41.535 26.6944H24.8869L29.4044 22.1851H41.535ZM34.7669 10.5501L36.7575 12.5326L34.6775 14.6126L32.695 12.6301L34.7669 10.5501ZM38.025 7.87694C38.3094 7.87275 38.5884 7.95496 38.8251 8.11269C39.0619 8.27043 39.2451 8.49627 39.3508 8.76038C39.4564 9.02449 39.4795 9.31443 39.4168 9.59191C39.3542 9.86938 39.2089 10.1213 39 10.3144L37.8869 11.4276L35.9044 9.44507L37.0175 8.33194C37.1451 8.19081 37.3004 8.07755 37.4738 7.99925C37.6471 7.92096 37.8348 7.87932 38.025 7.87694ZM15.4375 26.6944C15.13 26.7129 14.822 26.6683 14.5324 26.5633C14.2428 26.4584 13.9778 26.2953 13.7535 26.0841C13.5293 25.8729 13.3506 25.6181 13.2285 25.3353C13.1063 25.0526 13.0433 24.7478 13.0433 24.4398C13.0433 24.1317 13.1063 23.827 13.2285 23.5442C13.3506 23.2614 13.5293 23.0066 13.7535 22.7954C13.9778 22.5842 14.2428 22.4211 14.5324 22.3162C14.822 22.2112 15.13 22.1666 15.4375 22.1851H20.8406L16.3313 26.6944H15.4375ZM10.6031 38.6788C10.3377 38.9369 9.9821 39.0813 9.61188 39.0813C9.24167 39.0813 8.88605 38.9369 8.62063 38.6788C8.48994 38.5489 8.38622 38.3945 8.31545 38.2244C8.24467 38.0543 8.20824 37.8718 8.20824 37.6876C8.20824 37.5033 8.24467 37.3209 8.31545 37.1508C8.38622 36.9806 8.48994 36.8262 8.62063 36.6963L31.5494 13.7757L33.5319 15.7582L10.6031 38.6788ZM40.625 44.4394C40.3993 44.6973 40.1205 44.9034 39.8078 45.0436C39.4951 45.1838 39.1558 45.2549 38.8131 45.2519H18.1838C17.8398 45.254 17.4993 45.1833 17.1846 45.0444C16.8699 44.9055 16.5882 44.7015 16.358 44.446C16.1278 44.1904 15.9542 43.889 15.8488 43.5616C15.7434 43.2342 15.7084 42.8882 15.7463 42.5463L16.5588 34.9982L18.9963 32.5607H40.1213L41.2181 42.5138C41.2661 42.8586 41.2378 43.2098 41.1353 43.5425C41.0329 43.8752 40.8587 44.1814 40.625 44.4394ZM39.9588 30.9682H20.6213L23.2619 28.3194H39.6338L39.9588 30.9682Z" fill="#524C42"/>
<path id="Vector_2" d="M20.3856 11.5332C20.3856 11.3177 20.3 11.1111 20.1476 10.9587C19.9953 10.8063 19.7886 10.7207 19.5731 10.7207C19.3576 10.7207 19.151 10.8063 18.9986 10.9587C18.8462 11.1111 18.7606 11.3177 18.7606 11.5332V12.6463C18.7606 12.8618 18.8462 13.0685 18.9986 13.2209C19.151 13.3732 19.3576 13.4588 19.5731 13.4588C19.7886 13.4588 19.9953 13.3732 20.1476 13.2209C20.3 13.0685 20.3856 12.8618 20.3856 12.6463V11.5332Z" fill="#524C42"/>
<path id="Vector_3" d="M19.5731 15.7419C19.3576 15.7419 19.151 15.8275 18.9986 15.9799C18.8462 16.1323 18.7606 16.339 18.7606 16.5544V17.6676C18.7606 17.8831 18.8462 18.0897 18.9986 18.2421C19.151 18.3945 19.3576 18.4801 19.5731 18.4801C19.7886 18.4801 19.9953 18.3945 20.1476 18.2421C20.3 18.0897 20.3856 17.8831 20.3856 17.6676V16.5544C20.3856 16.339 20.3 16.1323 20.1476 15.9799C19.9953 15.8275 19.7886 15.7419 19.5731 15.7419Z" fill="#524C42"/>
<path id="Vector_4" d="M21.5313 13.7838C21.3158 13.7838 21.1091 13.8694 20.9567 14.0218C20.8044 14.1742 20.7188 14.3808 20.7188 14.5963C20.7188 14.8118 20.8044 15.0185 20.9567 15.1708C21.1091 15.3232 21.3158 15.4088 21.5313 15.4088H22.6444C22.8599 15.4088 23.0665 15.3232 23.2189 15.1708C23.3713 15.0185 23.4569 14.8118 23.4569 14.5963C23.4569 14.3808 23.3713 14.1742 23.2189 14.0218C23.0665 13.8694 22.8599 13.7838 22.6444 13.7838H21.5313Z" fill="#524C42"/>
<path id="Vector_5" d="M16.51 13.7838C16.2945 13.7838 16.0879 13.8694 15.9355 14.0218C15.7831 14.1742 15.6975 14.3808 15.6975 14.5963C15.6975 14.8118 15.7831 15.0185 15.9355 15.1708C16.0879 15.3232 16.2945 15.4088 16.51 15.4088H17.6231C17.8386 15.4088 18.0453 15.3232 18.1977 15.1708C18.35 15.0185 18.4356 14.8118 18.4356 14.5963C18.4356 14.3808 18.35 14.1742 18.1977 14.0218C18.0453 13.8694 17.8386 13.7838 17.6231 13.7838H16.51Z" fill="#524C42"/>
<path id="Vector_6" d="M42.7456 13.3776C42.7456 13.1621 42.66 12.9554 42.5077 12.803C42.3553 12.6507 42.1486 12.5651 41.9331 12.5651C41.7176 12.5651 41.511 12.6507 41.3586 12.803C41.2062 12.9554 41.1206 13.1621 41.1206 13.3776V14.3769C41.1206 14.5924 41.2062 14.7991 41.3586 14.9515C41.511 15.1038 41.7176 15.1894 41.9331 15.1894C42.1486 15.1894 42.3553 15.1038 42.5077 14.9515C42.66 14.7991 42.7456 14.5924 42.7456 14.3769V13.3776Z" fill="#524C42"/>
<path id="Vector_7" d="M41.9331 16.9363C41.7176 16.9363 41.511 17.0219 41.3586 17.1743C41.2062 17.3267 41.1206 17.5333 41.1206 17.7488V18.7157C41.1206 18.9312 41.2062 19.1378 41.3586 19.2902C41.511 19.4426 41.7176 19.5282 41.9331 19.5282C42.1486 19.5282 42.3553 19.4426 42.5077 19.2902C42.66 19.1378 42.7456 18.9312 42.7456 18.7157V17.7488C42.7456 17.5333 42.66 17.3267 42.5077 17.1743C42.3553 17.0219 42.1486 16.9363 41.9331 16.9363Z" fill="#524C42"/>
<path id="Vector_8" d="M44.5981 15.2301H43.6313C43.4158 15.2301 43.2091 15.3157 43.0567 15.468C42.9044 15.6204 42.8188 15.8271 42.8188 16.0426C42.8188 16.2581 42.9044 16.4647 43.0567 16.6171C43.2091 16.7695 43.4158 16.8551 43.6313 16.8551H44.5981C44.8136 16.8551 45.0203 16.7695 45.1727 16.6171C45.325 16.4647 45.4106 16.2581 45.4106 16.0426C45.4106 15.8271 45.325 15.6204 45.1727 15.468C45.0203 15.3157 44.8136 15.2301 44.5981 15.2301Z" fill="#524C42"/>
<path id="Vector_9" d="M39.2681 15.2301C39.0526 15.2301 38.846 15.3157 38.6936 15.468C38.5412 15.6204 38.4556 15.8271 38.4556 16.0426C38.4556 16.2581 38.5412 16.4647 38.6936 16.6171C38.846 16.7695 39.0526 16.8551 39.2681 16.8551H40.235C40.4505 16.8551 40.6572 16.7695 40.8095 16.6171C40.9619 16.4647 41.0475 16.2581 41.0475 16.0426C41.0475 15.8271 40.9619 15.6204 40.8095 15.468C40.6572 15.3157 40.4505 15.2301 40.235 15.2301H39.2681Z" fill="#524C42"/>
</g>
</g>
</svg>
