<svg width="45" height="53" viewBox="0 0 45 53" fill="none" xmlns="http://www.w3.org/2000/svg">
<g id="Group">
<path id="Vector" d="M43.3107 30.5222C44.1392 29.577 44.6852 28.3713 44.6852 27.041C44.6852 23.615 41.8983 20.8281 38.4739 20.8281H30.5427C28.8005 20.7476 28.376 20.4178 28.3586 20.4036L28.3444 20.3846C28.3917 19.9238 29.1902 18.7971 29.5816 18.248C30.1434 17.4589 30.6736 16.7125 30.9766 15.8841L31.1108 15.5211C31.8856 13.4364 33.3295 9.55599 31.7641 5.09642C30.8156 2.39166 28.7057 0.709473 26.2598 0.709473C23.4114 0.709473 21.0428 2.98824 20.5015 6.25323C20.32 7.35156 17.9118 11.4924 13.315 16.8973C12.0431 18.3933 10.6086 19.6368 9.09056 20.9528C7.89123 21.9912 6.65091 23.0643 5.33635 24.3788C1.88825 27.8253 0.247071 33.6688 1.15452 39.2614C1.93885 44.103 4.46526 47.8146 8.26845 49.7161C11.3836 51.2737 17.4322 52.1448 22.0449 52.3151C23.9748 52.3861 25.4298 52.4193 26.6228 52.4193C28.9047 52.4193 30.0393 52.2914 31.4753 52.1289L31.9598 52.0753L32.0419 52.0658L34.3727 51.7281L34.4169 51.7217C37.4358 51.2293 39.6261 48.6571 39.6261 45.6051L39.6214 45.3857C41.3841 44.2921 42.5313 42.348 42.5313 40.1308C42.5313 39.3796 42.4161 38.7264 42.2174 38.1598C43.4214 37.0267 44.171 35.4219 44.171 33.6545C44.1708 32.5262 43.8599 31.45 43.3107 30.5222ZM38.6364 30.9324H40.4544C41.1976 31.6047 41.6679 32.5705 41.6679 33.6546C41.6679 34.8113 41.1267 35.8307 40.2935 36.5061H37.857C37.3961 36.5061 37.0237 36.8786 37.0237 37.3393C37.0237 37.8 37.3962 38.1741 37.857 38.1741H39.3783C39.8832 38.7406 40.0285 39.4097 40.0285 40.1309C40.0285 41.2814 39.4935 42.2976 38.6682 42.9714H36.3248C35.8624 42.9714 35.4899 43.3454 35.4899 43.8063C35.4899 44.2671 35.8624 44.6395 36.3248 44.6395H36.9844C37.0727 44.9472 37.1232 45.2691 37.1232 45.6053C37.1232 47.4485 35.7772 48.9634 34.0145 49.2506L31.6837 49.5884C29.9952 49.7746 29.0042 49.9166 26.6229 49.9166C25.5056 49.9166 24.0823 49.885 22.1381 49.8125C17.7305 49.65 12.0764 48.8214 9.38738 47.4769C1.86007 43.7132 1.85533 31.3996 7.1071 26.1479C10.0722 23.1827 12.8102 21.3568 15.2215 18.5196C18.9473 14.1373 22.5958 8.93446 22.9713 6.66206C23.3405 4.43379 24.7876 3.21245 26.26 3.21245C27.4972 3.21245 28.7534 4.07566 29.4035 5.92671C30.7575 9.78666 29.282 13.2236 28.6271 15.0227C27.9675 16.8249 24.33 19.7506 26.5472 22.1286C27.3709 23.0124 28.9884 23.268 30.4876 23.3327H38.4741C40.5241 23.3327 42.1826 24.9929 42.1826 27.0412C42.1826 27.917 41.6871 28.7045 41.0307 29.2631H38.6367C38.1758 29.2631 37.8018 29.6355 37.8018 30.0963C37.8018 30.557 38.1757 30.9324 38.6364 30.9324Z" fill="#524C42"/>
</g>
</svg>
