<svg width="16" height="17" viewBox="0 0 16 17" fill="none" xmlns="http://www.w3.org/2000/svg">
<g clip-path="url(#clip0_148_523)">
<path d="M16 8.5C15.9972 6.38383 15.1571 4.35475 13.6633 2.85586C12.1695 1.35696 10.1433 0.510027 8.02712 0.5L7.9756 0.5C5.85387 0.503237 3.82032 1.3492 2.32232 2.85177C0.824317 4.35435 -0.0154343 6.39047 -0.0121977 8.5122C-0.00896117 10.6339 0.836997 12.6675 2.33958 14.1655C3.84216 15.6635 5.87827 16.5032 8.00001 16.5C10.1211 16.4978 12.1547 15.6543 13.6545 14.1545C15.1543 12.6547 15.9979 10.6211 16 8.5ZM8.00001 14.8729C7.10711 13.9383 6.41494 12.8308 5.96611 11.6186H10.0339C9.58507 12.8308 8.8929 13.9383 8.00001 14.8729ZM5.59729 10.2627C5.3659 9.09896 5.3659 7.90104 5.59729 6.73729H10.4027C10.6341 7.90104 10.6341 9.09896 10.4027 10.2627H5.59729ZM1.35594 8.5C1.35598 7.90438 1.43625 7.31148 1.59458 6.73729H4.21967C4.01716 7.90371 4.01716 9.09629 4.21967 10.2627H1.59458C1.43625 9.68852 1.35598 9.09562 1.35594 8.5ZM8.00001 2.12712C8.8929 3.06173 9.58507 4.1692 10.0339 5.38136H5.96611C6.41494 4.1692 7.10711 3.06173 8.00001 2.12712ZM11.7803 6.73729H14.4054C14.7236 7.8909 14.7236 9.1091 14.4054 10.2627H11.7803C11.9828 9.09629 11.9828 7.90371 11.7803 6.73729ZM13.8658 5.38136H11.4549C11.0801 4.19046 10.4981 3.07505 9.7356 2.08644C10.612 2.32577 11.4303 2.74142 12.1405 3.30798C12.8506 3.87453 13.4377 4.58005 13.8658 5.38136ZM6.26441 2.08644C5.50194 3.07505 4.91991 4.19046 4.54509 5.38136H2.13424C2.56229 4.58005 3.14937 3.87453 3.85954 3.30798C4.56971 2.74142 5.38803 2.32577 6.26441 2.08644ZM2.13424 11.6186H4.54509C4.91991 12.8095 5.50194 13.9249 6.26441 14.9136C5.38803 14.6742 4.56971 14.2586 3.85954 13.692C3.14937 13.1255 2.56229 12.42 2.13424 11.6186ZM9.72746 14.9136C10.4928 13.9255 11.0776 12.8101 11.4549 11.6186H13.8658C13.4377 12.42 12.8506 13.1255 12.1405 13.692C11.4303 14.2586 10.612 14.6742 9.7356 14.9136H9.72746Z" fill="#524C42"/>
</g>
<defs>
<clipPath id="clip0_148_523">
<rect width="16" height="16" fill="white" transform="translate(0 0.5)"/>
</clipPath>
</defs>
</svg>
