<svg width="25" height="24" viewBox="0 0 25 24" fill="none" xmlns="http://www.w3.org/2000/svg">
<g id="bi:camera-fill" clip-path="url(#clip0_624_10974)">
<g id="Group">
<path id="Vector" d="M16.25 12.75C16.25 13.7446 15.8549 14.6984 15.1517 15.4017C14.4484 16.1049 13.4946 16.5 12.5 16.5C11.5054 16.5 10.5516 16.1049 9.84835 15.4017C9.14509 14.6984 8.75 13.7446 8.75 12.75C8.75 11.7554 9.14509 10.8016 9.84835 10.0983C10.5516 9.39509 11.5054 9 12.5 9C13.4946 9 14.4484 9.39509 15.1517 10.0983C15.8549 10.8016 16.25 11.7554 16.25 12.75Z" fill="url(#paint0_linear_624_10974)"/>
<path id="Vector_2" d="M3.5 6C2.70435 6 1.94129 6.31607 1.37868 6.87868C0.816071 7.44129 0.5 8.20435 0.5 9L0.5 18C0.5 18.7956 0.816071 19.5587 1.37868 20.1213C1.94129 20.6839 2.70435 21 3.5 21H21.5C22.2956 21 23.0587 20.6839 23.6213 20.1213C24.1839 19.5587 24.5 18.7956 24.5 18V9C24.5 8.20435 24.1839 7.44129 23.6213 6.87868C23.0587 6.31607 22.2956 6 21.5 6H19.742C18.9464 5.99983 18.1835 5.68365 17.621 5.121L16.379 3.879C15.8165 3.31635 15.0536 3.00017 14.258 3H10.742C9.94642 3.00017 9.18348 3.31635 8.621 3.879L7.379 5.121C6.81652 5.68365 6.05358 5.99983 5.258 6H3.5ZM4.25 9C4.05109 9 3.86032 8.92098 3.71967 8.78033C3.57902 8.63968 3.5 8.44891 3.5 8.25C3.5 8.05109 3.57902 7.86032 3.71967 7.71967C3.86032 7.57902 4.05109 7.5 4.25 7.5C4.44891 7.5 4.63968 7.57902 4.78033 7.71967C4.92098 7.86032 5 8.05109 5 8.25C5 8.44891 4.92098 8.63968 4.78033 8.78033C4.63968 8.92098 4.44891 9 4.25 9ZM17.75 12.75C17.75 14.1424 17.1969 15.4777 16.2123 16.4623C15.2277 17.4469 13.8924 18 12.5 18C11.1076 18 9.77226 17.4469 8.78769 16.4623C7.80312 15.4777 7.25 14.1424 7.25 12.75C7.25 11.3576 7.80312 10.0223 8.78769 9.03769C9.77226 8.05312 11.1076 7.5 12.5 7.5C13.8924 7.5 15.2277 8.05312 16.2123 9.03769C17.1969 10.0223 17.75 11.3576 17.75 12.75Z" fill="url(#paint1_linear_624_10974)"/>
</g>
</g>
<defs>
<linearGradient id="paint0_linear_624_10974" x1="10.0431" y1="10.3665" x2="26.7199" y2="26.5577" gradientUnits="userSpaceOnUse">
<stop stop-color="#4DC6C3" stop-opacity="0.5"/>
<stop offset="0.378165" stop-color="#5268A9" stop-opacity="0.5"/>
<stop offset="0.507" stop-color="#8EDFDE" stop-opacity="0.5"/>
<stop offset="0.813" stop-color="#C0ECE2" stop-opacity="0.5"/>
<stop offset="1" stop-color="#0AB3B0" stop-opacity="0.42"/>
</linearGradient>
<linearGradient id="paint1_linear_624_10974" x1="4.63806" y1="6.27959" x2="43.3819" y2="56.4338" gradientUnits="userSpaceOnUse">
<stop stop-color="#4DC6C3" stop-opacity="0.5"/>
<stop offset="0.378165" stop-color="#5268A9" stop-opacity="0.5"/>
<stop offset="0.507" stop-color="#8EDFDE" stop-opacity="0.5"/>
<stop offset="0.813" stop-color="#C0ECE2" stop-opacity="0.5"/>
<stop offset="1" stop-color="#0AB3B0" stop-opacity="0.42"/>
</linearGradient>
<clipPath id="clip0_624_10974">
<rect width="24" height="24" fill="white" transform="translate(0.5)"/>
</clipPath>
</defs>
</svg>
