<svg width="25" height="24" viewBox="0 0 25 24" fill="none" xmlns="http://www.w3.org/2000/svg">
<g id="video">
<path id="Vector" fill-rule="evenodd" clip-rule="evenodd" d="M5.5 5C4.70435 5 3.94129 5.31607 3.37868 5.87868C2.81607 6.44129 2.5 7.20435 2.5 8V16C2.5 16.7956 2.81607 17.5587 3.37868 18.1213C3.94129 18.6839 4.70435 19 5.5 19H15.5C16.2956 19 17.0587 18.6839 17.6213 18.1213C18.1839 17.5587 18.5 16.7956 18.5 16V14.414L20.793 16.707C20.9329 16.8468 21.111 16.942 21.305 16.9806C21.4989 17.0192 21.7 16.9993 21.8827 16.9237C22.0654 16.848 22.2215 16.7199 22.3314 16.5555C22.4413 16.391 22.5 16.1978 22.5 16V8C22.5 7.80225 22.4413 7.60895 22.3314 7.44454C22.2215 7.28013 22.0654 7.15199 21.8827 7.07632C21.7 7.00065 21.4989 6.98085 21.305 7.01942C21.111 7.05798 20.9329 7.15319 20.793 7.293L18.5 9.586V8C18.5 7.20435 18.1839 6.44129 17.6213 5.87868C17.0587 5.31607 16.2956 5 15.5 5H5.5Z" fill="url(#paint0_linear_624_12050)"/>
</g>
<defs>
<linearGradient id="paint0_linear_624_12050" x1="5.94838" y1="7.55079" x2="35.4969" y2="48.5337" gradientUnits="userSpaceOnUse">
<stop stop-color="#4DC6C3" stop-opacity="0.5"/>
<stop offset="0.378165" stop-color="#5268A9" stop-opacity="0.5"/>
<stop offset="0.507" stop-color="#8EDFDE" stop-opacity="0.5"/>
<stop offset="0.813" stop-color="#C0ECE2" stop-opacity="0.5"/>
<stop offset="1" stop-color="#0AB3B0" stop-opacity="0.42"/>
</linearGradient>
</defs>
</svg>
