<?xml version="1.0" encoding="UTF-8"?>
<svg xmlns="http://www.w3.org/2000/svg" version="1.1" viewBox="0 0 1920 1080">
  <defs>
    <style>
      .cls-1 {
        fill: #fff;
      }

      .cls-2 {
        fill: #e2dfd0;
      }

      .cls-3 {
        display: none;
      }

      .cls-4 {
        fill: #2b2829;
      }

      .cls-5 {
        fill: #32012f;
      }
    </style>
  </defs>
  <!-- Generator: Adobe Illustrator 28.6.0, SVG Export Plug-In . SVG Version: 1.2.0 Build 709)  -->
  <g>
    <g id="Layer_1">
      <g class="cls-3">
        <g>
          <path class="cls-5" d="M326.9,36.4h-160.4c-14.6,0-26.4,11.8-26.4,26.3v160.4c0,14.6,11.8,26.4,26.4,26.4h160.4c14.5,0,26.3-11.8,26.3-26.4V62.7c0-14.5-11.8-26.3-26.3-26.3h0ZM244.4,231.7c-.1,0-33.6-11.1-55.1-26.9-33-24.3-20.5-56.3-7-87.9,4.3-10-.3-19-5.8-25.5l8.6-11.1c1.2,1.1,2.4,2.3,3.7,3.6,9.7,12.3,12.1,26,6.6,38.6-6.7,15.6-12.3,29.5-12.8,41.7-.1,2.6,0,5.1.4,7.3.1.9.3,1.7.5,2.5,0,0,0,0,.1-.1,2.7-3.9,4.6-7,4.9-7.5,7-11.1,16.7-16.8,16.7-16.8,3.3-2,11.4-6.8,21.5-5.5,5.3.7,9.2,2.8,12.2,4.5,12.3,6.8,14.3,15.2,20,14.5,5.1-.6,7.9-8,8-8.5.7-1.8,2.3-7.6-5.2-22-2.1-3.9-10.8-19.8-32.7-37.7-.4-.3-.8-.6-1.1-.9-8.3-6.6-20.2-15.2-36.2-23.7h0c-3.5-1.9-7.3-3.8-11.3-5.7h0c.3-1,2.5-4.2,7.1-10.7,13,4.6,24.3,7,32.6,8.2,9,1.3,16.3,1.7,20.1,1.8,4.4.2,11.7.5,21.2-.2,3.4-.3,9.1-.6,16.2-1.9,6.9-1.3,16.3-3.5,27.2-8,2.4,3.6,4.8,7.3,7.3,10.9-.4.3-.7.4-1,.7-1.6,1.1-5.6,3.3-12.8,5.4-7.2,2.1-17.7,4.3-32.6,5.4-5.9.4-12.4.7-19.7.7s-10.8-.2-15.6-.4c2.3,1.7,4.8,3.5,7.3,5.6,6.8,5.4,21.1,16.9,32.4,34.1,4.6,7,24.2,38,13,56.3-.8,1.5-6.2,10.2-15.7,11.9-4.7.8-8.7-.3-10.3-.8-4.8-1.5-6.4-3.5-15.1-10.1-6.8-5.1-10.3-7.6-12.8-8.1-8.2-1.4-15.5,4-17.2,5.3-6.6,4.9-16.6,17.2-17.2,17.8h-.2c-.2.3-.4.5-.8.9-.1.2-.3.3-.4.4,1.3,1.1,2.6,2.2,4,3.4,15,11,37.2,19.8,46.6,23.3v15l.4.2Z"/>
          <g>
            <path class="cls-2" d="M180.3,64.5h0s0,0-.1,0h.1Z"/>
            <path class="cls-2" d="M312.2,64.9c-.4.3-.7.4-1,.7-1.6,1.1-5.6,3.3-12.8,5.4-7.2,2.1-17.7,4.3-32.6,5.4-5.9.4-12.4.7-19.7.7s-10.8-.2-15.6-.4c2.3,1.7,4.8,3.5,7.3,5.6,6.8,5.4,21.1,16.9,32.4,34.1,4.6,7,24.2,38,13,56.3-.8,1.5-6.2,10.2-15.7,11.9-4.7.8-8.7-.3-10.3-.8-4.8-1.5-6.4-3.5-15.1-10.1-6.8-5.1-10.3-7.6-12.8-8.1-8.2-1.4-15.5,4-17.2,5.3-6.6,4.9-16.6,17.2-17.2,17.8h-.2c-.2.3-.4.5-.8.9-.1.2-.3.3-.4.4,1.3,1.1,2.6,2.2,4,3.4,15,11,37.2,19.8,46.6,23.3v15c-.1,0-33.6-11.1-55.1-26.9-33-24.3-20.5-56.3-7-87.9,4.3-10-.3-19-5.8-25.5l8.6-11.1c1.2,1.1,2.4,2.3,3.7,3.6,9.7,12.3,12.1,26,6.6,38.6-6.7,15.6-12.3,29.5-12.8,41.7-.1,2.6,0,5.1.4,7.3.1.9.3,1.7.5,2.5,0,0,0,0,.1-.1,2.7-3.9,4.6-7,4.9-7.5,7-11.1,16.7-16.8,16.7-16.8,3.3-2,11.4-6.8,21.5-5.5,5.3.7,9.2,2.8,12.2,4.5,12.3,6.8,14.3,15.2,20,14.5,5.1-.6,7.9-8,8-8.5.7-1.8,2.3-7.6-5.2-22-2.1-3.9-10.8-19.8-32.7-37.7-.4-.3-.8-.6-1.1-.9-8.3-6.6-20.2-15.2-36.2-23.7h0c-3.5-1.9-7.3-3.8-11.3-5.7h0c.3-1,2.5-4.2,7.1-10.7,13,4.6,24.3,7,32.6,8.2,9,1.3,16.3,1.7,20.1,1.8,4.4.2,11.7.5,21.2-.2,3.4-.3,9.1-.6,16.2-1.9,6.9-1.3,16.3-3.5,27.2-8,2.4,3.6,4.8,7.3,7.3,10.9l.4.2Z"/>
            <path class="cls-2" d="M191.7,70.3c-5.7-1.9-8.8-3.7-10.4-4.7-.3-.2-.7-.4-1-.7h0v-.3h0c4,1.9,7.7,3.8,11.3,5.7h.1Z"/>
            <circle class="cls-2" cx="219.8" cy="187" r="8.5"/>
            <circle class="cls-2" cx="235.3" cy="193.9" r="8.5"/>
            <g>
              <path class="cls-2" d="M172.6,70.4l-7.3,11s3.8,2.4,8,6.5l8.2-10.9c-3.2-2.8-6.3-4.9-8.8-6.6h-.1Z"/>
              <path class="cls-2" d="M313.2,96.3c.1-.2.2-.4.4-.6.4-.6.8-1.2,1.2-1.7.4-.6.8-1.1,1.2-1.6q.3-.3,0,0c.2-.3.4-.5.6-.8h0c1.1-1.3,2.2-2.4,3.3-3.5h0c.2-.2.4-.4.7-.6h0c.1-.1.3-.3.4-.4.1-.1.3-.3.4-.4.1-.1.3-.3.4-.4,3.4-3,6.1-4.7,6.1-4.7h0l-7.3-11h0c-.1,0-.3.2-.4.3-.1,0-.3.2-.4.3h0c-.2.1-.4.3-.7.4h0c-.1,0-.3.2-.4.3,0,0-.1.1-.2.2-.3.2-.6.4-.9.6-.9.6-1.8,1.3-2.7,2-.1.1-.3.2-.4.3-2.7,2.1-5.6,4.6-8.6,7.6l-1.4,1.4c-9.7,12.3-12.1,26-6.6,38.6.4,1,.8,1.9,1.2,2.9.3.7.6,1.4.9,2.1.4,1,.8,1.9,1.2,2.8.3.7.6,1.4.9,2.1.6,1.4,1.1,2.8,1.6,4.1,3.9,10,6.6,19.2,7,27.6.4,9.6-2.5,17.3-9.3,24.1-1.7,1.7-3.7,3.4-5.9,5-15.1,11.1-37.2,19.8-46.6,23.3h0v15.1s33.5-11.1,55-26.9c2.8-2.1,5.3-4.2,7.4-6.3,6.9-6.9,10.8-14.2,12.5-22h0c2.6-11.7.3-24.2-4-37-.2-.5-.3-1-.5-1.6-.4-1.1-.8-2.2-1.2-3.3-.1-.4-.3-.8-.4-1.1-.4-1.1-.8-2.2-1.3-3.3-.2-.5-.4-1-.6-1.6-.5-1.3-1.1-2.6-1.6-3.9-.2-.5-.4-1-.7-1.6-.4-1-.9-2.1-1.3-3.1-.2-.5-.4-1-.7-1.6-.2-.5-.4-1-.7-1.6-2.2-5.2-2.1-10.2-.6-14.7.7-2.1,1.7-4.1,2.9-6v.2Z"/>
            </g>
          </g>
        </g>
      </g>
      <g>
        <path class="cls-5" d="M487.1,399h-172.6c-15.7,0-28.4,12.6-28.4,28.3v172.6c0,15.7,12.6,28.4,28.4,28.4h172.6c15.7,0,28.3-12.6,28.3-28.4v-172.6c0-15.7-12.6-28.3-28.3-28.3h0ZM398.4,609.2c-.1,0-36.1-11.9-59.2-28.9-35.5-26.1-22.1-60.6-7.5-94.6,4.6-10.7-.3-20.5-6.3-27.4l9.2-12c1.3,1.2,2.6,2.5,3.9,3.9,10.4,13.3,13,28,7.1,41.5-7.2,16.7-13.3,31.7-13.8,44.9-.1,2.8,0,5.5.4,7.9.1.9.3,1.9.5,2.7,0,0,0,0,.1-.1,2.9-4.2,5-7.5,5.3-8,7.5-11.9,18-18.1,18-18.1,3.6-2.1,12.2-7.3,23.2-5.9,5.7.8,9.9,3,13.1,4.8,13.2,7.3,15.4,16.3,21.5,15.5,5.5-.7,8.5-8.6,8.6-9.2.8-2,2.5-8.2-5.6-23.7-2.3-4.2-11.6-21.3-35.2-40.6-.5-.3-.9-.7-1.2-.9-8.9-7.1-21.7-16.4-38.9-25.5h0c-3.8-2-7.8-4.1-12.1-6.2h0c.3-1.1,2.7-4.5,7.7-11.5,14,5,26.1,7.5,35.1,8.8,9.7,1.5,17.5,1.9,21.6,2,4.8.2,12.6.5,22.8-.2,3.6-.3,9.8-.7,17.5-2,7.4-1.3,17.5-3.8,29.3-8.6,2.6,3.9,5.2,7.8,7.8,11.8-.4.3-.8.5-1.1.8-1.7,1.2-6,3.5-13.8,5.9s-19,4.6-35,5.8c-6.3.5-13.3.8-21.2.8s-11.6-.2-16.8-.5c2.5,1.9,5.2,3.8,7.9,6,7.3,5.8,22.7,18.2,34.9,36.7,5,7.5,26.1,40.9,14,60.5-.9,1.6-6.7,11-16.9,12.9-5,.9-9.4-.3-11.1-.8-5.2-1.6-7-3.8-16.2-10.8-7.4-5.5-11.1-8.2-13.8-8.7-8.8-1.5-16.7,4.4-18.5,5.7-7.1,5.2-17.8,18.5-18.5,19.2,0,0,0,0-.2.1-.2.2-.5.5-.9.8-.1.2-.3.3-.5.4,1.3,1.2,2.8,2.4,4.4,3.6,16.2,11.8,40.1,21.3,50.2,25v16.2h.2Z"/>
        <g>
          <path class="cls-2" d="M329.5,429.4c0,0,0,0,0,0h0s0,0-.1,0h0Z"/>
          <path class="cls-2" d="M471.5,429.7c-.4.3-.8.5-1.1.8-1.7,1.2-6,3.5-13.8,5.9-7.8,2.3-19,4.6-35,5.8-6.3.5-13.3.8-21.2.8s-11.6-.2-16.8-.5c2.5,1.9,5.2,3.8,7.9,6,7.3,5.8,22.7,18.2,34.9,36.7,5,7.5,26.1,40.9,14,60.5-.9,1.6-6.7,11-16.9,12.9-5,.9-9.4-.3-11.1-.8-5.2-1.6-7-3.8-16.2-10.8-7.4-5.5-11.1-8.2-13.8-8.7-8.8-1.5-16.7,4.4-18.5,5.7-7.1,5.2-17.8,18.5-18.5,19.2,0,0,0,0-.2.1-.2.2-.5.5-.9.8-.1.2-.3.3-.5.4,1.3,1.2,2.8,2.4,4.4,3.6,16.2,11.8,40.1,21.3,50.2,25v16.2c-.1,0-36.1-11.9-59.2-28.9-35.5-26.1-22.1-60.6-7.5-94.6,4.6-10.7-.3-20.5-6.3-27.4l9.2-12c1.3,1.2,2.6,2.5,3.9,3.9,10.4,13.3,13,28,7.1,41.5-7.2,16.7-13.3,31.7-13.8,44.9-.1,2.8,0,5.5.4,7.9.1.9.3,1.9.5,2.7h.1c2.9-4.4,5-7.6,5.3-8.1,7.5-11.9,18-18.1,18-18.1,3.6-2.1,12.2-7.3,23.2-5.9,5.7.8,9.9,3,13.1,4.8,13.2,7.3,15.4,16.3,21.5,15.5,5.5-.7,8.5-8.6,8.6-9.2.8-2,2.5-8.2-5.6-23.7-2.3-4.2-11.6-21.3-35.2-40.6-.5-.3-.9-.7-1.2-.9-8.9-7.1-21.7-16.4-38.9-25.5h0c-3.8-2-7.8-4.1-12.1-6.2h0c.3-1.1,2.7-4.5,7.7-11.5,14,5,26.1,7.5,35.1,8.8,9.7,1.5,17.5,1.9,21.6,2,4.8.2,12.6.5,22.8-.2,3.6-.3,9.8-.7,17.5-2,7.4-1.3,17.5-3.8,29.3-8.6,2.6,3.9,5.2,7.8,7.8,11.8h.2Z"/>
          <path class="cls-2" d="M341.7,435.6c-6.2-2-9.5-4-11.1-5.1-.3-.2-.8-.5-1.1-.8h0c0,0,0-.2,0-.3h0c4.3,2,8.3,4.1,12.1,6.2h0Z"/>
          <circle class="cls-2" cx="372" cy="561.1" r="9.1"/>
          <circle class="cls-2" cx="388.7" cy="568.6" r="9.1"/>
          <g>
            <path class="cls-2" d="M321.2,435.7l-7.8,11.8s4.1,2.6,8.6,7l8.8-11.8c-3.5-3-6.7-5.3-9.5-7.1h0Z"/>
            <path class="cls-2" d="M472.5,463.5c.1-.2.3-.4.4-.6.4-.6.8-1.2,1.3-1.9.5-.6.9-1.2,1.3-1.7q.3-.4,0,0c.2-.3.5-.6.7-.8h0c1.2-1.4,2.4-2.6,3.5-3.8h0l.7-.7h0c.2-.2.3-.3.5-.4s.3-.3.5-.4.3-.3.5-.4c3.7-3.2,6.6-5.1,6.6-5.1h0l-7.9-11.8h0c-.2.1-.3.2-.5.3s-.3.2-.5.3h0c-.2.2-.5.3-.7.5h0c-.2.1-.3.2-.5.3,0,0-.2.1-.2.2-.3.2-.6.4-.9.6-.9.6-1.9,1.4-2.9,2.1-.2.1-.3.2-.5.3-2.9,2.3-6,5-9.3,8.2-.5.5-1,1-1.5,1.6-10.4,13.3-13,28-7.1,41.5.5,1,.9,2.1,1.3,3.1.3.8.6,1.6,1,2.3.4,1,.9,2,1.3,3.1.3.8.6,1.5.9,2.3.6,1.5,1.2,3,1.7,4.5,4.2,10.7,7.1,20.7,7.5,29.8.5,10.3-2.7,18.6-10,25.9-1.9,1.9-3.9,3.6-6.3,5.3-16.2,11.9-40,21.4-50.1,25h0v16.2s36.1-11.9,59.2-29c3-2.2,5.7-4.5,8-6.8,7.4-7.4,11.6-15.3,13.4-23.6h0c2.8-12.6.3-26.1-4.3-39.8-.2-.6-.3-1.1-.6-1.7-.4-1.2-.8-2.4-1.3-3.6-.2-.4-.3-.8-.5-1.2-.5-1.2-.9-2.4-1.4-3.6-.2-.6-.5-1.1-.6-1.7-.6-1.4-1.2-2.8-1.7-4.2-.2-.6-.5-1.1-.7-1.7-.5-1.1-.9-2.3-1.5-3.4-.2-.6-.5-1.1-.7-1.7s-.5-1.1-.7-1.7c-2.4-5.6-2.2-11-.6-15.8.8-2.3,1.9-4.5,3.1-6.5h0Z"/>
          </g>
        </g>
        <g>
          <path class="cls-1" d="M563.2,544.4c4.3,0,7.6,1,9.9,3s3.5,4.9,3.5,8.6-1.2,6.8-3.5,8.9c-2.3,2.1-5.6,3.2-9.9,3.2h-7.9v10.4h-5.6v-34.1h13.5ZM563.2,563.2c2.6,0,4.6-.6,6-1.7,1.4-1.2,2.1-2.9,2.1-5.3s-.7-4-2.1-5.1c-1.4-1.1-3.4-1.7-6-1.7h-7.9v13.9h7.9ZM563.4,565.9h5.5l8.3,12.6h-6.4l-7.4-12.6Z"/>
          <path class="cls-1" d="M592.1,566.9c-1.8,0-3.1.3-4,.8s-1.3,1.5-1.3,2.7.4,2.2,1.3,2.9c.9.7,2.1,1.1,3.6,1.1s2.6-.2,3.7-.7c1.1-.5,1.9-1.1,2.6-2,.6-.8,1-1.8,1-2.8l1,4.7c-.8,1.7-2,3-3.6,3.8s-3.6,1.3-5.8,1.3-3.4-.4-4.7-1.1-2.4-1.7-3.1-2.9c-.7-1.2-1.1-2.6-1.1-4.1,0-2.3.8-4.2,2.5-5.6,1.7-1.4,4-2.1,7.1-2.1h8.4v4h-7.6ZM598.9,562.1c0-1.7-.5-3-1.5-3.9-1-.9-2.5-1.4-4.5-1.4s-2.4.2-3.7.7c-1.3.5-2.5,1.1-3.8,2l-2.2-3.6c1.2-.7,2.3-1.4,3.3-1.9,1-.5,2.2-.9,3.4-1.1,1.2-.3,2.6-.4,4.2-.4,3.3,0,5.8.8,7.5,2.4,1.8,1.6,2.7,3.8,2.7,6.7v17s-5.3,0-5.3,0v-16.4Z"/>
          <path class="cls-1" d="M611.9,542.3h5.5v36.2h-5.5v-36.2ZM628.6,552.6h6.3l-17.9,19v-6.7l11.6-12.3ZM624.9,561.8l10.6,16.7h-6.5l-8.2-13.3,4-3.4Z"/>
          <path class="cls-1" d="M656.3,563.7c0-1.5-.4-2.7-1-3.7-.6-1-1.4-1.8-2.5-2.4s-2.3-.9-3.6-.9-2.8.4-4,1.1c-1.1.7-2,1.7-2.6,3-.6,1.3-1,2.8-1,4.5s.3,3.5,1,4.8c.7,1.4,1.6,2.4,2.9,3.2,1.2.7,2.6,1.1,4.2,1.1,2.8,0,5.2-1,7.1-3.1l2.9,3c-1.2,1.4-2.7,2.5-4.5,3.2-1.8.8-3.8,1.1-6,1.1s-4.9-.6-6.8-1.7c-1.9-1.1-3.4-2.6-4.5-4.6-1.1-2-1.6-4.2-1.6-6.8s.5-4.9,1.6-6.9c1.1-2,2.6-3.5,4.5-4.6,1.9-1.1,4.2-1.7,6.7-1.7,3,0,5.4.6,7.2,1.9s3.1,3,3.9,5.3c.8,2.3,1,5,.8,8.1h-20.2v-4h15.5Z"/>
          <path class="cls-1" d="M684.3,563.7c0-1.5-.4-2.7-1-3.7-.6-1-1.4-1.8-2.5-2.4s-2.3-.9-3.6-.9-2.8.4-4,1.1c-1.1.7-2,1.7-2.6,3-.6,1.3-1,2.8-1,4.5s.3,3.5,1,4.8c.7,1.4,1.6,2.4,2.9,3.2,1.2.7,2.6,1.1,4.2,1.1,2.8,0,5.2-1,7.1-3.1l2.9,3c-1.2,1.4-2.7,2.5-4.5,3.2-1.8.8-3.8,1.1-6,1.1s-4.9-.6-6.8-1.7c-1.9-1.1-3.4-2.6-4.5-4.6-1.1-2-1.6-4.2-1.6-6.8s.5-4.9,1.6-6.9c1.1-2,2.6-3.5,4.5-4.6,1.9-1.1,4.2-1.7,6.7-1.7,3,0,5.4.6,7.2,1.9s3.1,3,3.9,5.3c.8,2.3,1,5,.8,8.1h-20.2v-4h15.5Z"/>
          <path class="cls-1" d="M693,552.6h20.8v3.7l-14.5,17.9h14.9v4.3h-21.7v-3.7l14.5-17.9h-14v-4.3Z"/>
          <path class="cls-1" d="M733.2,544.4h23.8v4.9h-18.2v9.6h16.3v4.9h-16.3v9.8h18.8v4.9h-24.4v-34.1Z"/>
          <path class="cls-1" d="M764.4,542.3h5.5v36.2h-5.5v-36.2Z"/>
          <path class="cls-1" d="M796,560c-.9-.9-1.9-1.7-3.1-2.2-1.2-.5-2.6-.8-4.1-.8s-2.8.4-3.9,1.1c-1.1.7-2,1.7-2.7,3-.6,1.3-1,2.8-1,4.5s.3,3.2,1,4.5c.6,1.3,1.5,2.3,2.7,3,1.1.7,2.4,1.1,3.9,1.1s3-.3,4.3-.8c1.3-.5,2.3-1.3,3.2-2.4l3,3.1c-1.1,1.5-2.6,2.6-4.5,3.4-1.8.8-3.9,1.2-6.3,1.2s-4.7-.6-6.6-1.7c-1.9-1.1-3.4-2.6-4.5-4.6-1.1-2-1.6-4.2-1.6-6.8s.5-4.9,1.6-6.9c1.1-2,2.6-3.5,4.5-4.6,1.9-1.1,4.1-1.7,6.6-1.7s4.3.3,6.1,1,3.2,1.7,4.4,2.9l-3,3.6Z"/>
          <path class="cls-1" d="M802.5,553.5h16.5v4h-16.5v-4ZM811.5,570.3c0,1.4.2,2.3.7,2.9s1.1.8,2,.8,1.2,0,1.8-.3c.6-.2,1.3-.5,2-.9l1.4,4c-1,.6-2,1.1-3,1.4-1,.3-2.1.5-3.2.5s-2.4-.3-3.5-.8c-1.1-.5-1.9-1.3-2.6-2.4-.7-1.1-1-2.5-1-4.3v-24.8h5.4v23.8Z"/>
          <path class="cls-1" d="M824.4,552.6h5.5v25.9h-5.5v-25.9ZM838.6,557.5c-1.8,0-3.4.2-4.7,1-1.3.7-2.3,1.7-3,3-.7,1.3-1.1,2.8-1.1,4.5l-1.5-.2c0-2.9.4-5.3,1.2-7.3.8-2,2-3.5,3.6-4.5,1.6-1,3.4-1.5,5.5-1.5v5.1Z"/>
          <path class="cls-1" d="M854,552.4c2.6,0,4.9.6,6.9,1.7,2,1.1,3.5,2.6,4.6,4.6,1.1,2,1.7,4.3,1.7,6.8s-.6,4.9-1.7,6.9c-1.1,2-2.7,3.5-4.6,4.6-2,1.1-4.3,1.7-6.9,1.7s-4.9-.6-6.9-1.7c-2-1.1-3.6-2.6-4.7-4.6-1.1-2-1.7-4.3-1.7-6.9s.6-4.9,1.7-6.8c1.1-2,2.7-3.5,4.7-4.6s4.3-1.7,6.9-1.7ZM854,556.9c-1.5,0-2.9.4-4,1.1-1.2.7-2.1,1.7-2.7,3-.7,1.3-1,2.8-1,4.5s.3,3.2,1,4.5c.7,1.3,1.6,2.3,2.7,3,1.2.7,2.5,1.1,4,1.1s2.9-.4,4-1.1c1.2-.7,2.1-1.7,2.7-3,.7-1.3,1-2.8,1-4.5s-.3-3.2-1-4.5c-.7-1.3-1.6-2.3-2.7-3-1.2-.7-2.5-1.1-4-1.1Z"/>
          <path class="cls-1" d="M872.9,552.6h5.5v25.9h-5.5v-25.9ZM891.7,563.9c0-2-.5-3.6-1.6-4.8-1.1-1.2-2.6-1.7-4.5-1.7-2.3,0-4,.8-5.3,2.4-1.3,1.6-1.9,3.6-1.9,5.9h-1.5c0-3.2.4-5.8,1.3-7.8.9-2,2.1-3.4,3.8-4.3,1.6-.9,3.6-1.3,5.8-1.3s3.7.4,5.1,1.2c1.4.8,2.5,2,3.2,3.4.7,1.5,1.1,3.3,1.1,5.3v16.1h-5.5v-14.6Z"/>
          <path class="cls-1" d="M907.2,541.9c.9,0,1.7.3,2.3.9.6.6.9,1.4.9,2.3s-.3,1.7-.9,2.3c-.6.6-1.4,1-2.3,1s-1.6-.3-2.3-1c-.6-.6-.9-1.4-.9-2.3s.3-1.7.9-2.3c.6-.6,1.4-.9,2.3-.9ZM904.5,552.6h5.4v25.9h-5.4v-25.9Z"/>
          <path class="cls-1" d="M935.8,560c-.9-.9-1.9-1.7-3.1-2.2-1.2-.5-2.6-.8-4.1-.8s-2.8.4-3.9,1.1c-1.1.7-2,1.7-2.7,3-.6,1.3-1,2.8-1,4.5s.3,3.2,1,4.5c.6,1.3,1.5,2.3,2.7,3,1.1.7,2.4,1.1,3.9,1.1s3-.3,4.3-.8c1.3-.5,2.3-1.3,3.2-2.4l3,3.1c-1.1,1.5-2.6,2.6-4.5,3.4-1.8.8-3.9,1.2-6.3,1.2s-4.7-.6-6.6-1.7c-1.9-1.1-3.4-2.6-4.5-4.6-1.1-2-1.6-4.2-1.6-6.8s.5-4.9,1.6-6.9c1.1-2,2.6-3.5,4.5-4.6,1.9-1.1,4.1-1.7,6.6-1.7s4.3.3,6.1,1,3.2,1.7,4.4,2.9l-3,3.6Z"/>
          <path class="cls-1" d="M958,544.4h5.6v34.1h-5.6v-34.1Z"/>
          <path class="cls-1" d="M972.1,552.6h5.5v25.9h-5.5v-25.9ZM990.8,563.9c0-2-.5-3.6-1.6-4.8-1.1-1.2-2.6-1.7-4.5-1.7-2.3,0-4,.8-5.3,2.4-1.3,1.6-1.9,3.6-1.9,5.9h-1.5c0-3.2.4-5.8,1.3-7.8.9-2,2.1-3.4,3.8-4.3,1.6-.9,3.6-1.3,5.8-1.3s3.7.4,5.1,1.2c1.4.8,2.5,2,3.2,3.4.7,1.5,1.1,3.3,1.1,5.3v16.1h-5.5v-14.6Z"/>
          <path class="cls-1" d="M1018.1,558.9c-1.1-.7-2.3-1.2-3.6-1.6-1.3-.4-2.5-.6-3.6-.6s-2,.2-2.7.6c-.7.4-1,1.1-1,2.1s.3,1.5,1,1.9c.7.5,1.5.9,2.5,1.2,1,.3,2.1.7,3.2,1s2.2.8,3.3,1.4c1,.6,1.9,1.3,2.5,2.3.6,1,1,2.3,1,3.9s-.5,3.2-1.4,4.3-2.1,2-3.6,2.5-3.1.8-4.8.8-3.7-.3-5.5-.9c-1.8-.6-3.4-1.5-4.7-2.7l2-3.8c1.1,1,2.5,1.8,4,2.4,1.6.6,3.1.9,4.4.9s1.5-.1,2.1-.3c.6-.2,1.1-.5,1.5-1,.4-.4.5-1,.5-1.7s-.3-1.6-1-2.1c-.6-.5-1.5-1-2.5-1.3-1-.3-2.1-.7-3.2-1-1.1-.3-2.2-.8-3.2-1.3-1-.6-1.8-1.3-2.5-2.2-.6-.9-1-2.2-1-3.8s.4-3.2,1.3-4.3c.9-1.1,2-1.9,3.5-2.4,1.4-.5,2.9-.8,4.5-.8s3.2.2,4.8.7c1.6.5,3,1.1,4.1,1.9l-2,3.9Z"/>
          <path class="cls-1" d="M1030.7,567.2c0,2,.5,3.6,1.6,4.8,1,1.2,2.5,1.7,4.3,1.7,2.2,0,3.9-.9,5.1-2.5,1.2-1.6,1.8-3.6,1.8-5.9h1.5c0,3.2-.4,5.8-1.3,7.7s-2.1,3.4-3.6,4.3c-1.6.9-3.4,1.4-5.6,1.4-1.9,0-3.6-.4-5-1.2s-2.4-2-3.2-3.5c-.7-1.5-1.1-3.3-1.1-5.3v-16.1h5.5v14.6ZM1043.5,552.6h5.5v25.9h-5.5v-25.9Z"/>
          <path class="cls-1" d="M1057.1,552.6h5.5v25.9h-5.5v-25.9ZM1071.3,557.5c-1.8,0-3.4.2-4.7,1-1.3.7-2.3,1.7-3,3-.7,1.3-1.1,2.8-1.1,4.5l-1.5-.2c0-2.9.4-5.3,1.2-7.3.8-2,2-3.5,3.6-4.5,1.6-1,3.4-1.5,5.5-1.5v5.1Z"/>
          <path class="cls-1" d="M1083.1,566.9c-1.8,0-3.1.3-4,.8s-1.3,1.5-1.3,2.7.4,2.2,1.3,2.9c.9.7,2.1,1.1,3.6,1.1s2.6-.2,3.7-.7c1.1-.5,1.9-1.1,2.6-2,.6-.8,1-1.8,1-2.8l1,4.7c-.8,1.7-2,3-3.6,3.8s-3.6,1.3-5.8,1.3-3.4-.4-4.7-1.1-2.4-1.7-3.1-2.9c-.7-1.2-1.1-2.6-1.1-4.1,0-2.3.8-4.2,2.5-5.6,1.7-1.4,4-2.1,7.1-2.1h8.4v4h-7.6ZM1090,562.1c0-1.7-.5-3-1.5-3.9-1-.9-2.5-1.4-4.5-1.4s-2.4.2-3.7.7c-1.3.5-2.5,1.1-3.8,2l-2.2-3.6c1.2-.7,2.3-1.4,3.3-1.9,1-.5,2.2-.9,3.4-1.1,1.2-.3,2.6-.4,4.2-.4,3.3,0,5.8.8,7.5,2.4,1.8,1.6,2.7,3.8,2.7,6.7v17s-5.3,0-5.3,0v-16.4Z"/>
          <path class="cls-1" d="M1102.7,552.6h5.5v25.9h-5.5v-25.9ZM1121.5,563.9c0-2-.5-3.6-1.6-4.8-1.1-1.2-2.6-1.7-4.5-1.7-2.3,0-4,.8-5.3,2.4-1.3,1.6-1.9,3.6-1.9,5.9h-1.5c0-3.2.4-5.8,1.3-7.8.9-2,2.1-3.4,3.8-4.3,1.6-.9,3.6-1.3,5.8-1.3s3.7.4,5.1,1.2c1.4.8,2.5,2,3.2,3.4.7,1.5,1.1,3.3,1.1,5.3v16.1h-5.5v-14.6Z"/>
          <path class="cls-1" d="M1152.2,560c-.9-.9-1.9-1.7-3.1-2.2-1.2-.5-2.6-.8-4.1-.8s-2.8.4-3.9,1.1c-1.1.7-2,1.7-2.7,3-.6,1.3-1,2.8-1,4.5s.3,3.2,1,4.5c.6,1.3,1.5,2.3,2.7,3,1.1.7,2.4,1.1,3.9,1.1s3-.3,4.3-.8,2.3-1.3,3.2-2.4l3,3.1c-1.1,1.5-2.6,2.6-4.5,3.4s-3.9,1.2-6.3,1.2-4.7-.6-6.6-1.7c-1.9-1.1-3.4-2.6-4.5-4.6-1.1-2-1.6-4.2-1.6-6.8s.5-4.9,1.6-6.9c1.1-2,2.6-3.5,4.5-4.6,1.9-1.1,4.1-1.7,6.6-1.7s4.3.3,6.1,1,3.2,1.7,4.4,2.9l-3,3.6Z"/>
          <path class="cls-1" d="M1177.7,563.7c0-1.5-.4-2.7-1-3.7-.6-1-1.4-1.8-2.5-2.4s-2.3-.9-3.6-.9-2.8.4-4,1.1c-1.1.7-2,1.7-2.6,3-.6,1.3-1,2.8-1,4.5s.3,3.5,1,4.8c.7,1.4,1.6,2.4,2.9,3.2,1.2.7,2.6,1.1,4.2,1.1,2.8,0,5.2-1,7.1-3.1l2.9,3c-1.2,1.4-2.7,2.5-4.5,3.2-1.8.8-3.8,1.1-6,1.1s-4.9-.6-6.8-1.7c-1.9-1.1-3.4-2.6-4.5-4.6-1.1-2-1.6-4.2-1.6-6.8s.5-4.9,1.6-6.9c1.1-2,2.6-3.5,4.5-4.6,1.9-1.1,4.2-1.7,6.7-1.7,3,0,5.4.6,7.2,1.9s3.1,3,3.9,5.3c.8,2.3,1,5,.8,8.1h-20.2v-4h15.5Z"/>
          <path class="cls-1" d="M1215.8,544.4c2.3,0,4.3.3,6,1s3,1.7,3.9,2.9c.9,1.3,1.4,2.8,1.4,4.6s-.5,3.6-1.6,4.9-2.5,2.3-4.3,2.7c2.2.4,4,1.3,5.2,2.9,1.3,1.5,1.9,3.4,1.9,5.8s-.5,3.6-1.5,5c-1,1.4-2.4,2.5-4.2,3.2-1.8.7-4,1.1-6.5,1.1h-14.8v-34.1h14.5ZM1215.5,558.6c1.8,0,3.2-.4,4.2-1.2,1-.8,1.5-2,1.5-3.5s-.5-2.6-1.5-3.4c-1-.8-2.4-1.2-4.2-1.1h-8.6v9.3h8.6ZM1215.5,573.6c2.2,0,3.9-.4,5.1-1.3,1.2-.9,1.9-2.2,1.9-3.8s-.6-2.8-1.9-3.7c-1.2-.9-3-1.3-5.1-1.3h-8.6v10.1h8.6Z"/>
          <path class="cls-1" d="M1234.6,552.6h5.5v25.9h-5.5v-25.9ZM1248.8,557.5c-1.8,0-3.4.2-4.7,1s-2.3,1.7-3,3c-.7,1.3-1.1,2.8-1.1,4.5l-1.5-.2c0-2.9.4-5.3,1.2-7.3s2-3.5,3.6-4.5c1.6-1,3.4-1.5,5.5-1.5v5.1Z"/>
          <path class="cls-1" d="M1264.2,552.4c2.6,0,4.9.6,6.9,1.7,2,1.1,3.5,2.6,4.6,4.6,1.1,2,1.7,4.3,1.7,6.8s-.6,4.9-1.7,6.9-2.7,3.5-4.6,4.6c-2,1.1-4.3,1.7-6.9,1.7s-4.9-.6-6.9-1.7c-2-1.1-3.6-2.6-4.7-4.6-1.1-2-1.7-4.3-1.7-6.9s.6-4.9,1.7-6.8c1.1-2,2.7-3.5,4.7-4.6s4.3-1.7,6.9-1.7ZM1264.2,556.9c-1.5,0-2.9.4-4,1.1-1.2.7-2.1,1.7-2.7,3-.7,1.3-1,2.8-1,4.5s.3,3.2,1,4.5c.7,1.3,1.6,2.3,2.7,3,1.2.7,2.5,1.1,4,1.1s2.9-.4,4-1.1c1.2-.7,2.1-1.7,2.7-3,.7-1.3,1-2.8,1-4.5s-.3-3.2-1-4.5c-.7-1.3-1.6-2.3-2.7-3-1.2-.7-2.5-1.1-4-1.1Z"/>
          <path class="cls-1" d="M1283.3,542.3h5.5v36.2h-5.5v-36.2ZM1300,552.6h6.3l-17.9,19v-6.7l11.6-12.3ZM1296.4,561.8l10.6,16.7h-6.5l-8.2-13.3,4-3.4Z"/>
          <path class="cls-1" d="M1327.8,563.7c0-1.5-.4-2.7-1-3.7-.6-1-1.4-1.8-2.5-2.4s-2.3-.9-3.6-.9-2.8.4-4,1.1c-1.1.7-2,1.7-2.6,3-.6,1.3-1,2.8-1,4.5s.3,3.5,1,4.8c.7,1.4,1.6,2.4,2.9,3.2,1.2.7,2.6,1.1,4.2,1.1,2.8,0,5.2-1,7.1-3.1l2.9,3c-1.2,1.4-2.7,2.5-4.5,3.2-1.8.8-3.8,1.1-6,1.1s-4.9-.6-6.8-1.7c-1.9-1.1-3.4-2.6-4.5-4.6-1.1-2-1.6-4.2-1.6-6.8s.5-4.9,1.6-6.9c1.1-2,2.6-3.5,4.5-4.6,1.9-1.1,4.2-1.7,6.7-1.7,3,0,5.4.6,7.2,1.9s3.1,3,3.9,5.3c.8,2.3,1,5,.8,8.1h-20.2v-4h15.5Z"/>
          <path class="cls-1" d="M1338.2,552.6h5.5v25.9h-5.5v-25.9ZM1352.5,557.5c-1.8,0-3.4.2-4.7,1-1.3.7-2.3,1.7-3,3-.7,1.3-1.1,2.8-1.1,4.5l-1.5-.2c0-2.9.4-5.3,1.2-7.3.8-2,2-3.5,3.6-4.5,1.6-1,3.4-1.5,5.5-1.5v5.1Z"/>
          <path class="cls-1" d="M1394.3,553.2c-1.2-1.4-2.6-2.4-4.3-3.2-1.7-.8-3.3-1.2-5-1.2s-3.2.3-4.6,1c-1.4.6-2.7,1.5-3.8,2.7-1.1,1.1-1.9,2.5-2.5,4-.6,1.5-.9,3.1-.9,4.9s.3,3.3.9,4.9c.6,1.5,1.5,2.8,2.5,4,1.1,1.1,2.4,2,3.8,2.7,1.4.7,3,1,4.6,1s3.3-.4,5-1.1c1.6-.7,3.1-1.7,4.3-3l3.3,3.6c-1.1,1.1-2.4,2.1-3.8,3s-2.9,1.5-4.4,2-3.1.7-4.7.7c-2.4,0-4.7-.4-6.8-1.3s-3.9-2.1-5.5-3.7c-1.6-1.6-2.8-3.5-3.7-5.6-.9-2.1-1.3-4.4-1.3-6.9s.4-4.7,1.3-6.8c.9-2.1,2.1-3.9,3.7-5.5,1.6-1.6,3.5-2.8,5.6-3.7,2.1-.9,4.4-1.3,6.9-1.3s3.1.2,4.7.6c1.5.4,3,1,4.3,1.8s2.6,1.7,3.7,2.8l-3.3,3.9Z"/>
          <path class="cls-1" d="M1413.2,552.4c2.6,0,4.9.6,6.9,1.7,2,1.1,3.5,2.6,4.6,4.6,1.1,2,1.7,4.3,1.7,6.8s-.6,4.9-1.7,6.9-2.7,3.5-4.6,4.6c-2,1.1-4.3,1.7-6.9,1.7s-4.9-.6-6.9-1.7c-2-1.1-3.6-2.6-4.7-4.6-1.1-2-1.7-4.3-1.7-6.9s.6-4.9,1.7-6.8c1.1-2,2.7-3.5,4.7-4.6s4.3-1.7,6.9-1.7ZM1413.2,556.9c-1.5,0-2.9.4-4,1.1-1.2.7-2.1,1.7-2.7,3-.7,1.3-1,2.8-1,4.5s.3,3.2,1,4.5c.7,1.3,1.6,2.3,2.7,3,1.2.7,2.5,1.1,4,1.1s2.9-.4,4-1.1c1.2-.7,2.1-1.7,2.7-3,.7-1.3,1-2.8,1-4.5s-.3-3.2-1-4.5c-.7-1.3-1.6-2.3-2.7-3-1.2-.7-2.5-1.1-4-1.1Z"/>
          <path class="cls-1" d="M1432.1,552.6h5.4v25.9h-5.4v-25.9ZM1450.5,563.9c0-2-.5-3.6-1.6-4.8s-2.5-1.7-4.4-1.7c-2.2,0-3.9.9-5.2,2.5-1.3,1.6-1.9,3.6-1.9,5.9h-1.5c0-3.2.4-5.8,1.3-7.7.9-2,2.1-3.4,3.7-4.3,1.6-.9,3.5-1.3,5.7-1.3s3.6.4,5,1.2c1.4.8,2.4,2,3.2,3.4.7,1.5,1.1,3.3,1.1,5.3v16.1h-5.5v-14.6ZM1468.9,563.9c0-2-.5-3.6-1.6-4.8s-2.5-1.7-4.4-1.7c-2.2,0-3.9.9-5.1,2.5-1.2,1.6-1.9,3.6-1.9,5.9h-1.6c0-3.2.4-5.8,1.3-7.7.9-2,2.1-3.4,3.7-4.3,1.6-.9,3.5-1.3,5.7-1.3s3.6.4,5,1.2c1.4.8,2.4,2,3.2,3.4.7,1.5,1.1,3.3,1.1,5.3v16.1h-5.5v-14.6Z"/>
          <path class="cls-1" d="M1481.9,552.6h5.5v35.3h-5.5v-35.3ZM1496.3,552.4c2.4,0,4.5.6,6.3,1.7s3.2,2.6,4.2,4.6,1.5,4.3,1.5,6.9-.5,4.8-1.5,6.8c-1,2-2.4,3.5-4.2,4.6-1.8,1.1-3.9,1.7-6.3,1.7s-4.3-.5-5.9-1.6c-1.6-1-2.9-2.5-3.7-4.5-.9-2-1.3-4.3-1.3-7s.4-5.2,1.3-7.1c.9-2,2.1-3.5,3.7-4.5,1.6-1,3.6-1.6,5.8-1.6ZM1495.1,556.8c-1.5,0-2.8.4-4,1.1-1.2.7-2.1,1.8-2.7,3-.7,1.3-1,2.8-1,4.5s.3,3.2,1,4.5c.7,1.3,1.6,2.3,2.7,3.1,1.2.7,2.5,1.1,4,1.1s2.9-.4,4-1.1c1.2-.7,2.1-1.8,2.7-3.1.7-1.3,1-2.8,1-4.5s-.3-3.1-1-4.4-1.6-2.3-2.7-3.1c-1.2-.7-2.5-1.1-4-1.1Z"/>
          <path class="cls-1" d="M1522.4,566.9c-1.8,0-3.1.3-4,.8s-1.3,1.5-1.3,2.7.4,2.2,1.3,2.9c.9.7,2.1,1.1,3.6,1.1s2.6-.2,3.7-.7c1.1-.5,1.9-1.1,2.6-2,.6-.8,1-1.8,1-2.8l1,4.7c-.8,1.7-2,3-3.6,3.8s-3.6,1.3-5.8,1.3-3.4-.4-4.7-1.1-2.4-1.7-3.1-2.9c-.7-1.2-1.1-2.6-1.1-4.1,0-2.3.8-4.2,2.5-5.6,1.7-1.4,4-2.1,7.1-2.1h8.4v4h-7.6ZM1529.2,562.1c0-1.7-.5-3-1.5-3.9-1-.9-2.5-1.4-4.5-1.4s-2.4.2-3.7.7c-1.3.5-2.5,1.1-3.8,2l-2.2-3.6c1.2-.7,2.3-1.4,3.3-1.9,1-.5,2.2-.9,3.4-1.1,1.2-.3,2.6-.4,4.2-.4,3.3,0,5.8.8,7.5,2.4,1.8,1.6,2.7,3.8,2.7,6.7v17s-5.3,0-5.3,0v-16.4Z"/>
          <path class="cls-1" d="M1542,552.6h5.5v25.9h-5.5v-25.9ZM1560.7,563.9c0-2-.5-3.6-1.6-4.8-1.1-1.2-2.6-1.7-4.5-1.7-2.3,0-4,.8-5.3,2.4-1.3,1.6-1.9,3.6-1.9,5.9h-1.5c0-3.2.4-5.8,1.3-7.8.9-2,2.1-3.4,3.8-4.3,1.6-.9,3.6-1.3,5.8-1.3s3.7.4,5.1,1.2c1.4.8,2.5,2,3.2,3.4.7,1.5,1.1,3.3,1.1,5.3v16.1h-5.5v-14.6Z"/>
          <path class="cls-1" d="M1582.7,582.2c-.8,2-1.9,3.5-3.3,4.5-1.4,1-3,1.5-5,1.5s-2.2-.2-3.1-.5c-.9-.4-1.8-.9-2.7-1.6l2.3-4.1c1.1.8,2.2,1.3,3.3,1.3s1.6-.2,2.2-.7c.7-.5,1.2-1.2,1.6-2.2l.9-2-10.5-25.5h5.7l7.6,20,7-20h5.5l-11.5,29.5Z"/>
          <g>
            <path class="cls-1" d="M564.2,511.6c-2.7,0-5.2-.3-7.5-.9-2.3-.6-4.3-1.5-6-2.7-1.7-1.2-3-2.7-3.9-4.5-1-1.8-1.4-3.9-1.4-6.3s.6-5.1,1.8-7.1c1.2-2.1,2.9-3.8,5.1-5.3,2.2-1.5,4.7-2.6,7.7-3.5s6.1-1.6,9.5-2l.8,7.6c-2,.2-4.1.6-6.2,1.1-2.1.5-4.1,1.2-5.9,2-1.8.8-3.3,1.9-4.4,3-1.1,1.2-1.7,2.6-1.7,4.2s.6,2.8,1.7,3.8c1.1,1,2.6,1.8,4.4,2.2s3.9.7,6.1.7,3.2-.1,4.7-.3c1.4-.2,2.8-.5,4-.9l2,7.3c-1.6.5-3.4.9-5.2,1.2-1.8.3-3.7.4-5.5.4ZM557,470.3c-1.2,0-2.1-.4-2.9-1.2-.8-.8-1.2-1.7-1.2-2.9s.4-2.2,1.2-2.9c.8-.8,1.7-1.1,2.9-1.1s2.1.4,2.9,1.1c.8.8,1.2,1.7,1.2,2.9s-.4,2.1-1.2,2.9c-.8.8-1.7,1.2-2.9,1.2ZM566.5,470.3c-1.2,0-2.1-.4-2.9-1.2-.8-.8-1.2-1.7-1.2-2.9s.4-2.2,1.2-2.9c.8-.8,1.7-1.1,2.9-1.1s2.1.4,2.9,1.1c.8.8,1.2,1.7,1.2,2.9s-.4,2.1-1.2,2.9c-.8.8-1.7,1.2-2.9,1.2ZM582.2,513.6c-3.1,0-5.6-.5-7.6-1.4-1.9-1-3.4-2.4-4.3-4.3-.9-1.9-1.4-4.4-1.4-7.4v-22.9h6.7v22.9c0,1.5.2,2.7.5,3.4.3.8.9,1.3,1.9,1.6,1,.3,2.4.4,4.2.4h2.7v7.6h-2.7ZM584.9,513.6v-7.6c.5,0,.8.3,1,1,.2.7.3,1.6.3,2.8s0,2.1-.3,2.8-.5,1.1-1,1.1Z"/>
            <path class="cls-1" d="M584.9,513.6c-.5,0-.8-.4-1-1.1-.2-.7-.3-1.7-.3-2.9s0-2.1.3-2.7c.2-.7.5-1,1-1v7.6ZM584.9,513.6v-7.6h3.4c1.9,0,3.3-.1,4.2-.4.9-.3,1.5-.8,1.9-1.6.3-.8.5-1.9.5-3.4v-18.8h6.7v18.8c0,3-.5,5.4-1.4,7.4-.9,1.9-2.4,3.4-4.3,4.3-1.9,1-4.5,1.4-7.6,1.4h-3.4ZM593.5,529.8c-1.2,0-2.1-.4-2.9-1.2-.8-.8-1.2-1.7-1.2-2.9s.4-2.2,1.2-2.9c.8-.8,1.7-1.1,2.9-1.1s2.1.4,2.9,1.1c.8.8,1.2,1.7,1.2,2.9s-.4,2.1-1.2,2.9c-.8.8-1.7,1.2-2.9,1.2ZM608.1,513.6c-3.1,0-5.6-.5-7.6-1.4-1.9-1-3.4-2.4-4.3-4.3-.9-1.9-1.4-4.4-1.4-7.4h6.7c0,1.5.2,2.7.5,3.4.3.8.9,1.3,1.9,1.6.9.3,2.4.4,4.2.4h2.7v7.6h-2.7ZM602.9,529.8c-1.2,0-2.1-.4-2.9-1.2-.8-.8-1.2-1.7-1.2-2.9s.4-2.2,1.2-2.9c.8-.8,1.7-1.1,2.9-1.1s2.1.4,2.9,1.1c.8.8,1.2,1.7,1.2,2.9s-.4,2.1-1.2,2.9c-.8.8-1.7,1.2-2.9,1.2ZM610.8,513.6v-7.6c.5,0,.8.3,1,1,.2.7.3,1.6.3,2.8s0,2.1-.3,2.8-.5,1.1-1,1.1Z"/>
            <path class="cls-1" d="M610.8,513.6c-.5,0-.8-.4-1-1.1-.2-.7-.3-1.7-.3-2.9s0-2.1.3-2.7c.2-.7.5-1,1-1v7.6ZM620.1,481.7h6.7v32h-16v-7.6h9.3v-24.3ZM623.5,472.8c-1.2,0-2.3-.4-3.2-1.3-.9-.9-1.3-1.9-1.3-3.1s.4-2.3,1.3-3.2c.9-.8,1.9-1.3,3.2-1.3s2.3.4,3.2,1.3c.8.8,1.3,1.9,1.3,3.2s-.4,2.3-1.3,3.1c-.8.9-1.9,1.3-3.2,1.3Z"/>
            <path class="cls-1" d="M651.1,513.6c-3.4,0-6.4-.8-9-2.3-2.5-1.5-4.5-3.5-5.9-6.1-1.4-2.5-2.1-5.3-2.1-8.4s.4-4.8,1.3-6.9c.9-2.1,2.1-3.9,3.7-5.5,1.6-1.6,3.4-2.8,5.5-3.7,2.1-.9,4.3-1.3,6.7-1.3s4.6.4,6.8,1.1c2.2.7,4.2,1.5,5.9,2.4l-3,6.8c-3.6-1.8-6.9-2.7-9.7-2.7s-3.8.4-5.4,1.3c-1.6.9-2.9,2-3.8,3.5-.9,1.5-1.4,3.1-1.4,5s.4,3.3,1.3,4.7c.9,1.4,2.1,2.4,3.6,3.2,1.5.8,3.4,1.2,5.4,1.2h9.5v7.6h-9.5ZM636.8,531.3v-7.6h12.9c2.7,0,4.7-.6,5.9-1.7,1.2-1.1,1.8-2.9,1.8-5.3v-33.6h6.7v33.6c0,3.1-.6,5.7-1.8,7.9-1.2,2.2-2.8,3.8-5,5-2.1,1.1-4.7,1.7-7.7,1.7h-12.9Z"/>
            <path class="cls-1" d="M667.4,523.9c2.1,0,3.8-.2,5.1-.6,1.3-.5,2.2-1.2,2.8-2.4.6-1.1.9-2.5.9-4.2v-35h6.7v35c0,3-.6,5.7-1.7,7.8-1.2,2.2-2.8,3.8-4.9,5-2.1,1.1-4.6,1.7-7.6,1.8l-1.3-7.4ZM689.3,495.5c-2.3,0-4.6-.2-6.8-.5-2.2-.3-4.4-.8-6.4-1.4v-8c1.9.7,3.9,1.3,6.1,1.7s4.5.6,7.1.6,4.9-.2,7.1-.6,4.2-1,6.1-1.7v8c-2,.6-4.2,1.1-6.4,1.4-2.2.3-4.5.5-6.8.5ZM695.8,473.6c-1.2,0-2.1-.4-2.9-1.2-.8-.8-1.2-1.7-1.2-2.9s.4-2.2,1.2-2.9c.8-.8,1.7-1.1,2.9-1.1s2.1.4,2.9,1.1c.8.8,1.2,1.7,1.2,2.9s-.4,2.1-1.2,2.9c-.8.8-1.7,1.2-2.9,1.2ZM710.4,513.6c-3.1,0-5.6-.5-7.6-1.4-1.9-1-3.4-2.4-4.3-4.3-.9-1.9-1.4-4.4-1.4-7.4v-18.8h6.7v18.8c0,1.5.2,2.7.5,3.4.3.8.9,1.3,1.9,1.6.9.3,2.4.4,4.2.4h2.7v7.6h-2.7ZM705.3,473.6c-1.2,0-2.1-.4-2.9-1.2-.8-.8-1.2-1.7-1.2-2.9s.4-2.2,1.2-2.9c.8-.8,1.7-1.1,2.9-1.1s2.1.4,2.9,1.1c.8.8,1.2,1.7,1.2,2.9s-.4,2.1-1.2,2.9c-.8.8-1.7,1.2-2.9,1.2ZM713.2,513.6v-7.6c.5,0,.8.3,1,1,.2.7.3,1.6.3,2.8s0,2.1-.3,2.8-.5,1.1-1,1.1Z"/>
            <path class="cls-1" d="M713.2,513.6c-.5,0-.8-.4-1-1.1-.2-.7-.3-1.7-.3-2.9s0-2.1.3-2.7c.2-.7.5-1,1-1v7.6ZM713.2,513.6v-7.6h11.5c2.1,0,3.9-.3,5.4-.8,1.5-.5,2.6-1.2,3.4-2.1.8-.9,1.2-1.8,1.2-2.9s-.2-1.4-.6-2.2c-.4-.8-1.1-1.7-2.2-2.7-1.1-1.1-2.7-2.4-4.8-4.1s-5-3.7-8.5-6.3l-3.3-2.5,4.4-5.8,4.6,3.4c2.9,2.1,5.4,4,7.5,5.7,2.1,1.7,3.9,3.2,5.3,4.7s2.4,3,3.1,4.6c.7,1.5,1,3.2,1,5.1,0,2.8-.7,5.2-2.2,7.2-1.5,2-3.4,3.5-6,4.5s-5.3,1.6-8.5,1.6h-11.5ZM715.3,482.5v-8.2l28.7-13.3v8.3l-28.7,13.2ZM747.9,513.6c-3.1,0-5.6-.5-7.6-1.4-1.9-1-3.4-2.4-4.3-4.3-.9-1.9-1.4-4.4-1.4-7.4h0c0-.1,6.7-.1,6.7-.1h0c0,1.6.2,2.8.5,3.6.3.8.9,1.3,1.9,1.6,1,.3,2.4.4,4.2.4h2.7v7.6h-2.7ZM750.6,513.6v-7.6c.5,0,.8.3,1,1,.2.7.3,1.6.3,2.8s0,2.1-.3,2.8-.5,1.1-1,1.1Z"/>
            <path class="cls-1" d="M750.6,513.6c-.5,0-.8-.4-1-1.1-.2-.7-.3-1.7-.3-2.9s0-2.1.3-2.7c.2-.7.5-1,1-1v7.6ZM750.6,513.6v-7.6h8.6v-46.8h6.7v54.4h-15.3Z"/>
            <path class="cls-1" d="M775.2,513.6v-7.6h35.3v7.6h-35.3ZM780.9,531.9v-4.6h14.1v4.6h-14.1ZM790.1,530.5c-2.3,0-4.3-.5-5.7-1.4-1.5-.9-2.2-2.2-2.2-4s.4-2.3,1.1-3.2c.7-.9,1.6-1.6,2.8-2.1,1.1-.5,2.4-.7,3.7-.7s1.6,0,2.4.3c.8.2,1.5.4,2.2.8l-1.7,3.8c-.4,0-.8-.2-1.2-.2s-.9,0-1.2,0c-1.2,0-2.2.2-2.9.5-.7.4-1.1.8-1.1,1.2s.4.8,1.1,1.2c.7.4,1.7.5,2.9.5v3.3ZM784.6,513.6v-40.1h6.7v40.1h-6.7ZM803.9,513.6v-54.4h6.7v54.4h-6.7Z"/>
            <path class="cls-1" d="M821.2,513.6v-54.4h6.7v54.4h-6.7Z"/>
            <path class="cls-1" d="M875,531.3c-3.4,0-6.5-.6-9.1-1.8-2.6-1.2-4.9-2.9-6.7-5-1.8-2.1-3.2-4.6-4.1-7.4-.9-2.8-1.4-5.8-1.4-9.1s.2-3.9.5-5.9c.3-2,.7-3.9,1.3-5.7l6.4,1.2c-.4,1.9-.8,3.6-1,5.3-.2,1.7-.4,3.4-.4,5.1,0,3.3.6,6.1,1.7,8.4,1.1,2.3,2.8,4.1,5,5.4,2.2,1.2,4.8,1.9,7.9,1.9s5.7-.6,7.9-1.9c2.2-1.2,3.8-3,5-5.4,1.1-2.3,1.7-5.2,1.7-8.4v-26.3h6.7v26.3c0,3.3-.5,6.3-1.4,9.1-.9,2.8-2.3,5.3-4.1,7.4-1.8,2.1-4,3.8-6.7,5-2.6,1.2-5.7,1.8-9.1,1.8ZM875,482.5c-1.2,0-2.3-.4-3.1-1.3-.9-.9-1.3-1.9-1.3-3.2s.4-2.3,1.3-3.2c.9-.8,1.9-1.3,3.1-1.3s2.3.4,3.2,1.3c.8.8,1.3,1.9,1.3,3.2s-.4,2.3-1.3,3.2c-.8.9-1.9,1.3-3.2,1.3ZM902.8,495.5c-2.3,0-4.6-.2-6.8-.5-2.2-.3-4.4-.8-6.4-1.4v-8c1.9.7,3.9,1.3,6.1,1.7s4.5.6,7.1.6,4.9-.2,7.1-.6,4.2-1,6.1-1.7v8c-2,.6-4.2,1.1-6.4,1.4-2.2.3-4.5.5-6.8.5ZM909.3,529.8c-1.2,0-2.1-.4-2.9-1.2-.8-.8-1.2-1.7-1.2-2.9s.4-2.2,1.2-2.9c.8-.8,1.7-1.1,2.9-1.1s2.1.4,2.9,1.1c.8.8,1.2,1.7,1.2,2.9s-.4,2.1-1.2,2.9c-.8.8-1.7,1.2-2.9,1.2ZM923.9,513.6c-3.1,0-5.6-.5-7.6-1.4-1.9-1-3.4-2.4-4.3-4.3-.9-1.9-1.4-4.4-1.4-7.4v-18.8h6.7v18.8c0,1.5.2,2.7.5,3.4.3.8.9,1.3,1.9,1.6,1,.3,2.4.4,4.2.4h2.7v7.6h-2.7ZM918.7,529.8c-1.2,0-2.1-.4-2.9-1.2-.8-.8-1.2-1.7-1.2-2.9s.4-2.2,1.2-2.9c.8-.8,1.7-1.1,2.9-1.1s2.1.4,2.9,1.1c.8.8,1.2,1.7,1.2,2.9s-.4,2.1-1.2,2.9c-.8.8-1.7,1.2-2.9,1.2ZM926.6,513.6v-7.6c.5,0,.8.3,1,1,.2.7.3,1.6.3,2.8s0,2.1-.3,2.8-.5,1.1-1,1.1Z"/>
            <path class="cls-1" d="M926.6,513.6c-.5,0-.8-.4-1-1.1-.2-.7-.3-1.7-.3-2.9s0-2.1.3-2.7c.2-.7.5-1,1-1v7.6ZM926.6,513.6v-7.6c2.1,0,3.9-.4,5.3-1.3,1.4-.8,2.7-2,3.7-3.4,1.1-1.5,2.1-3.1,3.2-4.9,1-1.8,2.1-3.5,3.2-5.2,1.1-1.7,2.4-3.3,3.8-4.7,1.4-1.4,2.9-2.6,4.6-3.4,1.7-.9,3.6-1.3,5.7-1.3s4.3.5,6,1.5,3,2.3,4,4c1,1.7,1.8,3.5,2.2,5.5.5,2,.7,4.1.7,6.2s-.3,4.8-.9,7.7c-.6,2.9-1.6,5.5-3.1,8l-5.8-3.8c1-1.8,1.8-3.7,2.3-5.7.5-2,.8-4.1.8-6.2,0-3.3-.5-5.7-1.6-7.2-1.1-1.5-2.6-2.3-4.6-2.3s-2.5.3-3.6,1c-1.1.6-2.3,1.7-3.5,3.3-1.2,1.6-2.7,3.8-4.4,6.6-1.8,3-3.5,5.5-5.2,7.5-1.7,2-3.6,3.5-5.6,4.4-2,1-4.4,1.5-7.2,1.5ZM964.8,506.9l.3,7.6c-4,.2-7.4.2-10.3,0-2.9-.3-5.5-.8-7.7-1.6s-4.1-1.7-5.8-2.9c-1.7-1.2-3.3-2.5-4.7-4l4.8-5.3c1.6,1.7,3.5,3,5.5,4s4.5,1.7,7.4,2c2.9.4,6.4.4,10.4.2Z"/>
            <path class="cls-1" d="M974.7,461.1v-4.6h14.1v4.6h-14.1ZM983.9,459.8c-2.3,0-4.3-.5-5.7-1.4-1.5-.9-2.2-2.2-2.2-4s.4-2.3,1.1-3.2c.7-.9,1.6-1.6,2.8-2.1,1.1-.5,2.4-.7,3.7-.7s1.6,0,2.4.3c.8.2,1.5.4,2.2.8l-1.7,3.8c-.4,0-.8-.2-1.2-.2-.5,0-.9,0-1.2,0-1.2,0-2.2.2-2.9.5-.7.4-1.1.8-1.1,1.2s.4.8,1.1,1.2c.7.4,1.7.5,2.9.5v3.3ZM978.4,513.6v-47h6.7v47h-6.7ZM985.1,513.6v-7.6h7.9v7.6h-7.9ZM992.9,513.6v-7.6c.5,0,.8.3,1,1,.2.7.3,1.6.3,2.8s0,2.1-.3,2.8c-.2.7-.5,1.1-1,1.1Z"/>
            <path class="cls-1" d="M992.9,513.6c-.5,0-.8-.4-1-1.1-.2-.7-.3-1.7-.3-2.9s0-2.1.3-2.7c.2-.7.5-1,1-1v7.6ZM992.9,513.6v-7.6h3.4c1.9,0,3.3-.1,4.2-.4.9-.3,1.5-.8,1.9-1.6.3-.8.5-1.9.5-3.4v-18.8h6.7v18.8c0,3-.5,5.4-1.4,7.4-.9,1.9-2.4,3.4-4.3,4.3-1.9,1-4.5,1.4-7.6,1.4h-3.4ZM1001.6,473.6c-1.2,0-2.1-.4-2.9-1.2-.8-.8-1.2-1.7-1.2-2.9s.4-2.2,1.2-2.9c.8-.8,1.7-1.1,2.9-1.1s2.1.4,2.9,1.1c.8.8,1.2,1.7,1.2,2.9s-.4,2.1-1.2,2.9c-.8.8-1.7,1.2-2.9,1.2ZM1016.2,513.6c-3.1,0-5.6-.5-7.6-1.4-1.9-1-3.4-2.4-4.3-4.3-.9-1.9-1.4-4.4-1.4-7.4h6.7c0,1.5.2,2.7.5,3.4.3.8.9,1.3,1.9,1.6.9.3,2.4.4,4.2.4h2.7v7.6h-2.7ZM1011,473.6c-1.2,0-2.1-.4-2.9-1.2-.8-.8-1.2-1.7-1.2-2.9s.4-2.2,1.2-2.9c.8-.8,1.7-1.1,2.9-1.1s2.1.4,2.9,1.1c.8.8,1.2,1.7,1.2,2.9s-.4,2.1-1.2,2.9c-.8.8-1.7,1.2-2.9,1.2ZM1018.9,513.6v-7.6c.5,0,.8.3,1,1,.2.7.3,1.6.3,2.8s0,2.1-.3,2.8-.5,1.1-1,1.1Z"/>
            <path class="cls-1" d="M1018.9,513.6c-.5,0-.8-.4-1-1.1-.2-.7-.3-1.7-.3-2.9s0-2.1.3-2.7c.2-.7.5-1,1-1v7.6ZM1018.9,513.6v-7.6h8.6v-46.8h6.7v54.4h-15.3Z"/>
            <path class="cls-1" d="M1043.5,513.6v-54.4h6.7v54.4h-6.7Z"/>
            <path class="cls-1" d="M1094.9,511.6c-2.7,0-5.2-.3-7.5-.9-2.3-.6-4.3-1.5-6-2.7-1.7-1.2-3-2.7-3.9-4.5-1-1.8-1.4-3.9-1.4-6.3s.6-5.1,1.8-7.1c1.2-2.1,2.9-3.8,5.1-5.3,2.2-1.5,4.7-2.6,7.7-3.5s6.1-1.6,9.5-2l.8,7.6c-2,.2-4.1.6-6.2,1.1-2.1.5-4.1,1.2-5.9,2-1.8.8-3.3,1.9-4.4,3-1.1,1.2-1.7,2.6-1.7,4.2s.6,2.8,1.7,3.8c1.1,1,2.6,1.8,4.4,2.2s3.9.7,6.1.7,3.2-.1,4.7-.3c1.4-.2,2.8-.5,4-.9l2,7.3c-1.6.5-3.4.9-5.2,1.2-1.8.3-3.7.4-5.5.4ZM1087.8,470.3c-1.2,0-2.1-.4-2.9-1.2-.8-.8-1.2-1.7-1.2-2.9s.4-2.2,1.2-2.9c.8-.8,1.7-1.1,2.9-1.1s2.1.4,2.9,1.1c.8.8,1.2,1.7,1.2,2.9s-.4,2.1-1.2,2.9c-.8.8-1.7,1.2-2.9,1.2ZM1097.2,470.3c-1.2,0-2.1-.4-2.9-1.2-.8-.8-1.2-1.7-1.2-2.9s.4-2.2,1.2-2.9c.8-.8,1.7-1.1,2.9-1.1s2.1.4,2.9,1.1c.8.8,1.2,1.7,1.2,2.9s-.4,2.1-1.2,2.9c-.8.8-1.7,1.2-2.9,1.2ZM1112.9,513.6c-3.1,0-5.6-.5-7.6-1.4-1.9-1-3.4-2.4-4.3-4.3-.9-1.9-1.4-4.4-1.4-7.4v-22.9h6.7v22.9c0,1.5.2,2.7.5,3.4.3.8.9,1.3,1.9,1.6,1,.3,2.4.4,4.2.4h2.7v7.6h-2.7ZM1115.6,513.6v-7.6c.5,0,.8.3,1,1,.2.7.3,1.6.3,2.8s0,2.1-.3,2.8-.5,1.1-1,1.1Z"/>
            <path class="cls-1" d="M1115.6,513.6c-.5,0-.8-.4-1-1.1-.2-.7-.3-1.7-.3-2.9s0-2.1.3-2.7c.2-.7.5-1,1-1v7.6ZM1115.6,513.6v-7.6h4.4v7.6h-4.4ZM1120.1,513.6v-7.6h48.7v7.6h-48.7ZM1125.6,510v-50.7h6.7v40.9l-6.7,9.9ZM1162.1,513.6v-15.7c0-2.9-.5-5.3-1.4-7.2-.9-1.9-2.3-3.4-4.1-4.4-1.8-1-4-1.5-6.7-1.5s-4.2.4-6,1.1c-1.9.8-3.5,1.8-5,3.2-1.5,1.4-2.8,3-3.8,5-1.1,1.9-1.9,4.1-2.5,6.5-.6,2.4-.9,5-.9,7.8h-4c0-1.9.2-3.9.5-6.1.3-2.2.8-4.5,1.5-6.9.7-2.3,1.6-4.6,2.7-6.8,1.1-2.2,2.5-4.1,4.2-5.8s3.6-3.1,5.8-4.1c2.2-1,4.7-1.5,7.6-1.5s6,.6,8.4,1.7c2.4,1.1,4.4,2.6,5.9,4.6,1.5,1.9,2.7,4.2,3.4,6.7.8,2.5,1.1,5.1,1.1,7.9v15.7h-6.7Z"/>
            <path class="cls-1" d="M1178,513.6v-54.4h6.7v54.4h-6.7ZM1184.7,513.6v-7.6h7.9v7.6h-7.9ZM1192.6,513.6v-7.6c.5,0,.8.3,1,1,.2.7.3,1.6.3,2.8s0,2.1-.3,2.8-.5,1.1-1,1.1Z"/>
            <path class="cls-1" d="M1192.6,513.6c-.5,0-.8-.4-1-1.1-.2-.7-.3-1.7-.3-2.9s0-2.1.3-2.7c.2-.7.5-1,1-1v7.6ZM1192.6,513.6v-7.6h3.3c1.9,0,3.3-.1,4.2-.4.9-.3,1.5-.8,1.9-1.6.3-.8.5-1.9.5-3.4v-12.3h6.7v12.3c0,3-.5,5.4-1.4,7.4-.9,1.9-2.4,3.4-4.3,4.3-1.9,1-4.5,1.4-7.6,1.4h-3.3ZM1215.4,513.6c-1.5,0-2.9-.3-4.3-.8s-2.7-1.4-3.8-2.6c-1.2-1.2-2.1-2.7-2.7-4.5l4.4-3c.4,1.2,1.1,2,2.2,2.7,1,.6,2.1.9,3.3.9s2.7-.5,3.8-1.4c1.1-1,1.7-2.4,1.7-4.4v-15.6h6.7v15.6c0,3-.6,5.4-1.7,7.4-1.1,1.9-2.5,3.4-4.2,4.3-1.7,1-3.5,1.4-5.4,1.4ZM1233,513.6c-1.5,0-2.9-.3-4.3-.8s-2.7-1.4-3.8-2.6c-1.2-1.2-2.1-2.7-2.7-4.5l4.4-3c.4,1.2,1.1,2,2.2,2.7,1,.6,2.1.9,3.3.9s2.7-.5,3.8-1.4c1.1-1,1.7-2.4,1.7-4.4v-18.8h6.7v18.8c0,3-.6,5.4-1.7,7.4-1.1,1.9-2.5,3.4-4.2,4.3-1.7,1-3.5,1.4-5.4,1.4Z"/>
            <path class="cls-1" d="M1268,513.6c-3.4,0-6.4-.8-9-2.3-2.5-1.5-4.5-3.5-5.9-6.1-1.4-2.5-2.1-5.3-2.1-8.4s.4-4.8,1.3-6.9,2.1-3.9,3.7-5.5c1.6-1.6,3.4-2.8,5.5-3.7,2.1-.9,4.3-1.3,6.7-1.3s4.6.4,6.8,1.1c2.2.7,4.2,1.5,5.9,2.4l-3,6.8c-3.6-1.8-6.9-2.7-9.7-2.7s-3.8.4-5.4,1.3c-1.6.9-2.9,2-3.8,3.5s-1.4,3.1-1.4,5,.4,3.3,1.3,4.7c.9,1.4,2.1,2.4,3.6,3.2,1.5.8,3.4,1.2,5.4,1.2h9.5v7.6h-9.5ZM1253.6,531.3v-7.6h12.9c2.7,0,4.7-.6,5.9-1.7,1.2-1.1,1.8-2.9,1.8-5.3v-33.6h6.7v33.6c0,3.1-.6,5.7-1.8,7.9-1.2,2.2-2.8,3.8-5,5-2.1,1.1-4.7,1.7-7.7,1.7h-12.9ZM1279.2,513.6v-7.6h9.7v7.6h-9.7ZM1288.9,513.6v-7.6c.5,0,.8.3,1,1,.2.7.3,1.6.3,2.8s-.1,2.1-.3,2.8-.5,1.1-1,1.1Z"/>
            <path class="cls-1" d="M1288.9,513.6c-.5,0-.8-.4-1-1.1s-.3-1.7-.3-2.9,0-2.1.3-2.7c.2-.7.5-1,1-1v7.6ZM1288.9,513.6v-7.6h8.6v-46.8h6.7v54.4h-15.3Z"/>
            <path class="cls-1" d="M1326.1,523.9c2.1,0,3.8-.2,5.1-.6,1.3-.5,2.2-1.2,2.8-2.4.6-1.1.9-2.5.9-4.2v-35h6.7v35c0,3-.6,5.7-1.7,7.8-1.2,2.2-2.8,3.8-4.9,5-2.1,1.1-4.6,1.7-7.6,1.8l-1.3-7.4ZM1338.2,472.8c-1.2,0-2.3-.4-3.2-1.3-.9-.9-1.3-1.9-1.3-3.1s.4-2.3,1.3-3.2c.9-.8,1.9-1.3,3.2-1.3s2.3.4,3.2,1.3c.8.8,1.3,1.9,1.3,3.2s-.4,2.3-1.3,3.1c-.8.9-1.9,1.3-3.2,1.3ZM1348,495.5c-2.3,0-4.6-.2-6.8-.5s-4.4-.8-6.4-1.4v-8c1.9.7,3.9,1.3,6.1,1.7,2.2.4,4.5.6,7.1.6s4.9-.2,7.1-.6c2.2-.4,4.2-1,6.1-1.7v8c-2,.6-4.2,1.1-6.4,1.4-2.2.3-4.5.5-6.8.5ZM1354.5,529.8c-1.2,0-2.1-.4-2.9-1.2-.8-.8-1.2-1.7-1.2-2.9s.4-2.2,1.2-2.9c.8-.8,1.7-1.1,2.9-1.1s2.1.4,2.9,1.1c.8.8,1.2,1.7,1.2,2.9s-.4,2.1-1.2,2.9c-.8.8-1.7,1.2-2.9,1.2ZM1369.1,513.6c-3.1,0-5.6-.5-7.6-1.4-1.9-1-3.4-2.4-4.3-4.3-.9-1.9-1.4-4.4-1.4-7.4v-18.8h6.7v18.8c0,1.5.2,2.7.5,3.4s.9,1.3,1.9,1.6c1,.3,2.4.4,4.2.4h2.7v7.6h-2.7ZM1363.9,529.8c-1.2,0-2.1-.4-2.9-1.2-.8-.8-1.2-1.7-1.2-2.9s.4-2.2,1.2-2.9c.8-.8,1.7-1.1,2.9-1.1s2.1.4,2.9,1.1c.8.8,1.2,1.7,1.2,2.9s-.4,2.1-1.2,2.9c-.8.8-1.7,1.2-2.9,1.2ZM1371.8,513.6v-7.6c.5,0,.8.3,1,1,.2.7.3,1.6.3,2.8s0,2.1-.3,2.8-.5,1.1-1,1.1Z"/>
            <path class="cls-1" d="M1371.8,513.6c-.5,0-.8-.4-1-1.1s-.3-1.7-.3-2.9,0-2.1.3-2.7c.2-.7.5-1,1-1v7.6ZM1371.8,513.6v-7.6h11.5c2.1,0,3.9-.3,5.4-.8,1.5-.5,2.6-1.2,3.4-2.1.8-.9,1.2-1.8,1.2-2.9s-.2-1.4-.6-2.2c-.4-.8-1.1-1.7-2.2-2.7-1.1-1.1-2.7-2.4-4.8-4.1-2.1-1.7-5-3.7-8.5-6.3l-3.3-2.5,4.4-5.8,4.6,3.4c2.9,2.1,5.4,4,7.5,5.7,2.1,1.7,3.9,3.2,5.3,4.7,1.4,1.5,2.4,3,3.1,4.6.7,1.5,1,3.2,1,5.1,0,2.8-.7,5.2-2.2,7.2-1.5,2-3.4,3.5-6,4.5-2.5,1-5.4,1.6-8.5,1.6h-11.5ZM1373.9,482.5v-8.2l28.7-13.3v8.3l-28.7,13.2Z"/>
            <path class="cls-1" d="M1406.6,523.9c2.1,0,3.8-.2,5.1-.6,1.3-.5,2.2-1.2,2.8-2.4.6-1.1.9-2.5.9-4.2v-35h6.7v35c0,3-.6,5.7-1.7,7.8-1.2,2.2-2.8,3.8-4.9,5-2.1,1.1-4.6,1.7-7.6,1.8l-1.3-7.4Z"/>
            <path class="cls-1" d="M1465.5,511.6c-2.7,0-5.2-.3-7.5-.9-2.3-.6-4.3-1.5-6-2.7-1.7-1.2-3-2.7-3.9-4.5-1-1.8-1.4-3.9-1.4-6.3s.6-5.1,1.8-7.1c1.2-2.1,2.9-3.8,5.1-5.3,2.2-1.5,4.7-2.6,7.7-3.5s6.1-1.6,9.5-2l.8,7.6c-2,.2-4.1.6-6.2,1.1-2.1.5-4.1,1.2-5.9,2-1.8.8-3.3,1.9-4.4,3-1.1,1.2-1.7,2.6-1.7,4.2s.6,2.8,1.7,3.8c1.1,1,2.6,1.8,4.4,2.2,1.9.5,3.9.7,6.1.7s3.2-.1,4.7-.3c1.4-.2,2.8-.5,4-.9l2,7.3c-1.6.5-3.4.9-5.2,1.2-1.8.3-3.7.4-5.5.4ZM1458.4,470.3c-1.2,0-2.1-.4-2.9-1.2-.8-.8-1.2-1.7-1.2-2.9s.4-2.2,1.2-2.9c.8-.8,1.7-1.1,2.9-1.1s2.1.4,2.9,1.1c.8.8,1.2,1.7,1.2,2.9s-.4,2.1-1.2,2.9c-.8.8-1.7,1.2-2.9,1.2ZM1467.8,470.3c-1.2,0-2.1-.4-2.9-1.2-.8-.8-1.2-1.7-1.2-2.9s.4-2.2,1.2-2.9c.8-.8,1.7-1.1,2.9-1.1s2.1.4,2.9,1.1c.8.8,1.2,1.7,1.2,2.9s-.4,2.1-1.2,2.9c-.8.8-1.7,1.2-2.9,1.2ZM1483.5,513.6c-3.1,0-5.6-.5-7.6-1.4-1.9-1-3.4-2.4-4.3-4.3-.9-1.9-1.4-4.4-1.4-7.4v-22.9h6.7v22.9c0,1.5.2,2.7.5,3.4.3.8.9,1.3,1.9,1.6,1,.3,2.4.4,4.2.4h2.7v7.6h-2.7ZM1486.2,513.6v-7.6c.5,0,.8.3,1,1,.2.7.3,1.6.3,2.8s0,2.1-.3,2.8-.5,1.1-1,1.1Z"/>
            <path class="cls-1" d="M1486.2,513.6c-.5,0-.8-.4-1-1.1s-.3-1.7-.3-2.9,0-2.1.3-2.7c.2-.7.5-1,1-1v7.6ZM1486.2,513.6v-7.6h11.5c2.1,0,3.9-.3,5.4-.8,1.5-.5,2.6-1.2,3.4-2.1.8-.9,1.2-1.8,1.2-2.9s-.2-1.4-.6-2.2c-.4-.8-1.1-1.7-2.2-2.7-1.1-1.1-2.7-2.4-4.8-4.1-2.1-1.7-5-3.7-8.5-6.3l-3.3-2.5,4.4-5.8,4.6,3.4c2.9,2.1,5.4,4,7.5,5.7,2.1,1.7,3.9,3.2,5.3,4.7,1.4,1.5,2.4,3,3.1,4.6.7,1.5,1,3.2,1,5.1,0,2.8-.7,5.2-2.2,7.2-1.5,2-3.4,3.5-6,4.5-2.5,1-5.4,1.6-8.5,1.6h-11.5ZM1488.3,482.5v-8.2l28.7-13.3v8.3l-28.7,13.2Z"/>
            <path class="cls-1" d="M1521,523.9c2.1,0,3.8-.2,5.1-.6,1.3-.5,2.2-1.2,2.8-2.4.6-1.1.9-2.5.9-4.2v-35h6.7v35c0,3-.6,5.7-1.7,7.8-1.2,2.2-2.8,3.8-4.9,5-2.1,1.1-4.6,1.7-7.6,1.8l-1.3-7.4ZM1543,495.5c-2.3,0-4.6-.2-6.8-.5s-4.4-.8-6.4-1.4v-8c1.9.7,3.9,1.3,6.1,1.7,2.2.4,4.5.6,7.1.6s4.9-.2,7.1-.6c2.2-.4,4.2-1,6.1-1.7v8c-2,.6-4.2,1.1-6.4,1.4-2.2.3-4.5.5-6.8.5ZM1563.7,513.6c-3,0-5.4-.5-7.3-1.5-1.9-1-3.3-2.4-4.2-4.4-.9-2-1.4-4.4-1.4-7.3v-18.8h6.7v18.8c0,1.5.2,2.6.5,3.4s.9,1.3,1.8,1.7c.9.3,2.2.5,3.9.5v7.6ZM1563.7,513.6v-7.6c1.8,0,3.1-.2,4-.5.9-.3,1.5-.9,1.8-1.7.3-.8.5-1.9.5-3.4v-15.6h6.7v15.6c0,4.3-1,7.6-3.1,9.8-2.1,2.2-5.4,3.3-9.8,3.3ZM1568.6,465.7c1.1,0,2.1.4,2.9,1.2.8.8,1.2,1.7,1.2,2.9s-.4,2.2-1.2,2.9c-.8.8-1.7,1.1-2.9,1.1s-2.1-.4-2.9-1.1c-.8-.8-1.2-1.7-1.2-2.9s.4-2.1,1.2-2.9c.8-.8,1.7-1.2,2.9-1.2ZM1581.3,513.6c-2.4,0-4.5-.3-6.3-.9-1.8-.6-3.3-1.5-4.5-2.7-1.2-1.2-2.2-2.6-2.9-4.2l6.2-3c.3.7.8,1.2,1.4,1.7.6.5,1.4.9,2.5,1.1,1,.3,2.3.4,3.7.4s3.1-.2,4-.5c.9-.3,1.5-.9,1.8-1.7.3-.8.5-1.9.5-3.4v-18.8h6.7v18.8c0,4.3-1,7.6-3.1,9.8-2.1,2.2-5.4,3.3-9.8,3.3ZM1573.3,457.6c1.1,0,2.1.4,2.9,1.2.8.8,1.2,1.7,1.2,2.9s-.4,2.2-1.2,2.9c-.8.8-1.7,1.1-2.9,1.1s-2.1-.4-2.9-1.1c-.8-.8-1.2-1.7-1.2-2.9s.4-2.1,1.2-2.9c.8-.8,1.7-1.2,2.9-1.2ZM1578,465.7c1.1,0,2.1.4,2.9,1.2.8.8,1.2,1.7,1.2,2.9s-.4,2.2-1.2,2.9c-.8.8-1.7,1.1-2.9,1.1s-2.1-.4-2.9-1.1c-.8-.8-1.2-1.7-1.2-2.9s.4-2.1,1.2-2.9c.8-.8,1.7-1.2,2.9-1.2Z"/>
          </g>
        </g>
      </g>
      <g class="cls-3">
        <g>
          <path class="cls-4" d="M364.7,688.4c-1-1-2.1-1.4-3.5-1.4s-2.6.5-3.6,1.4c-1,1-1.5,2.1-1.5,3.5s.5,2.5,1.5,3.5,2.2,1.4,3.6,1.4,2.5-.5,3.5-1.4c1-1,1.4-2.1,1.4-3.5s-.5-2.5-1.4-3.5ZM351.1,688.4c-.9-1-2.1-1.4-3.4-1.4s-2.6.5-3.6,1.4c-1,1-1.5,2.1-1.5,3.5s.5,2.5,1.5,3.5,2.1,1.4,3.6,1.4,2.5-.5,3.4-1.4c1-1,1.5-2.1,1.5-3.5s-.5-2.5-1.5-3.5Z"/>
          <path class="cls-4" d="M401.4,755.1c-1-1-2.1-1.4-3.5-1.4s-2.6.5-3.6,1.4c-1,1-1.5,2.1-1.5,3.5s.5,2.6,1.5,3.5c1,1,2.2,1.5,3.6,1.5s2.5-.5,3.5-1.5c.9-.9,1.4-2.1,1.4-3.5s-.5-2.5-1.4-3.5ZM387.8,755.1c-1-1-2.1-1.4-3.5-1.4s-2.5.5-3.5,1.4c-1,1-1.5,2.1-1.5,3.5s.5,2.6,1.5,3.5c1,1,2.1,1.5,3.5,1.5s2.5-.5,3.5-1.5c1-.9,1.5-2.1,1.5-3.5s-.5-2.5-1.5-3.5Z"/>
          <path class="cls-4" d="M422.6,690.9c-1-1-2.1-1.4-3.5-1.4s-2.5.5-3.5,1.4c-1,1-1.4,2.2-1.4,3.6s.5,2.5,1.4,3.5c1,1,2.2,1.4,3.5,1.4s2.5-.5,3.5-1.4c1-1,1.4-2.1,1.4-3.5s-.5-2.6-1.4-3.6Z"/>
          <path class="cls-4" d="M415,708.8v25.1c0,2.4-1,3.6-3.1,3.7h-13.5c1.2-3.5,1.8-7,1.8-10.4v-18.4h-8.1v18.8c0,6.6-2.7,10-7.9,10h-10.9v-29c-4.4-3-9.4-4.5-15-4.5s-8.7,1.4-12.4,4.1c-5.2,4.2-7.7,9.8-7.7,16.7s2.9,12.4,8.6,16.5c3.1,2.3,8.3,3.6,15.7,3.6h52c5.9,0,8.9-4.2,9.1-12.5v-23.8h-8.6ZM364.9,737.6h-3.5c-9.9,0-14.8-4.4-14.8-13.2s1.4-7.6,4.1-10.5c1.9-2,4.3-3,7.2-3s4.7.6,7,1.7v25Z"/>
          <path class="cls-4" d="M448.4,763.4h-5.3v-7.6h4.8c6.5,0,9.9-3.6,10.3-10.8h-3.2c-7.3,0-12.5-1.3-15.7-3.6-5.7-4.1-8.6-9.6-8.7-16.5,0-7,2.6-12.6,7.9-16.7,3.6-2.8,7.7-4.2,12.3-4.2s10.6,1.5,15,4.5v37.2c-.2,11.7-6.1,17.6-17.5,17.6h.1ZM457.5,737.6v-25c-2.3-1.1-4.6-1.7-7-1.7s-5.2,1-7.1,3c-2.7,3-4.1,6.5-4.1,10.6,0,8.7,4.9,13.1,14.7,13.1h3.5Z"/>
          <path class="cls-4" d="M518.7,692.9c-.9-.9-2.1-1.4-3.4-1.4s-2.6.5-3.6,1.4c-1,1-1.5,2.2-1.5,3.6s.5,2.5,1.5,3.5c1,.9,2.1,1.4,3.6,1.4s2.5-.5,3.4-1.4c1-1,1.5-2.1,1.5-3.5s-.5-2.7-1.5-3.6ZM505.9,692.9c-1-.9-2.1-1.4-3.5-1.4s-2.5.5-3.5,1.4c-1,1-1.5,2.2-1.5,3.6s.5,2.5,1.5,3.5c1,.9,2.1,1.4,3.5,1.4s2.5-.5,3.5-1.4c1-1,1.4-2.1,1.4-3.5s-.5-2.7-1.4-3.6Z"/>
          <path class="cls-4" d="M560.8,745.1h1.3-1.3Z"/>
          <path class="cls-4" d="M575.6,688.1v39.3c0,4.7-1,8.7-3.1,11.9-2.3,3.5-5.8,5.5-10.5,5.7h-71.1v1.9c0,11-6,16.5-17.9,16.5h-4.4v-7.6h3.5c7,0,10.5-3.3,10.5-10v-37.1h8.4v28.8h9.4c5.3,0,8-3.3,8-10v-18.8h8v18.4c0,3.5-.6,6.9-1.7,10.4h32.8c-1.6-12.4-9.1-20-22.7-22.7v-8.6l30.2-17.4,1.9,7.8-23.4,13.3c12.8,4.2,20.3,13.4,22.7,27.6h4.7c4.4,0,6.5-3.2,6.5-9.4v-40.1h8.4-.2Z"/>
          <path class="cls-4" d="M602.5,745.1h-19.6v-7.5h18.1c6.3,0,9.4-3.5,9.4-10.6v-38.9h8.4v38.9c0,11.5-5.4,17.5-16.3,18.1h0ZM592.5,732.7l-4-44.6h8l4.4,44.5h-8.4ZM592.2,764.2l-.5-3.1,2.7-1.3c-2.1-1.2-3.2-2.8-3.2-4.9s1.1-4,3.2-5.2c.7-.4,1.7-.6,2.9-.6s2.6.2,3.5.7l-.5,2.8c-.5-.1-1.1-.2-1.7-.2-2.2,0-3.3,1-3.3,3s2.3,3.3,6.9,3.3l-.2,2.9c-3.8.5-7.1,1.4-9.8,2.5h0Z"/>
          <path class="cls-4" d="M634.4,745.1h-8.4v-57h8.4v57Z"/>
          <path class="cls-4" d="M679.7,690.9c-1-1-2.1-1.4-3.5-1.4s-2.5.5-3.5,1.4c-1,1-1.5,2.2-1.5,3.6s.5,2.5,1.5,3.5,2.2,1.4,3.5,1.4,2.5-.5,3.5-1.4c1-1,1.4-2.1,1.4-3.5s-.5-2.6-1.4-3.6Z"/>
          <path class="cls-4" d="M728.3,755.1c-1-1-2.1-1.4-3.5-1.4s-2.5.5-3.6,1.4c-1,1-1.5,2.1-1.5,3.5s.5,2.6,1.5,3.5c1,1,2.2,1.5,3.6,1.5s2.5-.5,3.5-1.5c1-.9,1.4-2.1,1.4-3.5s-.5-2.5-1.4-3.5ZM714.8,755.1c-1-1-2.1-1.4-3.6-1.4s-2.5.5-3.5,1.4-1.5,2.1-1.5,3.5.5,2.6,1.5,3.5c1,1,2.1,1.5,3.5,1.5s2.6-.5,3.6-1.5,1.4-2.1,1.4-3.5-.5-2.5-1.4-3.5Z"/>
          <path class="cls-4" d="M772.7,711.6c-3.3-3.8-7.7-5.7-13.3-5.7s-10,1.8-13,5.5c-3,3.6-4.5,8.7-4.5,15.2v1.6c0,6.3-2.2,9.4-6.5,9.5h-9.8c1.1-3.5,1.7-7,1.7-10.4v-18.4h-8.1v18.8c0,6.6-2.6,10-7.9,10h-11v-28.8h-8.3v38.2c0,5.8-3.3,8.7-10,8.8h-3.7c-9.7-.1-14.6-4.8-14.6-14s1.9-10.7,5.7-15l-6.4-4.6c-4.9,4.8-7.4,11.4-7.5,20,0,6.5,2.5,11.9,7.3,16.2,3.8,3.4,8.9,5.1,15.5,5.1h4.2c11.7,0,17.6-6.1,17.9-18.4h35.9c3.5,0,6.2-1.9,8.1-5.5,4.2,6.1,9.9,9.1,17,9.1s10.8-2.9,13.7-8.4c1.8-3.4,2.7-7.6,2.7-12.8s-1.6-12.2-4.9-16h-.2ZM759.9,741.6c-6.9,0-10.4-4.8-10.4-14.4s3.3-14.1,9.8-14.2c7,0,10.4,5.1,10.4,15.4s-3.3,13.2-9.8,13.2Z"/>
          <path class="cls-4" d="M788.3,673.3c0-2,1.1-3,3.3-3s1.2,0,1.8.2l.5-2.8c-1-.5-2.1-.7-3.5-.7s-2.1.2-2.9.6c-2.1,1.2-3.2,3-3.2,5.3s1,3.6,3.2,4.9l-2.7,1.2.5,3.1c2.7-1.2,5.9-2,9.8-2.5l.2-2.9c-4.6,0-6.9-1.1-6.9-3.3h0Z"/>
          <path class="cls-4" d="M822.9,692.9c-1-.9-2.1-1.4-3.5-1.4s-2.6.5-3.6,1.4c-1,1-1.5,2.2-1.5,3.6s.5,2.5,1.5,3.5c1,.9,2.1,1.4,3.6,1.4s2.5-.5,3.5-1.4c.9-1,1.4-2.1,1.4-3.5s-.5-2.7-1.4-3.6ZM810,692.9c-.9-.9-2.1-1.4-3.5-1.4s-2.5.5-3.5,1.4c-1,1-1.5,2.2-1.5,3.6s.5,2.5,1.5,3.5c1,.9,2.1,1.4,3.5,1.4s2.6-.5,3.5-1.4c1-1,1.5-2.1,1.5-3.5s-.5-2.7-1.5-3.6ZM826.6,745.1h1.2-1.2Z"/>
          <path class="cls-4" d="M841.5,688.1v39.3c0,4.7-1,8.7-3.1,11.9-2.3,3.5-5.9,5.5-10.5,5.7h-33.6c-6.1,0-9.2-4.2-9.2-12.5l-.3-44.5h8.9v45.8c0,2.4,1,3.6,3,3.7h7.9c5.3,0,7.9-3.3,7.9-10v-18.8h8v18.4c0,3.5-.5,6.9-1.7,10.4h7.8c4.3,0,6.5-3.2,6.5-9.4v-40.1h8.4,0Z"/>
          <path class="cls-4" d="M857.1,745.1h-8.4v-57h8.4v57Z"/>
          <path class="cls-4" d="M904.5,688.4c-1-1-2.1-1.4-3.5-1.4s-2.6.5-3.6,1.4c-1,1-1.5,2.1-1.5,3.5s.5,2.5,1.5,3.5,2.2,1.4,3.6,1.4,2.5-.5,3.5-1.4c.9-1,1.4-2.1,1.4-3.5s-.5-2.5-1.4-3.5ZM890.8,688.4c-1-1-2.1-1.4-3.5-1.4s-2.5.5-3.5,1.4c-1,1-1.5,2.1-1.5,3.5s.5,2.5,1.5,3.5,2.1,1.4,3.5,1.4,2.5-.5,3.5-1.4c1-1,1.4-2.1,1.4-3.5s-.5-2.5-1.4-3.5Z"/>
          <path class="cls-4" d="M973.6,712.3c-4.1-5.5-9.4-8.2-15.8-8.2s-6.8.8-9.8,2.7c-3.8,2.3-7.7,6.2-11.6,11.7v-30.3h-8.4c0,26.2,0,42.7,0,49.5h-14.8v-29c-4.4-3-9.4-4.5-15-4.5s-8.7,1.4-12.4,4.1c-5.2,4.2-7.7,9.8-7.7,16.7s2.9,12.4,8.6,16.5c3.1,2.3,8.3,3.6,15.7,3.6h73.7l1.7-8.6c.7-3.5,1-6.6,1-9.4,0-5-1.7-10-5-14.7h0ZM904.7,737.6h-3.5c-9.9,0-14.8-4.4-14.8-13.2s1.4-7.6,4.1-10.5c1.9-2,4.3-3,7.2-3s4.7.6,7,1.7v25h0ZM968.5,737.6h-32.5v-6c0-.7.4-1.8,1.1-3.3,2.3-4.6,4.9-8.1,7.8-10.9,4.1-3.9,8.3-5.9,12.8-5.9s7.9,2.3,10.4,6.8c1.4,2.7,2.2,5.8,2.2,9.5s-.6,5.9-1.8,9.7h0Z"/>
          <path class="cls-4" d="M1068.2,708.8v17.9c0,6.1-1.1,10.6-3.2,13.7-2.3,3.5-5.5,5.2-9.5,5.2s-9.4-1.8-12.6-5.4c-3.1,3.3-6.8,4.9-11.4,4.9h-36.7c-5.9,0-8.9-4.2-8.9-12.5v-44.5h8.3v45.8c0,2.4,1,3.6,3.1,3.7h16.1v-22.3h8.3v22.3h6.3c2.6,0,4.4-.3,5.4-.9,2.1-1.2,3.2-4.2,3.2-9v-16h8.3v16.2c0,6.5,2.5,9.8,7.4,9.8s7.5-3.5,7.5-10.4v-18.4h8.4Z"/>
          <path class="cls-4" d="M1115.6,745.1h1.3-1.3Z"/>
          <path class="cls-4" d="M1122.1,688.1v40.1c0,6.2-2.1,9.3-6.5,9.4h-4.9v-29c-4.4-3-9.4-4.5-15-4.5s-8.7,1.4-12.3,4.1c-5.3,4.2-7.9,9.8-7.9,16.7s3,12.4,8.7,16.5c3.1,2.3,8.3,3.6,15.6,3.6h3.1c-.3,7.2-3.8,10.7-10.3,10.7h-4.8v7.6h5.3c11.7,0,17.5-6.2,17.5-18.4h6.3c4.7-.3,8.1-2.2,10.5-5.7,2-3.2,3.1-7.2,3.1-11.9v-39.3h-8.4,0ZM1102.2,737.6h-3.4c-9.8,0-14.8-4.4-14.8-13.2s1.4-7.6,4.1-10.5c1.9-2,4.3-3,7.1-3s4.7.6,7,1.7v25h0Z"/>
          <path class="cls-4" d="M1168.2,690.9c-1-1-2.1-1.4-3.5-1.4s-2.5.5-3.5,1.4c-1,1-1.5,2.2-1.5,3.6s.5,2.5,1.5,3.5,2.1,1.4,3.5,1.4,2.5-.5,3.5-1.4c1-1,1.5-2.1,1.5-3.5s-.5-2.6-1.5-3.6Z"/>
          <path class="cls-4" d="M1197.4,755.1c-1-1-2.1-1.4-3.5-1.4s-2.5.5-3.6,1.4c-1,1-1.5,2.1-1.5,3.5s.5,2.6,1.5,3.5c1,1,2.2,1.5,3.6,1.5s2.5-.5,3.5-1.5c1-.9,1.4-2.1,1.4-3.5s-.5-2.5-1.4-3.5ZM1183.9,755.1c-1-1-2.1-1.4-3.6-1.4s-2.5.5-3.5,1.4c-1,1-1.5,2.1-1.5,3.5s.5,2.6,1.5,3.5c1,1,2.1,1.5,3.5,1.5s2.6-.5,3.6-1.5c.9-.9,1.4-2.1,1.4-3.5s-.5-2.5-1.4-3.5Z"/>
          <path class="cls-4" d="M1236.4,745.1h-67.3v1.9c0,11-6,16.5-17.9,16.5h-4.4v-7.6h3.5c7,0,10.5-3.3,10.5-10v-37.1h8.4v28.8h11.1c5.3,0,7.9-3.3,7.9-10v-18.8h8.1v18.4c0,3.5-.6,6.9-1.7,10.4h32.6c-1.6-12.4-9.1-20-22.6-22.7v-8.6l30.2-17.4,1.8,7.8-23.4,13.3c15.1,5,22.9,16.7,23.2,35.1h0Z"/>
          <path class="cls-4" d="M1243.8,763.4h-4.5v-7.6h3.4c7.1,0,10.6-3.3,10.6-10v-37.1h8.3v38.2c0,11-5.9,16.5-17.8,16.5Z"/>
          <path class="cls-4" d="M1309,688.4c-1-1-2.1-1.4-3.5-1.4s-2.6.5-3.6,1.4-1.5,2.1-1.5,3.5.5,2.5,1.5,3.5,2.2,1.4,3.6,1.4,2.5-.5,3.5-1.4c1-1,1.4-2.1,1.4-3.5s-.5-2.5-1.4-3.5ZM1295.4,688.4c-.9-1-2.1-1.4-3.4-1.4s-2.6.5-3.6,1.4c-1,1-1.5,2.1-1.5,3.5s.5,2.5,1.5,3.5,2.1,1.4,3.6,1.4,2.5-.5,3.4-1.4c1-1,1.5-2.1,1.5-3.5s-.5-2.5-1.5-3.5Z"/>
          <path class="cls-4" d="M1333.5,710l23.4-13.3-1.8-7.8-30.2,17.4v8.6c13.5,2.7,21.1,10.4,22.7,22.7h-30v-29c-4.4-3-9.4-4.5-14.9-4.5s-8.8,1.4-12.4,4.1c-5.1,4.2-7.7,9.8-7.7,16.7s2.9,12.4,8.6,16.5c3.1,2.3,8.3,3.6,15.8,3.6h49.9c-.3-18.4-8.1-30.1-23.2-35.1h-.2ZM1309.2,737.6h-3.5c-9.9,0-14.8-4.4-14.8-13.2s1.4-7.6,4.1-10.5c2-2,4.4-3,7.2-3s4.7.6,7,1.7v25h0Z"/>
          <path class="cls-4" d="M1435,692.9c-1-.9-2.1-1.4-3.5-1.4s-2.5.5-3.6,1.4c-1,1-1.5,2.2-1.5,3.6s.5,2.5,1.5,3.5c1,.9,2.2,1.4,3.6,1.4s2.5-.5,3.5-1.4c1-1,1.4-2.1,1.4-3.5s-.5-2.7-1.4-3.6ZM1427.6,680c-1-1-2.1-1.5-3.5-1.5s-2.5.5-3.6,1.5c-1,.9-1.5,2.1-1.5,3.6s.5,2.5,1.5,3.5,2.2,1.4,3.6,1.4,2.5-.5,3.5-1.4c1-1,1.4-2.1,1.4-3.5s-.5-2.7-1.4-3.6ZM1421.4,692.9c-.9-.9-2.1-1.4-3.4-1.4s-2.6.5-3.6,1.4c-1,1-1.5,2.2-1.5,3.6s.5,2.5,1.5,3.5c1,.9,2.1,1.4,3.6,1.4s2.5-.5,3.4-1.4c1-1,1.5-2.1,1.5-3.5s-.5-2.7-1.5-3.6Z"/>
          <path class="cls-4" d="M1453.4,708.8v17.9c0,6.1-1.1,10.6-3.2,13.7-2.3,3.5-5.5,5.2-9.5,5.2s-9.4-1.8-12.6-5.4c-3.1,3.3-6.8,4.9-11.4,4.9h-34.7v1.9c0,11-6,16.5-17.9,16.5h-4.4v-7.6h3.5c7,0,10.5-3.3,10.5-10v-37.1h8.4v28.8h16.5v-22.3h8.3v22.3h6.3c2.6,0,4.4-.3,5.4-.9,2.1-1.2,3.2-4.2,3.2-9v-16h8.3v16.2c0,6.5,2.5,9.8,7.4,9.8s7.5-3.5,7.5-10.4v-18.4h8.4Z"/>
        </g>
        <path class="cls-4" d="M342,799.2c2.4-.5,5.9-.8,9.2-.8,5.1,0,8.4,1,10.8,3.1,1.8,1.6,2.9,4.2,2.9,7.1,0,4.9-3.1,8.1-7,9.5h0c2.8,1.1,4.5,3.8,5.4,7.7,1.2,5.2,2.1,8.7,2.9,10.2h-5c-.6-1.1-1.4-4.2-2.4-8.9-1.1-5.1-3.1-7.1-7.5-7.2h-4.5v16.1h-4.8v-36.8ZM346.8,816.1h4.9c5.1,0,8.4-2.8,8.4-7s-3.5-6.9-8.5-6.9-3.9.2-4.7.4v13.5h-.1Z"/>
        <path class="cls-4" d="M388.8,835.8l-.4-3.4h0c-1.5,2.1-4.3,4-8.1,4s-8.1-3.8-8.1-7.6c0-6.5,5.7-10,16-9.9v-.6c0-2.2-.6-6.2-6.1-6.1-2.5,0-5.1.7-6.9,2l-1.1-3.2c2.2-1.4,5.4-2.3,8.8-2.3,8.1,0,10.1,5.6,10.1,10.9v10c0,2.3,0,4.5.4,6.4h-4.4v-.2ZM388,822.2c-5.2-.1-11.2.8-11.2,6s2.1,4.6,4.5,4.6c3.5,0,5.7-2.2,6.5-4.5.2-.5.2-1.1.2-1.5v-4.6Z"/>
        <path class="cls-4" d="M405.4,821.4h0c.6-.9,1.6-2.1,2.3-3l7.9-9.2h5.8l-10.3,11,11.7,15.7h-5.9l-9.2-12.8-2.5,2.8v10h-4.8v-39.1h4.8v24.7h.1Z"/>
        <path class="cls-4" d="M429.2,823.4c0,6.5,4.3,9.2,9.1,9.2s5.6-.6,7.4-1.4l.8,3.4c-1.7.8-4.7,1.7-8.9,1.7-8.2,0-13.1-5.5-13.1-13.4s4.8-14.4,12.5-14.4,11,7.6,11,12.5,0,1.7-.2,2.3h-18.7.1ZM443.4,819.9c0-3-1.3-7.8-6.7-7.8s-7,4.5-7.4,7.8h14.1Z"/>
        <path class="cls-4" d="M457.7,823.4c0,6.5,4.3,9.2,9.1,9.2s5.6-.6,7.4-1.4l.8,3.4c-1.7.8-4.7,1.7-8.9,1.7-8.2,0-13.1-5.5-13.1-13.4s4.8-14.4,12.5-14.4,11,7.6,11,12.5,0,1.7-.2,2.3h-18.7.1ZM471.9,819.9c0-3-1.3-7.8-6.7-7.8s-7,4.5-7.4,7.8h14.1Z"/>
        <path class="cls-4" d="M480.1,833l12-15.7c1.2-1.5,2.3-2.8,3.5-4.2h0c0-.1-14.5-.1-14.5-.1v-3.9h20.3v3l-11.9,15.5c-1.1,1.4-2.2,2.8-3.4,4.1h0c0,.1,15.6.1,15.6.1v3.9h-21.6v-2.8h0Z"/>
        <path class="cls-4" d="M537.8,818.4h-14.4v13.4h16.1v4h-20.9v-37.1h20.1v4h-15.2v11.8h14.4v4h0Z"/>
        <path class="cls-4" d="M545.5,796.7h4.8v39.1h-4.8v-39.1Z"/>
        <path class="cls-4" d="M561.2,823.4c0,6.5,4.3,9.2,9.1,9.2s5.6-.6,7.4-1.4l.8,3.4c-1.7.8-4.7,1.7-8.9,1.7-8.2,0-13.1-5.5-13.1-13.4s4.8-14.4,12.5-14.4,11,7.6,11,12.5,0,1.7-.2,2.3h-18.7.1ZM575.4,819.9c0-3-1.3-7.8-6.7-7.8s-7,4.5-7.4,7.8h14.1Z"/>
        <path class="cls-4" d="M605.1,834.9c-1.3.6-4.1,1.5-7.6,1.5-8,0-13.3-5.5-13.3-13.6s5.6-14.2,14.3-14.2,5.4.7,6.7,1.4l-1.1,3.7c-1.2-.6-3-1.3-5.7-1.3-6.1,0-9.4,4.6-9.4,10.1s4,10,9.3,10,4.6-.7,5.9-1.3l.8,3.6h0Z"/>
        <path class="cls-4" d="M617.3,801.5v7.7h7v3.7h-7v14.4c0,3.3,1,5.2,3.7,5.2s2.2-.2,2.8-.4l.2,3.7c-.9.4-2.4.7-4.3.7s-4.1-.7-5.2-2c-1.3-1.5-1.9-3.8-1.9-7v-14.5h-4.1v-3.7h4.1v-6.4l4.7-1.3h0Z"/>
        <path class="cls-4" d="M629.7,817.5c0-3.1,0-5.8-.2-8.3h4.2l.2,5.2h.2c1.2-3.6,4.2-5.8,7.4-5.8s.9,0,1.4.1v4.6c-.5-.1-1-.1-1.6-.1-3.4,0-5.8,2.6-6.5,6.2,0,.7-.2,1.5-.2,2.3v14.2h-4.8v-18.3h-.1Z"/>
        <path class="cls-4" d="M671.3,822.3c0,9.9-6.8,14.2-13.2,14.2s-12.8-5.3-12.8-13.7,5.9-14.1,13.2-14.1,12.8,5.6,12.8,13.7h0ZM650.2,822.6c0,5.8,3.3,10.2,8.1,10.2s8.1-4.3,8.1-10.4-2.3-10.2-8-10.2-8.2,5.3-8.2,10.4h0Z"/>
        <path class="cls-4" d="M677.5,816.4c0-2.8,0-5-.2-7.2h4.3l.3,4.4h0c1.3-2.5,4.4-5,8.8-5s9.4,2.2,9.4,11.4v15.9h-4.8v-15.4c0-4.3-1.6-7.9-6.2-7.9s-5.7,2.3-6.5,5c-.2.6-.3,1.5-.3,2.2v16h-4.8v-19.4h0Z"/>
        <path class="cls-4" d="M713.5,801.7c0,1.6-1.2,3-3.1,3s-2.9-1.4-2.9-3,1.2-3,3-3,3,1.3,3,3ZM708.1,835.8v-26.6h4.8v26.6h-4.8Z"/>
        <path class="cls-4" d="M740,834.9c-1.3.6-4.1,1.5-7.6,1.5-8,0-13.3-5.5-13.3-13.6s5.6-14.2,14.3-14.2,5.4.7,6.7,1.4l-1.1,3.7c-1.2-.6-3-1.3-5.7-1.3-6.1,0-9.4,4.6-9.4,10.1s4,10,9.3,10,4.6-.7,5.9-1.3l.8,3.6h0Z"/>
        <path class="cls-4" d="M762.3,798.7v37.1h-4.8v-37.1h4.8Z"/>
        <path class="cls-4" d="M771.1,816.4c0-2.8,0-5-.2-7.2h4.3l.3,4.4h0c1.3-2.5,4.4-5,8.8-5s9.4,2.2,9.4,11.4v15.9h-4.8v-15.4c0-4.3-1.6-7.9-6.2-7.9s-5.7,2.3-6.5,5c-.2.6-.3,1.5-.3,2.2v16h-4.8v-19.4h0Z"/>
        <path class="cls-4" d="M801,830.9c1.5.9,4,1.9,6.4,1.9,3.5,0,5.2-1.7,5.2-4s-1.4-3.5-5-4.9c-4.8-1.7-7.1-4.4-7.1-7.5s3.5-7.8,9.2-7.8,5,.7,6.5,1.6l-1.2,3.5c-1-.6-3-1.6-5.5-1.6s-4.4,1.6-4.4,3.7,1.6,3.2,5.1,4.5c4.6,1.7,7,4,7,8s-3.7,8-10,8-5.6-.8-7.5-1.9l1.2-3.7v.2Z"/>
        <path class="cls-4" d="M845.7,828.5c0,2.8,0,5.2.2,7.3h-4.3l-.3-4.4h0c-1.2,2.1-4,5-8.8,5s-9.2-2.3-9.2-11.7v-15.6h4.8v14.7c0,5.1,1.6,8.5,6,8.5s5.5-2.3,6.4-4.4c.2-.7.4-1.6.4-2.5v-16.3h4.8v19.3h0Z"/>
        <path class="cls-4" d="M853.8,817.5c0-3.1,0-5.8-.2-8.3h4.2l.2,5.2h.2c1.2-3.6,4.2-5.8,7.4-5.8s.9,0,1.3.1v4.6c-.5-.1-1-.1-1.6-.1-3.4,0-5.8,2.6-6.5,6.2,0,.7-.2,1.5-.2,2.3v14.2h-4.8v-18.3h0Z"/>
        <path class="cls-4" d="M886.3,835.8l-.4-3.4h0c-1.5,2.1-4.3,4-8.1,4s-8.1-3.8-8.1-7.6c0-6.5,5.7-10,16-9.9v-.6c0-2.2-.6-6.2-6.1-6.1-2.5,0-5.1.7-6.9,2l-1.1-3.2c2.2-1.4,5.4-2.3,8.8-2.3,8.1,0,10.1,5.6,10.1,10.9v10c0,2.3,0,4.5.4,6.4h-4.4v-.2ZM885.6,822.2c-5.2-.1-11.2.8-11.2,6s2.1,4.6,4.5,4.6c3.5,0,5.7-2.2,6.5-4.5.2-.5.2-1.1.2-1.5v-4.6Z"/>
        <path class="cls-4" d="M898.1,816.4c0-2.8,0-5-.2-7.2h4.3l.3,4.4h0c1.3-2.5,4.4-5,8.8-5s9.4,2.2,9.4,11.4v15.9h-4.8v-15.4c0-4.3-1.6-7.9-6.2-7.9s-5.7,2.3-6.5,5c-.2.6-.3,1.5-.3,2.2v16h-4.8v-19.4h-.1Z"/>
        <path class="cls-4" d="M947.7,834.9c-1.3.6-4.1,1.5-7.6,1.5-8,0-13.3-5.5-13.3-13.6s5.6-14.2,14.3-14.2,5.4.7,6.7,1.4l-1.1,3.7c-1.2-.6-3-1.3-5.7-1.3-6.1,0-9.4,4.6-9.4,10.1s4,10,9.3,10,4.6-.7,5.9-1.3l.8,3.6h0Z"/>
        <path class="cls-4" d="M955.8,823.4c0,6.5,4.3,9.2,9.1,9.2s5.6-.6,7.4-1.4l.8,3.4c-1.7.8-4.7,1.7-8.9,1.7-8.2,0-13.1-5.5-13.1-13.4s4.8-14.4,12.5-14.4,11,7.6,11,12.5,0,1.7-.2,2.3h-18.7,0ZM970,819.9c0-3-1.3-7.8-6.7-7.8s-7,4.5-7.4,7.8h14.1Z"/>
        <path class="cls-4" d="M992.5,799.2c2.1-.5,5.4-.8,8.8-.8s7.9.8,10.2,2.7c1.9,1.5,3.1,3.7,3.1,6.6s-2.4,6.7-6.3,8.1h0c3.5,1,7.7,3.9,7.7,9.5s-1.3,5.6-3.2,7.4c-2.5,2.4-6.7,3.5-12.8,3.5s-5.8-.2-7.4-.4v-36.5h0ZM997.3,814.4h4.4c5,0,8-2.7,8-6.3s-3.3-6-8.1-6-3.5.2-4.3.3v12ZM997.3,832.2c1,.2,2.3.2,4,.2,5,0,9.6-1.8,9.6-7.2s-4.4-7.2-9.6-7.2h-4v14.1h0Z"/>
        <path class="cls-4" d="M1022.3,817.5c0-3.1,0-5.8-.2-8.3h4.2l.2,5.2h.2c1.2-3.6,4.2-5.8,7.4-5.8s.9,0,1.3.1v4.6c-.5-.1-1-.1-1.6-.1-3.4,0-5.8,2.6-6.5,6.2,0,.7-.2,1.5-.2,2.3v14.2h-4.8v-18.3h0Z"/>
        <path class="cls-4" d="M1063.9,822.3c0,9.9-6.8,14.2-13.2,14.2s-12.8-5.3-12.8-13.7,5.9-14.1,13.2-14.1,12.8,5.6,12.8,13.7h0ZM1042.8,822.6c0,5.8,3.3,10.2,8.1,10.2s8.1-4.3,8.1-10.4-2.3-10.2-8-10.2-8.2,5.3-8.2,10.4Z"/>
        <path class="cls-4" d="M1074.8,821.4h0c.6-.9,1.6-2.1,2.3-3l7.9-9.2h5.8l-10.3,11,11.7,15.7h-5.9l-9.2-12.8-2.5,2.8v10h-4.8v-39.1h4.8v24.7h0Z"/>
        <path class="cls-4" d="M1098.6,823.4c0,6.5,4.3,9.2,9.1,9.2s5.6-.6,7.4-1.4l.8,3.4c-1.7.8-4.7,1.7-8.9,1.7-8.2,0-13.1-5.5-13.1-13.4s4.8-14.4,12.5-14.4,11,7.6,11,12.5,0,1.7-.2,2.3h-18.7,0ZM1112.8,819.9c0-3-1.3-7.8-6.7-7.8s-7,4.5-7.4,7.8h14.1Z"/>
        <path class="cls-4" d="M1123.5,817.5c0-3.1,0-5.8-.2-8.3h4.2l.2,5.2h.2c1.2-3.6,4.2-5.8,7.4-5.8s.9,0,1.3.1v4.6c-.5-.1-1-.1-1.6-.1-3.4,0-5.8,2.6-6.5,6.2,0,.7-.2,1.5-.2,2.3v14.2h-4.8v-18.3h0Z"/>
        <path class="cls-4" d="M1264,834.6c-1.7.9-5.3,1.8-9.8,1.8-10.5,0-18.3-6.6-18.3-18.8s7.9-19.5,19.4-19.5,7.5,1,8.8,1.6l-1.2,3.9c-1.8-.9-4.4-1.5-7.5-1.5-8.7,0-14.5,5.6-14.5,15.3s5.2,14.9,14.2,14.9,5.9-.6,7.9-1.5l1,3.8h0Z"/>
        <path class="cls-4" d="M1293.4,822.3c0,9.9-6.8,14.2-13.2,14.2s-12.8-5.3-12.8-13.7,5.9-14.1,13.2-14.1,12.8,5.6,12.8,13.7h0ZM1272.3,822.6c0,5.8,3.3,10.2,8.1,10.2s8.1-4.3,8.1-10.4-2.3-10.2-8-10.2-8.2,5.3-8.2,10.4Z"/>
        <path class="cls-4" d="M1299.6,816.4c0-2.8,0-5-.2-7.2h4.2l.3,4.3h0c1.5-2.5,4-4.9,8.4-4.9s6.4,2.2,7.5,5.3h0c.9-1.5,1.9-2.7,3-3.5,1.6-1.2,3.4-1.9,5.9-1.9,3.6,0,8.8,2.3,8.8,11.6v15.7h-4.7v-15.1c0-5.2-1.9-8.2-5.8-8.2s-4.9,2-5.8,4.4c-.2.7-.4,1.6-.4,2.4v16.5h-4.7v-16c0-4.2-1.9-7.3-5.5-7.3s-5.2,2.4-6,4.8c-.2.7-.4,1.6-.4,2.4v16.1h-4.7v-19.4h-.1Z"/>
        <path class="cls-4" d="M1343.4,817.9c0-3.4,0-6.2-.2-8.7h4.3l.3,4.5h0c1.9-3.2,5.1-5.1,9.5-5.1,6.5,0,11.3,5.4,11.3,13.5s-5.9,14.3-12.1,14.3-6.6-1.5-8.2-4.2h0v14.5h-4.8v-28.9h-.1ZM1348.2,825c0,.7,0,1.4.2,2,.9,3.4,3.8,5.7,7.2,5.7,5.1,0,8.1-4.2,8.1-10.3s-2.8-9.9-7.9-9.9-6.4,2.3-7.3,6c-.2.6-.3,1.3-.3,2v4.6h0Z"/>
        <path class="cls-4" d="M1390.2,835.8l-.4-3.4h0c-1.5,2.1-4.3,4-8.1,4s-8.1-3.8-8.1-7.6c0-6.5,5.7-10,16-9.9v-.6c0-2.2-.6-6.2-6.1-6.1-2.5,0-5.1.7-6.9,2l-1.1-3.2c2.2-1.4,5.4-2.3,8.8-2.3,8.1,0,10.1,5.6,10.1,10.9v10c0,2.3,0,4.5.4,6.4h-4.4v-.2ZM1389.4,822.2c-5.2-.1-11.2.8-11.2,6s2.1,4.6,4.5,4.6c3.5,0,5.7-2.2,6.5-4.5.2-.5.2-1.1.2-1.5v-4.6Z"/>
        <path class="cls-4" d="M1402,816.4c0-2.8,0-5-.2-7.2h4.3l.3,4.4h0c1.3-2.5,4.4-5,8.8-5s9.4,2.2,9.4,11.4v15.9h-4.8v-15.4c0-4.3-1.6-7.9-6.2-7.9s-5.7,2.3-6.5,5c-.2.6-.3,1.5-.3,2.2v16h-4.8v-19.4h-.1Z"/>
        <path class="cls-4" d="M1433.6,809.2l5.8,15.7c.6,1.8,1.3,3.8,1.7,5.4h0c.5-1.6,1.1-3.6,1.7-5.5l5.3-15.6h5.1l-7.3,19c-3.5,9.2-5.8,13.8-9.1,16.7-2.4,2.1-4.8,2.9-5.9,3.1l-1.2-4c1.2-.4,2.8-1.1,4.2-2.4,1.3-1.1,2.9-2.9,4-5.4.2-.5.4-.9.4-1.2s0-.7-.3-1.2l-9.8-24.6h5.3Z"/>
      </g>
    </g>
  </g>
</svg>